<svg width="445" height="239" viewBox="0 0 445 239" fill="none" xmlns="http://www.w3.org/2000/svg">
<g clip-path="url(#clip0_775_5078)">
<path d="M412.469 146.014C412.865 146.795 414.551 145.892 415.129 145.71C416.054 145.689 415.414 146.105 415.038 146.247C413.677 146.724 412.124 146.684 410.773 147.283L410.428 146.623L390.342 151.941L392.83 152.245C386.788 152.458 381.162 154.691 375.384 156.142C368.114 157.979 360.823 159.724 353.562 161.592L356.68 161.896L353.43 162.535L352.821 161.896L348.272 162.84L349.511 163.459C344.606 163.743 339.935 165.154 335.182 166.27C335.122 166.859 335.832 166.524 336.178 166.483C338.137 166.29 339.996 165.641 341.915 165.367C343.458 165.144 345.327 165.215 346.83 164.981C349.876 164.514 353.288 163.51 356.253 163.185C356.598 163.144 357.665 162.881 357.614 163.459C343.905 166.087 329.953 167.498 316.478 171.253L347.175 166.27L347.327 166.889C336.431 168.31 325.779 171.101 314.843 172.268L289.984 177.788C289.903 178.326 290.726 178.123 291.071 178.093C291.883 178.032 293 177.859 293.833 177.738C303.967 176.266 314.102 173.496 324.216 171.943L333.304 170.938L329.313 172.085C321.179 172.684 313.309 174.906 305.328 176.459C298.545 177.778 289.69 178.661 283.232 180.539C282.48 180.762 281.82 181.148 281.251 181.675C280.886 182.02 280.713 182.244 281.394 182.132C287.334 181.158 293.234 179.503 299.215 178.763C299.905 178.681 301.865 178.265 302.139 179.037L280.236 182.528L274.092 185.572C278.743 184.405 283.455 183.614 288.177 182.68C288.949 182.528 289.578 182.041 290.208 181.909C291.721 181.594 293.579 181.706 295.133 181.219C296.219 181.523 295.102 181.655 294.716 181.746C293.031 182.152 291.264 182.173 289.599 182.548C287.629 182.995 285.577 183.725 283.445 184.182C244.502 192.605 204.98 200.328 165.581 207.787C162.067 208.457 158.503 209.106 155.182 209.857C151.598 210.669 147.993 211.39 144.449 212.364L237.313 195.852L130.111 216.413L131.482 216.687L166.464 210.527L172.811 210.182C171.48 211.613 169.104 210.933 167.398 211.156C161.407 211.948 155.467 213.49 149.506 214.454C141.697 215.723 133.005 216.372 125.389 218.067C124.16 218.341 122.627 218.524 121.713 219.376L152.745 215.195L153.182 215.794C151.253 216.21 149.323 216.677 147.373 217.002C140.184 218.199 132.832 218.473 125.673 219.924C123.815 220.3 121.957 221.223 119.905 221.629C114.117 222.796 108.065 222.949 102.389 224.522C102.318 225.08 103.089 224.826 103.435 224.796C111.375 224.045 119.205 222.908 127.166 222.34C129.105 222.208 131.146 222.482 133.076 222.34C135.432 222.157 138.143 221.284 140.56 221.102C140.986 221.071 142.489 220.838 142.58 221.406C139.626 221.376 136.539 222.35 133.695 222.654C132.588 222.776 131.39 222.553 130.273 222.654C120.657 223.557 111.03 224.349 101.434 224.968C99.5251 225.09 96.1436 226.186 94.1025 226.683C93.2495 226.886 93.2292 226.998 94.1228 227.018C100.601 225.831 107.202 225.952 113.752 225.445C115.224 225.333 116.94 224.897 118.423 224.816C118.768 224.796 119.601 224.613 119.519 225.141C115.204 225.547 110.898 226.277 106.582 226.693C99.7586 227.363 92.5184 227.312 85.7961 228.967C85.4813 229.048 84.8618 229.058 84.9329 229.494C88.3652 229.89 91.6857 228.774 95.0672 228.571C95.5749 228.54 97.1794 228.297 97.4028 228.875C92.9652 229.21 88.6292 230.154 84.151 229.799L75.2861 231.991C78.8097 231.859 82.4552 230.824 85.9484 230.631C86.385 230.611 86.649 230.397 86.8115 231.057C85.2477 231.473 83.5925 231.209 82.0186 231.412C72.8693 232.579 66.1673 234.416 57.2718 236.578C55.84 236.923 49.1786 238.668 48.3358 238.547C46.3861 238.262 45.8073 235.076 45.2793 233.483C38.8108 214.079 33.3984 193.194 27.7525 173.445C17.8822 138.91 8.17444 104.325 0 69.3635L2.85344 64.4619C7.6464 64.5025 12.0941 62.5844 16.6738 61.4478C21.2535 60.3112 25.8637 60.4533 29.6209 57.2566C34.0686 53.4611 37.115 47.9201 39.5013 42.6835C55.7487 38.8069 70.483 30.6172 85.8773 24.4064C102.805 17.5765 128.506 8.77793 146.642 12.8677C155.142 14.7858 162.707 20.2862 167.987 27.0348C175.898 13.6085 190.368 6.77871 205.214 3.82554C227.31 -0.56869 249.285 3.02382 271.462 1.82632C277.779 1.48128 284.115 0.72015 290.391 0.00976562C291.761 0.466441 292.381 1.9278 293.315 2.69908C294.371 3.56169 297.509 5.8958 298.595 6.45396C299.479 6.91064 300.291 6.68737 301.134 7.03242C301.977 7.37746 302.85 8.71704 304.018 9.13312C305.044 9.50861 306.597 9.37668 307.44 9.76232C308.354 10.1784 310.436 12.8271 311.197 13.1722C312.751 13.8724 316.061 12.7459 317.595 13.6288C358.081 54.5267 401.979 91.8929 444.263 130.903C445.167 131.989 443.938 135.693 443.156 136.657C441.958 138.129 433.621 140.321 431.306 141.011C425.091 142.858 418.745 144.37 412.469 146.014ZM315.747 27.4509C307.085 18.7943 298.413 9.97544 290.116 0.923116C286.826 1.32905 283.475 1.84662 280.165 2.11047C270.386 2.89189 260.617 2.79041 250.889 2.71937C234.825 2.59759 219.126 1.42038 203.346 5.06364C189.718 8.20963 175.745 15.1206 168.586 27.6234L168.789 28.3642C191.597 62.7874 215.856 96.2262 239.13 130.325C242.745 135.622 246.492 140.909 249.914 146.329C254.169 153.077 259.023 160.303 259.764 168.411L262.516 161.977C267.715 152.357 281.698 144.309 291.558 140.24C330.989 123.951 375.313 131.634 415.8 119.882L419.323 122.328L416.521 118.908C417.942 119.172 418.826 121.079 419.75 121.912C421.243 123.272 423.03 124.185 424.786 125.139L425.091 124.51C426.076 125.21 427.285 126.387 428.391 126.834C428.787 126.996 429.204 126.681 429.6 126.844C430.412 127.189 431.783 128.589 433.042 128.549C424.979 120.582 416.165 113.326 407.798 105.664C380.736 80.8718 353.908 55.6328 327.363 30.3229C324.713 27.7959 307.694 10.9192 306.293 10.5742C305.958 10.493 305.612 10.493 305.267 10.5133L305.419 11.1425C333.497 39.5376 361.838 67.6891 390.972 95.0794C398.192 101.869 405.777 108.293 412.794 115.325C412.479 115.833 412.103 115.224 411.86 115.011C409.524 113.062 407.239 110.85 405.005 108.78C369.495 75.9701 335.061 41.9935 300.708 8.0777C300.301 7.96607 299.753 7.91532 299.987 8.48363C300.281 9.19401 305.501 13.913 306.536 15.0192C307.694 16.2573 308.75 17.6983 309.958 18.9161C309.369 19.0481 309.217 18.5914 308.872 18.2971C304.648 14.7452 300.901 9.82321 296.717 6.14951L296.26 6.30174C310.283 21.4735 325.068 35.8436 339.884 50.2238L338.95 49.9092C337.477 48.1535 335.599 46.7936 333.964 45.2409C327.8 39.4056 321.768 33.4181 315.787 27.4407L315.747 27.4509ZM257.886 164.382C255.571 157.34 251.275 150.824 247.295 144.603C231.758 120.298 213.896 96.4393 197.486 72.611C190.449 62.4018 183.483 52.1418 176.476 41.9021C166.2 26.8826 160.168 13.9434 139.321 12.6952C110.573 10.9801 74.3519 32.1293 47.2087 41.5063C46.2338 41.8412 40.4559 43.3635 40.3746 43.7187C45.2082 60.0169 50.387 76.2238 55.9314 92.2988C65.7306 120.694 75.9563 149.18 86.4764 177.322C88.355 182.345 90.3453 187.328 92.3864 192.29C92.7215 192.524 93.0566 192.412 93.412 192.372C95.778 192.067 101.607 189.743 104.237 188.84C127.663 180.782 150.247 169.649 173.136 160.211C195.354 151.037 236.348 133.714 254.281 158.517C255.621 160.374 256.434 162.627 257.886 164.413V164.382ZM91.4623 194.594C91.5232 193.904 91.7873 193.468 91.6451 192.737C91.2795 190.819 88.7714 186.465 87.8981 184.314C73.8949 149.708 61.5774 112.727 49.7981 77.2488C46.2846 66.6742 42.9437 56.0286 39.5826 45.4134C39.0038 45.8194 39.1662 46.1035 39.2373 46.6617C39.5419 48.9857 41.5119 54.1106 42.3243 56.6883C54.7129 96.2871 68.7364 136.576 83.4504 175.363C85.4 180.498 87.3599 186.069 89.5533 191.073C90.0407 192.199 90.6195 193.813 91.4725 194.604L91.4623 194.594ZM38.4859 47.8998L37.6024 49.2191C45.0762 73.0068 52.7429 96.7641 60.9173 120.318C69.1426 144.025 77.7638 170.847 87.9793 193.559C88.223 194.097 89.3806 196.786 89.7462 196.766C91.4623 195.142 90.3149 194.97 89.6243 193.468C86.6795 187.013 84.1002 180.437 81.5616 173.81C67.6092 137.398 54.784 99.839 42.832 62.7062C41.2581 57.8147 39.674 52.9029 38.4757 47.9099L38.4859 47.8998ZM87.7356 199.577L89.2486 197.608C86.2632 191.966 83.9175 185.968 81.5718 180.031C66.4922 141.813 52.8444 101.25 40.3543 62.077C39.1561 58.312 38.2726 54.344 36.7799 50.7109C36.5057 51.0153 36.0995 51.1473 36.1402 51.6547C36.1909 52.3448 37.1962 55.2675 37.4806 56.2316C46.244 86.0779 57.15 116.066 67.7108 145.304C74.2706 163.439 80.6782 181.624 87.7356 199.577ZM35.6832 52.5782C35.5309 52.4665 34.1702 53.6843 34.485 54.2121C39.0444 68.5821 43.9186 82.8507 48.5491 97.1903C49.727 100.854 50.4886 104.73 51.6665 108.394C55.9619 121.729 61.161 134.587 65.9235 147.719C72.1178 164.809 77.7841 184.791 85.532 201.008C85.6945 201.353 85.8062 201.87 86.3241 201.759C86.9334 201.231 87.6544 200.734 87.37 199.82C78.17 177.098 69.6909 154.041 61.5469 130.913C52.418 104.984 43.6952 78.8725 35.6832 52.5782ZM60.2065 134.577C54.8043 121.496 50.8846 107.602 46.4978 93.9327C42.3345 80.9732 38.0594 68.0442 33.9671 55.0645C33.571 54.5571 33.6523 54.8717 33.3476 55.0645C32.7587 55.44 32.0377 56.2417 32.3119 57.0029C35.9878 67.7398 39.0241 78.6899 42.5375 89.4877C47.7468 105.512 54.0021 121.303 57.9014 137.662C58.4802 140.087 59.9628 142.249 60.2979 144.756L31.8854 57.7741C31.4081 56.6477 30.4637 57.6016 30.5348 58.5251L46.2744 109.886L37.9578 85.0326L30.1388 59.5196L29.6108 58.8194C29.0116 59.2152 28.0774 59.5196 28.25 60.4431L39.7247 98.0529L37.4603 92.0654C35.7746 86.9811 34.5256 81.7547 32.9516 76.6399C31.6417 72.3877 29.8342 65.0099 28.0368 61.3058C27.8743 60.9607 27.7525 60.6055 27.4174 60.3823C25.0412 61.1637 26.8792 63.4876 27.4174 65.3549C28.8999 70.5306 30.2607 75.757 31.7838 80.9225C35.0536 92.0552 38.7702 103.076 41.908 114.25C41.4612 114.321 41.5018 113.722 41.3698 113.397C39.9278 109.734 38.6687 105.228 37.4704 101.412C33.3172 88.2191 29.6717 74.8639 25.7114 61.6204L24.4522 62.0973L24.2085 62.6352C37.6024 111.53 54.0021 159.511 69.8838 207.614L69.6503 208.629C58.856 175.383 47.493 142.3 37.1556 108.891C32.5861 94.1255 28.4633 79.2379 23.975 64.4416C23.8227 63.9342 23.8328 63.3963 23.8328 62.8686L22.0456 63.3253C22.2995 64.2691 22.3096 65.2332 22.5432 66.1871C23.975 72.266 26.2801 79.177 28.047 85.2964C39.3998 124.621 52.418 164.433 65.5986 203.19C66.2485 205.118 67.2741 207.229 67.9849 209.218C68.1677 209.746 68.2591 210.233 67.6295 209.573C64.6847 201.81 61.9937 193.945 59.3637 186.059C46.4775 147.475 33.439 107.755 22.6853 68.5415C22.2588 66.9685 22.1776 65.2433 21.7003 63.6703C21.284 63.0614 18.593 64.056 17.9228 64.2691L17.6182 64.5735C17.933 65.1215 18.5524 65.4564 17.7705 65.974L17.2628 64.4619C14.0336 63.8022 15.9833 65.9537 16.4606 67.5977C18.2478 73.7273 20.5427 79.725 22.5127 85.8444C36.0285 127.818 48.0413 170.786 63.1107 212.212C63.9434 214.495 64.9284 217.194 65.8931 219.397C66.0251 219.691 65.7103 219.955 66.3704 219.813L68.2896 218.26C67.1421 214.972 65.3854 211.938 64.116 208.7C59.5769 197.04 55.7283 184.06 51.8087 172.105C40.7706 138.484 30.3114 104.68 20.1061 70.7944L20.7255 70.3378C21.2738 71.2511 21.7308 72.1645 22.0761 73.1996C26.3613 86.0778 29.692 99.8694 33.7437 112.93C41.2378 137.124 48.8943 161.389 56.886 185.42C60.5315 196.4 64.1363 207.401 68.8887 217.956C69.2746 218.504 69.2238 218.098 69.5081 217.956C71.539 216.981 71.407 216.717 70.9094 214.525C72.1178 214.211 71.275 216.088 71.5289 216.393L74.0371 214.962L71.2141 205.493L74.0167 214.211C74.2909 214.465 76.8296 212.648 76.7686 211.938C73.6004 203.129 70.1275 194.3 67.7818 185.247L76.9717 211.41C77.3982 212.039 78.4137 210.415 79.023 210.294C76.7788 204.773 74.4331 199.141 73.0825 193.346L79.0027 209.847L81.4296 207.472C77.8044 197.618 73.7933 187.886 70.8993 177.768L81.8053 207.046C82.5364 207.249 82.3334 206.853 82.5161 206.65C82.8208 206.305 83.6636 205.402 83.6738 205.037C83.6738 204.57 80.5055 197.811 80.0181 196.543C72.788 177.768 66.6141 158.567 60.3081 139.468C61.3032 140.229 61.7297 141.873 62.1765 143.04C67.4467 156.771 71.539 171.486 76.5046 185.41C77.3271 187.713 83.1863 204.113 84.151 204.56L85.5422 202.55C82.2318 194.117 78.8097 185.735 75.6516 177.24C70.4322 163.175 65.9235 148.409 60.2065 134.587V134.577ZM64.9081 220.99C65.4158 220.503 64.9386 219.265 64.7558 218.646C59.8816 201.85 52.946 184.507 47.4422 167.742C36.9525 135.744 27.4377 103.34 16.9988 71.4033C16.2981 69.262 15.303 67.1918 14.6429 65.0403L13.7188 64.7257L13.3025 65.4361L19.1719 85.5907L19.7913 84.3526C20.8474 89.5689 22.533 94.7344 24.0765 99.8491C28.3008 113.915 32.6571 127.96 37.1048 141.955L36.9322 143.213C34.028 133.694 30.7379 124.317 27.8032 114.798C25.4982 107.308 22.3299 98.2863 20.624 90.8171C20.5224 90.3706 20.6646 90.056 20.7153 89.6399L20.1061 89.9545L12.5917 65.0505L8.56031 65.6594C21.9745 119.943 38.5366 173.384 55.312 226.683L59.9527 223.984L57.81 216.413L60.6025 223.436C61.0798 223.801 62.7553 222.593 62.471 221.913L41.2885 155.685L58.4193 207.543C60.0136 212.364 62.0039 217.052 63.1006 222.015L64.8979 221L64.9081 220.99ZM3.84859 66.522L2.61988 66.867L31.1746 169.984L32.4033 169.639L3.84859 66.522ZM416.511 121.404C410.976 122.023 405.574 123.738 400.07 124.743C377.954 128.792 355.431 128.691 333.152 131.37C327.902 131.999 322.55 132.963 317.412 134.019C318.295 135.135 319.108 134.12 319.808 133.988C347.277 128.721 376.613 131.756 403.807 124.753L416.511 121.414V121.404ZM319.91 136.048C333.72 133.329 348.881 133.745 363.067 132.618C378.867 131.36 399.969 128.589 415.028 123.809C415.881 123.535 417.292 123.119 417.77 122.348C406.874 125.342 395.785 127.747 384.534 129.158C368.916 131.106 353.166 131.116 337.518 132.628C329.689 133.389 321.921 134.496 314.294 136.373L315.066 137.236C316.508 135.835 317.524 137.286 319.28 136.992L317.727 136.373C318.427 136.018 319.26 136.18 319.91 136.058L319.595 136.677C320.123 137.053 328.592 135.855 330.044 135.754C330.389 135.724 331.496 135.5 331.435 136.058C326.967 136.82 322.378 136.951 317.899 137.642C317.422 137.713 317.087 138.149 316.62 138.23C315.472 138.423 313.97 138.2 312.741 138.555L313.36 139.174C311.959 138.565 311.573 139.174 310.619 139.397C308.486 139.895 304.495 140.645 302.657 141.417C302.15 141.63 302.211 142.168 302.099 142.249C301.997 142.32 300.982 141.64 300.251 142.137C300.027 142.29 300.007 142.807 299.916 142.878C299.824 142.949 298.86 142.218 297.773 143.101C297.55 143.284 297.489 143.761 297.418 143.812C297.346 143.863 296.514 143.335 295.661 143.761C294.716 144.238 295.468 145.09 293.599 144.492L293.092 145.73L291.538 145.415V146.349C289.944 145.141 288.512 147.617 290.127 147.597C311.949 137.002 337.122 137.672 360.874 135.135C378.766 133.217 399.177 130.497 416.267 125.088C417.485 124.702 419.354 124.144 420.247 123.312C419.78 123.251 419.597 123.089 419.1 123.231C417.008 123.83 414.612 124.956 412.388 125.585C382.239 134.039 351.917 132.537 321.261 136.373C320.793 136.434 320.347 136.14 319.9 136.089L319.91 136.048ZM419.628 125.453C411.423 127.422 403.391 130.061 395.074 131.593C387.225 133.044 378.482 134.232 370.541 135.105C343.631 138.058 314.376 136.403 289.7 148.379C289.02 148.713 284.085 151.443 284.064 151.768C283.983 152.895 285.78 151.271 285.963 151.179C286.684 150.774 287.72 151.058 287.811 149.749H288.268C288.126 151.474 288.746 149.901 288.979 149.769C298.23 144.522 315.361 141.386 325.982 140.097C349.866 137.195 372.46 136.911 396.323 131.908C403.381 130.426 411.098 128.731 417.892 126.367C418.338 126.215 419.455 125.89 419.628 125.464V125.453ZM423.994 125.453L408.549 130.101C377.618 140.229 344.078 136.728 312.68 142.99C300.139 145.486 275.738 154.65 269.279 166.27C268.599 167.488 266.03 172.461 268.172 172.795C268.365 168.219 271.483 163.987 274.803 161.084C287.111 150.317 308.334 144.735 324.469 142.624C353.41 138.839 381.497 138.606 409.981 130.588C413.759 129.523 419.963 127.808 423.385 126.215C423.852 126.001 424.157 126.265 424.005 125.453H423.994ZM426.178 126.387L410.357 131.593C377.852 142.117 341.549 138.382 308.943 146.095C299.52 148.328 283.303 154.295 276.591 161.105C276.266 161.439 275.859 161.642 275.971 162.201L280.876 158.476C308.181 141.66 340.818 144.126 371.444 140.057C389.357 137.672 408.783 133.968 425.487 127.097C425.954 126.905 426.33 127.29 426.168 126.397L426.178 126.387ZM428.676 127.331C407.717 135.734 385.184 139.56 362.762 141.965C342.169 144.177 322.195 143.954 302.211 150.286C292.848 153.26 275.788 160.546 271.858 170.096C271.29 171.486 271.107 173.009 270.477 174.379C267.979 174.216 267.116 173.151 264.314 173.455C261.318 173.78 259.561 174.419 256.17 174.368C255.601 174.368 255.002 174.044 254.596 174.064C253.55 174.115 253.672 175.678 252.595 175.596C250.849 155.442 230.428 151.291 213.622 154.873L197.74 159.085C197.964 158.567 199.152 158.222 199.67 158.06C217.014 152.57 245.02 146.734 252.189 169.609C252.595 170.908 252.585 172.795 253.519 173.729C253.712 160.242 240.948 152.712 228.762 151.91C219.146 151.281 211.723 152.793 202.655 155.442C184.062 160.861 167.581 169.02 149.953 176.591C136.549 182.345 123.063 187.886 109.537 193.356C109.405 193.884 109.994 193.549 110.126 193.701C110.319 193.924 109.334 195.223 110.309 194.909C112.086 194.34 114.087 193.326 115.915 192.717C140.692 184.547 162.341 173.059 186.215 163.307C189.231 162.079 192.267 160.902 195.425 160.039C196.268 159.998 196.126 160.09 195.486 160.404C193.861 161.216 192.511 162.018 190.581 161.886L191.201 162.505C188.845 163.388 186.154 164.058 183.849 164.951C171.897 169.599 159.518 176.226 147.475 181.553C127.704 190.311 107.009 196.685 86.6389 203.92L84.6181 205.483C101.749 199.181 119.459 194.432 136.427 187.653C155.355 180.092 172.882 169.396 192.196 162.718L212.393 157.512C212.393 156.903 211.114 157.228 210.758 157.289C206.483 158.03 201.812 160.12 197.507 160.861C197.161 160.922 195.872 161.247 195.872 160.638C209.418 157.4 225.787 151.768 239.404 157.461C247.031 160.648 251.417 168.066 251.651 176.205C250.26 174.896 250.422 172.237 249.874 170.36C247.823 163.357 241.943 159.176 235.14 157.37C222.162 153.92 207.194 158.902 194.694 162.728C174.852 168.797 156.452 180.346 136.965 188.201C126.039 192.595 114.716 196.411 103.617 200.348C97.4941 202.52 89.0455 204.55 83.3894 207.229C82.8411 207.493 82.0795 208.041 81.8053 208.599C86.3241 207.219 90.8226 205.727 95.2906 204.164C109.152 199.333 123.703 194.564 137.28 189.124C165.51 177.819 197.73 155.777 229.077 157.816C240.064 158.527 249.468 165.144 249.782 176.824C248.98 176.956 249.214 176.713 249.072 176.155C248.076 172.42 248.198 170.705 245.731 167.336C234.774 152.428 209.063 159.42 194.46 164.362C179.726 169.355 166.911 176.753 152.969 183.319C130.568 193.874 105.983 201.789 82.5872 210.162C81.1453 210.679 79.1753 210.547 78.3731 212.019C80.0892 211.988 81.8764 211.319 83.5214 210.781C98.6111 205.879 114.655 200.044 129.562 194.503C156.106 184.639 182.793 167.102 210.19 161.713C223.421 159.115 244.766 157.806 247.904 174.957L246.208 170.898C240.593 159.247 222.558 159.907 211.754 162.028C183.331 167.63 159.285 184.75 132.456 194.594C115.742 200.724 98.8752 206.823 82.11 212.8C79.3987 213.764 75.743 214.13 73.702 216.068C76.3828 215.469 79.0534 214.749 81.6835 213.937C91.8076 210.831 102.409 206.224 112.665 202.53C126.414 197.588 139.961 193.468 153.375 187.47C175.725 177.474 205.559 159.633 230.885 162.85C238.968 163.875 245.599 168.523 246.35 177.139C245.132 176.307 245.071 174.521 244.441 173.283C237.79 160.151 218.039 163.002 206.26 165.884C180.041 172.308 157.041 187.977 131.735 196.989L89.2791 212.323L90.7413 212.08C105.638 206.752 120.982 202.55 135.787 196.989C157.924 188.667 178.061 176.398 200.37 168.716C212.21 164.636 225.99 161.521 237.739 167.518C241.202 169.284 244.725 172.643 244.786 176.824C243.903 176.987 244.279 176.611 244.086 176.144C241.09 168.787 235.343 166.331 227.645 165.925L230.763 165.306C215.653 164.139 202.046 168.269 188.479 174.277C174.679 180.397 161.509 188.018 147.546 193.792C138.062 197.72 128.11 200.561 118.402 203.91C105.648 208.325 93.0464 213.155 79.9876 216.606C75.7024 217.732 71.0922 217.986 67.1421 220.117C67.0609 220.635 67.5178 220.401 67.8428 220.351C73.9558 219.346 81.0843 217.55 87.0958 215.916C98.0222 212.922 108.451 208.528 119.184 205.006C119.489 204.905 120.19 204.58 120.119 205.169C108.217 209.279 96.4888 214.14 84.344 217.539C77.4388 219.478 70.2697 220.503 63.4966 222.867L61.5266 224.166C71.8538 221.223 82.374 219.102 92.6199 215.845C110.33 210.212 130.131 203.454 147.221 196.289C168.211 187.49 185.869 175.201 208.494 169.69C217.308 167.549 237.871 163.966 242.552 174.226C243.243 175.738 243.04 177.758 244.959 178.052C249.397 178.742 251.874 176.297 255.672 175.414C257.987 174.876 262.831 174.47 265.207 174.642C267.076 174.774 269.218 175.657 271.066 175.566C271.625 175.535 274.336 174.896 274.631 174.582C274.813 174.389 275.413 172.258 275.788 171.537C280.063 163.368 295.762 157.441 304.313 155.188C326.257 149.424 349.368 150.002 371.739 146.897C393.226 143.913 413.84 137.662 433.946 129.807C433.946 129.269 432.717 129.269 432.392 129.33C430.3 129.726 426.178 132.06 423.832 132.933C410.976 137.692 397.054 141.691 383.528 144.045C366.316 147.039 349.196 146.43 331.892 148.196C321.829 149.221 311.969 151.251 302.129 153.493C302.048 154.031 302.86 153.818 303.185 153.767C305.602 153.422 308.313 152.458 310.791 152.022C315.503 151.19 321.21 150.297 325.952 150.043C326.317 150.023 327.678 149.83 327.678 150.368C312.03 152.073 294.107 154.63 281.14 164.129C278.002 166.432 274.773 169.771 274.072 173.729C273.148 173.881 273.453 173.425 273.585 172.775C274.895 166.341 284.907 160.485 290.482 157.888C294.046 156.223 297.956 155.107 301.266 153.412C303.744 152.144 309.41 151.068 312.345 150.459C336.635 145.446 361.676 146.471 386.026 141.863C394.841 140.199 403.502 137.753 412.134 135.409C412.205 134.851 411.454 135.125 411.129 135.176C408.275 135.622 405.107 136.84 402.233 137.5C387.458 140.889 372.257 143.193 357.127 144.441C341.458 145.73 325.058 145.476 309.847 149.83C299.885 152.681 277.24 160.323 273.524 170.837C273.128 171.953 272.772 173.201 273.138 174.348H271.889C271.889 168.391 277.413 163.418 282.074 160.394C309.045 142.838 346.84 146.044 377.608 141.254C392.414 138.941 409.179 135.48 423.121 130.051C424.918 129.35 427.254 128.579 428.655 127.331H428.676ZM435.591 134.252C435.885 134.13 436.911 134.973 437.398 134.019C436.363 131.867 435.825 133.339 434.921 133.663C434.078 133.958 433.042 134.343 432.342 134.232L429.935 135.257L430.778 135.998C432.23 135.622 433.794 135.186 435.307 134.77C435.55 134.699 435.56 134.262 435.601 134.252H435.591ZM425.822 136.393C425.365 136.109 417.455 138.25 417.455 138.687L418.846 139.489L419.658 138.565C421.192 139.631 422.024 138.007 422.156 137.956C422.339 137.895 422.816 138.271 423.182 138.21C424.126 138.037 424.979 137.246 426.168 137.591L425.812 136.393H425.822ZM304.008 137.905L303.856 136.982C302.627 137.824 300.606 137.672 299.641 138.839L303.998 137.895L304.008 137.905ZM415.627 140.047L417.313 139.793L417.13 138.535L415.261 138.849L415.617 140.047H415.627ZM411.22 141.65C411.342 140.808 411.057 140.331 410.154 140.402C409.676 140.443 405.625 141.64 405.066 141.884C404.64 142.076 404.579 141.924 404.67 142.574L406.041 142.878C406.833 141.447 406.711 142.35 407.595 142.249C408.773 142.107 409.92 141.407 411.22 141.65ZM393.145 144.766C392.8 146.572 394.942 145.699 396.11 145.395C396.597 145.263 397.196 145.415 397.196 144.613C396.059 143.386 394.607 145.273 393.145 144.766ZM282.196 149.119L286.237 146.785C285.455 145.72 284.562 147.09 283.821 147.485C283.262 147.78 282.5 148.023 281.881 148.196L282.196 149.119ZM226.102 146.633C217.755 146.582 208.331 148.206 200.462 151.068C200.137 151.19 199.538 151.179 199.609 151.606C206.544 149.952 213.835 147.597 220.964 146.937C222.264 146.816 223.685 146.988 225.015 146.937C225.391 146.917 226.173 147.171 226.102 146.633ZM385.356 147.577C384.899 147.506 384.524 147.242 384.026 147.313C382.899 147.475 380.076 148.328 378.786 148.713C378.38 148.835 376.633 149.292 376.633 149.596C377.172 151.027 377.293 150.083 378.157 149.931C379.284 149.728 381.914 149.292 382.787 148.927C383.173 148.764 383.173 148.267 383.214 148.247C383.386 148.186 385.569 148.998 385.346 147.567L385.356 147.577ZM257.256 170.918C257.601 170.482 256.261 166.625 255.946 165.864C241.638 131.065 188.652 155.401 164.91 166.006C161.925 167.336 158.655 168.767 155.111 170.218C151.486 171.699 146.246 174.45 142.184 176.317C141.524 176.621 139.707 176.276 140.082 177.788C163.083 168.005 185.798 157.045 210.139 150.784C219.339 148.896 229.362 147.993 238.409 150.997C248.168 154.234 254.332 160.688 256.159 170.948C256.291 171.344 257.216 170.979 257.256 170.928V170.918ZM287.141 149.089C287.375 148.673 287.111 148.145 286.715 147.891C286.014 148.145 285.547 148.927 285.009 149.241C281.962 151.017 278.885 152.549 276.002 154.934C275.077 155.706 273.554 157.045 273.168 158.162C275.301 155.98 278.032 154.589 280.51 152.874C281.759 152.012 283.435 150.804 285.039 149.931C285.425 149.718 287.009 149.353 287.161 149.089H287.141ZM281.881 148.815C281.282 148.713 280.967 148.856 280.47 149.119C275.809 151.555 269.817 157.167 267.177 161.683C265.603 164.362 264.679 167.001 264.375 170.116C264.324 170.593 264.019 170.877 264.598 171.243C265.024 166.747 267.228 162.434 270.061 158.953C271.351 157.36 274.113 154.63 275.697 153.372C277.281 152.113 279.759 151.098 281.251 149.891C281.617 149.596 282.003 149.383 281.891 148.825L281.881 148.815ZM254.464 172.176C255.042 172.268 255.652 171.689 255.642 171.151C255.631 170.451 254.068 166.574 253.672 165.651C246.35 148.805 225.929 147.759 210.139 151.403C192.805 155.401 174.628 163.55 158.259 170.573C151.598 173.425 143.017 176.652 136.782 179.96C136.366 180.183 135.99 180.366 136.021 180.904L135.554 180.285C134.985 180.934 134.183 181.188 133.441 181.543C132.304 182.091 131.329 182.315 130.019 182.852C129.248 183.167 126.333 184.283 125.937 184.618C125.622 184.882 125.754 185.247 125.744 185.582L125.277 184.953C124.373 184.953 124.302 186.11 124.18 186.201C123.124 187.023 124.251 185.349 123.409 185.582C122.83 186.181 122.058 186.08 122.312 187.135L123.561 186.993C130.314 183.989 137.229 181.381 144.022 178.468C168.393 168.016 204.463 147.638 231.189 151.048C243.446 152.61 252.737 159.43 254.454 172.176H254.464ZM372.531 150.418L371.617 150.5L371.323 151.606L370.855 150.672L359.178 153.483L359.797 154.721L357.614 155.34C358.711 155.178 360.66 154.965 361.595 154.508C362.214 154.214 361.787 153.666 362.173 153.463C363.351 152.834 366.184 152.509 367.576 152.235L367.108 152.854L370.074 152.225L369.454 151.91L369.921 151.291C370.795 152.478 371.983 151.433 373.191 151.596L372.521 150.398L372.531 150.418ZM322.083 163.449C323.048 163.926 323.027 164.697 324.571 164.068L323.637 163.144C324.581 163.083 324.835 163.845 325.891 163.713C327.252 163.54 328.978 162.414 330.491 162.515C330.674 162.119 329.171 162.17 329.872 161.582C330.481 161.064 330.938 162.211 331.009 162.211C331.588 162.292 332.126 161.977 332.674 161.886L331.74 161.571C332.238 160.323 332.755 161.47 333.476 161.571C334.441 161.713 335.7 160.912 336.726 160.942L335.477 160.628C336.046 159.176 337.914 161.693 338.899 160.009L337.345 159.694L344.829 158.131C343.976 159.369 345.835 158.364 346.383 158.436L345.134 158.121L345.591 157.532C347.033 158.537 348.302 157.877 349.805 157.502L349.186 157.187C349.379 156.477 350.15 156.538 350.739 156.568L350.272 157.502C350.821 157.177 352.242 157.522 351.988 156.568C350.455 156.944 351.816 155.442 350.282 155.635L322.063 162.799C322.073 163.002 322.042 163.215 322.063 163.418C319.423 162.109 319.646 165.752 322.378 164.667C322.489 164.545 322.093 163.713 322.063 163.418L322.083 163.449ZM174.364 160.962L162.209 165.783L161.275 166.554C165.225 165.154 169.561 163.479 173.359 161.663C173.735 161.48 174.283 161.5 174.364 160.952V160.962ZM317.727 164.697C318.509 165.296 319.443 165.783 320.215 164.849L319.605 163.905L315.554 164.697C315.381 165.834 317.402 166.422 317.91 165.631L317.737 164.687L317.727 164.697ZM269.726 174.044L270.914 169.467L274.082 164.068C271.808 165.935 269.432 170.705 269.117 173.587C269.046 174.206 269.178 174.044 269.716 174.034L269.726 174.044ZM263.186 171.233C262.354 169.122 263.999 166.859 264.121 164.697C263.582 164.93 263.288 166.098 263.095 166.635C262.638 167.965 262.191 169.538 262.252 170.928L257.886 171.243C258.129 171.73 259.744 171.882 260.211 171.872C261.176 171.852 262.191 171.222 263.186 171.233ZM301.205 169.061C301.672 169.274 301.784 169.71 302.525 169.639C303.906 169.507 306.679 168.391 308.212 167.995C309.969 167.549 311.878 167.265 313.665 166.889L313.36 165.641C314.183 166.737 314.548 166.909 315.848 166.108L315.168 165.073L301.246 168.493C301.114 168.655 301.236 168.888 301.205 169.061C300.87 168.909 300.657 168.493 300.18 168.513C299.195 168.543 298.504 169.041 299.022 169.994C298.728 169.507 296.26 168.817 296.534 169.832L297.56 170.888L301.195 169.984C301.286 169.69 301.154 169.345 301.205 169.071V169.061ZM265.685 171.547C266.273 171.446 266.192 170.888 266.345 170.492C266.984 168.787 267.624 167.051 268.172 165.316L265.979 169.812L265.685 171.537V171.547ZM156.604 168.442C155.203 169.051 153.365 169.568 152.075 170.299C151.649 170.543 151.161 170.543 151.313 171.243C152.776 170.411 154.482 169.934 155.985 169.203C156.431 168.98 156.766 169.274 156.604 168.442ZM294.412 171.162C294.848 171.436 296.514 171.263 296.534 170.776L295.925 169.822C295.123 169.304 294.574 170.289 294.056 170.421C293.62 170.542 293.122 170.268 292.564 170.502C292.157 170.674 292.168 171.172 292.137 171.182C291.985 171.233 291.355 170.847 290.807 170.918C290.198 170.999 288.502 171.781 287.821 171.963C287.314 172.095 285.455 171.679 285.953 172.948C286.451 174.216 287.842 172.521 287.953 172.521C289.629 172.552 289.091 172.481 290.492 172.197C291.893 171.913 294.27 172.298 294.046 170.614C294.554 170.482 294.239 171.05 294.412 171.151V171.162ZM34.1194 175.292L33.1953 175.759C33.4086 175.952 33.6523 176.195 33.7234 176.469C34.9115 181.655 36.8002 186.77 38.1609 191.407C38.5265 192.666 38.7093 194.614 39.2373 195.852C39.4302 196.299 39.3795 196.583 40.0497 196.472L34.1296 175.292H34.1194ZM237.627 177.474L235.454 176.226C235.343 177.322 236.125 178.042 236.856 178.712L237.008 177.768L237.627 177.474ZM235.454 178.093L234.672 176.55C233.769 177.728 231.514 176.763 231.707 178.722L233.078 179.027L233.586 177.799C234.327 178.418 234.551 178.438 235.454 178.103V178.093ZM137.595 179.027C137.361 178.336 136.935 178.336 136.335 178.539C134.487 179.148 132.568 180.904 130.629 181.005L125.643 183.076L125.44 184.009L137.595 179.027ZM230.773 178.722C230.377 178.123 226.833 179.29 226.173 179.554C225.574 179.788 226.173 180.528 224.426 179.98C223.665 181.442 223.665 180.427 222.609 180.64C221.553 180.853 217.085 182.274 216.222 182.7C214.891 183.36 215.998 183.898 216.15 184.943C217.298 185.065 217.867 183.867 218.049 183.756C218.131 183.705 219.116 184.192 219.694 183.735L219.877 182.771C220.598 183.39 220.943 183.4 221.847 183.096L222.05 182.152L222.792 182.751C223.675 182.02 224.731 181.98 225.716 181.624C226.112 181.482 226.102 180.985 226.143 180.965C226.325 180.894 227.544 181.168 228.691 180.528C229.412 180.133 228.834 179.372 230.265 179.95L230.773 178.722ZM272.224 181.208C272.579 181.422 273.097 181.675 273.483 181.391L273.778 179.97L274.549 180.894L275.341 180.427L275.321 179.351L272.254 180.011C272.102 180.386 272.265 180.833 272.214 181.208C271.625 180.853 272.011 180.386 271.899 180.275C271.523 179.92 270.305 180.752 269.848 180.863C264.496 182.183 259.023 183.269 253.509 183.695V185.258H255.205L255.388 184.009L255.713 184.933C261.237 184.588 266.619 182.954 272.011 181.848C272.376 181.787 272.183 181.442 272.214 181.208H272.224ZM240.125 182.761C240.247 181.604 239.953 180.691 239.029 179.96C238.572 181.949 239.811 182.883 241.212 184.009L241.517 183.076L242.451 184.628L242.918 183.695L243.852 184.943C244.268 182.832 241.486 183.39 240.582 181.827L240.115 182.761H240.125ZM167.51 199.892C168.424 200.399 169.917 199.739 170.942 199.425C176.436 197.72 182.62 195.436 187.464 194.168L215.815 184.791L214.556 183.197C211.5 184.273 208.463 185.481 205.397 186.516C202.33 187.551 198.756 188.586 195.963 189.51C188.276 192.057 181.32 194.543 173.806 196.989C172.354 197.456 170.77 198.187 169.663 198.593C169.5 198.653 168.485 198.065 167.703 198.613C167.307 198.917 167.581 199.486 167.52 199.892C167.073 199.648 167.094 199.232 166.901 199.11C166.271 198.704 164.382 199.871 163.509 199.942C163.357 200.145 163.509 200.582 163.468 200.825C163.225 200.622 163.103 200.206 162.951 200.186C161.834 200.034 160.94 200.511 161.285 201.749C160.574 201.799 161.448 200.673 160.544 200.845C160.016 200.947 159.468 201.454 158.96 201.586C157.122 202.063 156.594 202.256 155 202.916C154.827 202.987 154.025 202.53 153.375 202.966C152.999 203.18 153.243 203.636 153.192 203.931C152.38 203.271 152.268 202.895 150.988 203.809L151.527 205.199L153.151 204.803C153.314 204.58 153.151 204.174 153.192 203.92C153.527 204.184 153.466 204.621 153.943 204.55L163.438 201.688C163.59 201.475 163.438 201.059 163.479 200.805C163.773 201.038 163.732 201.231 163.966 201.444L167.5 200.45C167.612 200.267 167.5 200.044 167.53 199.871L167.51 199.892ZM251.346 184.009H249.782V185.572H251.346V184.009ZM118.27 186.496C118.93 186.689 123.764 185.166 122.942 184.314C121.825 185.116 120.454 185.258 119.245 185.755C118.951 185.877 118.23 186.11 118.27 186.486V186.496ZM235.759 184.324C232.154 185.217 228.143 185.795 224.66 187.084C224.264 187.237 223.705 187.155 223.604 187.744C227.381 186.76 231.291 186.12 235.028 184.984C235.536 184.831 235.911 185.237 235.749 184.324H235.759ZM236.906 185.775L207.58 192.463L207.753 193.204L237.079 186.516L236.906 185.775ZM113.285 186.81C111.924 187.023 110.431 187.612 109.152 188.13C108.735 188.302 107.75 188.515 107.669 188.982C109.446 188.657 111.954 187.957 113.274 186.81H113.285ZM120.139 187.439C119.347 187.531 118.321 187.744 118.27 188.678L117.813 188.059C117.57 188.86 115.204 188.718 115.478 189.459C115.793 190.301 119.184 188.759 119.753 188.454C120.372 188.13 120.159 188.14 120.139 187.439ZM239.191 188.363L238.186 187.795C225.594 190.596 212.942 193.092 200.228 195.365L196.176 196.766L239.181 188.353L239.191 188.363ZM242.613 189.307C241.75 189.266 240.907 189.286 240.054 189.388C221.664 191.529 201.985 198.288 183.402 200.663L179.36 202.063C184.285 201.373 189.19 200.44 194.064 199.475C209.905 196.36 225.726 192.94 241.527 189.916C241.984 189.824 242.491 189.916 242.623 189.297L242.613 189.307ZM251.966 189.926C246.106 189.347 240.755 191.509 235.2 192.635C212.931 197.131 190.52 200.988 168.2 205.412L163.458 207.056C181.31 204.205 198.857 199.78 216.81 197.628C227.128 195.568 237.323 192.92 247.67 191.093L251.966 189.936V189.926ZM108.918 193.041C108.126 191.286 107.263 192.849 106.979 192.94C102.612 194.442 98.012 196.198 93.6456 197.568C93.0972 197.74 92.9043 197.598 93.0261 198.339L108.918 193.041ZM109.233 193.671C107.639 193.437 107.76 194.756 107.639 194.868C107.446 195.041 106.836 194.797 106.501 194.98C106.217 195.132 106.268 196.147 105.344 195.852L105.496 195.233C104.978 194.807 103.567 196.593 105.74 196.269C106.968 196.086 108.278 195.386 109.537 195.223C109.71 194.452 109.304 194.746 108.898 194.432L109.233 193.681V193.671ZM95.8288 194.909C94.2345 195.122 91.9396 195.558 90.8429 196.776C92.2442 196.36 93.7776 196.096 95.1484 195.609C95.646 195.436 95.9811 195.771 95.8288 194.909ZM104.562 196.776L103.942 195.538C104.095 197.324 102.612 196.055 101.14 196.634C97.4941 198.065 93.544 199.668 90.0711 201.069C89.0455 201.485 87.1466 201.586 86.4866 202.703L101.353 197.568L101.14 196.786L102.216 197.436L104.572 196.776H104.562ZM41.3495 201.404C41.2581 201.18 41.9181 200.328 41.451 199.892H40.5066C40.2528 200.308 41.2479 202.358 41.4409 203.017C41.6947 203.849 41.8166 204.813 41.9689 205.351C43.685 211.613 45.7667 217.824 47.2188 224.176L49.3817 224.197L47.5133 224.978C47.3 225.77 48.153 226.023 48.2749 226.358C48.4069 226.714 48.0718 227.17 48.153 227.444C48.3866 228.216 48.9045 228.885 48.9045 229.819L49.2091 230.042C49.8387 229.778 51.24 229.515 51.5548 230.276V231.047L51.0572 230.418H49.0771L50.0215 233.523L53.5553 232.935L53.7482 231.981L54.1036 232.549L61.5368 230.732L60.7346 228.845L59.4855 229.169L59.6582 230.732L58.8763 229.159L57.7694 229.301L57.4749 230.418L56.3986 229.474L51.8595 230.408L43.7561 202.692L43.1874 203.109L48.3663 220.99L48.1327 222.005C47.4828 218.808 46.0916 215.804 45.1067 212.719C44.1217 209.634 43.553 206.346 42.4969 203.24C42.3954 202.946 41.3698 201.515 41.3292 201.404H41.3495ZM148.815 204.874C149.252 205.128 149.343 205.311 149.475 205.778L150.999 205.493L150.674 203.941C150.014 204.022 148.765 203.951 148.815 204.874C147.912 204.357 146.663 204.61 146.947 205.808L146.449 205.169L133.858 208.619L134.193 210.162L142.377 207.939L142.905 207.066L143.383 207.716L149.13 206.133C149.069 205.676 148.846 205.402 148.815 204.895V204.874ZM131.674 210.172C132.527 210.771 132.243 211.095 133.858 210.476L133.025 208.954L131.715 209.299C131.542 209.532 131.715 209.928 131.664 210.172C130.649 209.461 129.715 209.279 129.796 210.791L129.308 210.151L128.74 210.192C126.201 211.329 122.678 211.552 120.21 212.567C119.814 212.729 119.824 213.226 119.794 213.237C119.347 213.409 116.768 212.242 117.681 214.82L124.201 213.287L123.886 212.049C124.597 212.374 124.251 213.206 125.277 213.003C126.11 212.831 125.947 212.201 126.1 212.09C126.161 212.049 126.841 212.415 127.389 212.313C128.608 212.08 130.101 211.136 131.492 211.156C131.878 210.963 131.624 210.486 131.674 210.182V210.172ZM102.064 218.585C100.226 217.682 94.1736 220.28 91.9193 220.888C88.0301 221.954 84.0495 222.847 80.1501 223.933L79.683 224.329L79.9673 225.394C80.14 225.557 82.506 225.029 82.9731 224.907C87.6239 223.73 92.6098 222.309 97.1387 220.98C97.7886 220.787 101.861 219.66 102.013 219.458C102.175 219.244 101.993 218.808 102.054 218.575C102.378 218.737 102.348 219.163 102.571 219.204C103.16 219.305 109.487 217.56 110.543 217.245C112.706 216.616 114.798 215.753 117.011 215.307C117.864 214.739 116.95 213.592 116.057 213.744L102.186 217.935C102.033 218.128 102.104 218.382 102.054 218.564L102.064 218.585ZM122.007 219.833C119.885 219.66 117.803 220.066 115.772 220.604C115.305 220.726 114.066 220.929 113.904 221.386C116.179 220.99 118.555 220.848 120.819 220.351C121.185 220.269 122.058 220.31 122.007 219.833ZM69.6503 227.617C69.9752 227.87 69.9448 228.266 70.422 228.276C70.5743 228.276 73.3567 227.698 73.4989 227.637C73.8847 227.454 73.6613 226.988 73.702 226.683C74.3519 226.815 73.6309 227.515 74.7174 227.251C75.3368 227.099 79.1143 226.044 79.3073 225.912C79.8759 225.516 79.419 224.217 79.1042 224.176L77.7435 224.511L78.0481 226.064C77.3576 226.023 77.6013 224.887 77.2459 224.796C77.0022 224.735 72.8997 225.699 72.3717 225.851C71.5492 226.084 70.615 226.612 69.6706 226.744C69.5183 226.957 69.6706 227.383 69.63 227.627C69.3152 227.373 69.3253 226.957 68.8582 226.967L65.7611 227.586C65.3854 227.84 65.6291 228.49 65.5783 228.865C65.3041 228.469 65.2838 228.347 65.101 227.911C64.2176 227.85 63.4458 227.83 63.3951 228.865L62.8975 228.216L61.2118 228.561C61.5266 231.737 63.4966 229.9 65.558 229.789C65.6392 229.494 65.5377 229.159 65.5681 228.875C65.69 229.058 65.9236 229.291 66.0556 229.515L69.5792 228.51C69.7214 228.236 69.5792 227.881 69.6198 227.627L69.6503 227.617Z" fill="white"/>
<path d="M199.609 204.875C199.497 205.474 198.959 205.392 198.532 205.514C196.339 206.143 193.973 206.133 191.739 206.509C189.261 206.925 186.743 207.331 184.265 207.757C180.061 208.477 175.918 210.101 171.562 209.847L175.238 208.701L199.609 204.875Z" fill="white"/>
<path d="M173.43 212.973L171.054 213.552L153.487 216.089C153.273 215.267 154.126 215.368 154.665 215.246C156.035 214.962 157.589 215.023 158.899 214.8C163.712 213.998 168.505 213.014 173.43 212.973Z" fill="white"/>
<path d="M319.595 177.16C319.372 177.738 318.031 177.9 317.483 178.002C315.767 178.337 313.858 178.164 312.304 178.428C309.816 178.854 307.481 179.758 304.83 180.011C304.353 180.062 304.069 180.356 303.703 179.788C308.963 178.621 314.193 177.555 319.595 177.149V177.16Z" fill="white"/>
<path d="M282.441 185.853L255.033 191.088L255.159 191.746L282.567 186.511L282.441 185.853Z" fill="white"/>
<path d="M141.332 219.204C141.413 219.63 140.773 219.671 140.479 219.742C139.087 220.047 137.016 220.3 135.574 220.442C133.462 220.666 131.096 220.554 129.034 220.757C126.841 220.97 124.343 221.802 122.018 221.68L125.013 220.777L141.342 219.194L141.332 219.204Z" fill="white"/>
<path d="M350.445 168.128L343.469 169.092C341.427 169.457 339.468 170.228 337.355 169.985L345.032 168.473L350.445 168.128Z" fill="white"/>
<path d="M314.924 175.911C314.802 176.53 314.284 176.439 313.827 176.53C310.598 177.149 307.268 177.576 304.018 178.083L309.238 176.612L314.924 175.911Z" fill="white"/>
<path d="M212.078 203.007L208.717 203.85L201.477 204.875L205.783 203.718L212.078 203.007Z" fill="white"/>
<path d="M97.6973 230.418L87.7255 231.656C87.5732 230.692 87.9793 231.159 88.5074 231.047C91.31 230.439 94.8032 230.56 97.6973 230.418Z" fill="white"/>
<path d="M369.454 160.648C369.332 161.277 368.794 161.156 368.368 161.267C366.286 161.795 362.844 162.475 360.731 162.698C360.183 162.759 359.889 162.942 359.482 162.353L369.454 160.648Z" fill="white"/>
<path d="M253.834 191.804C253.905 192.25 253.296 192.22 252.971 192.331C250.422 193.153 247.487 193.641 244.807 193.671L253.844 191.804H253.834Z" fill="white"/>
<path d="M369.149 158.781L364.732 160.131L361.361 160.648L367.504 158.852L369.149 158.781Z" fill="white"/>
<path d="M271.595 190.555C271.666 191.032 271.016 190.921 270.66 191.012C268.274 191.621 265.624 192.067 263.187 192.412L265.674 191.631L271.605 190.545L271.595 190.555Z" fill="white"/>
<path d="M250.097 194.909L245.111 196.32L241.994 196.776L246.97 195.366L250.097 194.909Z" fill="white"/>
<path d="M329.567 175.607L321.464 177.16C321.697 176.571 323.017 176.439 323.576 176.317C325.495 175.922 327.597 175.678 329.557 175.607H329.567Z" fill="white"/>
<path d="M377.872 158.477C377.75 159.116 377.202 158.974 376.776 159.096C374.988 159.583 373.11 159.847 371.322 160.344C371.16 159.431 371.536 159.836 372.043 159.684C373.902 159.116 375.933 158.72 377.862 158.477H377.872Z" fill="white"/>
<path d="M338.919 171.862L336.178 172.704L331.436 173.1C331.628 172.643 332.999 172.613 333.507 172.532C335.294 172.248 337.122 172.116 338.909 171.862H338.919Z" fill="white"/>
<path d="M150.369 218.271C150.176 218.727 148.805 218.758 148.297 218.839C146.51 219.123 144.682 219.255 142.895 219.509C143.027 218.89 143.535 218.981 143.992 218.89C146.003 218.504 148.318 218.433 150.379 218.271H150.369Z" fill="white"/>
<path d="M323.332 174.673L320.854 175.465L317.412 175.922C318.823 174.643 321.524 174.866 323.332 174.683V174.673Z" fill="white"/>
<path d="M387.844 155.98L385.102 156.822L380.99 157.218L384.351 156.376L387.844 155.98Z" fill="white"/>
<path d="M389.712 153.798L386.971 154.64L382.858 155.036L389.712 153.798Z" fill="white"/>
<path d="M302.454 180.894C302.525 181.331 301.906 181.351 301.591 181.422C299.885 181.838 297.946 181.919 296.229 182.447C296.077 181.513 296.463 181.95 296.981 181.818C298.758 181.381 300.636 181.128 302.454 180.894Z" fill="white"/>
<path d="M231.393 199.273L224.853 200.511L227.595 199.669L231.393 199.273Z" fill="white"/>
<path d="M191.19 208.619C191.19 209.096 190.094 209.056 189.688 209.137C188.032 209.462 186.347 209.827 184.651 209.857C184.651 209.38 185.748 209.421 186.154 209.34C187.809 209.015 189.495 208.65 191.19 208.619Z" fill="white"/>
<path d="M309.309 181.523L306.252 182.356L302.454 182.762L309.309 181.523Z" fill="white"/>
<path d="M160.888 147.94L100.293 174.196L100.709 175.155L161.304 148.899L160.888 147.94Z" fill="white"/>
<path d="M138.532 99.1304L82.2036 121.692L82.7136 122.964L139.042 100.402L138.532 99.1304Z" fill="white"/>
<path d="M148.43 119.902L90.6155 144.19L91.127 145.407L148.941 121.119L148.43 119.902Z" fill="white"/>
<path d="M143.533 109.468L86.356 132.776L86.8469 133.978L144.023 110.671L143.533 109.468Z" fill="white"/>
<path d="M230.458 130.751L230.306 131.37C228.184 130.376 225.635 129.473 223.35 128.975C208.616 125.748 192.429 130.457 178.558 135.419C174.527 136.861 169.977 139.215 166.037 140.352C165.723 140.443 165.266 141.001 165.012 140.25C164.809 139.672 165.469 139.722 165.834 139.53C178.873 132.791 203.691 126.327 218.141 127.636C222.395 128.021 226.498 129.239 230.448 130.751H230.458Z" fill="white"/>
<path d="M216.75 110.201C216.8 110.8 216.13 110.445 215.815 110.353C213.632 109.775 211.753 108.821 209.387 108.374C191.688 105.015 173.329 113.621 156.827 118.675C156.33 118.827 155.913 119.03 155.365 118.918C155.203 118.086 155.548 118.381 155.995 118.157C159.752 116.31 165.672 114.524 169.774 113.225C184.519 108.567 201.863 104.021 216.76 110.201H216.75Z" fill="white"/>
<path d="M158.179 141.604L98.8472 167.275L99.2748 168.263L158.607 142.591L158.179 141.604Z" fill="white"/>
<path d="M150.638 124.928L92.6316 149.751L93.1232 150.898L151.13 126.076L150.638 124.928Z" fill="white"/>
<path d="M153.253 130.538L94.821 155.398L95.2983 156.518L153.731 131.658L153.253 130.538Z" fill="white"/>
<path d="M227.341 125.768L227.189 126.377C224.03 124.946 220.608 123.8 217.166 123.313C202.838 121.293 187.251 125.88 173.816 130.65C170.059 131.989 166.393 133.877 162.524 134.78C162.808 134.11 163.692 133.877 164.311 133.613C170.313 131.066 177.837 128.488 184.103 126.601C197.791 122.491 213.845 119.72 227.351 125.758L227.341 125.768Z" fill="white"/>
<path d="M129.177 79.9791C110.269 85.6318 92.4474 94.1259 74.3316 101.788C74.159 100.956 74.5449 101.25 74.9409 101.017C76.2508 100.245 77.9873 99.5654 79.4089 98.9362C93.1785 92.7762 110.289 84.7184 124.566 80.5373C125.551 80.243 127.339 79.5834 128.232 79.492C128.73 79.4413 129.014 79.4007 129.166 79.9893L129.177 79.9791Z" fill="white"/>
<path d="M131.675 84.6575L76.2102 106.608C81.0946 104.163 86.2226 102.021 91.2593 99.8597C97.8293 97.0385 104.44 94.2578 111.111 91.67C117.834 89.0619 124.627 86.2102 131.675 84.6575Z" fill="white"/>
<path d="M223.604 120.166L223.452 120.785C220.517 119.578 217.532 118.472 214.363 118.025C207.042 117 199.599 117.985 192.379 119.324C181.747 121.303 171.277 125.383 161.265 129.371L160.026 129.036C172.79 124.145 185.768 119.324 199.446 117.67C205.021 117 210.21 116.655 215.876 117.751C218.547 118.269 221.035 119.344 223.594 120.166H223.604Z" fill="white"/>
<path d="M120.139 60.3623C120.281 61.2046 119.987 60.9002 119.459 61.0727C118.138 61.4989 116.696 61.4279 115.458 61.7628C110.502 63.1125 103.577 66.2889 98.6416 68.3186C87.9184 72.723 77.4389 77.787 66.8477 82.4755C66.2587 81.9275 68.97 80.7808 69.2238 80.6488C82.4248 74.1235 100.409 65.8424 114.361 61.6004C116.24 61.0219 118.199 60.7073 120.139 60.3623Z" fill="white"/>
<path d="M220.182 115.488C217.156 114.494 214.13 113.195 210.951 112.718C198.684 110.881 181.584 115.904 169.835 119.842C166.494 120.958 161.945 123.333 158.706 124.003C158.158 124.114 157.985 124.378 157.538 123.749C165.895 120.623 174.374 117.538 183.026 115.275C192.907 112.697 203.244 110.566 213.388 112.779C215.531 113.245 218.496 114.128 220.172 115.488H220.182Z" fill="white"/>
<path d="M155.737 136.077L96.709 161.3L97.1521 162.336L156.18 137.113L155.737 136.077Z" fill="white"/>
<path d="M202.107 87.7629C200.543 87.3469 199.111 86.4132 197.598 85.8855C188.266 82.6685 176.192 84.0284 166.698 86.1595C158.635 87.9761 150.684 90.6451 142.895 93.3648L143.098 92.421C148.815 90.706 154.431 88.6661 160.209 87.154C171.714 84.14 187.586 81.1361 198.888 85.8246C199.903 86.2508 201.376 86.9003 202.107 87.7426V87.7629Z" fill="white"/>
<path d="M109.852 38.2492C109.984 39.0001 109.771 38.8378 109.233 39.0103C107.263 39.6699 105.1 39.6801 102.836 40.4209C88.2434 45.1906 73.9863 53.9385 59.7902 59.6926C59.3333 59.8753 58.9677 60.1493 58.4295 60.0377C58.2569 59.2055 58.6428 59.4998 59.0388 59.2664C68.1373 53.9182 81.6124 48.5599 91.5639 44.4092C97.5044 41.933 103.435 39.1321 109.852 38.239V38.2492Z" fill="white"/>
<path d="M136.346 94.9377C136.264 95.4756 135.726 95.4756 135.34 95.638C130.639 97.6372 125.216 99.0986 120.372 100.925C107.202 105.888 94.3056 111.54 81.3889 117.112L80.2415 116.889C98.6416 108.922 117.164 100.956 136.335 94.9377H136.346Z" fill="white"/>
<path d="M214.262 105.837L214.109 106.456C211.764 105.411 209.306 104.629 206.788 104.122C200.665 102.884 195.618 102.955 189.495 103.655C176.801 105.116 164.89 109.572 152.877 113.621C152.725 112.809 153.03 113.073 153.497 112.86C154.583 112.352 156.188 111.875 157.386 111.439C171.551 106.324 189.352 100.976 204.361 103.117C207.773 103.604 211.022 104.741 214.262 105.837Z" fill="white"/>
<path d="M122.322 65.0408C120.89 66.2586 118.423 66.2992 116.544 66.8979C101.17 71.8097 86.2531 79.6544 71.4173 85.9667C70.7877 86.2305 70.0566 86.5654 69.427 86.7887C68.9294 86.9612 68.9396 87.428 68.4014 86.6872C78.3122 82.1407 88.2333 77.4623 98.3269 73.3015C103.993 70.9674 110.736 68.0041 116.534 66.2687C118.403 65.7106 120.403 65.4163 122.312 65.0408H122.322Z" fill="white"/>
<path d="M204.909 91.8223L204.757 92.4413C201.924 90.7871 198.289 89.8129 195.049 89.3765C178.67 87.154 161.59 92.9284 146.328 98.2462L145.068 97.9011C148.744 96.5007 152.512 95.293 156.289 94.1665C169.774 90.1377 185.677 86.0276 199.538 89.8839C201.376 90.3914 203.132 91.1728 204.909 91.8426V91.8223Z" fill="white"/>
<path d="M211.144 101.169L210.992 101.778C207.996 100.377 204.889 99.2203 201.589 98.7129C188.347 96.6731 173.014 101.027 160.422 105.127C157.061 106.223 153.761 107.593 150.379 108.638C150.247 107.978 150.684 107.907 151.141 107.684C154.421 106.03 160.981 104.305 164.717 103.188C179.33 98.8246 196.654 94.3999 211.154 101.169H211.144Z" fill="white"/>
<path d="M124.505 69.709C124.658 70.5716 124.323 70.2367 123.825 70.4092C122.342 70.9369 120.667 70.9674 119.215 71.424C115.102 72.7129 110.218 74.8035 106.136 76.417C94.1228 81.1462 82.506 86.8394 70.6048 91.8222C70.4322 90.9901 70.8181 91.2844 71.2141 91.0509C72.6053 90.2289 74.758 89.3663 76.3117 88.6559C84.3338 84.9822 92.6809 81.3187 100.835 77.9697C108.552 74.8035 116.341 71.4951 124.516 69.709H124.505Z" fill="white"/>
<path d="M181.219 55.684C179.096 55.0243 177.147 53.7051 175.065 52.9541C159.752 47.4435 140.824 54.4763 126.059 59.104C125.937 58.4443 126.364 58.3733 126.821 58.15C132.406 55.3491 145.474 52.4365 151.862 51.4115C161.823 49.8081 172.709 49.5747 181.219 55.6738V55.684Z" fill="white"/>
<path d="M208.027 96.795C188.449 88.5951 166.88 97.617 147.881 103.331C148.379 102.59 149.628 102.306 150.45 102.001C155.568 100.073 161.529 98.3071 166.83 96.8762C175.918 94.4304 185.961 92.0963 195.405 93.0502C198.41 93.3547 201.995 94.1158 204.838 95.1408C205.854 95.5061 207.407 95.9019 208.027 96.7747V96.795Z" fill="white"/>
<path d="M199.294 83.4092C196.623 82.4756 194.349 80.8011 191.566 80.0806C182.742 77.7871 171.318 79.6949 162.514 81.6942C154.918 83.4194 147.587 86.0783 140.083 88.0775C140.915 87.2555 142.702 86.8292 143.89 86.4334C157.772 81.8362 180.833 75.0572 194.734 80.6489C196.176 81.2273 198.319 82.2523 199.294 83.4092Z" fill="white"/>
<path d="M178.731 51.6347C175.42 50.3865 172.293 48.5293 168.82 47.6769C154.197 44.0945 137.757 50.2444 123.886 54.4357C123.713 53.5426 124.13 53.9384 124.566 53.7354C132.954 49.8486 151.689 45.566 160.808 46.0329C166.951 46.3475 173.714 48.093 178.731 51.6347Z" fill="white"/>
<path d="M171.247 39.8018C167.936 38.2085 164.758 36.3209 161.163 35.4075C145.403 31.3786 133.259 36.8587 118.677 40.9993C118.484 41.05 117.59 41.6589 117.651 40.8978C117.752 39.6191 137.96 34.6566 140.326 34.2912C150.511 32.7487 162.981 33.0633 171.247 39.8018Z" fill="white"/>
<path d="M117.956 56.0088C116.757 57.0845 114.554 56.9424 112.98 57.4194C108.684 58.7083 103.506 61.0018 99.261 62.7067C87.6746 67.3648 76.4639 72.9261 64.9791 77.8074C64.8065 76.9753 65.1923 77.2696 65.5884 77.0362C67.4365 75.9503 69.9345 74.9355 71.935 74.0221C80.6578 70.0135 89.7563 66.0455 98.6415 62.4124C104.917 59.8449 111.172 56.8613 117.956 56.0189V56.0088Z" fill="white"/>
<path d="M145.964 114.635L88.4922 138.426L88.9352 139.495L146.407 115.704L145.964 114.635Z" fill="white"/>
<path d="M196.491 79.0454C194.339 78.3248 192.379 76.8635 190.256 76.0922C186.073 74.5801 181.117 74.296 176.69 74.3873C167.51 74.5801 158.076 76.8939 149.12 79.5122C145.353 80.6184 141.667 81.9985 137.899 83.0946C137.727 82.2015 138.143 82.5973 138.58 82.3943C142.794 80.4357 149.658 78.7308 154.279 77.5231C167.53 74.0524 184.56 70.4903 196.481 79.0555L196.491 79.0454Z" fill="white"/>
<path d="M115.773 51.9494C115.346 52.3756 111.152 52.7511 110.157 53.0352C101.292 55.5622 89.6245 61.4279 80.9727 65.2843C75.6416 67.6692 69.4778 71.1703 64.1365 73.0681C63.6287 73.2507 63.6287 73.6871 63.1108 72.9666C75.5502 67.1313 88.0302 61.1945 100.825 56.1609C105.74 54.2226 110.38 52.2843 115.62 51.3303L115.773 51.9392V51.9494Z" fill="white"/>
<path d="M168.759 35.7525C166.505 34.7884 164.494 33.4184 162.209 32.4949C151.973 28.3747 139.554 30.0695 129.116 32.7283L115.783 36.8384C115.64 36.2193 116.209 36.3208 116.605 36.1179C119.936 34.4434 125.653 32.9617 129.369 32.0382C141.92 28.9125 158.076 27.1569 168.769 35.7525H168.759Z" fill="white"/>
<path d="M184.032 60.3624C181.909 59.6114 180 58.4139 177.878 57.6426C170.384 54.9127 163.042 55.2172 155.294 56.4045C146.013 57.8253 137.067 60.7176 128.253 63.7925C127.613 63.2141 130.151 62.4022 130.354 62.321C136.65 59.7738 145.17 57.6223 151.872 56.4248C162.697 54.4865 174.628 53.8471 184.032 60.3725V60.3624Z" fill="white"/>
<path d="M193.374 74.3772C190.084 73.1492 187.108 71.3428 183.656 70.5411C170.688 67.5169 154.208 71.8705 141.707 75.8588C140.854 76.1329 135.665 78.335 135.401 78.1219C134.822 77.645 135.807 77.4521 136.021 77.3608C140.834 75.1383 148.399 73.2 153.649 71.9213C163.773 69.4654 174.801 67.5981 185.017 70.4295C187.88 71.2211 191.018 72.6114 193.364 74.3873L193.374 74.3772Z" fill="white"/>
<path d="M111.721 42.6128C111.863 43.4348 111.589 43.1608 111.051 43.3232C109.791 43.6987 108.278 43.6581 107.039 44.0031C92.0818 48.1233 75.9258 58.1499 61.354 64.0664C60.897 64.2491 60.5315 64.5231 59.9933 64.4114C59.8207 63.5082 60.2573 63.9142 60.6737 63.7112C70.7978 58.7791 81.521 53.8267 91.8787 49.4122C98.2964 46.6721 104.785 43.6479 111.721 42.6128Z" fill="white"/>
<path d="M113.904 46.9666C114.046 47.7886 113.772 47.5146 113.234 47.6769C111.853 48.093 110.238 48.0118 108.908 48.3467C106.258 49.0064 102.561 50.7519 99.9008 51.7972C87.3193 56.7597 75.3978 63.2749 62.9178 68.41C62.471 68.5927 62.0852 68.8565 61.5571 68.755C62.3086 67.8518 63.7201 67.3343 64.7761 66.837C75.4486 61.7628 86.7811 56.5567 97.7176 52.1118C103.008 49.9603 108.207 47.6871 113.914 46.9666H113.904Z" fill="white"/>
<path d="M166.891 32.3224C163.692 30.8712 160.838 28.9633 157.467 27.8876C141.941 22.9149 129.369 28.6284 114.869 32.5152C114.442 32.6268 113.782 32.9617 113.904 32.1803C119.377 30.1507 124.993 28.3645 130.73 27.1873C139.697 25.3505 148.226 24.6705 157.152 27.2685C160.615 28.2732 164.149 29.9578 166.891 32.3325V32.3224Z" fill="white"/>
<path d="M133.848 90.2593C114.838 96.1453 96.753 104.548 78.3732 112.068C77.7944 111.581 79.8557 110.85 80.0284 110.769C89.8377 106.131 101.16 101.798 111.325 97.8198C118.717 94.9275 126.171 92.1875 133.695 89.6504L133.848 90.2593Z" fill="white"/>
<path d="M126.678 74.6919C126.75 75.1486 126.14 75.108 125.805 75.2196C123.916 75.8691 121.916 76.204 119.966 76.8636C104.145 82.222 88.6089 89.9144 73.2856 96.5616L72.1382 96.3383C85.4915 90.5741 98.733 84.3836 112.34 79.2181C117.001 77.4421 121.703 75.453 126.668 74.702L126.678 74.6919Z" fill="white"/>
<path d="M176.233 47.281L176.08 47.9001C161.834 38.8884 143.962 42.5215 128.933 47.5043C127.958 47.829 122.007 50.3255 121.703 50.082C121.073 49.5847 123.023 48.9758 123.175 48.9149C133.208 44.7947 149.445 40.847 160.178 41.9937C166.007 42.6128 171.074 44.6526 176.233 47.2912V47.281Z" fill="white"/>
<path d="M107.984 34.2C108.136 35.1336 107.76 34.6972 107.232 34.8291C102.825 35.8947 100.459 36.392 96.1538 38.0969C82.831 43.3943 70.1276 50.2039 56.8759 55.684C56.7134 54.8518 57.0485 55.1461 57.4953 54.9229C68.4826 49.5848 80.3025 44.1453 91.5639 39.4365C96.8748 37.214 102.155 34.7175 107.974 34.2H107.984Z" fill="white"/>
<path d="M141.331 105.218L84.6181 128.265C84.4658 127.433 84.7908 127.727 85.2376 127.504C95.3617 122.582 107.141 118.015 117.661 113.793C125.419 110.678 133.279 107.349 141.331 105.218Z" fill="white"/>
<path d="M173.745 43.232L173.593 43.851C156.929 33.4896 136.904 39.4771 119.834 45.4037C120.393 44.5512 121.835 44.2062 122.789 43.8409C133.106 39.883 146.988 36.7066 158.005 37.9345C163.763 38.5739 168.678 40.5934 173.745 43.232Z" fill="white"/>
<path d="M187.149 65.0307C184.813 64.229 182.701 62.8183 180.376 61.9963C168.434 57.7442 152.623 61.3976 140.783 64.9495C137.808 65.8426 134.386 67.4967 131.502 68.1462C131.015 68.2579 130.893 68.6739 130.426 67.9838C139.331 64.6146 148.592 61.8238 158.056 60.403C166.627 59.1243 174.811 59.0127 182.894 62.5748C184.275 63.1837 186.083 64.0057 187.149 65.0205V65.0307Z" fill="white"/>
<path d="M186.519 67.5269C186.59 68.1054 185.869 67.8009 185.575 67.6893C184.498 67.3037 183.473 66.644 182.295 66.2888C171.602 63.153 159.244 65.4161 148.683 68.1663C143.342 69.5566 138.183 71.5152 132.923 73.1288C132.771 72.317 133.076 72.5808 133.543 72.3677C137.361 70.6019 143.576 68.9579 147.749 67.8618C157.294 65.3552 167.703 63.2849 177.553 64.8173C180.65 65.2943 183.676 66.2584 186.519 67.5371V67.5269Z" fill="white"/>
<path d="M213.013 132.618C212.799 133.177 211.439 133.369 210.911 133.471C206.737 134.242 202.543 134.557 198.309 135.521C187.85 137.885 177.736 142.341 167.825 146.329C167.683 145.639 168.15 145.618 168.586 145.385C171.846 143.589 178.061 141.539 181.767 140.179C191.84 136.495 202.178 133.106 213.003 132.629L213.013 132.618Z" fill="white"/>
<path d="M106.115 30.1506C106.004 30.7494 105.465 30.6682 105.039 30.79C103.15 31.3177 100.987 31.3583 99.0375 31.957C94.2852 33.4285 87.8878 36.7065 83.1558 38.8173C75.2454 42.3388 67.5177 46.3677 59.5768 49.8283C58.3278 50.3763 56.957 51.0968 55.6267 51.3302L69.7517 44.4293C77.256 41.2022 84.547 37.4777 92.102 34.3723C96.7426 32.4645 100.997 30.5058 106.115 30.1608V30.1506Z" fill="white"/>
<path d="M159.721 25.787C156.868 24.5083 154.482 23.392 151.364 22.773C138.529 20.246 124.069 24.2242 112.046 28.588C111.883 27.7558 112.218 28.0501 112.665 27.8268C122.596 22.9455 141.22 20.1648 151.984 22.4584C154.705 23.0368 157.599 23.8994 159.721 25.787Z" fill="white"/>
<path d="M233.89 136.353C228.955 134.547 223.766 133.451 218.466 133.552L213.632 132.933C218.933 132.811 224.315 133.025 229.453 134.395C230.814 134.76 232.956 135.328 233.88 136.343L233.89 136.353Z" fill="white"/>
<path d="M250.097 139.783C250.412 139.956 250.778 140.443 251.143 140.372C251.62 140.078 254.108 137.601 254.453 137.916C254.931 138.332 252.737 139.367 252.788 139.986L251.052 140.747C250.889 141.133 251.224 141.356 251.336 141.651C251.245 141.58 250.838 141.651 250.574 141.336C250.31 141.021 250.168 140.22 250.097 139.783Z" fill="white"/>
<path d="M263.501 153.179C263.532 153.24 264.304 154.255 264.588 154.102L266.355 151.961L267.248 152.398C266.659 152.956 265.441 153.565 265.055 154.255C264.72 154.843 264.842 155.493 264.74 155.665C264.72 155.696 264.314 155.452 264.141 155.564C263.664 155.868 263.42 156.426 262.892 156.609C263.532 154.914 264.669 155.33 263.512 153.179H263.501Z" fill="white"/>
<path d="M251.031 133.552C251.194 133.654 251.377 133.715 251.519 133.857L256.667 129.371C268.122 120.562 281.891 114.778 296.219 112.677L294.351 112.058L303.388 110.658L297.296 110.485L292.482 111.124C292.33 110.17 292.716 110.617 293.264 110.516C295.61 110.099 298.037 110.181 300.383 109.846C300.728 109.795 301.835 109.734 301.825 109.267C301.358 109.166 300.972 108.963 300.464 108.983C297.58 109.074 294.584 109.501 291.7 109.612C290.746 109.643 289.903 109.237 288.918 109.267C286.816 109.328 282.754 110.607 280.571 111.236C268.69 114.636 257.246 120.907 248.544 129.686L249.793 129.848C249.285 130.782 249.132 131.35 247.924 131.086L248.544 130.305C247.934 129.899 247.02 131.492 246.523 132.01C246.299 132.243 245.446 132.598 245.436 132.801C245.436 132.882 246.35 133.623 246.045 134.202L245.264 133.268L243.862 133.887C243.964 133.096 246.249 131.594 246.279 131.249C246.32 130.761 245.253 130.183 245.426 129.534C246.746 130.995 247.894 130.457 247.294 128.6L248.229 129.087C248.554 128.945 250.29 126.672 250.828 126.205C252.351 124.916 255.235 122.856 256.982 121.608C266.903 114.555 278.713 110.617 290.614 108.344C290.695 107.826 289.852 107.999 289.517 108.019C288.908 108.06 287.486 108.699 287.192 108.039C289.802 107.4 292.493 107.41 295.143 107.106C295.61 107.055 296.097 106.862 295.6 106.487L285.628 107.106C285.587 106.629 286.41 106.578 286.745 106.517C288.918 106.121 291.497 106.02 293.721 105.857C294.229 105.482 293.721 105.289 293.264 105.238C290.238 104.853 286.806 105.827 283.76 105.857C283.709 105.391 284.552 105.32 284.877 105.269C287.08 104.924 289.629 104.782 291.863 104.619C291.69 104.051 291.132 103.838 290.583 103.848C289.456 103.848 286.227 104.467 284.938 104.711C282.226 105.228 278.896 106.131 276.215 106.893C265.969 109.795 256.058 114.352 248.066 121.445L248.848 122.998L247.599 121.75C247.528 121.699 246.32 122.541 246.198 122.683C245.66 123.292 247.284 123.81 247.294 124.551L245.578 123.313C244.522 124.581 242.755 125.16 243.547 127.047L242.461 126.428L241.049 127.362C241.882 126.256 242.644 126.103 241.984 124.561L242.755 125.139L243.71 124.246L243.223 122.998L244.279 123.617C245.01 123.404 244.928 122.389 245.142 122.125C245.213 122.044 246.421 121.161 246.746 120.918C247.457 120.39 249.234 120.644 248.523 118.959C248.99 119.131 249.204 119.365 249.752 119.131C251.661 118.309 255.53 114.839 257.865 113.509C265.238 109.288 273.849 106.548 282.175 104.944L280.622 104.325C282.043 103.858 283.617 103.899 285.059 103.625C285.486 103.544 285.882 103.199 286.4 103.097C287.121 102.955 288.949 103.574 288.715 102.458L278.743 103.391C278.865 102.762 279.403 102.884 279.84 102.772C282.186 102.174 284.806 102.417 287.161 101.829C287.232 101.291 286.451 101.534 286.075 101.524C282.856 101.402 279.759 101.92 276.57 101.829L284.978 100.58C285.049 100.032 284.267 100.286 283.892 100.276C276.103 99.9511 261.379 105.32 254.433 109.145C249.112 112.078 242.319 117.305 238.226 121.608C237.678 122.186 238.369 122.704 236.988 122.704C236.713 122.318 238.054 121.161 238.358 120.796C238.521 120.603 238.46 120.136 238.592 119.974C238.673 119.862 240.735 120.055 240.105 118.35C241.293 119.06 241.171 117.975 241.821 117.416C251.255 109.308 262.75 103.655 275.006 101.22L274.387 100.601L281.546 99.2001L280.165 98.713L271.889 99.6568C271.808 99.2306 272.447 99.19 272.742 99.1189C275.047 98.6217 277.677 98.6825 279.982 98.0939L278.936 97.485L269.391 98.3984C269.35 97.9214 270.173 97.8707 270.508 97.8098C272.884 97.3836 275.687 97.2415 278.114 97.1501C278.621 96.7645 278.114 96.5818 277.657 96.5311C273.219 95.9628 263.745 99.0377 259.338 100.661C251.204 103.655 244.126 108.161 237.729 113.976L238.216 115.843C237.12 114.341 235.068 115.519 236.663 116.939C236.602 117.386 235.2 116.473 235.16 116.402C235.048 116.239 235.353 115.782 235.231 115.539C234.682 114.392 233.312 113.53 233.241 112.109L235.881 115.224C236.338 113.793 237.272 113.793 237.912 113.195C238.257 112.87 238.399 112.434 238.643 112.22C246.726 104.964 256.83 99.8293 267.522 97.7793L267.208 97.1603L274.996 95.5974C274.905 95.0291 273.402 95.2626 272.975 95.293C270.782 95.4351 268.213 95.7598 266.04 96.1556C265.441 96.2672 265.664 96.1353 265.654 95.6076L274.692 94.3594C270.965 93.6591 267.228 94.8262 263.471 94.6638C263.664 94.2173 265.045 94.1564 265.542 94.0853C267.847 93.7403 270.203 93.7302 272.508 93.4156C272.579 92.8675 271.798 93.1213 271.422 93.1111C270.64 93.0807 269.858 93.1416 269.086 93.1111L270.173 92.1775C266.801 93.3648 263.197 93.5678 259.734 94.5116C252.108 96.5818 239.831 102.661 234.49 108.526C233.545 109.562 234.286 109.501 234.49 110.556L233.444 109.957L231.849 111.49C230.743 111.124 232.418 109.754 232.631 109.47C232.895 109.125 232.855 108.587 232.977 108.435C233.017 108.384 233.586 108.75 234.185 107.918C234.439 107.562 234.418 106.984 234.52 106.862C234.55 106.822 235.038 107.065 235.515 106.801C237.028 105.959 239.343 103.513 241.06 102.346C247.843 97.6982 255.824 94.7856 263.775 92.8067L262.537 92.1876L267.208 91.873C266.172 90.6654 263.258 91.7005 261.714 91.8426C261.369 91.873 260.597 92.1267 260.668 91.5686L267.208 90.3203L257.236 90.6248C257.256 90.2188 258.739 90.097 259.033 90.0869C259.653 90.0565 260.17 90.3609 260.77 90.3C261.572 90.2188 264.791 89.7419 265.339 89.549C265.725 89.407 265.877 89.0518 265.177 89.0619C263.755 89.0924 262.12 89.681 260.668 89.6911L263.664 88.7981L263.938 88.1384C252.839 90.3102 242.654 93.791 233.86 101.067C232.174 102.468 230.57 104.498 228.965 105.817C228.671 106.06 228.813 106.436 227.94 106.213C228.803 105.066 230.133 103.188 231.159 102.275C231.372 102.092 231.86 102.103 232.134 101.869C239.861 95.293 248.34 91.3453 258.16 88.7778C258.231 88.2196 257.48 88.4936 257.155 88.5444C256.484 88.656 255.855 88.9604 255.174 89.0619C254.849 89.1127 254.037 89.3258 254.118 88.7879L261.907 87.2352L252.25 87.8543C252.209 87.3773 253.032 87.3265 253.367 87.2657C255.449 86.8902 257.906 86.809 260.038 86.606C260.374 85.6216 258.302 85.9362 257.693 85.9768C248.219 86.4842 242.532 88.0978 234.571 93.3953C231.88 95.1814 230.692 96.7036 228.498 98.6623C228.194 98.9363 226.437 98.7231 227.32 100.631L226.376 100.134L225.3 101.565C224.721 101.078 224.721 101.078 225.137 100.469C226.356 98.6724 230.174 95.6076 232.032 94.2782C237.465 90.3406 243.893 87.3874 250.392 85.6825L248.838 85.0635L255.692 83.5108L246.198 84.4546C244.847 84.2212 247.061 83.937 247.213 83.9066C248.97 83.6529 251.042 83.6224 252.727 83.186C253.164 83.0744 253.702 83.186 253.824 82.567L241.973 83.3383C234.449 85.9667 227.818 90.5537 222.03 95.9526C222.274 94.3391 224.487 92.8067 225.767 91.7411C230.671 87.6716 236.866 84.4749 242.908 82.5568L241.354 81.9378C243.222 81.6232 245.111 81.2578 246.97 80.8418C247.315 80.7707 247.975 80.8418 247.894 80.3749L239.486 80.994C239.536 80.5373 240.846 80.4663 241.232 80.4155C243.019 80.172 244.868 80.1111 246.645 79.7457C246.502 79.1673 246.157 79.1673 245.649 79.1876C243.294 79.2891 240.928 79.898 238.541 79.7457L240.917 79.1673C241.709 79.1267 242.491 79.1267 243.283 79.0455C243.365 79.0455 245.132 78.9034 244.624 78.5076C234.672 78.1727 225.98 84.6778 218.912 90.9698C218.76 90.026 219.583 89.4983 220.151 88.9401C221.999 87.1337 225.422 84.7489 227.656 83.3585C231.078 81.2375 234.977 79.2992 238.846 78.193C238.927 77.6755 238.094 77.8582 237.749 77.8683C236.937 77.8987 236.297 78.1322 235.576 78.193C235.231 78.2235 234.418 78.4265 234.49 77.8886C235.83 77.9393 237.079 77.4421 238.389 77.2695C239.425 77.1275 241.08 77.7364 241.659 76.6403C239.79 76.0822 234.256 77.4522 232.926 76.8027C232.784 76.7317 232.53 76.3968 232.621 76.3359L239.79 76.0213C240.085 75.0674 238.694 75.3617 238.064 75.3819C236.47 75.4327 234.845 75.9401 233.251 76.0213L238.237 74.4686C229.524 75.2196 222.314 80.5982 215.805 85.987C215.48 85.6216 217.633 83.6529 217.978 83.3383C221.959 79.7254 227.046 77.0564 232.002 75.0876L229.514 74.7832L235.739 73.2204L227.635 73.8394L233.87 72.5912C233.819 72.2157 233.484 72.0026 233.119 71.9924C231.656 71.9417 229.006 72.6216 227.402 72.8246C226.752 72.9058 226.305 72.51 225.462 72.7231C222.751 73.4233 217.054 77.8581 214.719 79.766C214.343 80.0705 212.972 81.613 212.84 81.6232C212.576 81.6435 212.373 81.3289 212.688 80.8519C214.729 77.7364 222.517 73.3421 226.092 71.9721L224.538 71.3531L229.524 70.257C229.108 69.6278 228.813 69.8917 228.285 69.9221C226.853 70.0033 224.386 70.7543 223.127 70.6122C222.923 70.5919 222.659 70.3281 222.67 70.0947C224.233 69.9932 226 69.8511 227.524 69.4756C228.052 69.3437 228.427 69.7801 228.275 68.8464L221.421 69.4655C221.35 68.9885 221.999 69.1001 222.355 69.0088C223.787 68.6435 225.269 68.5014 226.711 68.2172C226.711 67.6591 225.34 67.8722 225.005 67.9128C219.359 68.5521 213.835 73.5248 209.58 76.9448C209.448 76.3562 209.905 76.204 210.2 75.8589C212.383 73.2711 216.252 71.0385 219.146 69.2219C219.583 68.9479 220.74 68.6029 220.801 68.5318C221.431 67.8722 220.019 68.0447 220.182 67.6083L223.919 66.8269C223.482 66.2484 222.253 66.6138 221.634 66.7153C220.314 66.9284 219.024 67.4257 217.694 67.5982C218.801 66.3601 220.852 66.2992 222.365 66.3499L222.05 65.1118H221.583C221.319 65.1626 221.532 65.6598 221.218 65.741C219.999 66.0455 218.059 65.8019 216.75 66.3601C216.597 65.4061 216.993 65.8628 217.531 65.7512C218.709 65.5076 219.938 65.3554 221.116 65.1118C220.791 64.1579 218.801 64.8277 218.059 65.0205C213.683 66.1673 210.068 70.0642 206.473 72.5912C206.29 71.759 206.534 71.9112 206.859 71.5662C209.357 68.8769 213.277 66.8878 216.293 64.8074L215.511 64.3304L218.943 63.549C218.943 63.0213 219.116 62.869 218.506 62.9502C217.003 63.143 215.49 63.5185 213.957 63.549L216.963 62.6661L218.009 61.9963L212.708 62.3007L217.064 61.3671C217.146 60.88 216.871 60.4537 216.343 60.474C215.247 60.5349 212.068 61.9963 210.982 62.6052L203.66 67.9026C203.518 67.2937 203.975 67.1618 204.31 66.8472C206.778 64.4522 210.271 62.2601 213.317 60.7379L212.383 60.1188C213.886 60.6669 214.414 59.6013 215.805 59.4896C215.886 58.9721 215.044 59.1446 214.708 59.1649C213.48 59.2359 212.149 59.652 210.941 59.7637C210.596 59.7941 209.824 60.058 209.895 59.4998C211.418 59.0939 213.033 59.0736 214.576 58.7184C214.922 58.6372 215.582 58.7184 215.511 58.2516L208.656 58.556C208.707 58.0993 210.017 58.0283 210.403 57.9775C211.53 57.8152 212.789 57.8862 213.947 57.6224L210.972 57.2976C208.951 56.4248 200.979 64.3101 200.543 63.8534C200.401 63.2648 200.868 63.1126 201.162 62.7676C202.777 60.8292 205.427 59.2461 207.58 57.937L207.397 57.0033C208.443 57.0946 209.245 56.709 209.895 55.9073C209.042 55.5013 208.017 56.161 207.174 56.3031C206.849 56.3538 206.087 56.6278 206.168 56.0697L211.154 54.9736C209.651 53.9081 207.367 55.2679 205.549 54.8113L209.905 53.8776C209.621 53.0252 207.123 53.5326 206.463 53.7152C204.594 54.2227 200.218 57.7746 199.253 59.4186C198.116 59.4389 197.659 59.6216 197.903 60.7277L197.121 59.9565C199.609 58.2921 197.314 57.0642 196.44 55.1665L194.937 55.4405L195.557 57.3078C194.897 56.912 195.019 56.1204 194.003 56.3741L195.862 54.04L193.688 50.7722L192.145 51.8581C192.145 52.0103 194.115 53.7457 193.536 54.5068C192.957 53.9081 192.632 53.1266 192.135 52.467C191.556 51.716 191.038 51.1071 190.439 50.1227C190.033 49.4529 189.982 47.7582 188.703 48.428C187.19 49.2094 188.703 50.1227 189.149 50.7925C191.911 54.9736 194.501 59.2765 197.557 63.2648L200.076 67.5982L174.212 30.232C172.222 31.7948 174.476 32.424 174.902 33.1141C182.133 44.6223 190.155 55.9783 197.862 67.314L199.446 70.3991L169.977 28.182C169.886 27.3296 175.126 20.997 176.08 20.5708C176.212 20.5099 176.588 20.4896 176.537 20.723C174.496 23.0571 172.171 25.3912 170.912 28.1922L171.866 28.9736C172.323 28.0095 172.13 26.6699 173.278 26.8221C174.77 25.036 176.487 22.9962 178.264 21.4943C178.609 21.2 178.771 20.7433 179.35 20.8752L173.552 27.4006L173.481 28.1211L174.212 28.9634C175.055 28.6488 175.116 27.1367 175.39 26.8526C175.644 26.5989 177.035 26.1726 177.289 25.0259L180.609 22.4279L174.679 29.1867V30.0087L175.776 31.4599C177.015 30.6988 176.74 29.6332 176.548 28.3545C178.142 28.6894 178.132 27.3904 178.893 26.7917C179.655 26.1929 178.731 27.8674 179.513 27.4107C180.447 26.8526 179.888 26.2944 180.264 25.6957C180.559 25.2288 183.808 22.7121 184.336 22.57C186.712 21.89 187.159 21.2203 189.322 20.0836C202.401 13.264 218.059 11.4271 232.652 11.3662L232.956 11.833C213.916 12.0259 192.114 14.9181 178.619 29.5825L178.568 30.8307C179.726 29.6129 180.863 28.3342 182.153 27.2484C182.397 27.0353 182.782 26.4365 183.087 26.9338C182.549 27.7456 181.686 28.3342 181.076 28.9837C180.559 29.5317 179.462 30.4755 179.32 30.6481C178.914 31.1352 179.157 31.9775 178.568 32.3936L178.101 30.5263C177.208 30.9424 176.08 31.5411 176.233 32.698C177.989 32.698 177.289 34.6871 178.883 35.499C180.376 34.4841 179.238 33.3983 179.046 32.079L180.447 33.3272C181.747 32.4342 181.422 31.9065 181.229 30.5263L182.001 31.7745C196.593 18.8151 217.064 15.3647 236.074 15.5879C236.145 16.1359 235.363 15.8822 234.987 15.8924C217.542 16.6129 198.644 18.5512 184.793 30.2117C184.407 30.5364 184.397 31.0946 184.346 31.1453C183.544 31.8963 181.848 31.7542 183.107 33.6418C184.103 32.9619 184.945 32.424 184.346 31.1453L185.595 32.2312C184.742 33.0329 183.107 33.4997 183.727 34.8799C181.544 34.1594 182.112 36.6153 183.26 37.6809L184.377 36.8588L184.042 35.1945L184.823 36.1383C186.367 35.6207 186.276 34.677 185.91 33.3272L186.682 34.5755C187.027 34.2812 187.454 34.1188 187.799 33.8143C190.256 31.6426 193.211 29.7956 196.227 28.2328C209.367 21.4029 224.528 19.7081 239.191 19.627C239.699 20.0126 239.191 20.1953 238.734 20.246C236.48 20.5302 233.596 20.1141 231.24 20.2359C219.969 20.8042 206.95 23.3413 196.918 28.6082C195.618 29.2882 190.287 32.2921 189.616 33.1648C188.946 34.0376 190.023 34.3015 189.952 35.2047L189.017 33.652L187.149 34.9002L188.083 36.7574L187.149 37.072L186.682 35.5193L185.646 36.1891L186.205 38.6247L185.108 37.3866L183.727 38.4724L186.357 42.0548L187.433 40.9283L186.834 39.5685L188.235 40.5021C189.027 39.5685 189.586 39.1219 188.703 38.0158C189.505 37.7215 189.556 39.0103 189.789 38.9393C190.419 38.7667 195.516 34.7074 196.907 33.9057C206.148 28.5575 218.161 25.716 228.752 24.6199C232.367 24.2445 238.034 23.6964 241.547 23.9806C242.095 24.0212 242.745 23.9197 242.928 24.6199C224.487 24.4779 205.681 27.5833 190.713 38.9393C189.505 39.9135 191.221 40.6543 191.19 41.7605L189.941 39.8932L188.51 41.1211L189.322 43.3132L187.931 41.7706L186.814 42.5216C186.357 42.8768 186.682 42.887 186.814 43.1508C187.464 44.4904 188.794 45.5357 189.017 47.0478C187.484 46.3577 186.956 42.9174 185.28 43.6176C186.001 41.9127 183.95 40.7355 183.361 39.2843L182.163 39.5685L182.722 38.2289L180.142 34.9002L179.076 36.2499C180.904 38.442 182.315 40.9283 183.899 43.2929C184.387 44.0236 184.763 44.5817 185.26 45.3429C186.012 46.4998 186.905 47.6364 187.474 48.9049L190.51 45.6372L189.342 43.6075L191.048 45.1602L192.094 44.0337L191.515 42.3694L192.45 43.6176H192.896C207.61 31.5107 227.848 29.0954 246.36 28.6691C246.218 29.136 244.746 29.2577 244.329 29.2882C240.511 29.5723 236.632 29.5622 232.804 29.9174C218.669 31.2468 204.28 35.022 193.211 44.2367L193.688 45.7995L192.612 44.876C191.414 45.3226 191.647 46.855 191.505 47.0478C191.454 47.129 190.317 46.4287 189.769 47.3522C189.667 48.428 190.784 48.9049 191.19 49.4732C191.79 50.3155 191.383 52.193 193.018 49.9604L192.439 48.7324L191.505 48.9151C191.353 48.3265 192.186 47.8089 192.602 47.677C193.353 47.4334 192.653 48.3874 193.089 49.0267C194.186 50.62 194.704 48.0423 194.968 47.7074C195.049 47.6059 196.258 47.1797 197.131 46.6013C211.774 36.798 229.047 33.7636 246.513 33.0329C247.518 32.9923 249.346 32.698 249.782 33.652C230.225 34.3116 209.235 36.6356 194.013 50.0517L196.014 53.8979C197.08 53.4514 196.989 52.6294 197.182 52.4365C197.679 51.9494 198.786 52.6091 198.045 50.7824L198.817 51.716C199.487 51.4217 200.005 50.4678 200.472 50.1735C202.442 48.9354 206.067 47.0275 208.21 46.1547C208.656 45.9721 209.042 45.7082 209.57 45.8097C207.874 47.7886 203.274 48.8846 201.65 50.5084C201.254 50.9041 201.101 51.1376 201.152 51.7262L200.685 51.1071L196.481 54.5373L198.664 58.2718C201.69 55.9783 204.828 52.8222 208.595 52.0002C209.083 46.3171 211.53 41.6793 217.887 44.1961C218.994 44.6325 222.893 47.0173 223.462 47.0681C224.68 47.1696 225.361 45.2211 227.716 46.2055L256.921 64.0564C258.982 65.6395 259.856 68.1868 261.318 70.257C275.118 78.8527 289.416 86.7379 303.175 95.3843C313.584 101.93 323.159 108.709 331.75 117.589C332.573 118.441 334.096 120.096 334.228 121.181C333.74 121.648 325.18 118.746 323.779 118.685L312.72 119.314L317.392 118.38C317.493 118.299 316.996 117.761 316.924 117.761H311.939C311.573 117.761 309.684 118.675 309.288 117.761C311.299 117.437 313.35 117.376 315.371 117.132C315.838 117.081 316.325 116.889 315.828 116.513C313.472 116.27 311.147 116.716 308.831 116.838C308.324 116.868 306.699 117.061 306.475 116.513L313.645 115.58C310.233 114.717 306.79 115.874 303.368 115.884C303.317 115.427 304.18 115.326 304.485 115.295C306.587 115.052 308.75 115.052 310.852 114.646L310.324 114.067C307.186 114.646 303.856 113.834 300.89 115.275C300.687 114.443 301.449 114.524 301.997 114.372C303.104 114.057 304.556 113.854 305.724 113.722C306.008 113.692 309.451 113.925 308.364 113.093C306.699 112.494 299.601 114.017 298.697 113.57C298.555 113.499 298.301 113.164 298.392 113.103L306.496 112.474C306.455 111.906 305.186 111.815 304.78 111.825C290.634 112.18 270.528 120.187 259.155 128.549C255.774 131.035 253.184 133.918 250.605 136.668C250.513 136.759 247.904 138.809 249.61 138.322C250.249 138.139 251.854 136.262 252.362 135.623L257.571 132.101C256.667 132.72 255.662 134.232 254.982 134.8C254.545 135.166 253.834 135.217 253.397 135.572C252.666 136.171 250.97 137.52 251.651 138.322C250.93 138.129 250.737 138.018 250.219 138.616C249.681 139.022 250.006 139.377 250.087 139.875C249.376 139.489 248.635 139.245 248.838 138.322C248.747 138.22 247.294 139.367 247.721 139.875C249.498 142.432 251.011 145.132 252.636 147.78C252.961 148.318 253.925 148.704 253.966 149.861L257.865 156.559L258.647 156.386C259.064 155.909 258.993 155.097 259.155 154.874C259.216 154.803 260.333 155.178 260.638 153.991L259.734 151.718L261.135 153.27C261.897 153.037 264.141 149.658 264.72 150.165L263.207 151.941C263.126 152.256 263.339 152.956 263.471 153.281C263.44 153.22 262.74 152.357 262.537 152.347L261.318 154.103C261.247 154.529 262.628 156.193 262.851 156.711C262.933 156.904 263.247 158.081 263.004 158.263L260.973 154.529C258.739 155.696 260.445 156.63 260.983 158.263L262.222 157.797C261.562 158.923 261.115 159.004 261.592 160.445C261.521 160.527 260.881 159.857 260.323 160.577C259.642 161.46 260.891 163.125 259.876 162.323C255.824 152.57 249.549 143.904 243.832 135.064C243.781 134.11 244.167 134.851 244.4 135.125C245.416 136.333 245.944 137.875 247.142 138.951C248.097 138.951 248.229 137.764 248.513 137.409C248.726 137.135 249.64 136.769 249.671 136.323C249.671 136.191 249.234 135.359 249.132 134.922C249.518 135.247 249.671 135.399 249.914 135.856C250.889 134.851 251.275 135.054 251.011 133.674L251.031 133.552ZM172.496 30.7698C172.892 31.054 173.765 30.1305 173.755 29.6637L172.963 28.2835C171.917 28.9939 172.151 29.7246 172.496 30.7698ZM215.815 48.5193C215.094 47.3928 213.297 46.9361 212.393 46.175C211.896 45.7589 212.2 45.7589 212.546 45.4037L219.786 49.7168C220.659 49.9299 221.39 48.5497 222.04 48.0525C219.694 46.8753 214.191 42.7956 211.957 45.3835C210.921 46.581 214.932 48.1742 215.805 48.5193H215.815ZM257.886 66.2789C257.033 65.5786 256.251 64.6146 255.367 63.9651C248.503 58.901 236.724 51.8987 229.108 47.8495C228.701 47.6364 227.29 46.7535 227.127 46.723C226.315 46.581 225.015 47.9307 226.396 48.0525C227.056 47.2203 228.011 48.0728 228.793 48.4787C237.049 52.6903 244.949 58.6981 253.194 63.0213C254.393 65.4772 255.032 66.0658 257.876 66.2789H257.886ZM223.827 48.57C223.116 49.3616 221.654 50.0314 221.116 50.8636C220.893 51.2086 220.629 51.0767 221.126 51.4826L250.117 68.9378C251.184 69.3538 252.89 67.0806 253.834 66.4413L223.827 48.57ZM210.2 50.0821L209.58 50.2344C209.448 51.9291 214.78 55.5927 216.282 56.6177C216.77 56.9526 217.267 57.0033 217.369 56.4553C217.521 55.6434 210.332 51.716 210.2 50.0821ZM220.019 52.0103L219.532 52.8323L249.701 70.7442L250.189 69.9221L220.019 52.0103ZM218.415 57.8456L218.059 58.4444L247.762 75.727L248.117 75.1282L218.415 57.8456ZM218.161 58.9924L217.481 60.1391L247.589 77.8886L248.269 76.7418L218.161 58.9924ZM258.82 68.4608C256.84 65.5989 253.103 67.5068 251.966 70.0135L253.966 70.937C255.225 69.3843 256.647 68.0548 258.82 68.4608ZM255.398 71.8808L297.174 96.9776H297.773L299.327 95.3843L258.18 70.1759C257.175 69.709 256.535 71.0385 255.591 71.2414L255.398 71.8808ZM253.215 71.5763L251.346 70.7746C249.153 72.8652 246.919 78.6294 251.194 79.6646C250.798 76.823 251.691 73.9916 253.215 71.5763ZM232.022 70.9471L229.829 71.0892L227.046 72.1954C228.529 71.962 230.082 71.8402 231.565 71.5662C232.073 71.4748 232.103 71.7691 232.032 70.9573L232.022 70.9471ZM254.585 72.307L254.159 73.0174L296.625 98.5709L297.052 97.8605L254.585 72.307ZM294.97 103.341L252.27 78.4265L253.408 79.9386C264.892 86.3422 276.123 93.2329 287.588 99.6568C289.913 100.966 292.472 102.59 294.96 103.341H294.97ZM251.651 81.542C249.437 81.1868 246.99 81.8262 244.786 82.3133C244.441 82.3945 243.781 82.3133 243.862 82.7801C246.086 82.6482 248.361 82.4351 250.574 82.1712C251.042 82.1103 251.529 82.1103 251.651 81.542ZM258.201 84.6575L251.042 85.8956C253.083 85.8855 255.479 85.7739 257.449 85.2867C257.977 85.1548 258.363 85.6013 258.201 84.6575ZM302.139 95.8715C300.281 95.6583 298.22 97.1806 297.814 98.9566L298.87 99.9206L302.139 95.8816V95.8715ZM314.609 104.589L303.084 97.5459C302.15 97.3125 301.5 98.236 300.901 98.8145C302.596 99.5452 312.304 106.263 313.157 106.081C313.523 106.01 313.888 105.259 314.406 105.218L314.599 104.579L314.609 104.589ZM312.426 107.39C312.913 106.923 310.649 105.776 310.344 105.583C307.917 104.061 304.841 102.092 302.353 100.793C301.611 100.408 300.84 99.8699 299.966 99.9105L312.426 107.38V107.39ZM296.676 102.914C296.443 102.488 296.443 101.889 295.915 101.778C295.925 102.894 295.488 104.761 297.154 104.893C296.92 104.467 297.143 103.402 297.072 103.188C297.011 102.985 296.737 103.036 296.676 102.914ZM321.778 109.582L316.275 105.573L313.99 107.238L320.204 111.317C320.651 111.439 322.022 109.937 321.778 109.582ZM320.215 111.754L313.36 107.704C313.218 108.466 313.441 108.486 313.868 108.902C314.203 109.217 319.158 112.302 319.494 112.332L320.215 111.754ZM299.337 108.009H294.199C293.366 108.009 291.67 108.892 290.614 108.638L293.589 108.963C295.305 108.476 297.164 108.861 298.88 108.638C299.337 108.577 299.855 108.395 299.347 108.019L299.337 108.009ZM329.252 116.422C328.145 115.448 324.124 111.185 323.048 110.952C322.753 110.891 321.281 111.693 321.2 111.804C321.149 111.875 321.464 112.231 321.403 112.322C321.149 112.677 319.747 112.616 321.037 113.57C322.977 115.011 325.739 116.117 327.851 117.355C328.45 116.422 326.246 116.361 326.135 115.488C327.302 115.64 327.902 116.767 329.252 116.412V116.422ZM318.661 115.184L311.807 112.383C311.634 113.215 312.02 112.921 312.416 113.154C313.462 113.763 316.518 115.174 317.635 115.427C317.95 115.498 318.732 115.742 318.651 115.194L318.661 115.184ZM327.384 117.985C326.328 117.731 319.94 114.808 319.595 115.184L319.798 116.117C322.012 116.523 324.287 117.64 326.429 118.157C326.744 118.228 327.445 118.563 327.374 117.985H327.384ZM332.684 119.842C332.197 119.182 331.456 118.289 330.796 117.843C330.288 117.498 330.034 117.142 329.577 117.822C330.4 118.654 331.476 119.649 332.684 119.842ZM259.754 156.295C257.784 156.67 258.597 158.203 259.297 159.42C259.5 159.765 259.257 160.151 259.927 160.039C262.12 159.055 260.028 157.756 259.764 156.295H259.754Z" fill="white"/>
<path d="M251.346 141.651C251.722 141.945 252.128 142.189 252.433 142.574L257.063 137.713C268.893 126.804 286.755 119.01 302.637 116.432C303.074 116.361 303.206 115.833 303.703 116.574C299.276 118.035 294.564 118.715 290.066 120.075C278.124 123.668 266.761 129.605 257.591 138.068C258.647 139.418 259.49 136.485 260.699 137.135C259.703 138.352 257.591 139.459 256.627 140.555C256.068 141.204 256.718 141.742 254.9 141.935L255.083 143.833L253.865 143.183L254.149 142.28L252.646 143.366L254.616 146.633C256.627 143.833 259.338 141.529 262.252 139.469C262.547 141.103 259.521 140.646 260.384 142.584L259.45 142.097C258.789 142.94 257.652 143.264 258.201 144.452L257.276 143.833L256.454 145.385C256.302 145.923 257.723 148.156 258.515 147.567V149.434C257.337 149.059 257.073 146.309 255.875 146.309C253.448 146.309 256.779 149.323 256.88 149.516C256.941 149.627 257.49 151.555 257.581 151.931C255.763 150.997 256.078 149.079 254.768 147.699L253.844 147.882C254.718 146.126 252.849 145.487 252.585 143.833L251.356 144.137C252.362 143.061 251.803 142.777 251.356 141.651H251.346Z" fill="white"/>
<path d="M248.544 137.287C247.508 137.378 247.447 135.602 246.696 135.267C246.381 135.125 245.853 135.643 245.741 135.267C246.695 134.334 247.863 133.633 248.879 132.791C249.254 132.476 249.397 131.776 249.691 131.685C251.052 131.228 250.493 131.969 250.605 132.334C250.737 132.75 250.94 133.106 251.032 133.562C250.341 133.146 250.503 132.182 249.468 132.781C248.533 133.319 248.98 134.019 249.163 134.811C248.808 134.506 248.361 134.283 248.077 133.877C246.31 135.176 248.168 135.907 248.544 137.297V137.287Z" fill="white"/>
<path d="M257.581 151.931C259.308 152.814 258.871 150.906 259.155 150.388C259.206 150.307 260.282 150.683 260.871 149.749L260.384 147.882L261.47 149.12L263.055 147.567L262.567 146.014L264.121 147.415C263.532 147.882 262.933 148.288 262.394 148.805C261.46 149.708 260.607 150.774 259.764 151.616C259.023 152.357 258.241 153.139 257.429 153.798C257.358 152.834 257.876 153.057 257.591 151.931H257.581Z" fill="white"/>
<path d="M243.558 15.5067C242.38 14.5934 241.577 13.3248 240.755 12.0867C242.38 11.8026 244.055 12.3607 245.568 12.4115C259.338 12.8783 273.514 12.3912 287.182 11.1531C287.121 11.6706 285.872 11.7112 285.466 11.7721C281.556 12.2897 277.555 12.1984 273.635 12.7261C262.963 13.0914 252.331 12.9798 241.679 12.7261C242.552 15.1921 245.812 14.157 248.076 14.2686C261.399 14.9283 274.671 14.4513 287.984 13.3756L288.583 12.7261C290.279 14.6543 292.157 16.4505 293.894 18.3381C294.107 18.5715 295.478 20.0126 295.285 20.2054L294.219 19.6066L268.172 21.7581C268.172 21.2304 269.208 21.1593 269.574 21.139C272.021 20.9462 274.6 21.0173 277.047 20.8244C281.201 20.4896 285.364 19.9314 289.517 19.5863C291.02 19.4646 292.635 19.8604 294.036 19.1195C293.325 18.4294 292.848 17.5465 291.711 17.6886C280.449 18.3685 269.167 20.3881 257.886 19.5863L291.853 17.4045C292.117 16.349 291.051 16.207 290.411 15.6082L268.335 17.4146L245.416 17.0899L246.655 19.2717C245.599 18.399 243.984 16.755 243.537 15.5372C245.568 17.1102 246.919 16.3186 249.315 16.4607C256.87 16.9173 264.466 16.7854 272.061 16.7956L290.279 15.2226C289.537 14.0352 289.04 13.6496 287.628 13.6394C283.221 13.5988 277.839 14.6847 273.29 14.908C264.567 15.3443 254.91 15.2936 246.167 14.9283C245.182 14.8877 244.228 14.4411 243.222 14.6035C243.385 14.8978 243.426 15.2327 243.537 15.5372L243.558 15.5067Z" fill="white"/>
<path d="M359.369 81.3667L303.613 89.0691L303.725 89.8834L359.482 82.181L359.369 81.3667Z" fill="white"/>
<path d="M373.393 94.42L318.267 102.447L318.385 103.261L373.511 95.2335L373.393 94.42Z" fill="white"/>
<path d="M350.09 72.7849L294.883 79.843L294.982 80.6181L350.189 73.56L350.09 72.7849Z" fill="white"/>
<path d="M354.47 76.9982L298.95 84.4114L299.054 85.1859L354.573 77.7728L354.47 76.9982Z" fill="white"/>
<path d="M383.402 103.655L330.45 111.526L330.556 112.239L383.508 104.368L383.402 103.655Z" fill="white"/>
<path d="M364.04 85.7323L307.956 93.5896L308.07 94.4037L364.154 86.5464L364.04 85.7323Z" fill="white"/>
<path d="M378.369 99.079L323.829 107.177L323.957 108.04L378.498 99.9423L378.369 99.079Z" fill="white"/>
<path d="M368.504 90.067L312.678 98.0769L312.792 98.8705L368.618 90.8606L368.504 90.067Z" fill="white"/>
<path d="M305.572 30.7697C304.719 30.8813 304.475 29.7954 303.795 29.5925C303.114 29.3895 302.251 29.5925 301.52 29.5214L303.388 29.2068C302.708 26.4363 299.56 28.0195 297.468 27.644L301.52 27.0249C300.342 24.5284 297.661 25.939 295.437 26.0913C294.3 26.1725 293.153 26.0101 292.015 26.0913C285.841 26.5682 279.688 27.6135 273.473 27.644L276.438 27.0249L299.652 25.1475L297.925 23.5846C289.964 24.4269 281.952 25.2185 273.95 25.4621C273.27 25.4824 271.371 26.416 271.615 25.1475C273.209 25.0764 274.844 25.2388 276.438 25.1475C282.338 24.7821 288.979 24.295 294.828 23.5948C295.833 23.473 297.722 23.4831 297.946 22.6611L305.582 30.7595L305.572 30.7697Z" fill="white"/>
<path d="M341.386 64.479L287.764 71.2869L287.855 72.0017L341.476 65.1938L341.386 64.479Z" fill="white"/>
<path d="M336.723 60.2683L284.066 66.8511L284.157 67.5761L336.814 60.9933L336.723 60.2683Z" fill="white"/>
<path d="M345.994 68.6697L291.224 75.5457L291.316 76.2807L346.086 69.4047L345.994 68.6697Z" fill="white"/>
<path d="M324.187 48.0545L273.422 53.6018L273.507 54.3786L324.272 48.8313L324.187 48.0545Z" fill="white"/>
<path d="M319.839 43.8746L269.999 49.3823L270.089 50.1893L319.928 44.6815L319.839 43.8746Z" fill="white"/>
<path d="M332.595 56.1734L280.581 62.3259L280.668 63.0616L332.682 56.9091L332.595 56.1734Z" fill="white"/>
<path d="M328.235 52.1573L276.883 58.0317L276.964 58.7375L328.316 52.8631L328.235 52.1573Z" fill="white"/>
<path d="M311.492 36.0671C311.573 36.4934 310.933 36.534 310.639 36.605C309.918 36.7572 308.963 36.8384 308.181 36.9602C296.95 38.6245 285.567 39.4465 274.255 40.4309C270.681 40.7455 267.106 41.4965 263.501 41.3646L311.492 36.0773V36.0671Z" fill="white"/>
<path d="M315.543 40.1165C315.35 40.5731 313.98 40.6036 313.472 40.6848C311.218 41.04 308.892 41.3444 306.628 41.6286C294.29 43.1711 280.185 45.079 267.858 45.5864C267.35 45.6067 267.035 45.8909 266.619 45.2515L315.543 40.1165Z" fill="white"/>
<path d="M306.506 31.7034C291.183 33.6113 275.809 35.3263 260.384 36.3716L283.597 33.8853L306.506 31.7034Z" fill="white"/>
<path d="M253.215 37.9345C242.106 38.4216 231.027 39.9134 220.182 42.2983L223.553 41.1515C228.387 40.1976 233.241 39.2233 238.145 38.6043C242.146 38.0969 247.569 37.3763 251.509 37.2952C252.118 37.285 253.001 37.1937 253.225 37.9345H253.215Z" fill="white"/>
<path d="M256.332 41.6793C256.647 42.4912 254.748 42.5216 254.271 42.5724C251.407 42.887 248.483 42.9174 245.619 43.2726C240.136 43.9526 234.703 45.0892 229.219 45.7184C229.494 45.2008 230.824 45.0689 231.393 44.937C239.476 43.1204 248.107 42.7043 256.322 41.6692L256.332 41.6793Z" fill="white"/>
<path d="M259.754 46.3474C260.252 46.7229 259.754 46.9157 259.297 46.9665C251.854 47.8392 244.401 48.5293 237.008 49.7674C236.937 49.3209 237.556 49.331 237.881 49.2397C239.476 48.7932 241.476 48.5293 243.141 48.2655C248.635 47.3927 254.23 46.8751 259.764 46.3474H259.754Z" fill="white"/>
<path d="M296.849 21.7377L269.736 23.605L273.635 22.986C280.002 22.854 286.319 22.0523 292.645 21.4333C293.67 21.3318 295.996 21.9305 295.915 20.8142L296.849 21.7377Z" fill="white"/>
<path d="M262.872 51.0158L262.415 51.6348L244.492 54.1212C244.339 53.2281 244.685 53.6036 245.213 53.4615C245.954 53.2484 246.787 53.1266 247.548 52.9744C252.585 52.0103 257.794 51.513 262.872 51.0056V51.0158Z" fill="white"/>
<path d="M325.201 119.233L323.017 120.471C324.297 120.775 325.749 120.035 326.907 120.146C327.374 120.197 327.851 120.42 327.374 120.775L318.651 121.395C319.027 120.38 321.992 120.989 322.388 120.461C320.976 118.918 318.113 120.501 316.153 120.146C316.315 119.669 317.727 119.578 318.184 119.527C320.458 119.263 322.895 119.213 325.19 119.213L325.201 119.233Z" fill="white"/>
<path d="M266.619 55.9985L250.727 58.1804C250.656 57.744 251.275 57.7237 251.59 57.6527C255.144 56.7799 260.313 56.1406 264.009 55.7347C264.71 55.6636 266.355 55.1968 266.619 55.9985Z" fill="white"/>
<path d="M255.083 28.9024C255.743 31.4801 258.322 30.6783 260.384 30.7697C260.455 31.3177 259.673 31.064 259.297 31.0741C258.414 31.1147 257.52 31.0437 256.647 31.0741C258.363 33.4184 259.064 34.3723 262.252 33.8751C261.846 34.5956 260.343 33.9968 259.653 34.1795C259.328 34.2709 259.561 34.9102 259.297 34.8087L247.924 20.7939C248.899 20.5909 248.493 21.7174 249.386 21.9812C250.087 22.1943 251.915 22.0827 252.768 22.0522C253.529 22.0218 255.642 21.1085 255.408 22.3465H249.488C250.899 24.9344 252.758 24.1225 255.174 24.1022C255.581 24.1022 255.865 23.8282 256.027 24.5284H251.661C251.661 25.2591 252.321 26.3348 253.072 26.3957L263.511 25.7767L259.612 26.3957L253.225 26.7103L254.677 28.5269L260.384 28.2732C260.404 28.4761 259.967 28.8922 259.917 28.8922H255.083V28.9024Z" fill="white"/>
<path d="M270.041 60.6667L256.952 62.534C257.074 61.9048 257.612 62.0266 258.038 61.915C260.658 61.2452 264.395 60.7276 267.116 60.4029C267.898 60.3115 269.736 59.8041 270.031 60.6667H270.041Z" fill="white"/>
<path d="M273.473 65.3452L261.003 67.2125C261.115 66.6138 261.653 66.695 262.08 66.5732C264.07 66.0049 270.498 64.7668 272.427 64.7363C272.925 64.7363 273.341 64.7871 273.473 65.3351V65.3452Z" fill="white"/>
<path d="M276.895 69.3943C276.773 70.0133 276.235 69.9017 275.809 70.0133C272.864 70.7542 269.32 70.8962 266.304 71.566C266.152 70.6121 266.548 71.0688 267.086 70.9571C270.305 70.2873 273.646 69.6378 276.905 69.3943H276.895Z" fill="white"/>
<path d="M280.327 74.3771L272.539 75.6253C272.387 74.7323 272.732 75.1078 273.26 74.9657C274.57 74.5902 278.053 73.7986 279.282 73.7783C279.779 73.7783 280.195 73.8291 280.327 74.3771Z" fill="white"/>
<path d="M246.35 119.527C246.299 119.588 245.385 119.872 244.989 120.207C244.258 120.826 243.456 121.963 242.826 122.541C242.298 123.018 241.039 122.673 241.679 124.195L240.775 123.861C240.724 123.597 240.674 123.231 240.816 123.008C240.938 122.805 244.015 120.4 244.512 120.025C245.05 119.619 245.67 119.324 246.208 118.908L246.36 119.527H246.35Z" fill="white"/>
<path d="M413.088 117.67L409.656 115.032L406.234 111.449C406.823 111.317 406.975 111.774 407.321 112.068C409.25 113.692 411.291 115.864 413.088 117.67Z" fill="white"/>
<path d="M329.567 121.405C329.628 121.861 328.744 121.963 328.45 121.993C326.764 122.166 325.018 121.993 323.332 122.328C323.464 121.709 323.972 121.8 324.429 121.709C326.114 121.384 327.861 121.354 329.567 121.394V121.405Z" fill="white"/>
<path d="M283.76 78.7309L279.089 79.3601C278.936 78.4264 279.322 78.8628 279.84 78.7309C280.845 78.4873 283.252 77.645 283.76 78.7309Z" fill="white"/>
<path d="M48.4454 124.432L47.8176 124.635L60.9719 165.095L61.5996 164.891L48.4454 124.432Z" fill="white"/>
<path d="M43.4694 118.192L42.9084 118.372L50.984 143.599L51.545 143.42L43.4694 118.192Z" fill="white"/>
<path d="M59.6499 150.905L59.1472 151.067L65.9621 172.254L66.4649 172.093L59.6499 150.905Z" fill="white"/>
<path d="M61.8231 165.861L61.3206 166.023L67.2504 184.393L67.753 184.231L61.8231 165.861Z" fill="white"/>
<path d="M51.5752 126.702C51.1183 126.773 51.1589 126.164 51.0472 125.829C50.5293 124.307 50.2856 122.683 49.7982 121.161C49.0264 118.807 47.6352 116.402 47.5337 113.936L50.4176 121.79L51.5752 126.702Z" fill="white"/>
<path d="M54.0395 151.266L53.5374 151.429L57.5749 163.841L58.0771 163.678L54.0395 151.266Z" fill="white"/>
<path d="M65.2839 160.963L62.5726 153.555L61.5571 149.13L65.0706 159.471L65.2839 160.963Z" fill="white"/>
<path d="M46.5893 119.852L43.1672 109.267C43.614 109.196 43.5734 109.795 43.7054 110.12C44.8935 113.154 46.0004 116.655 46.5893 119.852Z" fill="white"/>
<path d="M59.0591 149.749L57.1094 144.38L53.7686 132.933C54.2357 132.933 54.3474 133.867 54.4692 134.252C56.1447 139.347 57.7288 144.583 59.0591 149.749Z" fill="white"/>
<path d="M70.212 183.926L69.7383 184.078L72.1485 191.576L72.6222 191.424L70.212 183.926Z" fill="white"/>
<path d="M46.824 179.891L46.2432 180.075L55.3117 208.714L55.8925 208.531L46.824 179.891Z" fill="white"/>
<path d="M13.5565 78.731L11.2818 71.8199L11.0686 70.3281L12.7746 74.9964L13.5565 78.731Z" fill="white"/>
<path d="M423.375 122.653C423.162 122.866 420.877 120.907 420.572 120.633C415.79 116.381 411.271 111.165 406.549 106.771C407.138 106.639 407.29 107.095 407.635 107.39C408.945 108.496 410.56 110.069 411.85 111.277C414.886 114.149 417.739 117.284 420.714 120.177C421.05 120.501 423.822 122.206 423.375 122.653Z" fill="white"/>
<path d="M206.778 155.361L189.332 161.125C164.606 172.055 140.357 184.345 114.442 192.484C113.945 192.636 113.518 192.818 112.98 192.727C113.538 191.996 114.92 191.651 115.793 191.337C127.115 187.247 137.645 183.665 148.724 178.773C166.759 170.807 183.179 162.12 202.188 156.203C203.64 155.757 205.275 155.31 206.798 155.361H206.778Z" fill="white"/>
<path d="M252.748 18.6222C252.849 18.6526 253.225 19.0484 253.215 19.2412L252.108 19.2615L246.98 18.6222C248.574 18.886 251.326 18.2568 252.748 18.6222Z" fill="white"/>
<path d="M223.507 50.014L223.103 50.6833L249.927 66.8355L250.33 66.1662L223.507 50.014Z" fill="white"/>
</g>
<defs>
<clipPath id="clip0_775_5078">
<rect width="444.578" height="238.527" fill="white"/>
</clipPath>
</defs>
</svg>
