<?xml version="1.0" encoding="UTF-8"?>
<svg id="Layer_1" data-name="Layer 1" xmlns="http://www.w3.org/2000/svg" viewBox="0 0 2000 2000">
  <defs>
    <style>
      .cls-1, .cls-2 {
        fill: none;
        stroke: #000;
        stroke-miterlimit: 10;
      }

      .cls-2 {
        stroke-width: 1px;
      }
    </style>
  </defs>
  <g>
    <g id="_Radial_Repeat_" data-name="&amp;lt;Radial Repeat&amp;gt;">
      <line class="cls-1" x1="1000" y1="1815.26" x2="1000" y2="1883.35"/>
    </g>
    <g id="_Radial_Repeat_-2" data-name="&amp;lt;Radial Repeat&amp;gt;">
      <line class="cls-1" x1="789" y1="1787.48" x2="771.37" y2="1853.25"/>
    </g>
    <g id="_Radial_Repeat_-3" data-name="&amp;lt;Radial Repeat&amp;gt;">
      <line class="cls-1" x1="592.37" y1="1706.04" x2="558.33" y2="1765"/>
    </g>
    <g id="_Radial_Repeat_-4" data-name="&amp;lt;Radial Repeat&amp;gt;">
      <line class="cls-1" x1="423.52" y1="1576.48" x2="375.38" y2="1624.62"/>
    </g>
    <g id="_Radial_Repeat_-5" data-name="&amp;lt;Radial Repeat&amp;gt;">
      <line class="cls-1" x1="293.96" y1="1407.63" x2="235" y2="1441.67"/>
    </g>
    <g id="_Radial_Repeat_-6" data-name="&amp;lt;Radial Repeat&amp;gt;">
      <line class="cls-1" x1="212.52" y1="1211.01" x2="146.75" y2="1228.63"/>
    </g>
    <g id="_Radial_Repeat_-7" data-name="&amp;lt;Radial Repeat&amp;gt;">
      <line class="cls-1" x1="184.74" y1="1000" x2="116.65" y2="1000"/>
    </g>
    <g id="_Radial_Repeat_-8" data-name="&amp;lt;Radial Repeat&amp;gt;">
      <line class="cls-1" x1="212.52" y1="789" x2="146.75" y2="771.37"/>
    </g>
    <g id="_Radial_Repeat_-9" data-name="&amp;lt;Radial Repeat&amp;gt;">
      <line class="cls-1" x1="293.96" y1="592.37" x2="235" y2="558.33"/>
    </g>
    <g id="_Radial_Repeat_-10" data-name="&amp;lt;Radial Repeat&amp;gt;">
      <line class="cls-1" x1="423.52" y1="423.52" x2="375.38" y2="375.38"/>
    </g>
    <g id="_Radial_Repeat_-11" data-name="&amp;lt;Radial Repeat&amp;gt;">
      <line class="cls-1" x1="592.37" y1="293.96" x2="558.32" y2="235"/>
    </g>
    <g id="_Radial_Repeat_-12" data-name="&amp;lt;Radial Repeat&amp;gt;">
      <line class="cls-1" x1="788.99" y1="212.52" x2="771.37" y2="146.75"/>
    </g>
    <g id="_Radial_Repeat_-13" data-name="&amp;lt;Radial Repeat&amp;gt;">
      <line class="cls-1" x1="1000" y1="184.74" x2="1000" y2="116.65"/>
    </g>
    <g id="_Radial_Repeat_-14" data-name="&amp;lt;Radial Repeat&amp;gt;">
      <line class="cls-1" x1="1211" y1="212.52" x2="1228.63" y2="146.75"/>
    </g>
    <g id="_Radial_Repeat_-15" data-name="&amp;lt;Radial Repeat&amp;gt;">
      <line class="cls-1" x1="1407.63" y1="293.96" x2="1441.67" y2="235"/>
    </g>
    <g id="_Radial_Repeat_-16" data-name="&amp;lt;Radial Repeat&amp;gt;">
      <line class="cls-1" x1="1576.48" y1="423.52" x2="1624.62" y2="375.38"/>
    </g>
    <g id="_Radial_Repeat_-17" data-name="&amp;lt;Radial Repeat&amp;gt;">
      <line class="cls-1" x1="1706.04" y1="592.37" x2="1765" y2="558.32"/>
    </g>
    <g id="_Radial_Repeat_-18" data-name="&amp;lt;Radial Repeat&amp;gt;">
      <line class="cls-1" x1="1787.48" y1="788.99" x2="1853.25" y2="771.37"/>
    </g>
    <g id="_Radial_Repeat_-19" data-name="&amp;lt;Radial Repeat&amp;gt;">
      <line class="cls-1" x1="1815.26" y1="1000" x2="1883.35" y2="1000"/>
    </g>
    <g id="_Radial_Repeat_-20" data-name="&amp;lt;Radial Repeat&amp;gt;">
      <line class="cls-1" x1="1787.48" y1="1211" x2="1853.25" y2="1228.63"/>
    </g>
    <g id="_Radial_Repeat_-21" data-name="&amp;lt;Radial Repeat&amp;gt;">
      <line class="cls-1" x1="1706.04" y1="1407.63" x2="1765" y2="1441.67"/>
    </g>
    <g id="_Radial_Repeat_-22" data-name="&amp;lt;Radial Repeat&amp;gt;">
      <line class="cls-1" x1="1576.48" y1="1576.48" x2="1624.62" y2="1624.62"/>
    </g>
    <g id="_Radial_Repeat_-23" data-name="&amp;lt;Radial Repeat&amp;gt;">
      <line class="cls-1" x1="1407.63" y1="1706.04" x2="1441.67" y2="1765"/>
    </g>
    <g id="_Radial_Repeat_-24" data-name="&amp;lt;Radial Repeat&amp;gt;">
      <line class="cls-1" x1="1211.01" y1="1787.48" x2="1228.63" y2="1853.25"/>
    </g>
  </g>
  <g>
    <g id="_Radial_Repeat_-25" data-name="&amp;lt;Radial Repeat&amp;gt;">
      <path class="cls-2" d="M1000.05,1815.32c269.24-435.28,107.47-852.09,0-852.09-107.47,0-269.24,416.81,0,852.09Z"/>
    </g>
    <g id="_Radial_Repeat_-26" data-name="&amp;lt;Radial Repeat&amp;gt;">
      <path class="cls-2" d="M789.04,1787.54c372.73-350.76,324.34-795.24,220.54-823.06-103.81-27.81-367.95,332.92-220.54,823.06Z"/>
    </g>
    <g id="_Radial_Repeat_-27" data-name="&amp;lt;Radial Repeat&amp;gt;">
      <path class="cls-2" d="M592.41,1706.1c450.81-242.34,519.12-684.2,426.04-737.93-93.07-53.73-441.57,226.35-426.04,737.93Z"/>
    </g>
    <g id="_Radial_Repeat_-28" data-name="&amp;lt;Radial Repeat&amp;gt;">
      <path class="cls-2" d="M423.57,1576.54c498.17-117.41,678.51-526.53,602.52-602.52-75.99-75.99-485.11,104.35-602.52,602.52Z"/>
    </g>
    <g id="_Radial_Repeat_-29" data-name="&amp;lt;Radial Repeat&amp;gt;">
      <path class="cls-2" d="M294,1407.69c511.58,15.53,791.67-332.97,737.93-426.04-53.73-93.07-495.59-24.76-737.93,426.04Z"/>
    </g>
    <g id="_Radial_Repeat_-30" data-name="&amp;lt;Radial Repeat&amp;gt;">
      <path class="cls-2" d="M212.56,1211.06c490.13,147.41,850.87-116.73,823.06-220.54-27.81-103.81-472.29-152.19-823.06,220.54Z"/>
    </g>
    <g id="_Radial_Repeat_-31" data-name="&amp;lt;Radial Repeat&amp;gt;">
      <path class="cls-2" d="M184.78,1000.06c435.28,269.24,852.09,107.47,852.09,0,0-107.47-416.81-269.24-852.09,0Z"/>
    </g>
    <g id="_Radial_Repeat_-32" data-name="&amp;lt;Radial Repeat&amp;gt;">
      <path class="cls-2" d="M212.56,789.05c350.76,372.73,795.24,324.34,823.06,220.54,27.81-103.81-332.92-367.95-823.06-220.54Z"/>
    </g>
    <g id="_Radial_Repeat_-33" data-name="&amp;lt;Radial Repeat&amp;gt;">
      <path class="cls-2" d="M294,592.42c242.34,450.81,684.2,519.12,737.93,426.04s-226.35-441.57-737.93-426.04Z"/>
    </g>
    <g id="_Radial_Repeat_-34" data-name="&amp;lt;Radial Repeat&amp;gt;">
      <path class="cls-2" d="M423.57,423.58c117.41,498.17,526.53,678.51,602.52,602.52,75.99-75.99-104.35-485.11-602.52-602.52Z"/>
    </g>
    <g id="_Radial_Repeat_-35" data-name="&amp;lt;Radial Repeat&amp;gt;">
      <path class="cls-2" d="M592.41,294.02c-15.53,511.58,332.97,791.67,426.04,737.93,93.07-53.73,24.76-495.59-426.04-737.93Z"/>
    </g>
    <g id="_Radial_Repeat_-36" data-name="&amp;lt;Radial Repeat&amp;gt;">
      <path class="cls-2" d="M789.04,212.57c-147.41,490.13,116.73,850.87,220.54,823.06,103.81-27.81,152.19-472.29-220.54-823.06Z"/>
    </g>
    <g id="_Radial_Repeat_-37" data-name="&amp;lt;Radial Repeat&amp;gt;">
      <path class="cls-2" d="M1000.05,184.79c-269.24,435.28-107.47,852.09,0,852.09,107.47,0,269.24-416.81,0-852.09Z"/>
    </g>
    <g id="_Radial_Repeat_-38" data-name="&amp;lt;Radial Repeat&amp;gt;">
      <path class="cls-2" d="M1211.05,212.57c-372.73,350.76-324.34,795.24-220.54,823.06,103.81,27.81,367.95-332.92,220.54-823.06Z"/>
    </g>
    <g id="_Radial_Repeat_-39" data-name="&amp;lt;Radial Repeat&amp;gt;">
      <path class="cls-2" d="M1407.68,294.02c-450.81,242.34-519.12,684.2-426.04,737.93s441.57-226.35,426.04-737.93Z"/>
    </g>
    <g id="_Radial_Repeat_-40" data-name="&amp;lt;Radial Repeat&amp;gt;">
      <path class="cls-2" d="M1576.53,423.58c-498.17,117.41-678.51,526.53-602.52,602.52,75.99,75.99,485.11-104.35,602.52-602.52Z"/>
    </g>
    <g id="_Radial_Repeat_-41" data-name="&amp;lt;Radial Repeat&amp;gt;">
      <path class="cls-2" d="M1706.09,592.42c-511.58-15.53-791.67,332.97-737.93,426.04,53.73,93.07,495.59,24.76,737.93-426.04Z"/>
    </g>
    <g id="_Radial_Repeat_-42" data-name="&amp;lt;Radial Repeat&amp;gt;">
      <path class="cls-2" d="M1787.53,789.05c-490.13-147.41-850.87,116.73-823.06,220.54,27.81,103.81,472.29,152.19,823.06-220.54Z"/>
    </g>
    <g id="_Radial_Repeat_-43" data-name="&amp;lt;Radial Repeat&amp;gt;">
      <path class="cls-2" d="M1815.31,1000.06c-435.28-269.24-852.09-107.47-852.09,0,0,107.47,416.81,269.24,852.09,0Z"/>
    </g>
    <g id="_Radial_Repeat_-44" data-name="&amp;lt;Radial Repeat&amp;gt;">
      <path class="cls-2" d="M1787.53,1211.06c-350.76-372.73-795.24-324.34-823.06-220.54-27.81,103.81,332.92,367.95,823.06,220.54Z"/>
    </g>
    <g id="_Radial_Repeat_-45" data-name="&amp;lt;Radial Repeat&amp;gt;">
      <path class="cls-2" d="M1706.09,1407.69c-242.34-450.81-684.2-519.12-737.93-426.04-53.73,93.07,226.35,441.57,737.93,426.04Z"/>
    </g>
    <g id="_Radial_Repeat_-46" data-name="&amp;lt;Radial Repeat&amp;gt;">
      <path class="cls-2" d="M1576.53,1576.54c-117.41-498.17-526.53-678.51-602.52-602.52-75.99,75.99,104.35,485.11,602.52,602.52Z"/>
    </g>
    <g id="_Radial_Repeat_-47" data-name="&amp;lt;Radial Repeat&amp;gt;">
      <path class="cls-2" d="M1407.68,1706.1c15.53-511.58-332.97-791.67-426.04-737.93-93.07,53.73-24.76,495.59,426.04,737.93Z"/>
    </g>
    <g id="_Radial_Repeat_-48" data-name="&amp;lt;Radial Repeat&amp;gt;">
      <path class="cls-2" d="M1211.05,1787.54c147.41-490.13-116.73-850.87-220.54-823.06-103.81,27.81-152.19,472.29,220.54,823.06Z"/>
    </g>
  </g>
  <g id="_Круги" data-name="Круги">
    <circle id="_Внешний_круг" data-name="Внешний круг" class="cls-1" cx="1000" cy="1000" r="883.35"/>
    <circle id="_Начальный_круг" data-name="Начальный круг" class="cls-1" cx="1000" cy="1000" r="815.26"/>
    <circle class="cls-1" cx="1000" cy="1000" r="107.78" transform="translate(-414.21 1000) rotate(-45)"/>
    <circle class="cls-1" cx="1000" cy="1000" r="650.93"/>
    <circle class="cls-1" cx="1000" cy="1000" r="505.11"/>
    <circle class="cls-1" cx="1000" cy="1000" r="382.76"/>
    <circle class="cls-1" cx="1000" cy="1000" r="287.41"/>
    <circle class="cls-1" cx="1000" cy="1000" r="217.74"/>
    <circle class="cls-1" cx="1000" cy="1000" r="167.26"/>
    <circle class="cls-1" cx="1000.05" cy="1000.06" r="132.27"/>
  </g>
</svg>