<svg width="977" height="977" viewBox="0 0 977 977" fill="none" xmlns="http://www.w3.org/2000/svg">
<path d="M488.299 938.494L488.299 976.094" stroke="white" stroke-opacity="0.3" stroke-miterlimit="10"/>
<path d="M371.78 923.154L362.045 959.473" stroke="white" stroke-opacity="0.3" stroke-miterlimit="10"/>
<path d="M263.2 878.176L244.402 910.74" stroke="white" stroke-opacity="0.3" stroke-miterlimit="10"/>
<path d="M169.959 806.636L143.375 833.22" stroke="white" stroke-opacity="0.3" stroke-miterlimit="10"/>
<path d="M98.4139 713.396L65.8555 732.193" stroke="white" stroke-opacity="0.3" stroke-miterlimit="10"/>
<path d="M53.4401 604.814L17.1211 614.55" stroke="white" stroke-opacity="0.3" stroke-miterlimit="10"/>
<path d="M38.1002 488.297L0.5 488.297" stroke="white" stroke-opacity="0.3" stroke-miterlimit="10"/>
<path d="M53.4401 371.78L17.1211 362.045" stroke="white" stroke-opacity="0.3" stroke-miterlimit="10"/>
<path d="M98.4139 263.199L65.8555 244.401" stroke="white" stroke-opacity="0.3" stroke-miterlimit="10"/>
<path d="M169.959 169.958L143.375 143.374" stroke="white" stroke-opacity="0.3" stroke-miterlimit="10"/>
<path d="M263.199 98.413L244.396 65.8545" stroke="white" stroke-opacity="0.3" stroke-miterlimit="10"/>
<path d="M371.775 53.4409L362.045 17.1218" stroke="white" stroke-opacity="0.3" stroke-miterlimit="10"/>
<path d="M488.299 38.1003L488.299 0.500122" stroke="white" stroke-opacity="0.3" stroke-miterlimit="10"/>
<path d="M604.814 53.4409L614.544 17.1218" stroke="white" stroke-opacity="0.3" stroke-miterlimit="10"/>
<path d="M713.396 98.4128L732.194 65.8544" stroke="white" stroke-opacity="0.3" stroke-miterlimit="10"/>
<path d="M806.631 169.958L833.22 143.374" stroke="white" stroke-opacity="0.3" stroke-miterlimit="10"/>
<path d="M878.176 263.199L910.74 244.396" stroke="white" stroke-opacity="0.3" stroke-miterlimit="10"/>
<path d="M923.154 371.775L959.473 362.045" stroke="white" stroke-opacity="0.3" stroke-miterlimit="10"/>
<path d="M938.494 488.297L976.094 488.297" stroke="white" stroke-opacity="0.3" stroke-miterlimit="10"/>
<path d="M923.154 604.814L959.473 614.544" stroke="white" stroke-opacity="0.3" stroke-miterlimit="10"/>
<path d="M878.176 713.396L910.74 732.193" stroke="white" stroke-opacity="0.3" stroke-miterlimit="10"/>
<path d="M806.637 806.631L833.22 833.221" stroke="white" stroke-opacity="0.3" stroke-miterlimit="10"/>
<path d="M713.396 878.176L732.194 910.74" stroke="white" stroke-opacity="0.3" stroke-miterlimit="10"/>
<path d="M604.814 923.154L614.55 959.473" stroke="white" stroke-opacity="0.3" stroke-miterlimit="10"/>
<path d="M488.322 938.527C637 708.547 547.669 488.325 488.322 488.325C428.976 488.325 339.644 708.547 488.322 938.527Z" stroke="white" stroke-opacity="0.3" stroke-miterlimit="10"/>
<path d="M371.804 923.187C574.941 739.526 545.646 503.687 488.327 488.325C431.001 472.968 287.719 662.559 371.804 923.187Z" stroke="white" stroke-opacity="0.3" stroke-miterlimit="10"/>
<path d="M263.221 878.214C506.968 753.387 539.714 518 488.319 488.33C436.925 458.66 249.449 604.709 263.221 878.214Z" stroke="white" stroke-opacity="0.3" stroke-miterlimit="10"/>
<path d="M169.982 806.664C437.734 749.173 530.285 530.287 488.322 488.325C446.359 446.362 227.473 538.913 169.982 806.664Z" stroke="white" stroke-opacity="0.3" stroke-miterlimit="10"/>
<path d="M98.4375 713.429C371.943 727.201 517.998 539.725 488.322 488.33C458.651 436.936 223.265 469.682 98.4375 713.429Z" stroke="white" stroke-opacity="0.3" stroke-miterlimit="10"/>
<path d="M53.4648 604.847C314.087 688.938 503.684 545.65 488.327 488.325C472.97 431 237.131 401.71 53.4648 604.847Z" stroke="white" stroke-opacity="0.3" stroke-miterlimit="10"/>
<path d="M38.125 488.325C268.105 637.002 488.328 547.671 488.328 488.325C488.328 428.978 268.105 339.647 38.125 488.325Z" stroke="white" stroke-opacity="0.3" stroke-miterlimit="10"/>
<path d="M53.4648 371.808C237.125 574.945 472.964 545.65 488.327 488.33C503.684 431.005 314.093 287.723 53.4648 371.808Z" stroke="white" stroke-opacity="0.3" stroke-miterlimit="10"/>
<path d="M98.4375 263.226C223.265 506.973 458.651 539.719 488.322 488.325C517.992 436.93 371.943 249.454 98.4375 263.226Z" stroke="white" stroke-opacity="0.3" stroke-miterlimit="10"/>
<path d="M169.982 169.985C227.473 437.737 446.359 530.287 488.322 488.325C530.285 446.362 437.734 227.476 169.982 169.985Z" stroke="white" stroke-opacity="0.3" stroke-miterlimit="10"/>
<path d="M263.221 98.4404C249.449 371.946 436.925 518.001 488.319 488.325C539.714 458.654 506.968 223.268 263.221 98.4404Z" stroke="white" stroke-opacity="0.3" stroke-miterlimit="10"/>
<path d="M371.804 53.468C287.714 314.09 431.002 503.687 488.327 488.33C545.652 472.973 574.941 237.134 371.804 53.468Z" stroke="white" stroke-opacity="0.3" stroke-miterlimit="10"/>
<path d="M488.322 38.1277C339.644 268.108 428.976 488.33 488.322 488.33C547.669 488.33 637 268.108 488.322 38.1277Z" stroke="white" stroke-opacity="0.3" stroke-miterlimit="10"/>
<path d="M604.844 53.468C401.707 237.128 431.002 472.967 488.321 488.33C545.647 503.687 688.929 314.096 604.844 53.468Z" stroke="white" stroke-opacity="0.3" stroke-miterlimit="10"/>
<path d="M713.424 98.4406C469.677 223.268 436.931 458.654 488.325 488.325C539.72 517.995 727.196 371.946 713.424 98.4406Z" stroke="white" stroke-opacity="0.3" stroke-miterlimit="10"/>
<path d="M806.661 169.985C538.909 227.476 446.358 446.362 488.321 488.325C530.284 530.287 749.17 437.737 806.661 169.985Z" stroke="white" stroke-opacity="0.3" stroke-miterlimit="10"/>
<path d="M878.211 263.226C604.706 249.454 458.651 436.93 488.327 488.325C517.998 539.719 753.384 506.973 878.211 263.226Z" stroke="white" stroke-opacity="0.3" stroke-miterlimit="10"/>
<path d="M923.183 371.808C662.561 287.717 472.964 431.005 488.321 488.33C503.678 545.656 739.517 574.945 923.183 371.808Z" stroke="white" stroke-opacity="0.3" stroke-miterlimit="10"/>
<path d="M938.523 488.325C708.543 339.647 488.32 428.978 488.32 488.325C488.32 547.671 708.543 637.002 938.523 488.325Z" stroke="white" stroke-opacity="0.3" stroke-miterlimit="10"/>
<path d="M923.182 604.847C739.522 401.71 503.683 431.005 488.32 488.325C472.957 545.645 662.554 688.933 923.182 604.847Z" stroke="white" stroke-opacity="0.3" stroke-miterlimit="10"/>
<path d="M878.206 713.429C753.379 469.682 517.993 436.936 488.322 488.33C458.652 539.725 604.701 727.201 878.206 713.429Z" stroke="white" stroke-opacity="0.3" stroke-miterlimit="10"/>
<path d="M806.661 806.664C749.17 538.913 530.284 446.362 488.321 488.324C446.358 530.287 538.909 749.173 806.661 806.664Z" stroke="white" stroke-opacity="0.3" stroke-miterlimit="10"/>
<path d="M713.424 878.215C727.196 604.709 539.72 458.654 488.325 488.33C436.931 518.001 469.677 753.387 713.424 878.215Z" stroke="white" stroke-opacity="0.3" stroke-miterlimit="10"/>
<path d="M604.844 923.187C688.935 662.564 545.647 472.968 488.322 488.325C430.997 503.682 401.707 739.521 604.844 923.187Z" stroke="white" stroke-opacity="0.3" stroke-miterlimit="10"/>
<path d="M488.297 976.094C757.7 976.094 976.094 757.7 976.094 488.297C976.094 218.894 757.7 0.5 488.297 0.5C218.894 0.5 0.5 218.894 0.5 488.297C0.5 757.7 218.894 976.094 488.297 976.094Z" stroke="white" stroke-opacity="0.3" stroke-miterlimit="10"/>
<path d="M488.297 938.494C736.933 938.494 938.493 736.934 938.493 488.297C938.493 239.66 736.933 38.1002 488.297 38.1002C239.66 38.1002 38.0996 239.66 38.0996 488.297C38.0996 736.934 239.66 938.494 488.297 938.494Z" stroke="white" stroke-opacity="0.3" stroke-miterlimit="10"/>
<path d="M514.495 514.494C528.963 500.026 528.963 476.569 514.495 462.1C500.027 447.632 476.569 447.632 462.101 462.101C447.633 476.569 447.633 500.026 462.101 514.494C476.569 528.962 500.027 528.962 514.495 514.494Z" stroke="white" stroke-opacity="0.3" stroke-miterlimit="10"/>
<path d="M488.297 850.764C688.482 850.764 850.764 688.482 850.764 488.297C850.764 288.112 688.482 125.83 488.297 125.83C288.112 125.83 125.83 288.112 125.83 488.297C125.83 688.482 288.112 850.764 488.297 850.764Z" stroke="white" stroke-opacity="0.3" stroke-miterlimit="10"/>
<path d="M488.297 770.815C644.327 770.815 770.814 644.327 770.814 488.297C770.814 332.267 644.327 205.78 488.297 205.78C332.267 205.78 205.779 332.267 205.779 488.297C205.779 644.327 332.267 770.815 488.297 770.815Z" stroke="white" stroke-opacity="0.3" stroke-miterlimit="10"/>
<path d="M488.297 700.805C605.662 700.805 700.805 605.662 700.805 488.297C700.805 370.932 605.662 275.789 488.297 275.789C370.932 275.789 275.789 370.932 275.789 488.297C275.789 605.662 370.932 700.805 488.297 700.805Z" stroke="white" stroke-opacity="0.3" stroke-miterlimit="10"/>
<path d="M488.298 643.325C573.917 643.325 643.326 573.917 643.326 488.297C643.326 402.678 573.917 333.269 488.298 333.269C402.678 333.269 333.27 402.678 333.27 488.297C333.27 573.917 402.678 643.325 488.298 643.325Z" stroke="white" stroke-opacity="0.3" stroke-miterlimit="10"/>
<path d="M488.298 598.812C549.333 598.812 598.812 549.333 598.812 488.297C598.812 427.262 549.333 377.783 488.298 377.783C427.262 377.783 377.783 427.262 377.783 488.297C377.783 549.333 427.262 598.812 488.298 598.812Z" stroke="white" stroke-opacity="0.3" stroke-miterlimit="10"/>
<path d="M488.298 565.966C531.193 565.966 565.966 531.192 565.966 488.297C565.966 445.402 531.193 410.629 488.298 410.629C445.402 410.629 410.629 445.402 410.629 488.297C410.629 531.192 445.402 565.966 488.298 565.966Z" stroke="white" stroke-opacity="0.3" stroke-miterlimit="10"/>
<path d="M488.32 542.193C518.07 542.193 542.188 518.076 542.188 488.325C542.188 458.574 518.07 434.457 488.32 434.457C458.569 434.457 434.451 458.574 434.451 488.325C434.451 518.076 458.569 542.193 488.32 542.193Z" stroke="white" stroke-opacity="0.3" stroke-miterlimit="10"/>
</svg>
