<svg width="145" height="313" viewBox="0 0 145 313" fill="none" xmlns="http://www.w3.org/2000/svg">
<g clip-path="url(#clip0_775_590)">
<path d="M58.4921 96.0925C59.1073 95.9667 61.6673 94.2062 62.5901 93.7739C64.8127 92.7285 67.571 92.0605 69.7639 91.0466C71.4904 90.2449 74.1099 88.6887 74.8342 87.2268L73.5443 88.3586C72.0857 88.1699 74.983 87.1482 74.4075 86.543C73.5443 87.0224 72.6413 88.4214 71.6789 88.2485L73.3954 86.8809C72.7902 86.5901 72.1353 87.5176 71.4804 87.8634C70.7363 88.2564 69.7043 88.8066 68.8113 88.8066C69.5456 88.0363 70.8156 87.7534 71.6789 87.1089C72.046 86.8338 72.1552 86.7159 71.54 86.7709C67.3726 89.0659 61.4788 90.292 57.9067 93.2473C57.6289 93.4752 57.6487 94.1669 57.0534 93.6953C56.7855 92.2098 59.792 90.913 61.2704 90.2213C66.4697 87.7691 73.4847 86.5508 76.1538 81.7564C71.9567 78.1016 64.5944 76.8991 58.6013 76.121C56.3688 75.8302 51.7648 76.231 50.7527 74.1561C50.3162 73.2444 49.7903 70.5013 50.1772 69.6289C50.9115 68.0019 55.0392 66.0763 56.9641 65.2353C62.2626 62.9246 68.9899 62.0129 72.4826 57.8001C68.6526 54.5147 62.4313 52.7777 57.0435 51.6695C54.0866 51.0564 51.0107 50.8599 48.1332 50.3176C46.6647 50.0425 44.6009 49.626 43.9857 48.3763C43.7377 47.8654 43.2118 44.9259 43.2713 44.415C43.4995 42.5601 47.7066 40.9882 49.5918 40.3122C56.0413 38.0015 64.4654 36.6496 68.9205 31.7687C70.5477 29.9846 70.8454 29.1829 69.3174 27.3909C66.3903 23.9562 59.3157 20.6237 54.4438 19.1775C50.4253 17.9828 43.7575 17.8807 42.3188 14.2416C40.6419 9.98953 42.6462 7.76523 47.012 5.55666C51.9037 3.08871 57.9266 3.10443 62.3023 -0.0158691C68.4343 6.3662 55.3765 8.08748 50.3261 10.0052C48.8576 10.5633 47.6272 11.4043 46.1289 11.8994C48.8675 13.0784 51.9633 13.7229 54.7911 14.8075C63.0961 17.9907 73.1573 23.909 72.2246 32.1224C71.4308 39.0704 57.8571 42.4029 51.1893 44.9966C50.6436 45.2088 49.83 45.3975 49.572 45.869C56.9046 46.5293 70.0219 49.4766 73.9015 54.8841C75.0326 56.456 75.7768 59.6078 74.8639 61.2505C72.4429 65.6126 60.0103 68.3713 55.3071 71.2008C55.575 71.5309 55.8925 71.4916 56.3092 71.5467C61.8657 72.2383 76.64 74.0618 77.6521 79.6343C77.9796 81.4342 76.7393 87.1796 75.2112 88.5629C74.5266 89.176 72.6513 90.3235 71.7384 90.8108C69.2479 92.1548 60.2583 94.945 59.3157 96.6505C59.1768 96.8942 59.3455 97.0357 59.6729 97.0435C62.5008 97.5937 65.5271 98.1203 68.2656 98.8748C69.5555 99.2285 74.0007 100.4 74.2289 101.421C74.3083 101.759 74.2289 101.822 73.8023 101.759C70.2798 99.6451 65.8049 99.2599 61.7467 98.1282L61.7863 98.5762L65.9041 99.7158L62.0245 99.0399L61.9947 99.2914L65.0409 100.172L60.1591 99.6058L64.7531 100.628C64.8226 101.044 64.1379 100.824 63.8303 100.793C62.8976 100.69 61.9947 100.36 61.0322 100.4L64.4753 101.083L62.7587 101.531C64.9218 101.964 67.1742 102.27 69.2876 102.828C69.8929 102.985 74.7052 104.29 73.6534 105.163C71.4308 104.416 69.3273 103.599 66.9856 103.056C64.7829 102.545 62.4313 101.351 60.2484 100.761L58.2838 96.7527C58.1151 96.4619 58.3731 96.2733 58.4524 96.0689C58.2738 96.1082 57.8174 96.1554 57.8869 95.9117C57.6091 94.7956 57.1923 93.9389 58.7402 93.3416L58.4524 94.2455L59.3157 94.3634L58.1746 94.9371V95.3851L59.0279 95.1572C58.77 95.4873 58.6013 95.6681 58.4524 96.0611L58.4921 96.0925ZM60.5064 2.49137C55.9619 3.75679 50.3955 4.3384 46.4762 6.71203C45.5733 7.25435 43.9262 8.50404 44.0155 9.30573L45.3153 8.5119L44.1643 10.0996L45.3153 9.87163L43.8865 11.5772L45.3252 10.7834L43.8865 12.709C46.0694 10.9248 48.4805 9.73801 51.3481 8.73983C54.2156 7.74165 57.8472 7.21505 60.3774 5.66669C60.6254 5.51736 61.191 5.14009 60.3774 5.21869C59.4348 5.85532 57.9365 6.3662 56.7359 6.64915C56.4481 6.71989 55.3468 7.05786 55.3567 6.57842C57.232 6.17757 59.9805 5.27371 61.2406 4.07903C61.4291 3.89826 61.9947 3.62317 61.5284 3.39524C59.8515 4.9436 57.0236 6.05968 54.4934 6.23259C55.3666 5.78459 59.8019 4.53489 60.169 4.03187C60.3079 3.83538 60.2087 3.59959 60.2285 3.39524C59.2462 3.26162 58.4822 3.74893 57.6587 3.969C57.3808 4.03973 56.7359 4.27553 56.7954 3.8511L60.5163 2.48351L60.5064 2.49137ZM67.0948 23.1624C67.2238 22.738 66.7971 22.6201 66.5292 22.3685C63.5426 19.5548 56.4581 15.7507 51.9732 14.8075C51.6954 14.7525 50.9611 14.5796 51.0405 14.9804L55.0491 16.5681L48.7385 14.9804L55.3269 17.2519C55.3865 17.6763 54.7415 17.4405 54.4637 17.3698C52.896 16.9611 51.3977 16.3244 49.7407 16.1122C49.2842 16.3402 49.949 16.3952 50.1475 16.4659C50.971 16.7567 51.8243 16.9375 52.6479 17.2126C53.0646 17.3541 54.0271 17.5977 54.1759 17.9357L49.1552 16.5759C48.3317 16.5131 48.9072 16.8746 49.1949 17.0004C50.8619 17.6999 53.2928 18.085 55.1186 18.6745C58.5021 19.7748 61.2902 20.8831 64.3066 22.5257C65.0508 22.9266 66.0926 23.8776 66.7971 23.7361C66.2613 22.9973 64.6241 22.7772 64.7928 21.8026L67.0849 23.1624H67.0948ZM51.0405 44.0613C56.5374 42.6623 64.0883 40.0136 68.1465 36.7125C68.6923 36.2645 70.0318 35.1406 69.8234 34.5196C69.1785 35.2034 68.5037 35.9029 67.6703 36.4531C67.4421 36.6025 67.0948 37.0505 66.807 36.6811C67.9183 35.7379 69.6051 34.4882 69.6746 33.1599C69.0098 33.3721 68.6625 34.0088 68.1069 34.3074C65.785 35.5414 62.1535 37.0269 59.5439 37.9779C56.9542 38.9211 45.8015 41.9392 45.0077 43.7312L45.5832 44.1792L45.0077 44.9809L46.1488 44.525L45.2955 45.8848L46.4365 45.4289C46.0892 45.9948 45.097 46.2463 45.2955 47.0166C46.9624 45.759 49.0957 45.0438 51.0306 44.0613C50.0979 44.2971 49.0759 44.415 48.163 44.7451L49.5918 44.0613L48.163 43.8334L49.5918 42.5837L47.8753 42.6937C49.4529 41.0353 52.3601 40.9096 54.7613 40.6502L51.1 41.9313C50.7825 42.0964 50.078 42.9138 50.8817 42.6937C52.4296 42.2693 54.1362 41.224 55.9024 41.1061L50.1673 43.3775C50.0979 43.7941 50.7627 43.574 51.0405 43.4954C51.8938 43.2518 52.5983 42.6308 53.6104 42.6937L51.0306 44.0534L51.0405 44.0613ZM71.9766 54.5147C72.2941 54.2239 70.2798 52.8249 69.9524 52.6048C65.4675 49.6417 57.5198 47.4567 51.7251 47.048C51.4076 47.0244 50.6932 46.8358 50.7627 47.2445C52.6777 47.5274 54.6324 47.8182 56.4978 48.2662C56.8847 48.3606 57.867 48.4706 57.9266 48.8321L49.8994 47.7003L58.7898 49.7439C58.8593 50.1683 58.2143 49.9089 57.9166 49.8696C55.2972 49.4845 52.7471 48.6907 50.0483 48.6042C49.5819 48.8872 50.3062 48.8479 50.5344 48.895C53.1639 49.4766 55.9024 49.7674 58.5021 50.4277C58.5715 50.8285 57.8571 50.6477 57.5694 50.6006C55.823 50.294 54.037 49.791 52.2709 49.571C51.9633 49.5317 51.2687 49.3273 51.3382 49.736C58.4227 51.363 66.4597 52.4162 72.1353 56.3224C72.5818 56.1181 72.0659 55.8116 71.8575 55.6386C70.9347 54.8762 69.3968 54.3968 68.5534 53.4851L71.1332 54.3968L68.2656 52.5734C69.1884 52.1254 71.8376 54.6405 71.9865 54.5068L71.9766 54.5147ZM71.4011 60.4252L66.3407 62.6652C62.7091 63.9542 58.6509 64.9052 55.6246 67.0116C56.4283 67.0352 56.9343 66.43 57.619 66.2099C57.877 66.1235 58.5616 65.9191 58.4921 66.3357L55.3368 67.9233C56.5176 67.6561 57.5198 66.878 58.7005 66.6108C58.9684 66.5479 59.7126 66.3907 59.6431 66.7837C57.9563 66.9959 56.2695 67.8998 55.059 68.8272L59.6431 67.2396L56.2001 68.9451L58.4921 68.3792C58.2242 68.8586 57.4602 69.0237 56.9542 69.3224C56.6863 69.4796 56.0512 69.7782 56.9046 69.7389C62.1435 67.3181 68.0473 65.6912 72.5421 62.3587L71.6888 62.1386L72.8299 61.1168C70.8851 61.1561 69.2578 62.2958 67.4718 62.8931C67.2138 62.9796 66.7376 63.3883 66.5193 63.0425C68.0572 62.0836 70.2798 61.8085 71.3911 60.4331L71.4011 60.4252ZM54.7713 67.4675C53.3325 67.8054 51.7549 68.9765 51.616 70.1869L54.7713 67.4675ZM55.0491 68.1513C54.682 67.8762 51.4771 70.4463 51.8938 70.8786L52.7471 70.4227L52.1716 71.4445H52.7471L51.8839 72.6942L55.8925 70.0769L54.1759 70.4149L55.0392 69.511L53.6104 69.7311L55.0491 68.1434V68.1513ZM74.8441 77.6851C70.1012 73.6216 62.2825 72.9535 55.6246 72.4662C55.5452 72.7964 56.1703 72.7571 56.4779 72.8121C58.0952 73.0714 59.782 73.1972 61.4093 73.4487C61.7863 73.5037 62.7984 73.4723 62.7885 73.826C60.5163 73.8653 58.2838 73.2758 56.0513 73.15C55.7139 73.1343 54.4835 72.9614 54.4736 73.3701L62.7885 74.7298L53.8981 73.826L63.6418 75.4136C63.7013 75.8381 63.0366 75.5944 62.729 75.5708C61.0819 75.4451 59.4248 75.0285 57.7777 74.9499C57.4404 74.9342 56.1902 74.7849 56.1902 75.1857C60.6453 75.5944 65.2294 76.3332 69.4563 77.52C70.6172 77.8501 72.0262 78.589 72.9787 78.8247C73.1672 78.8719 73.4649 78.8719 73.4054 78.7147L72.8299 77.9209L74.1198 78.3689L74.2587 78.0309L69.9623 75.6416C71.8972 75.728 73.1275 77.1663 74.8342 77.6851H74.8441Z" fill="white"/>
<path d="M77.4833 106.538C80.1524 88.0129 85.2326 69.7784 89.8862 51.536C90.4518 51.2138 91.1166 51.2138 91.7814 51.1745C102.617 50.4514 119.197 51.5596 130.171 52.6207C131.709 52.77 140.093 53.6189 140.679 54.0433C140.927 54.2162 141.026 54.5777 141.135 54.8292C142.762 70.1006 144.092 85.3406 144.459 100.667C144.945 121.126 144.092 153.366 120.844 166.547C119.306 167.419 117.44 167.985 115.903 168.944C110.981 172.033 108.461 177.385 108.272 182.258C112.38 180.561 116.915 179.036 119.435 175.759C119.951 175.09 119.921 174.187 120.764 173.652C121.459 173.613 121.499 173.99 121.648 174.383C124.575 182.093 114.861 186.448 107.23 188.601L106.119 200.021C110.713 200.383 123.146 203.684 124.396 207.48C124.922 209.068 124.485 213.029 123.424 214.475C120.129 218.963 109.304 221.25 103.202 221.832L101.793 233.975C102.001 234.447 105.464 235.131 106.447 235.461C109.522 236.514 115.069 238.998 115.793 241.827C117.986 250.394 107.905 254.489 99.3025 256.603C98.4789 257.358 98.2606 265.626 98.6575 266.868C98.985 267.882 103.142 273.407 104.115 274.02C105.385 274.822 113.908 276.237 116.151 276.819C118.562 277.439 124.843 279.051 126.371 280.481C130.597 284.427 118.433 285.763 115.635 286.038C110.128 286.588 104.512 286.431 99.0445 286.352C94.1528 286.282 89.271 286.203 84.4389 285.849C80.2814 290.479 89.4695 292.153 92.6744 294.841C99.4513 295.006 106.784 294.259 113.531 294.668C122.888 295.242 121.429 298.928 114.791 302.001C100.95 308.399 67.1344 313.649 51.2388 312.745C49.4032 312.643 43.7574 312.116 43.1621 310.537C42.0011 307.448 48.0934 305.506 50.9213 304.469C53.9575 303.353 64.6439 300.853 66.2413 299.682C67.2137 298.967 71.4506 293.057 71.9665 291.886C73.177 289.166 72.4527 286.887 71.3315 284.207C67.0153 283.303 62.0839 282.776 58.0455 281.251C45.6922 276.583 63.9592 273.973 68.8013 273.879L68.0174 270.633C64.4156 270.279 62.8876 268.558 61.7465 265.988C60.1094 262.302 60.9528 258.788 63.5623 255.534L60.8734 245.804C52.0326 245.215 48.0736 240.177 48.8674 233.433C49.3238 229.527 52.4791 227.082 54.9994 224.001L52.3501 213.493C51.8937 212.958 44.8191 213.312 43.3208 213.186C32.6146 212.338 25.9468 205.46 27.207 197.05C27.3459 196.092 28.7052 194.064 28.5663 193.639C28.3778 193.073 24.7562 189.812 23.9723 188.939C11.7976 175.279 7.83863 158.271 5.11991 141.915C2.45081 125.857 1.33951 109.643 0 93.4754L0.168679 93.0352C15.9749 89.3883 32.4856 86.6532 48.8773 85.4349L64.624 120.866C67.3328 118.139 71.2521 116.276 73.5144 113.274C81.6705 102.435 59.1667 104.471 57.0434 97.924C56.7655 97.0751 55.5153 94.9451 56.9838 93.1453C59.6827 89.8285 62.5006 90.0878 60.0796 91.7777C52.9851 96.7293 65.4972 97.7903 69.5157 99.213C71.4605 99.9046 73.5739 100.266 74.844 101.626C76.114 102.986 77.3345 104.998 77.4833 106.522V106.538ZM132.89 139.808C133.654 139.745 134.785 139.84 135.162 139.769C135.707 139.659 136.462 138.739 137.235 138.661C138.079 139.352 132.731 141.05 132.532 141.388C134.368 142.834 135.291 141.207 136.868 140.382C137.097 142.127 132.562 142.606 132.165 143.4C131.858 144.021 133.157 143.856 133.455 144.021L135.965 142.394L136.144 143.251H135.053L135.38 143.793L131.441 144.972L131.798 145.986L133.247 145.97C132.632 146.709 131.699 146.615 130.717 146.693C131.808 149.303 132.741 146.599 134.695 146.693C135.201 147.047 133.078 148.257 132.89 148.556C132.473 149.232 133.961 148.643 133.961 149.122C133.961 149.256 132.443 150.175 132.145 150.262C130.449 150.733 129.675 149.932 129.268 152.132L131.719 150.78L132.88 150.835L131.074 152.274C131.669 152.557 131.977 152.384 131.798 153.13L129.992 153.995C132.195 154.718 128.226 157.54 127.065 158.271C118.453 163.694 100.205 163.615 91.1364 158.962C76.5605 151.488 78.1184 127.649 79.309 115.561C80.1227 107.332 81.7301 98.2305 83.3176 90.0407C83.5855 88.681 85.1235 86.7239 83.6252 85.7493L85.0937 79.6973L84.3793 79.5559L78.6343 107.56C79.0808 114.877 77.2253 121.244 77.4833 128.758C77.7611 137.034 79.3586 151.755 87.2667 157.721C91.7119 161.069 96.812 162.177 102.478 163.741L96.6929 163.026C96.3655 164.04 97.1295 163.623 97.4172 164.165C95.4923 164.621 96.7525 164.59 97.4172 165.313L96.3357 165.454L96.5044 167.058C97.5562 167.82 99.0147 167.608 100.315 167.616L97.06 167.899L97.4867 168.708L101.039 168.763L98.1416 169.046C98.0622 170.06 99.5208 170.713 100.563 170.964C100.88 171.043 101.763 171.231 101.942 171.271C102.865 171.459 104.7 171.766 105.385 171.2L103.579 170.775C105.742 170.233 105.623 171.711 107.121 171.396L107.201 171.907H107.915V171.341L108.818 171.915L109.175 171.334L110.802 171.915L110.564 171.051L109.354 170.775L112.251 170.202L108.997 169.919C109.165 169.872 114.206 169.911 112.975 169.054C112.172 169.078 111.437 169.298 110.634 169.353C110.257 169.376 109.255 169.534 109.354 169.054L114.414 168.473L110.793 167.907H114.047L112.966 167.333C113.66 167.254 115.218 167.844 115.496 167.05L112.598 166.767L115.853 166.476H110.425V166.193H116.944V165.91H108.977V165.627H116.577V165.344H114.226H108.977C108.897 164.841 109.8 165.069 110.237 165.054C111.189 165.022 112.132 165.093 113.095 165.022C113.501 164.991 115.089 164.889 115.129 164.488H106.258C106.189 164.488 104.849 164.22 104.988 163.914C112.479 164.354 119.256 162.876 125.984 160.471C125.726 161.139 124.634 161.297 124.158 161.753C123.86 162.043 124.168 162.625 123.473 162.876C123.166 162.994 118.552 163.207 119.475 164.197L120.179 163.922L120.556 164.771L119.475 164.488L119.653 165.635C120.695 165.219 121.092 164.912 120.923 163.914L121.638 164.488C121.717 163.254 122.997 163.552 123.811 163.183C125.438 162.46 129.635 157.555 130.766 156.078C136.789 148.155 140.034 137.238 141.165 128.498C141.73 124.136 141.691 119.703 141.929 115.302C141.949 114.948 141.651 114.241 142.286 114.304V120.756C142.286 120.89 141.949 121.645 141.899 122.171C141.869 122.462 141.671 123.539 142.276 123.476C143.407 113.101 143.01 102.711 142.623 92.3436C142.603 91.9349 142.732 91.5497 142.971 91.1882C141.919 91.0153 142.663 90.08 142.633 89.2154C142.484 85.7964 141.691 82.4011 141.919 79.0214H140.103V79.8781L141.185 79.5951V80.7427L137.91 80.5855L137.573 81.8902C138.595 81.8509 140.004 81.7251 140.113 80.7427H140.47C140.361 81.4265 140.49 81.5051 141.204 81.7487V82.1731H140.48L141.204 82.8884L140.113 83.1713L141.204 83.8865C140.123 83.9809 138.734 83.5564 137.95 84.3188L139.021 84.7511V85.1755C138.337 85.4506 137.871 85.765 137.94 86.4645C140.808 86.8654 139.111 84.5939 141.194 84.4603C141.452 85.4349 140.708 85.7886 140.113 86.4645L141.383 86.1816C141.929 87.5806 138.813 86.0244 137.94 87.7614C137.672 88.3116 138.952 88.3744 139.22 88.343C140.063 88.2565 140.331 87.5492 141.194 87.612L140.956 88.4766L137.94 89.6241C138.357 90.473 140.004 90.0328 140.659 89.6241L140.837 90.19C139.766 90.1507 138.585 90.6459 138.327 91.5262C138.277 91.7069 139.766 92.5951 138.972 93.5933L137.216 93.9234C137.712 94.7015 139.508 93.3103 139.389 94.7801L136.858 95.6368L139.389 95.7783L137.156 97.6017L135.092 97.3816C134.229 98.6392 135.529 97.7589 135.41 98.7885L131.798 98.4977C132.056 97.9004 133.654 98.2383 134.229 97.8532C134.408 97.7353 134.725 97.0987 134.685 96.9415C134.408 95.9355 132.374 97.2323 132.155 96.4935L137.583 94.4814H135.777L136.501 93.6247C136.084 93.3182 133.862 95.4953 132.88 94.6229L133.792 94.1985L133.425 93.6326L129.982 93.9077L133.078 93.0667L133.237 91.9034C133.088 91.7855 130.855 92.5165 130.707 91.6205C131.213 91.6205 134.249 90.8502 133.594 90.1822C132.086 89.4119 131.481 90.6695 131.193 90.7323C130.865 90.7952 129.784 90.5594 129.258 90.7559C129.734 89.5141 134.467 89.8363 132.701 88.1858L131.074 88.7517C130.32 88.0522 133.425 87.8478 133.604 87.0304L131.431 86.7396C132.205 87.9107 131.123 87.7142 130.24 88.1779C130.002 88.2958 129.992 88.6652 129.903 88.6967C129.615 88.8067 128.722 88.398 128.176 88.7517L130.984 87.1798C130.607 85.3642 128.643 87.6985 127.452 86.5981C127.482 86.1266 130.33 86.1816 130.33 85.4506C130.339 84.4996 127.412 85.4506 126.976 85.6C126.877 85.6314 125.994 86.9361 125.269 85.8829L128.861 84.5703L129.972 83.7293L126.718 83.5879L129.615 82.0081L128.534 81.8666L129.258 80.7191L128.176 81.0099L127.978 80.1296L124.912 80.5776C125.041 79.3515 127.283 80.106 127.78 79.8388L127.809 78.4241L132.284 78.7227C132.711 77.5988 133.405 79.0214 133.792 77.8267C136.104 78.707 138.912 77.7403 141.194 78.707C141.353 77.9525 142.236 76.5849 140.837 76.6949L141.522 76.2941L139.061 54.2083C135.4 53.6975 131.679 53.2023 127.978 52.8958C120.983 52.3063 113.66 51.8897 106.635 51.7325C104.035 51.6775 95.6114 51.3788 93.6666 51.8033C93.3689 51.8661 93.0514 52.0548 93.0415 52.3141H97.7447L93.7658 52.8879L98.8361 53.7525H93.0415V54.3262H97.7447V54.6092H92.6744C92.3668 55.5838 94.4306 55.1122 95.3435 55.2222C95.8098 55.2773 97.3081 55.3401 97.3776 55.7567H92.3073C92.1584 56.5191 92.4462 56.2833 93.101 56.4012C94.133 56.5898 95.5618 56.5505 96.6433 56.6213L91.9401 57.3365L96.2762 58.0517L95.016 58.3347H91.9401C91.3547 58.6884 91.9401 58.8534 92.4759 58.9084C93.5475 59.0185 94.8176 58.8298 95.919 58.9084L93.3789 59.3407C93.4086 60.559 95.5816 59.6472 95.919 60.3389H91.2158C91.0074 61.6829 93.6071 60.4175 93.3888 61.7772C93.1209 61.958 90.7594 61.3685 90.4915 62.351L93.3789 62.7833L90.4915 63.2155L92.6645 63.4985C92.6645 65.2512 91.6722 65.2591 89.7671 64.929C89.3901 66.0372 92.337 65.3377 91.9302 66.2179C91.5234 67.0982 89.0924 65.6049 89.4 66.9332L91.573 67.0746L91.2059 68.2222L92.6545 68.9453L89.0329 69.2282H91.2059L90.8487 70.3757L93.3789 70.6587C92.0493 70.6194 91.196 70.415 90.6602 71.5232L90.4816 70.6665H88.6658L88.3086 72.9537V70.3757L87.5842 71.2324C87.8422 68.9924 88.4078 66.6817 88.9833 64.4574C89.2214 63.5378 89.6481 62.7125 89.7275 62.4139C90.2831 60.3861 91.0967 58.1382 91.5432 56.1575C91.7119 55.4344 91.196 55.9296 90.8388 56.0318C90.9082 55.4895 91.1563 55.0415 91.2158 54.4677C91.2456 54.1769 91.444 53.1001 90.8388 53.163L84.6671 78.5341L85.0441 79.1078C85.2227 78.2669 85.183 76.5692 85.7486 75.9168C86.086 75.5317 86.8698 75.9954 87.0286 75.2409L88.2986 76.1054L89.023 74.1012L88.6658 76.1054L89.7473 75.8225C90.293 76.3884 88.6955 79.5559 89.3504 80.2868L88.636 80.5776L88.9932 81.4265L88.2986 81.733L88.2788 82.2753L89.3901 83.5564C88.4475 83.9416 88.8047 82.5032 87.9414 82.9905C87.872 83.0298 88.2788 83.7765 87.5842 84.1302L89.3901 84.4131L87.614 84.4446C87.3362 85.1991 87.2667 85.5292 87.9315 86.1266L87.1873 86.3073C88.0208 87.5177 86.8996 87.2033 86.8401 87.4706C86.076 90.7088 85.193 94.1749 84.4686 97.5074C84.29 98.3327 84.3793 99.3466 84.3198 100.195H82.5139L83.784 100.486L83.9527 101.052H82.1468L84.3198 101.909L81.7896 102.2C81.9781 102.907 83.9626 102.286 83.5955 103.339L81.7797 103.772C81.6308 104.047 83.7344 103.952 83.2184 104.77H81.4126L82.8612 105.061L81.4126 105.485C81.4126 105.744 83.2184 105.603 82.8612 106.483L81.0554 106.774V107.34L82.504 106.766L81.4225 107.772L82.5139 108.055C81.353 109.085 81.9682 110.578 81.482 111.796L82.1468 111.93L81.4225 112.394L81.2538 114.508L80.718 112.213L80.6982 114.885L83.6054 115.648H81.0752L80.7081 117.369L83.2383 117.652C82.4048 117.605 80.6684 117.526 80.4898 118.359L80.7478 119.342L83.2383 119.656C82.3155 119.711 80.4799 119.42 79.9837 120.23C80.9264 120.073 80.6485 121.024 81.0454 121.252C81.6904 121.629 83.0795 121.031 83.2383 121.668C82.2758 121.707 81.2736 121.534 80.341 121.81C79.5075 122.053 81.1645 122.706 80.847 122.996L81.4324 123.389L79.9937 123.672C80.9561 123.476 80.5493 124.466 80.9164 124.56L83.2482 124.828H80.718L80.7478 126.533L81.8094 126.832L79.7258 127.256L80.0036 128.27L80.718 127.414C81.5217 128.97 78.1084 129.599 81.0851 129.567L81.0355 130.526L79.6464 130.998L80.718 131.721L80.0036 132.577L81.0851 132.287L81.4423 134.872L80.3608 134.016L80.7676 135.116L83.2482 135.163C83.2978 135.682 82.4445 135.352 81.9682 135.713C81.8491 135.8 81.8789 137.16 81.7995 137.45C81.9682 137.584 84.1412 137.112 84.3396 138.024C80.9164 136.955 83.0001 139.117 80.3608 139.604C81.869 140.877 82.0873 138.48 84.3396 139.18C84.7167 140.288 82.5735 139.51 82.1667 139.753L82.5338 140.61L81.1149 140.932L81.0851 141.765H82.3453L82.1667 140.909H84.6968C84.8655 141.86 83.5359 141.632 82.9108 141.938C82.5338 142.127 82.5239 142.858 81.4721 142.653L81.4324 143.77H83.6054L82.8811 142.913L85.7784 143.054C84.2007 143.29 83.5855 144.163 82.1567 144.776L83.2482 145.2L81.7995 145.341C82.8513 146.222 84.1015 145.845 83.9725 144.626L86.8599 144.917L85.054 145.2L85.4708 146.882L87.5942 146.929L85.7883 147.212V148.65H87.9613C87.9613 149.311 86.3439 148.831 86.5027 149.649C86.6615 150.466 87.4354 150.773 88.3185 150.364C88.7352 151.291 87.1576 150.757 87.237 151.079C87.4255 151.794 87.6934 152.289 88.6856 152.093L87.9613 153.233C88.5963 153.39 89.658 153.296 89.4099 154.097L88.3185 154.38L91.573 154.962L90.5709 156.251L91.2059 156.832L93.0217 155.952L92.6545 155.37C93.7956 155.37 94.2421 155.685 95.1847 154.946C96.1075 155.897 90.8685 157.076 91.9302 157.815C92.6446 158.302 93.9742 156.911 94.8176 157.1C96.3754 154.836 100.215 156.848 102.795 156.392C102.865 156.793 101.386 156.942 101.128 156.935C99.3025 156.903 97.5562 155.858 95.5519 156.683L96.2762 157.823C95.1748 157.469 94.1925 157.579 94.1032 158.687C94.4009 158.899 97.1295 158.247 97.3577 159.261L95.9091 159.835C96.9211 159.709 98.3202 159.693 99.2628 159.481C100.146 159.285 100.473 158.695 101.346 158.695C101.098 159.733 99.9077 159.67 98.9651 160.094C98.6079 160.251 98.2606 159.953 98.4492 160.699C100.295 160.542 101.972 161.415 103.698 161.564C105.583 161.729 107.359 161.391 109.135 161.328C109.612 161.312 111.805 161.941 111.844 161.132C111.904 159.937 109.384 160.872 110.227 159.835L115.109 161.273L114.702 160.165L113.303 160.126C112.35 159.528 117.47 159.67 117.649 159.552C117.768 158.467 115.664 159.096 115.843 157.831L118.74 158.113L118.016 157.257L120.368 156.974L120.189 157.823L121.628 157.398C120.606 156.282 118.661 156.039 118.373 154.679H119.822L119.465 155.536L121.052 155.52C121.548 155.63 121.013 157.123 122.719 156.4L121.638 155.685C124.088 154.97 122.987 154.349 123.523 153.586C123.642 153.421 124.505 153.319 124.525 153.099C124.585 152.313 122.372 153.233 121.995 152.816C122.937 150.922 124.912 153.586 125.239 151.362C125.368 150.482 123.116 151.221 123.443 150.089C125.031 149.939 126.946 152.455 127.422 150.38L126.142 150.623L125.616 149.539L127.601 149.704L128.504 149.091C127.551 148.36 125.448 148.305 125.984 146.937L126.867 147.534L129.238 146.937C126.817 146.363 126.668 144.304 123.811 144.925C124.168 144.233 126.232 144.398 126.857 144.642C127.015 144.705 126.966 146.67 129.238 145.074C129.188 143.84 127.115 144.783 126.708 144.076C127.859 143.361 127.869 143.707 129.258 143.66L129.605 142.347H127.075L127.789 141.773L126.708 141.199C128.315 141.121 129.794 142.693 130.33 140.626H128.524L128.891 140.052L127.085 139.478L129.615 139.187L129.248 140.044L131.977 140.814C132.741 140.665 132.661 140.091 132.87 139.753C132.195 139.808 131.461 140.162 130.697 140.036L131.778 139.47C130.717 139.47 129.903 139.101 129.248 138.464L132.145 138.323L131.421 137.042L132.145 136.609L129.248 136.751C129.863 136.083 131.441 136.452 132.046 135.949C133.435 134.786 132.116 133.906 132.165 133.623C132.284 132.915 133.723 132.994 134.219 132.79C135.152 132.404 134.05 132.538 135.896 132.216C136.501 132.114 137.106 131.053 138.297 131.438L135.043 133.583C136.442 134.157 137.245 132.892 138.119 132.294C138.307 133.937 134.824 134.079 134.676 135.729L136.124 135.871L133.951 136.884L134.16 137.466C134.616 137.568 135.092 137.78 135.569 137.749C136.62 137.67 136.888 136.374 137.93 136.735C137.364 137.073 136.868 137.749 136.313 138.04C135.023 138.708 133.624 138.543 132.86 139.753L132.89 139.808ZM44.1741 87.8871L44.4222 86.8889C44.2734 85.9301 41.7432 86.4174 40.7906 86.5038C34.5495 87.0619 27.1574 88.3901 20.9361 89.4198C15.0025 90.4022 9.09876 91.4947 3.26444 92.7759C3.55219 93.5933 5.77478 92.5558 6.16175 92.7759L5.79463 93.3418L11.2221 93.0588L3.98877 94.6386L7.24329 94.4971C6.90593 95.5346 4.36582 94.843 3.98877 95.0709C3.62164 96.2341 6.40981 95.3617 6.88608 95.6446C7.30282 96.7764 4.65356 95.959 4.35589 96.2184V97.0751L7.25321 96.7922L4.35589 98.2226L7.61041 97.9397L4.35589 98.7964C4.51465 99.6452 7.26313 98.4191 7.24329 99.2208C7.23336 99.7474 5.17945 99.6924 4.7131 99.6531C4.49481 100.989 6.59834 99.5902 7.25321 100.085C7.06469 101.304 4.60395 100.29 4.7131 101.657L9.04915 101.374L5.12983 101.987L4.7131 102.663C4.4452 103.607 5.99308 102.679 6.45942 102.663C7.28298 102.632 8.18591 102.907 9.04915 102.805L5.0703 103.669L7.96762 104.094C7.95769 104.44 4.70318 103.889 5.0703 105.1C5.20921 105.194 8.03707 104.282 8.32482 105.1C7.70964 105.265 4.20706 105.493 5.60611 106.53C5.97323 106.027 8.19583 105.383 7.95769 106.53C6.79678 106.664 5.22906 106.703 4.70318 107.678L9.04915 107.536C7.98746 107.78 6.83647 107.788 5.78471 108.126C5.20921 108.314 4.8917 108.087 5.06038 108.825C6.05261 109.187 6.16175 108.267 6.38005 108.244C7.25321 108.149 8.41412 108.723 9.40635 108.542L5.79463 109.116C5.81447 109.855 8.30497 108.888 7.96762 109.824C7.79894 110.287 5.86409 109.564 5.79463 110.256H9.77348C9.81317 110.822 8.73163 110.429 8.20575 110.547C7.83863 110.625 8.28513 111.419 6.88608 110.83L6.15183 112.26L5.79463 111.113H4.33605L3.2446 94.4814C2.60957 94.4185 2.90724 95.1338 2.88739 95.4796C2.68895 99.2758 3.54226 103.009 3.2446 106.813C2.60957 106.876 2.90724 106.161 2.88739 105.815C2.73856 103.041 2.62941 100.266 2.53019 97.4917C2.20275 97.0515 2.01423 97.7196 2.00431 97.8847C1.87532 100.557 2.28213 103.952 2.55003 106.68C2.71871 108.448 2.77825 110.374 2.96677 112.056C3.08584 113.117 4.36582 114.39 3.25452 115.703H5.0703L5.4275 113.698V115.703L5.79463 114.272L6.51896 115.703L7.04484 115.137L9.41627 115.71C9.79332 116.441 8.77132 116.19 8.69194 116.465V117.432C8.77132 117.51 10.4879 116.559 10.1406 117.715C8.6721 117.337 8.53319 118.941 9.77348 118.87V119.145C7.04484 120.458 10.4879 120.135 11.9465 120.01C11.7083 120.976 9.24759 120.418 9.04915 120.583V121.44H10.4978C10.6963 122.258 10.1505 121.951 9.45596 122.03L9.39643 125.268L10.1307 125.739L9.38651 125.912C9.49565 126.903 10.2696 127.414 9.76355 128.467L10.855 128.616C10.3589 129.229 9.27736 129.182 9.85285 130.29L10.4879 130.62C8.92016 130.55 10.2299 131.438 10.2994 131.917C10.468 133.135 10.1902 134.967 10.2795 135.926C10.339 136.491 10.984 137.042 10.4581 137.891C12.006 138.291 10.468 138.307 10.478 139.077C10.478 139.337 11.3114 141.254 11.3908 141.655C11.49 142.19 10.5673 143.078 11.9266 142.952V143.227C10.8649 143.101 11.2122 143.856 11.2023 144.508L12.6509 144.673L11.5595 144.956C11.7679 145.617 11.5595 147.071 12.641 146.968L11.8869 147.424L12.2739 149.837H14.0798L12.6609 150.592L13.3852 153.563L14.814 153.28L13.3852 153.885L13.3654 155.575L15.5383 155.858L14.0798 156.07L13.8912 156.738L11.9167 156.714C11.4503 155.221 13.1371 156.455 12.9982 155.284L11.5496 155.567L12.641 154.427L11.5793 154.404C11.0535 153.217 12.3037 153.571 12.2739 152.698L11.1924 152.981C11.8969 152.164 10.4978 152.62 10.8252 151.551L12.2739 150.977L10.8352 151.26C10.3688 150.049 11.6091 150.372 11.5496 149.539L10.468 149.389L11.1924 148.108H10.1009C9.62464 146.615 11.3214 147.841 11.1824 146.67L9.74371 146.238L11.1924 145.522L9.38651 144.941L10.8252 143.942L9.38651 143.51L10.1108 142.08H9.01938L10.1108 140.649C7.51119 140.374 8.99954 139.808 10.1108 138.928H8.66218L9.38651 137.49L8.30497 137.065L9.38651 136.059L7.94777 135.336L9.38651 134.338C8.32482 134.338 7.7394 134.118 7.93785 133.19L9.38651 132.907L7.89816 132.735L7.5608 131.933L9.38651 131.194L7.22344 130.762L8.30497 129.764H7.21352C7.80886 128.451 6.96546 127.091 6.84639 125.747L5.76486 126.321V124.45L5.39774 123.885C5.75494 129.433 5.7351 134.967 6.52888 140.484C6.87616 142.913 8.17598 145.624 7.61041 147.998L8.32482 148.289L7.93785 149.837L8.65226 149.263C9.10868 151.559 9.34682 153.909 9.84293 156.211C12.1846 167.223 17.5228 181.119 26.7704 189.835C27.7329 190.739 29.2609 191.439 29.6677 192.57C30.4119 192.342 30.908 191.792 30.7393 191.148C29.1517 190.92 28.0702 189.796 27.1276 188.845L29.1418 188.586C29.5685 189.654 31.6621 188.931 32.9123 189.128C32.1781 190.126 30.1737 189.175 28.9335 189.702C29.0228 190.055 31.0568 190.189 31.3644 190.181C33.081 190.142 33.9442 188.758 35.1151 188.138C38.0719 186.566 41.1974 184.994 44.5016 183.956L43.0529 183.39C48.5598 182.699 55.0192 179.948 59.6827 177.488C60.3277 177.15 60.7444 176.552 61.3397 176.214C61.9351 175.876 63.8401 175.845 63.6913 174.784L62.5999 174.501C63.8401 174.666 65.2491 174.941 65.8544 173.778C66.3505 172.835 63.0364 173.817 62.967 173.07C63.8005 173.133 63.731 173.023 63.3242 172.497L65.517 172.363L65.4972 171.349C67.3824 172.371 67.5809 170.202 66.7672 170.21C66.4993 170.21 64.3363 171.868 63.6913 170.783L65.13 170.485L64.7728 169.919C66.3703 170.406 68.4937 168.614 66.1421 168.567C64.8026 168.543 63.5226 168.48 62.2427 168.763C62.4609 168.064 63.5425 168.308 64.0882 168.048C64.3462 167.922 63.8203 166.948 65.5071 167.042L64.7828 166.476C65.5865 166.437 66.9458 166.728 67.2633 165.989L67.313 164.464C67.2336 164.393 65.7254 165.533 65.1499 164.896C66.7077 164.063 67.4419 164.142 67.3229 162.46L65.1499 163.026L65.3384 162.452L63.7112 162.169C65.5865 162.232 67.948 162.413 66.9657 160.448C68.067 160.558 69.2974 160.267 68.6029 159.3C67.8984 160.511 65.7254 160.432 64.2569 161.022L64.3859 160.487L63.354 160.016C64.7332 159.984 65.8345 160.291 66.9855 159.402L66.9657 158.444C66.8367 158.318 64.2966 159.253 64.0783 158.444C64.7828 158.231 68.6624 158.176 68.7815 157.721L68.077 157.155L66.6184 157.579L66.797 156.714L64.0882 157.862C63.4929 157.383 70.4385 153.791 64.8125 154.993C64.4156 154.081 66.41 154.364 66.6184 154.129L66.0826 152.997L64.0882 153.563C63.6119 152.832 67.2336 152.282 65.904 151.692C64.882 151.236 63.5524 151.692 62.6395 152.124C62.203 150.883 64.7034 150.985 65.1697 149.971L64.4454 149.688L65.5269 148.823C65.9734 148.03 63.2349 148.949 63.7211 147.975C64.2073 147 66.3207 147.676 66.2612 146.253C65.2987 145.679 65.8544 146.678 65.0011 146.693C64.4057 146.701 62.7785 146.693 62.6296 146.112C63.4532 146.057 64.5049 146.049 64.4454 145.255C65.9139 145.035 64.0584 145.97 65.5269 145.821L65.8643 144.799C64.2668 144.461 65.6659 143.919 66.4398 143.526L66.8168 144.123L68.067 143.817L66.6184 146.112L68.4243 145.538C68.4243 147 68.1564 146.858 66.9756 147.833L68.7815 147.259C69.2478 148.595 67.5809 148.776 67.6999 149.837L69.5058 149.554L68.067 151.134L68.7815 151.559L68.9601 150.985L69.8729 151.276L68.7715 152.596L69.1585 153.571L71.3216 152.423V153.571L70.2301 153.39L69.5256 154.577L70.6072 154.718C70.25 155.771 70.1011 156.337 68.8013 156.872C70.1607 157.587 69.9324 156.377 70.9743 156.439L69.5256 158.593L70.9644 158.451L69.8828 160.456L72.0459 159.308C72.0856 160.236 71.3513 160.707 70.24 160.747C71.3613 162.153 69.5356 161.698 69.5256 162.751L72.4229 161.32C71.4605 162.562 69.357 163.985 70.6171 165.329L72.2443 164.181C73.1076 164.959 70.0912 166.201 70.25 166.901C71.6887 168.017 71.7879 165.91 72.7801 165.612C73.2366 165.997 71.3216 168.04 72.6015 167.616C75.1714 166.759 74.1097 161.902 73.8319 160.047C72.8198 153.083 70.2996 146.206 68.841 139.337C68.712 138.731 68.841 138.111 68.8013 137.505L68.0869 138.079C68.2655 137.16 67.6999 136.35 67.5213 135.509C66.291 129.685 63.6219 123.908 61.3695 118.013C61.2306 117.636 61.2008 117.243 61.2008 116.858L60.4864 117.432C61.1115 115.608 59.7224 113.856 58.9782 112.174C58.5615 111.246 57.8471 109.58 57.8967 108.959C57.8967 108.857 57.2716 107.906 56.9838 107.159C54.3544 100.47 50.9808 93.9548 48.4705 87.2269L47.8156 87.1719L50.3557 94.1985L47.4584 87.6042L46.0197 87.895L47.1111 88.1779L46.3868 89.184L47.4783 89.3255L47.3096 90.1979L43.4895 90.4651L46.0197 89.3255L40.225 89.6084L44.9282 88.4687L37.6949 89.3255C36.3653 88.2723 43.6879 87.5099 44.2039 87.8871H44.1741ZM70.1011 100.353C69.1883 99.8181 68.1861 99.3308 66.9954 99.3701L67.7198 99.936L66.2711 100.219L68.4441 101.084C67.69 101.241 66.0429 99.9832 65.5468 100.793C65.9635 100.903 69.2577 101.649 68.8013 101.94C68.2754 102.058 66.797 101.178 66.6283 101.94L68.8013 102.231L68.7715 103.237L71.2124 103.913L71.3315 102.813L73.1374 103.379L70.6072 101.94L71.3315 101.516C71.262 101.304 70.369 100.51 70.1011 100.353ZM75.3203 112.842L74.9531 112.409C74.457 113.565 72.3733 115.042 71.8772 116.009C71.5101 116.724 72.7206 118.249 72.3634 119.232C72.2146 119.656 70.0317 121 70.25 121.157L72.6015 119.727L72.7901 120.733C75.1516 118.509 77.9001 116.669 77.1261 113.415L76.0446 114.846L76.4018 112.268L75.3203 112.834V112.842ZM4.4452 120.819C4.23683 120.631 3.97885 116.646 3.98877 116.001C3.32397 116.198 3.6018 117.675 3.63157 118.147C3.91931 121.872 4.77263 125.614 5.0703 129.339C5.1596 130.479 5.01077 131.634 5.0703 132.782C5.09015 133.128 4.79248 133.851 5.4275 133.78C5.4275 129.709 5.30844 125.567 4.37574 121.566C6.20144 121.031 4.56426 120.929 4.43527 120.811L4.4452 120.819ZM76.0347 119.161L68.9601 124.309L66.6283 127.296L70.1607 137.718L74.5662 141.396L78.1977 145.829C76.8384 140.861 76.4712 135.816 76.0148 130.785V119.161H76.0347ZM66.6283 120.308C66.2116 120.025 64.4454 121.417 64.4653 121.872L66.4497 126.038C67.4023 124.898 68.5235 123.806 68.077 122.313L66.9954 123.169L67.2733 122.085L66.6085 121.88L67.3427 120.591L66.4398 121.165L66.6184 120.308H66.6283ZM76.0446 144.681C75.9255 143.997 71.52 138.952 70.9842 139.525C71.0239 142.221 72.0062 145.263 76.0446 144.681ZM79.2991 154.435C79.0014 149.955 78.1878 146.473 72.4229 144.681L74.9631 156.29C79.1106 160.078 81.0355 164.103 78.7534 169.054C78.287 170.06 76.7292 171.695 76.4911 172.426C75.7469 174.768 75.9751 178.281 75.1417 181.111C73.0183 188.318 70.3194 190.771 64.8324 196.162C61.5382 199.4 59.4942 202.922 60.1094 207.205C64.6637 207.354 66.2017 207.315 68.2655 210.64C70.0019 213.422 70.6469 216.385 69.0791 219.333C67.9877 221.4 65.517 222.917 64.4355 224.827L68.6227 240.2C70.0912 240.294 71.3811 240.192 72.8595 240.554C76.0247 241.34 77.3246 244.138 78.039 246.496C79.2793 250.63 77.0368 253.797 72.7801 256.132C73.9411 257.987 74.0701 263.897 75.2806 265.257C75.5386 265.548 76.6399 265.422 77.1261 265.713C76.9872 261.681 79.7555 257.177 84.1213 255.047C85.4609 254.395 90.2136 253.137 90.6304 252.453L92.7041 237.481C88.1597 236.105 78.3069 234.659 78.1878 229.715C78.158 228.536 78.7335 226.21 79.2098 225.047C81.4126 219.616 89.2214 218.586 95.2641 217.352L96.6731 202.914C93.2697 202.639 84.7465 200.359 84.7663 197.058C84.7663 196.406 85.6494 192.28 85.9272 191.651C87.4255 188.2 95.2244 186.173 99.0544 184.836C99.749 178.509 99.9177 172.654 94.3413 167.616C92.4958 165.942 89.8862 164.645 87.9911 162.892C84.1114 159.308 81.4721 154.372 80.0334 149.837C79.4083 149.837 79.6365 151.095 79.6563 151.425C79.6762 151.661 80.5196 155.598 79.309 154.427L79.2991 154.435ZM91.8608 161.69C91.5036 161.446 90.3228 161.391 89.9656 160.747C87.7132 161.399 91.3845 163.796 92.6843 163.898C92.9423 163.615 92.2477 161.957 91.8508 161.69H91.8608ZM65.904 177.951C66.9855 176.537 71.7085 173.904 72.4229 172.646C72.4924 172.52 72.5122 172.174 72.2443 172.222L64.2767 178.242C63.4829 177.393 67.3328 176.175 66.6283 175.664L64.0981 176.67C64.9415 175.845 67.3229 175.193 67.174 173.943C63.4929 176.379 58.9484 178.557 54.6918 180.404C50.4351 182.251 45.7716 183.249 42.3782 185.984C44.6504 185.473 46.7539 184.271 49.2543 183.98L45.6327 186.267C47.0913 186 48.3415 184.742 49.9787 184.978L46.357 187.131L49.2543 186.275L47.4485 187.564C47.3691 188.035 47.4286 188.028 47.9942 187.996C51.1991 187.847 62.4014 182.282 65.3583 180.521C66.291 179.963 71.0437 176.882 71.3414 176.364C71.4109 176.238 71.4307 175.892 71.1628 175.939C70.3591 176.403 69.1684 177.661 68.0869 177.519C68.9105 176.505 72.294 174.666 72.7901 173.786C72.8595 173.66 72.8794 173.314 72.6115 173.361C71.2819 174.304 70.1507 175.444 68.8112 176.372C68.0571 176.898 66.8665 177.716 65.9139 177.944L65.904 177.951ZM68.8013 190.283C72.7405 185.85 73.8815 180.144 74.4074 174.8C71.9665 176.372 73.0282 179.115 72.2443 181.41C69.2875 190.102 54.0667 193.891 43.9856 194.142C41.7035 194.197 38.2505 193.105 36.9209 194.873C40.7509 195.431 44.6008 195.549 48.5102 195.455C49.0857 195.801 48.5102 195.974 47.9744 196.029C46.2578 196.194 44.1444 196.076 42.3583 196.319L44.1741 196.744L42.3583 197.168L47.0615 197.459C47.1508 197.962 46.238 197.726 45.8014 197.742C44.7794 197.774 43.7375 197.719 42.7255 197.742C43.3307 198.615 45.2953 198.237 46.3471 198.316L43.0926 198.882L47.4286 199.173L44.1741 200.029H48.5201C48.4903 200.776 44.2833 199.809 44.9084 200.744C45.4442 201.554 47.1111 200.933 47.4386 201.751L46.357 201.892C48.2919 202.953 51.9433 202.985 54.146 202.544C54.285 202.521 54.4636 201.593 56.1206 202.324L56.5373 201.216L59.5636 201.185L60.4666 199.165L59.1965 199.448L59.0179 198.882C59.8911 198.905 61.2603 199.07 61.1909 198.025C60.6749 197.671 58.4126 199.251 57.9364 198.316L61.9152 197.302L60.1094 196.878L62.2823 195.73L60.1094 196.013L61.558 195.156L59.385 195.298L61.9251 194.3L59.395 194.582L60.3078 193.726C58.2043 194.386 55.5451 195.093 53.3324 195.368C52.9157 195.416 51.4373 195.722 51.4373 195.156C58.5317 193.922 65.3483 191.266 70.0813 186.833L68.8112 190.275L68.8013 190.283ZM103.559 176.521L102.835 175.09V177.959L102.111 177.668L101.743 184.263L105.325 182.927C104.571 180.404 105.97 177.928 105.722 175.381L104.998 177.668L104.274 175.664L103.559 176.521ZM107.905 177.095L106.526 179.036L106.466 182.832C107.022 182.879 106.982 182.07 107.072 181.74C107.488 180.223 107.627 178.635 107.915 177.103L107.905 177.095ZM115.863 179.963C115.446 179.665 107.002 183.406 105.722 183.83C99.3323 185.937 91.8211 186.416 87.2667 191.006L88.0208 191.596C88.1002 192.075 86.9393 192.94 88.9039 192.845C89.4 192.822 89.7374 192.405 90.035 192.382C90.5411 192.335 91.0372 192.618 91.6921 192.539C93.7758 192.28 97.1493 190.409 99.5605 190.275V189.427L98.4889 189.568L100.295 188.279L98.1217 188.711L99.9276 187.422L98.1118 187.131C100.146 187.43 99.3025 186.66 99.6299 186.346C99.878 186.11 101.982 185.835 102.537 185.67C103.063 185.52 103.033 185.465 103.936 185.245C104.998 184.986 105.931 184.404 107.171 184.554L104.998 185.984L107.528 185.701L105.355 187.131C106.337 187.399 107.399 186.015 107.885 187.131C107.538 187.328 103.46 188.248 104.264 188.853C109.304 187.446 114.464 186.015 118.016 182.683L115.119 182.824L116.567 181.535C116.25 180.993 114.93 182.518 114.761 181.535C114.623 180.757 116.389 180.356 115.843 179.963H115.863ZM65.0904 182.054C64.5744 181.803 63.9592 182.015 63.4532 182.188L59.7422 184.263C60.923 183.823 61.31 184.844 61.4092 184.852C62.2327 184.954 63.1952 184.302 63.7211 183.83L62.6395 183.257L63.9096 182.541L64.0882 183.681C65.1499 183.579 66.5688 183.343 66.2513 182.251C64.9018 182.895 65.2987 182.156 65.0804 182.046L65.0904 182.054ZM59.385 185.127C57.5296 184.326 57.6288 185.693 57.1624 185.929C57.093 185.96 56.4778 185.709 55.8924 185.905C51.8342 187.249 47.8751 189.238 44.0749 190.865C43.8665 190.951 43.8467 191.313 43.7276 191.352C43.0628 191.588 41.9515 191.211 41.6439 192.005C42.5766 191.934 43.7872 192.17 44.6504 191.957C45.5136 191.745 46.0594 189.922 47.7958 190.291L45.9899 191.289L46.7043 192.005C45.9601 191.745 44.065 193.058 44.5313 193.443L49.7802 191.156C51.3281 191.384 48.2224 192.099 48.1232 192.162C47.8057 192.342 48.1232 192.688 48.024 192.822C47.9248 192.956 47.2699 192.688 47.4187 193.16C49.3139 193.097 51.3876 193.631 52.3104 192.02H52.8363L53.005 192.594C54.1957 192.272 54.8406 191.769 55.3764 190.873L53.2034 190.59L57.9066 190.873L57.1823 189.733L58.9683 189.702L58.9881 188.868L60.794 189.159L61.1611 187.721L59.3553 187.58L61.5282 187.147L61.1909 186.314L62.9769 185.709L62.7983 185.143C61.3 184.97 59.9804 186.133 58.2737 185.717L59.3553 185.151L59.385 185.127ZM40.1953 187.131C37.7345 186.448 29.3502 192.688 30.4218 193.726L31.5033 193.443L31.1461 194.59L32.952 193.734C32.3269 194.457 31.6621 195.054 31.8705 196.021C32.6246 195.934 32.4956 194.166 33.6763 194.732L30.779 198.89C33.8946 195.573 37.7544 192.602 42.3583 190.566C42.4278 189.01 40.3937 191.329 39.471 191.14L42.0011 189.136L38.9153 190.275C38.1811 189.529 40.1556 189.552 40.1854 188.845L38.0124 189.411L38.7367 188.696L38.0124 188.413L40.1854 187.124L40.1953 187.131ZM106.089 189.144C104.968 189.434 102.329 189.709 102.111 190.716L99.2231 217.25L102.478 216.668C101.654 215.191 102.914 215.332 103.123 214.468C103.539 212.699 103.291 210.711 103.212 208.926L103.926 210.074C104.462 208.596 103.291 208.714 103.222 208.636C102.696 208.07 103.758 208.054 103.787 208.007C103.906 207.85 104.343 206.403 104.333 206.199C104.323 205.688 103.639 205.822 103.569 205.578C103.41 205.044 103.639 204.336 103.569 203.77L104.283 205.492C105.107 201.436 104.492 197.215 105.712 193.286L105.008 193.16L105.732 192.735C104.631 192.515 105.018 191.965 105.008 191.156L105.722 192.303L106.089 189.151V189.144ZM101.386 190.574C99.3918 190.173 98.985 192.083 98.8262 193.309C98.7369 193.977 99.1437 194.378 99.1735 194.755C99.1735 194.889 98.5484 194.85 98.4889 195.07C98.0225 196.736 97.5562 201.161 97.3875 203.047C97.1593 205.492 97.3081 207.928 97.3875 210.365L96.6731 209.791C97.2386 211.025 95.3038 217.218 96.8814 217.501L98.4988 217.069L101.376 190.574H101.386ZM97.3974 198.316L98.1217 191.148C94.7581 192.17 91.2456 193.018 88.3383 194.748C88.0804 195.423 90.2732 196.382 90.9975 196.65C92.9621 197.381 95.3633 197.703 97.3974 198.316ZM38.6474 196.39C37.2087 195.675 36.4446 196.414 35.8493 197.451L37.6552 197.168L37.298 198.025H39.471C39.2725 197.601 39.1237 196.618 38.6474 196.39ZM49.9688 208.07C47.5279 201.735 39.6297 200.312 33.1504 197.451C32.1384 198.992 29.5685 202.702 30.6004 204.344C30.9278 204.863 34.0434 206.388 34.8868 206.686C36.0676 207.103 39.9869 208.07 41.1081 208.07H49.9787H49.9688ZM116.954 203.763C114.077 201.947 109.354 200.855 105.732 201.185L106.824 201.609L105.732 202.033L106.824 202.183L105.732 202.607L108.62 203.181H106.089L107.171 203.755L105.534 203.48L105.355 204.046C109.671 204.957 114.335 205.303 118.214 207.197C119.266 207.26 118.522 206.851 118.155 206.671C115.704 205.445 112.509 204.839 109.701 204.329L109.88 203.763L118.393 206.05C116.349 204.541 113.055 204.069 110.425 203.464C110.336 202.953 111.239 203.181 111.606 203.244C113.789 203.621 115.774 204.69 118.026 204.894L114.037 203.322L110.604 202.599C110.009 202.214 111.041 202.277 111.318 202.309C113.283 202.529 115.049 203.338 116.934 203.739L116.954 203.763ZM103.926 216.385C104.323 216.723 113.809 214.279 115.029 213.854C116.111 213.477 121.816 211.096 121.638 210.263C117.5 206.718 111.1 205.665 105.375 204.627L103.926 216.385ZM56.4877 220.119L57.4006 222.406C58.8095 220.905 61.0024 219.663 61.181 217.635C61.3596 215.607 59.5636 211.992 59.1171 209.87L58.492 205.5C57.8272 205.853 58.0852 206.513 58.0951 207.048C58.1547 209.5 58.6805 211.952 59.0278 214.381L57.222 208.078L56.5076 209.799V206.356L55.7733 208.651L55.4161 206.073L55.0589 208.078H54.7017V205.783L54.3445 207.504L53.263 206.647L55.7932 218.114L52.5386 210.09L55.0887 220.205C56.3786 220.685 55.4955 221.989 56.1603 222.987L56.5175 220.127L56.4877 220.119ZM50.3359 210.648H43.4597V210.931H49.2543L46.357 212.078C46.9127 211.882 47.2798 211.772 47.9248 211.803C48.272 211.827 49.9489 211.976 49.9787 212.361H44.9084V212.644H51.7845L50.6633 209.516L46.357 209.492L48.8872 210.058L45.9899 210.341C47.0119 210.373 48.0438 210.31 49.0658 210.341C49.5123 210.357 50.4053 210.121 50.326 210.624L50.3359 210.648ZM61.2008 212.369L62.8281 217.525C64.366 216.283 65.1102 214.656 65.8941 213.084C65.8345 212.526 62.0343 212.573 61.2008 212.369ZM116.23 214.381L102.468 217.383L102.656 218.099C105.296 216.99 108.62 217.761 103.331 218.649L102.488 219.254L106.466 218.822L102.478 220.111L106.456 219.537V220.103C105.087 220.48 103.559 220.543 102.18 220.889C101.565 221.046 101.227 220.763 101.396 221.541C106.615 220.747 112.678 220.378 116.964 217.816L115.883 217.674L118.056 216.385L115.158 217.101C115.783 216.597 116.607 216.322 117.331 215.945C117.758 215.725 118.264 216.016 118.046 215.238L114.791 216.385L116.24 215.246L114.791 215.529C114.394 214.57 115.992 215.12 116.23 214.381ZM66.9061 215.599C66.4199 215.442 65.9834 215.45 65.5369 215.67C65.0507 216.519 60.2483 220.771 60.2086 221.109C60.2086 221.148 60.4666 221.793 60.6452 221.832C61.1413 221.25 61.2306 220.802 62.2823 220.967L61.9152 220.26L63.0067 220.111L62.2923 221.832L63.5623 220.975C64.366 221.431 62.5502 222.901 62.6594 222.98L64.4653 222.123L63.3837 223.844C65.9238 222.484 68.335 220.095 68.4441 217.533L67.3626 218.68L68.0968 216.802C68.0968 216.653 67.0054 215.631 66.9161 215.607L66.9061 215.599ZM98.4889 218.107C93.7361 217.745 89.0428 219.262 84.7365 220.692L84.9151 221.258L88.3582 220.402L85.1037 222.115L88.3681 221.691L85.2823 222.98L88.3582 222.547L84.7365 224.41L98.856 221.832C98.6675 220.865 95.6114 222.005 95.5915 221.408L98.856 220.409H95.2343L97.0402 219.686L95.4129 219.254L98.4889 218.114V218.107ZM102.111 222.123C101.188 222.634 98.598 221.911 98.1813 222.877L94.1528 252.241C94.3711 252.422 96.8715 251.667 96.683 250.944L99.5902 228.725C100.215 228.654 99.9772 229.409 99.9474 229.723C99.243 236.938 97.7844 244.154 97.4172 251.385H98.4988C99.0247 246.661 99.4216 241.914 99.9474 237.19C100.295 234.101 100.582 229.975 101.386 227.397C101.515 226.972 100.771 225.51 101.406 224.882L100.682 224.434L101.773 224.284L101.049 223.286L102.15 223.137L102.13 222.131L102.111 222.123ZM58.6607 223.553L57.9463 222.697C57.2021 223.852 55.4657 224.63 54.3247 225.715C52.5882 227.365 51.0007 229.778 50.3359 231.877L51.7746 230.155L51.0602 232.451L52.1417 231.303L51.7845 233.024L52.8661 232.451L52.5089 233.598L59.0179 227.711L58.3035 227.577L58.6607 226.43L57.5792 227.004C58.0257 226.053 58.4027 225.785 57.9364 224.709L57.5792 225.856C56.0412 225.322 57.3708 223.655 58.6706 223.553H58.6607ZM97.3974 222.697C95.919 222.594 95.3534 222.791 95.9884 223.954L95.2343 224.135C95.0657 224.614 95.9289 224.261 95.9884 224.591C96.048 224.937 95.6114 225.526 95.5915 225.998C95.5221 227.664 95.6411 229.346 95.5915 231.012L94.8771 228.717C94.2818 231.319 94.4505 234.046 94.1429 236.6C93.6368 240.892 92.6446 245.293 92.3271 249.522C92.2576 250.394 92.7835 251.298 92.724 251.777C92.6942 252.029 91.5432 251.801 91.9798 252.524C93.23 252.328 93.2499 251.526 93.3789 250.622C93.8948 247.172 93.9841 243.643 94.51 240.192L95.2244 243.061L96.683 223.844L97.3974 226.422V222.697ZM94.1429 222.987C91.4639 223.302 81.5912 225.455 80.8867 227.57C80.5989 228.434 83.0001 229.707 83.9229 230.085C84.8655 230.462 93.0812 232.741 93.4186 232.451L94.1429 222.987ZM63.0067 226.139C62.6197 225.778 59.0675 228.324 58.8393 228.725C58.2638 229.715 59.7323 231.272 59.385 232.443L58.6706 231.295L58.3432 232.891L59.0576 233.166L58.6706 234.156L59.385 233.865V236.742L60.1094 236.451L60.8436 242.762L61.558 242.189L61.2008 243.91L61.9152 243.336C61.9648 244.633 63.1158 246.001 62.3121 247.227L62.9769 247.47L62.6098 248.319L63.3837 248.657L63.0067 249.93L63.7211 249.64C64.495 250.426 63.344 253.86 64.8026 254.521L65.1003 253.027L60.4666 236.451L65.8941 253.373C68.9601 251.84 67.5213 250.732 67.0847 248.555C66.2314 244.326 65.0804 240.137 64.4454 235.877L68.4243 251.078C71.1926 250.756 68.6128 247.62 68.2953 246.158C68.1167 245.317 68.5036 244.02 68.0571 243.045L67.3427 243.336C67.8388 242.016 67.3923 240.9 66.9756 239.611L66.2612 240.184L62.9968 226.131L63.0067 226.139ZM56.8449 230.729C56.0114 230.564 56.2496 230.855 56.0214 231.091C54.7712 232.364 51.3182 236.459 51.8342 237.976C52.3104 239.398 57.6486 240.153 59.385 240.192L56.8449 230.729ZM93.0415 233.032L90.5212 232.733L92.3271 233.307L90.8784 233.732L92.3271 234.447C90.8189 234.384 89.4992 233.622 88.0803 233.37C87.7231 233.307 86.8004 233.087 86.8996 233.59L91.9203 234.777L91.9699 235.885L90.164 236.168L92.6942 236.459L93.0415 233.032ZM108.629 237.324C107.201 236.137 104.839 235.5 102.835 235.319C102.934 236.011 104.651 235.492 104.283 236.459L102.478 236.742L104.283 237.316L101.386 237.457L103.916 238.463L101.386 238.322C103.936 239.218 106.556 240.122 109.334 240.342L111.884 241.906C112.817 240.963 107.111 237.811 105.732 237.889C105.633 237.371 106.506 237.646 106.843 237.724C107.935 237.992 108.62 238.66 109.711 238.746L105.365 236.593L108.62 237.308L108.629 237.324ZM99.5803 251.086C103.49 250.323 108.044 248.987 111.17 246.928C113.759 245.223 113.819 244.916 111.358 243.045C108.719 241.033 104.492 239.886 101.029 239.037L99.5803 251.078V251.086ZM59.7125 240.797L57.212 240.774L58.6607 241.631L56.1305 241.348C56.4976 242.102 58.2142 241.882 59.0278 241.921C59.4049 243.132 57.1029 241.984 56.8548 242.778L59.385 243.069L56.4877 243.635L59.385 244.358L56.8548 244.499L60.8337 245.073L59.7125 240.805V240.797ZM70.6072 241.057H68.8013L69.9225 245.042L72.0558 245.065C71.8177 244.444 70.7957 244.79 70.3293 244.004C69.863 243.218 70.1011 242.126 69.5256 241.348L70.6171 241.065L70.6072 241.057ZM73.8418 245.953L69.8928 245.647L70.6171 249.372C71.0735 249.789 74.6059 246.857 73.8418 245.953ZM74.9631 248.791L74.4173 247.643C69.7241 252.1 60.9428 255.589 61.9251 262.27L62.6395 261.413V262.844L63.3639 262.27L63.731 263.991L68.067 258.969C68.2357 258.073 67.3725 259.095 66.6184 258.71L66.0231 257.829C66.0727 257.154 68.2258 256.344 67.6999 255.967C66.9161 255.409 65.7552 257.932 65.1697 257.397C65.0209 257.264 66.4001 254.285 67.7098 254.811L67.3427 253.955L68.7914 254.238L68.4342 253.381L69.5157 253.664V252.516H71.3315L70.6072 253.656L72.413 252.799L71.3315 254.521L72.7801 254.238L70.25 256.816L73.7029 254.819C75.608 253.436 76.5308 251.62 77.4932 249.789C77.6123 248.972 76.9872 249.545 76.8185 249.828C76.4911 250.378 76.6895 251.267 75.6973 251.078L77.5032 248.5C77.0269 248.162 75.5882 249.49 75.6874 249.93C74.6654 249.49 76.6399 248.484 75.6874 247.643L74.973 248.783L74.9631 248.791ZM108.987 249.082L94.5001 252.807C94.5199 253.287 94.262 253.428 94.9664 253.326C96.7227 253.066 98.4293 252.328 100.295 252.524L96.3159 253.672C96.2365 254.183 97.1295 253.947 97.5363 253.923C98.4095 253.86 99.3223 253.499 100.295 253.672L95.5915 254.819C95.5022 255.314 96.4349 255.118 96.812 255.071C97.9828 254.937 99.0743 254.45 100.295 254.528C100.027 255.134 98.985 255.212 98.3103 255.393C95.7999 256.061 93.0514 256.195 90.5212 256.823C90.6899 256.375 91.96 256.108 92.4958 255.951C93.1507 255.762 93.8055 255.652 94.51 255.676L93.9742 255.102L90.8884 255.676L93.0614 254.536L90.5312 255.11C89.6481 254.403 93.994 253.64 94.1528 253.106C91.3746 253.019 84.3099 254.764 82.9604 256.737C82.4048 257.547 82.9009 259.409 81.1248 260.132L81.8491 260.274L81.1248 261.131C81.4423 261.358 83.2581 260.14 83.7741 259.936C91.057 257.044 100.195 256.54 106.347 253.727C106.933 253.459 109.661 252.312 107.915 252.1L109.721 250.952L107.915 251.385L108.997 250.245L107.548 250.528L108.997 249.097L108.987 249.082ZM97.7645 257.114L96.6532 257.279C96.296 260.612 95.0855 264.046 97.0501 267.151C97.7348 267.206 97.3379 266.554 97.3081 266.231C96.941 263.135 97.1097 260.18 97.7745 257.114H97.7645ZM86.5424 292.962L80.1227 287.586C77.7711 278.162 74.2983 268.857 71.7879 259.488C71.6589 259.024 72.3336 257.649 71.3414 257.413L70.627 258.639L77.4833 284.655C76.9376 284.655 76.8086 283.79 76.6697 283.444C73.5342 275.71 72.6313 266.742 69.8828 258.843C68.6425 259.488 68.1266 260.643 68.5334 261.775L76.0545 289.52L77.4833 289.535L76.0446 290.683C77.2154 290.298 78.6442 290.439 79.4777 289.535C79.8151 290.754 76.4316 291.343 75.1913 290.707L73.8716 287.814C74.0105 289.803 73.6037 291.956 72.5023 293.756C72.1154 294.393 71.0934 294.699 71.3414 295.556C72.6412 295.705 72.5321 296.279 74.2387 295.847L73.5144 296.413L74.9631 296.986L73.5144 297.56L74.9631 298.134C74.328 298.165 73.6533 298.22 73.0183 298.307C72.6512 298.354 72.165 297.843 72.4229 298.716C73.1274 298.802 74.6753 298.197 74.9531 298.999C73.3755 299.36 71.9665 299.069 70.4286 299.006C69.7042 298.975 69.863 299.03 69.8828 299.572C72.4825 299.454 75.0623 300.303 77.6619 300.146C80.589 299.965 83.2383 298.606 86.0959 298.228L90.8784 295.415C88.7551 295.045 87.3362 297.018 85.0838 296.704C85.183 296.012 86.9095 296.538 86.5225 295.556H84.3496L85.0739 294.841L84.3694 294.291C84.677 293.536 85.5898 293.143 86.5225 292.97L86.5424 292.962ZM95.5915 257.405L93.5079 257.759L93.0514 261.413L92.337 258.836L91.9798 264.282L92.337 262.278C92.982 262.325 92.7538 263.842 92.6843 264.133C92.5256 264.785 91.9004 264.911 91.6028 265.43L92.6843 266.004L91.6028 266.145L93.0415 266.86L90.8784 266.577L91.96 267.717L90.1541 268.291L89.9755 265.422C89.6183 265.964 87.7926 267.049 87.7628 267.575C87.7628 267.741 88.1895 267.976 88.1697 268.141C88.13 268.621 87.6636 269.03 87.7827 269.47C87.9216 269.973 88.8543 270.248 88.6955 270.869L87.614 270.295L87.9712 271.152H87.2568L86.5325 270.295C87.5346 272.865 88.9039 275.302 88.3383 278.037C91.7417 278.288 95.016 277.809 98.3599 277.565C100.215 277.432 99.8184 277.314 100.533 277.172C101.813 276.929 104.105 277.424 105.474 276.826C106.258 276.488 105.812 275.624 106.794 275.726C106.585 275.364 104.69 274.673 104.383 274.649C103.698 274.602 102.795 275.309 101.882 275.427C100.811 275.561 99.5704 275.38 98.469 275.443L101.366 274.728L102.458 273.871C102.299 273.203 100.582 273.667 100.553 274.225L99.5605 274.013L100.285 272.873L99.2033 273.156C99.0445 272.786 99.5902 272.252 99.491 272.056C99.4116 271.883 97.2783 270.389 97.0104 270.153C96.5342 269.721 96.4151 269.132 95.9487 268.699L92.3073 268.849L95.9289 268.275L95.532 267.151L94.4802 267.127V266.554L95.2046 266.412L94.5795 265.516L95.5618 257.374L95.5915 257.405ZM90.8784 265.147L91.96 258.262L90.8983 259.59C91.0967 261.225 90.1541 263.088 90.1343 264.707C90.1343 265.28 90.1839 265.17 90.8685 265.139L90.8784 265.147ZM89.4397 258.836C86.334 259.04 78.1481 262.789 79.8448 265.713C79.9639 265.917 83.2581 268.534 83.5161 268.566C88.259 266.632 89.5885 262.836 89.4397 258.836ZM67.7098 262.278C66.152 262.019 67.9083 264.086 67.7098 264.282H66.9954L67.7198 264.762L73.693 287.516C74.4272 287.138 73.9907 286.934 73.9113 286.502C72.4229 278.438 69.2478 270.366 67.7098 262.278ZM85.8081 275.757C85.6295 274.634 86.8202 273.675 86.463 272.535C86.2348 271.804 84.0717 270.059 83.278 269.446C83.1787 270.012 83.8534 270.185 83.9924 270.743C84.2305 271.718 83.6153 273.337 83.8832 273.965C83.9328 274.075 85.5502 275.498 85.8081 275.757ZM79.5571 272.244C79.7059 272.126 80.0532 271.639 79.8647 271.45C78.803 270.971 78.1382 270.091 76.7689 270.311L77.1261 272.889C77.3345 273.069 79.2495 272.472 79.5571 272.236V272.244ZM82.1964 280.347C82.6528 280.387 83.397 280.63 83.6451 280.497C84.29 280.245 83.6153 279.703 83.7245 279.538C83.784 279.436 84.9747 279.176 85.054 278.445C85.1533 277.526 83.1787 278.021 82.9208 277.204C83.4169 277.078 85.7883 278.013 85.4509 277.062C84.5679 275.404 81.9087 275.836 80.1326 274.964L77.8504 273.478C77.5429 275.011 78.1382 275.459 79.6563 276.205H78.2077C79.18 277.125 80.7081 277.487 82.1865 277.494C82.2857 277.982 81.3133 277.801 80.9561 277.754C80.083 277.636 79.4281 277.243 78.5748 277.204L80.3806 278.068L78.932 278.351V279.782C80.2219 279.711 81.1248 279.782 82.1964 280.355C81.3332 280.285 80.5196 280.167 79.6662 280.072L81.1149 280.646L79.6662 280.929L80.3906 284.081H81.4721C80.3806 282.988 84.9647 281.259 80.7478 281.495L82.9208 281.212C83.1192 280.709 82.5735 280.552 82.1964 280.355V280.347ZM68.8013 274.319C65.4376 275.042 61.4985 274.956 58.2241 275.836C52.2807 277.424 56.5274 279.373 60.0498 280.536C63.2845 281.605 67.5015 281.754 70.3492 282.65C70.8056 282.792 70.3889 283.326 70.9644 283.216L68.7914 274.327L68.8013 274.319ZM125.537 280.717C125.011 280.222 121.39 278.917 120.407 278.618C116.389 277.4 111.715 276.669 107.548 275.757L107.905 276.614L108.987 276.323V277.188C109.066 277.251 110.455 276.127 110.793 277.188C108.749 276.991 109.096 278.178 108.252 278.76C107.359 279.381 102.23 280.261 100.85 280.355C96.5639 280.638 92.2576 279.931 87.9811 280.057C87.5445 281.133 89.1222 281.149 90.3228 281.212C93.0117 281.361 96.6731 281.314 99.4017 281.212C100.374 281.181 104.264 281.023 104.76 280.921C105.107 280.851 104.968 280.379 105.008 280.355C105.762 279.86 105.524 280.953 106.238 280.945C107.578 280.921 112.668 280.261 112.936 279.019C113.035 278.579 111.993 278.304 112.42 278.052C115.129 279.098 111.179 280.882 109.8 281.149L104.631 281.786C107.27 282.029 109.711 281.55 112.231 281.071C112.598 281 113.372 280.654 113.313 281.212C112.251 281.471 111.249 281.833 110.138 281.998C107.766 282.36 97.6752 283.271 95.8098 282.933C95.532 282.886 95.5816 282.391 95.4129 282.391C94.9664 282.407 94.381 282.713 93.5872 282.666C91.5532 282.556 89.5489 282.195 87.485 282.344L85.7982 284.938C88.8741 284.419 91.9699 285.095 95.0855 285.181C102.984 285.401 118.036 285.448 124.872 282.776C125.924 282.367 126.321 281.471 125.507 280.717H125.537ZM88.3483 279.774H100.116C101.079 279.774 105.345 279.011 106.347 278.681C107.032 278.461 108.937 277.683 108.441 276.897C107.449 276.999 107.072 278.037 106.189 278.273C104.412 278.736 98.8758 278.618 96.5143 278.925C95.8495 279.011 95.4328 279.263 94.8672 279.483V278.618C94.262 278.5 94.6688 279.035 94.3413 279.137C94.2223 279.176 92.0493 279.239 91.7714 279.224C91.1067 279.176 91.2853 278.673 90.9975 278.626C90.2136 278.485 89.3206 278.705 88.5665 278.886L88.3582 279.774H88.3483ZM95.4229 297.419C95.919 296.814 96.8914 296.318 95.3435 295.886C93.6865 295.422 94.3711 296.334 94.0734 296.609C93.9345 296.735 90.7395 297.882 90.2434 298.04C84.7961 299.722 79.4182 300.398 73.9014 301.152C71.8177 301.435 68.0373 302.127 66.6184 300.838L64.7828 301.184L64.4653 302.991C68.5929 302.512 73.1274 303.73 77.2849 302.968L77.6619 303.557C82.0079 302.677 86.2249 301.506 90.3526 300.115C92.5553 299.376 94.123 299.006 95.4328 297.403L95.4229 297.419ZM60.8337 306.159C61.9549 307.212 65.8147 306.701 67.5114 306.717C68.1861 306.717 68.8708 307.031 69.6844 307.023C71.5299 307.023 73.9807 306.418 76.0347 306.733L70.0813 307.314C68.2754 307.338 58.4821 307.495 57.9562 305.97C57.6883 305.184 58.9683 304.658 59.385 304.147C58.0554 304.107 55.5253 305.829 57.0731 306.693C58.2837 307.369 64.624 307.817 66.4299 307.88C69.3569 307.982 71.9367 307.684 74.7547 307.566C75.3401 307.542 77.2353 307.353 77.4833 307.864C70.3789 308.249 63.0761 308.493 56.1702 306.968L55.942 304.995C55.2474 305.577 53.9377 306.182 54.3346 307.11L54.6719 307.44L63.7211 308.721C60.5063 308.595 56.8945 308.76 54.0369 307.503L53.7591 305.852C52.3898 306.198 51.6853 307.133 52.4989 308.147L51.3876 307.424L52.1417 306.284C50.9511 305.569 49.9787 308.493 49.7902 308.438C48.5003 307.621 49.8001 307.125 50.3359 306.434C48.8773 306.662 47.2004 308.155 48.8872 309.153C46.6051 309.185 47.8156 307.015 49.2444 306.284C48.5796 305.679 47.9347 306.795 47.6767 306.905C47.2401 307.094 46.6349 306.992 46.1487 307.275C44.4619 308.249 43.301 309.334 45.6129 310.309C50.7625 312.47 63.6814 311.032 69.6447 310.403C82.6925 309.043 106.347 305.632 116.557 299.093C119.425 297.262 119.544 296.366 115.506 296.106C115.863 297.073 115.605 298.118 114.424 298.684C115.089 297.379 115.565 296.562 113.333 296.106C114.652 297.041 114.484 297.937 112.975 298.684C113.511 297.442 113.541 296.366 111.527 296.389C112.142 297.065 112.767 297.686 111.705 298.393L111.527 296.963H110.445L110.267 298.401C109.949 298.409 109.761 296.68 108.639 296.971C109.969 298.865 107.865 299.942 105.742 300.405C107.697 299.077 110.167 297.458 106.109 296.68C105.99 297.128 106.784 296.963 107.032 297.238C107.816 298.142 106.208 299.384 105.405 299.989L99.0247 302.402C97.3974 302.307 101.595 301.356 100.85 300.688C99.749 300.995 99.0048 301.726 97.8836 302.072C97.6058 302.158 96.6532 302.229 97.2386 301.836L98.6774 300.971L91.6226 302.41C91.4242 301.577 91.9302 301.954 92.4164 301.765C93.3094 301.419 94.2719 301.144 95.1351 300.751C95.3038 300.673 96.2861 300.319 95.79 300.122C90.5312 301.915 85.064 303.314 79.3884 304.052C76.501 304.43 64.5248 305.546 62.8777 303.864C62.6495 303.628 63.0563 302.685 62.3121 302.708L62.1236 303.573C61.4786 303.934 61.5977 302.653 61.2306 302.999C61.181 303.046 61.1512 303.51 60.8734 303.714C59.2163 304.94 57.341 305.569 60.8734 306.151C59.256 304.634 60.5162 304.925 61.2306 304.43C61.2802 304.39 61.0817 303.848 61.4191 303.84C61.8954 303.832 63.6516 304.838 65.0308 305.003C69.218 305.514 73.8518 304.799 78.0687 304.689C79.6861 304.65 80.2318 305.286 82.3155 304.689C83.655 304.304 85.7387 303.675 87.227 303.306C88.3383 303.031 89.7572 302.763 90.9181 302.708C91.186 303.455 89.4099 303.541 88.7451 303.707C85.5799 304.5 82.0377 305.011 78.7831 305.569V304.988C74.4669 305.294 66.9954 306.316 62.9471 305.216C62.4907 305.09 61.558 304.115 61.2306 304.422C61.1016 304.54 61.1909 305.326 61.5878 305.436C62.2327 305.396 63.5822 305.86 63.9493 305.86H76.0744L69.0295 306.442C66.3009 306.387 63.5425 306.583 60.8635 306.143L60.8337 306.159Z" fill="white"/>
<path d="M105.732 82.4483C105.782 82.8255 105.692 83.2185 105.732 83.5958L107.905 83.3128L106.824 83.8866L107.548 84.7433C105.762 84.5546 104.472 84.8848 102.845 85.3249L103.212 85.8908L100.85 86.441L100.315 85.8987C101.049 85.7179 102.378 85.3799 102.944 85.0419C103.569 84.6647 104.69 83.2028 103.033 83.5958C102.904 83.6272 102.845 84.0673 102.607 84.1695C101.535 84.6254 100.533 84.7354 99.6001 85.6078C99.5505 85.0341 99.9177 84.4132 100.682 84.4603L99.9673 83.6036L101.773 83.4543C101.912 83.1713 99.8184 83.2814 100.324 82.4561C101.634 82.9277 102.597 82.3932 103.212 81.4501L101.763 81.3086L102.13 81.8745L100.334 81.4186C100.95 80.7427 101.098 77.4652 101.595 77.2923C102.448 76.9858 102.011 78.039 102.13 78.149L103.371 77.5517L111.547 77.866V78.7306C112.717 78.9428 111.864 77.9211 113.164 78.149C113.253 78.1647 114.285 79.1786 114.315 79.2808C114.543 79.996 113.888 80.5541 114.642 81.0178C115.605 81.1357 115.039 80.0589 115.258 79.5009C115.436 79.0293 116.448 78.8171 115.912 78.1569C116.587 77.9446 117.182 78.6049 117.55 78.6206C117.917 78.6363 118.443 78.1804 119.008 78.1569C119.852 78.1176 120.665 78.6599 121.171 78.6206C121.578 78.5891 121.786 77.9918 122.431 78.1569C122.679 78.3848 121.935 81.0414 121.915 81.5522C121.836 83.4622 122.134 85.71 121.965 87.6828C121.915 88.2487 121.816 89.2547 121.707 89.7656C121.399 91.1254 119.326 90.0722 119.901 89.632C121.261 89.687 121.509 89.1997 121.35 88.1937H119.534L119.177 89.3412C119.236 88.3509 118.413 87.0619 119.534 86.3309L118.81 86.1895L119.713 85.3328C120 86.6375 121.37 85.3328 120.973 85.0498L118.075 84.759C117.946 83.7451 119.574 84.8219 119.167 83.3285L117.897 83.0456L117.54 83.9023L117.361 82.7626C116.349 82.5976 116.657 83.0534 116.637 83.6193C114.513 82.9434 114.384 83.2499 112.658 84.201C112.35 85.0026 112.737 84.5704 113.005 84.6804C114.126 85.152 115.416 85.5921 116.627 85.9222C116.012 86.7082 114.275 85.3878 113.372 85.6314C114.206 86.8418 116.24 86.4331 117.718 86.4881C117.49 87.4706 114.97 86.6453 114.821 86.7711C115 88.2173 114.017 88.6731 112.291 88.4924L114.444 87.4706C114.325 86.889 113.978 86.2759 113.184 86.1816C112.975 86.158 109.165 86.4881 108.917 86.5432C108.381 86.6689 107.994 87.2112 107.578 87.4942L108.302 87.9186C107.349 88.3116 106.347 88.5159 105.286 88.1465C104.641 87.9265 104.74 86.944 103.232 87.3448C103.132 86.9047 103.797 87.0776 104.115 86.7711C104.224 86.6689 103.837 86.1344 105.226 85.6236C105.99 86.9126 109.503 86.1187 109.026 84.4761C110.445 85.3249 112.628 85.3328 111.924 83.6115C112.777 83.8001 115.119 82.9198 115.188 82.181L116.27 83.0377C115.476 81.5837 116.389 82.6447 116.994 81.8981C116.438 81.8823 116.18 81.678 115.912 81.3243C116.627 81.34 120.248 81.12 120.248 80.6091C120.248 80.5698 119.832 79.9253 119.703 79.886C118.621 79.5952 118.79 80.7899 118.453 80.4597C117.599 79.6188 117.321 78.3219 115.605 80.0982C115.436 80.5541 115.625 80.9392 115.912 81.3243C115.218 81.3086 113.452 81.0021 113.233 81.0571C112.757 81.175 112.737 81.788 112.608 81.8509C112.489 81.9138 110.346 81.5758 109.761 81.8981L110.842 82.464L109.552 82.7233L109.165 82.1496L107.935 82.3225L107.399 81.3165C106.992 81.788 106.218 82.1024 105.772 82.4561C105.742 82.2125 105.901 81.8352 105.722 81.6466L103.639 81.3322C103.281 81.9295 103.063 82.9277 103.857 83.3443C105.137 84.0202 105.286 82.8412 105.772 82.4561L105.732 82.4483ZM110.118 81.2693C114.116 81.8038 112.886 78.6677 109.87 80.4362L110.118 81.2693ZM119.852 82.7312C120.08 80.2711 115.664 81.9845 118.214 82.7705C118.839 82.9591 119.246 82.8491 119.852 82.7312Z" fill="white"/>
<path d="M139.399 97.6489L138.982 98.7492L137.593 99.0793L139.766 99.2208C139.051 99.9439 138.833 100.455 137.593 100.659L140.133 101.091L138.327 102.522C139.468 102.608 139.657 104.479 137.96 104.392L139.051 104.534V105.108L137.96 105.391L139.776 105.823L137.96 106.97L139.766 106.829C139.587 107.764 137.484 108.212 138.138 108.841L139.399 108.975L137.95 110.264L139.756 110.547L138.307 110.696L139.399 111.12L136.859 111.843C136.849 112.339 140.401 112.056 139.399 112.842C139.349 112.881 138.565 112.952 138.198 113.172C136.134 114.366 135.747 114.94 132.89 114.854C133.048 114.256 134.279 114.594 133.614 113.714L137.245 113.274L137.226 112.276L135.053 112.842L136.134 111.985L133.594 112.126L137.216 110.837C135.499 110.24 135.142 111.246 134.13 111.403C133.217 111.545 132.026 111.325 131.064 111.403L134.07 111.058C134.547 110.947 135.846 110.004 135.231 109.682L133.237 110.539L134.318 109.682L132.513 109.399C134.249 109.493 133.544 108.817 133.713 108.582C133.812 108.448 134.477 108.715 134.318 108.252L133.584 108.087L133.971 107.395L132.88 107.112L136.343 106.515L137.394 107.112C138.516 106.334 135.727 105.658 135.281 105.721C134.924 105.776 134.576 106.31 134.051 106.46C132.651 106.853 131.054 107.081 129.615 107.387C129.913 106.405 133.644 106.287 133.961 105.949L133.237 104.809C133.882 104.636 134.08 105.233 134.497 105.273C135.023 105.32 135.856 104.778 136.491 104.809C135.817 102.648 132.145 105.454 130.34 104.958L133.961 103.952L133.594 103.096L135.767 102.954L135.4 101.948C136.62 102.239 138.208 102.412 139.022 101.374C138.069 101.461 137.166 101.06 136.204 101.264C134.805 101.563 134.576 102.876 133.068 102.255L132.87 103.088C132.185 102.883 130.578 103.221 130.34 102.522L135.073 101.233L135.053 100.533L138.654 99.936C138.664 99.5431 136.928 99.4094 136.64 99.4094C135.4 99.433 135.459 100.156 135.142 100.219C134.517 100.329 131.957 100.675 131.778 99.9439C134.993 100.353 136.392 97.3502 139.379 97.6489H139.399Z" fill="white"/>
<path d="M138.674 118.587L137.95 120.308C137.255 119.766 135.112 120.073 135.062 120.733C135.003 121.621 137.543 120.466 138.148 121.157C138.714 121.802 136.67 124.238 138.317 124.458L137.593 126.038L136.938 125.897L137.047 125.456L134.695 126.038C134.398 127.374 137.702 126.164 137.95 126.321L136.868 127.752H138.674L136.898 128.357L136.809 129.724L135.42 130.188C136.362 131.383 138.277 128.302 138.307 130.039C137.007 130.015 136.442 131.273 135.687 131.556C134.775 131.901 134.04 131.556 133.346 132.562L126.351 133.198L134.675 131.194L131.054 129.905C131.917 129.842 134.03 130.392 134.308 129.331C134.586 128.27 131.679 129.001 131.411 128.05L135.757 127.469C135.668 127.028 135.062 126.918 134.606 126.808C133.812 126.628 132.463 126.808 132.145 126.329C133.286 126.117 134.517 125.842 135.578 125.464C135.965 125.331 136.293 125.7 136.124 124.898C135.043 124.898 133.217 124.796 132.502 124.042C133.624 124.144 134.437 124.002 135.439 123.633C135.777 123.507 137.642 122.462 137.563 122.03C136.134 121.487 135.38 123.169 135.181 123.185C134.874 123.209 132.026 122.619 132.492 122.32C133.524 122.289 135.429 122.116 136.114 121.464C135.043 121.118 133.167 121.047 132.492 120.316C135.41 120.78 135.936 118.171 138.644 118.595L138.674 118.587Z" fill="white"/>
<path d="M139.408 72.6942C139.706 73.9832 137.394 72.7414 136.868 72.9851C137.087 73.378 137.186 73.7396 136.511 73.8418C136.551 72.3406 133.008 73.5274 132.522 73.268L132.889 72.7021H127.641L123.473 72.1283C126.698 71.9319 129.873 72.4034 133.088 72.427C134.13 72.427 135.072 72.0733 135.965 72.1048C137.087 72.1441 138.118 72.9772 139.408 72.7021V72.6942Z" fill="white"/>
<path d="M122.382 72.1207C122.382 72.6237 120.794 72.435 120.378 72.4193C117.877 72.2936 115.287 71.9635 112.787 71.8377C109.781 71.6884 106.337 71.8141 103.361 71.5548C102.815 71.5076 102.24 71.4919 102.111 70.9731L122.382 72.1207Z" fill="white"/>
<path d="M108.104 102.821C108.104 104.031 106.863 105.013 105.335 105.013C103.807 105.013 102.567 104.031 102.567 102.821C102.567 101.61 103.807 100.628 105.335 100.628C106.863 100.628 108.104 101.61 108.104 102.821ZM107.607 102.805C107.607 101.822 106.605 101.029 105.365 101.029C104.125 101.029 103.123 101.822 103.123 102.805C103.123 103.787 104.125 104.581 105.365 104.581C106.605 104.581 107.607 103.787 107.607 102.805Z" fill="white"/>
<path d="M139.409 116.292C139.071 116.677 138.019 117.73 137.593 117.872C136.769 118.139 135.589 117.102 135.787 119.153C135.053 119.263 134.834 118.626 134.15 118.579C133.465 118.532 132.592 119.004 131.808 118.862L133.167 118.029C134.973 118.06 136.065 117.447 137.087 116.339L139.409 116.284V116.292Z" fill="white"/>
<path d="M139.766 114.28C138.853 115.372 137.732 115.836 136.124 115.537L135.559 116.591L132.89 116.567C132.691 115.663 133.237 116.135 133.783 116.001C136.233 115.396 137.097 114.036 139.766 114.28Z" fill="white"/>
<path d="M136.511 55.1988C135.42 56.7471 134.001 55.5918 132.681 55.5053C131.054 55.4031 128.474 55.9376 127.462 54.908L136.511 55.1988Z" fill="white"/>
<path d="M123.473 54.9156C123.453 55.4029 123.721 55.5287 123.017 55.4265C120.229 55.0178 118.909 55.4265 116.419 55.4894C114.92 55.5208 113.224 54.6406 111.527 54.7742C111.527 54.3026 122.481 55.2536 123.473 54.9156Z" fill="white"/>
<path d="M107.181 88.7595C107.072 89.294 105.941 89.1997 105.385 89.4905C104.661 89.8677 104.313 91.2353 102.845 90.6223L103.926 89.6162L102.121 89.8992C100.801 88.9324 106.853 88.956 107.181 88.7595Z" fill="white"/>
<path d="M101.019 93.6326L99.2133 93.9156V94.7723L102.111 95.3539L100.662 96.5014L100.612 95.3932L98.1218 94.6308C98.3203 93.499 99.888 93.554 101.019 93.6326Z" fill="white"/>
<path d="M140.133 73.2681L139.776 72.2699C140.063 69.8648 139.17 67.4755 139.25 65.094C139.25 64.811 139.22 64.0172 139.766 64.0879C139.845 65.2748 139.666 66.493 139.766 67.6798C139.795 68.0492 140.143 68.4265 140.143 68.5287V73.2602L140.133 73.2681Z" fill="white"/>
<path d="M139.041 59.7888L138.327 55.6703L136.878 55.4817L138.327 55.0573L136.521 54.342L138.347 54.4678C139.398 56.0948 138.982 58.0125 139.051 59.7888H139.041Z" fill="white"/>
<path d="M137.236 70.9731C136.68 72.16 135.102 71.2561 134.517 71.2561H128.177V70.9731H137.226H137.236Z" fill="white"/>
<path d="M136.511 60.6455V61.2193C135.638 61.5258 134.279 60.9363 133.793 60.9363H128.177V60.6534H136.501L136.511 60.6455Z" fill="white"/>
<path d="M136.323 66.3831C136.442 66.4067 136.878 66.7761 136.868 66.9569C136.095 67.2477 134.914 66.6739 134.517 66.6739H128.177V66.391C130.399 66.6896 134.338 65.9901 136.323 66.391V66.3831Z" fill="white"/>
<path d="M112.608 89.6163L111.219 89.9386C111.1 90.0015 110.802 90.7403 110.822 90.9132C110.912 91.7542 112.251 91.5341 110.445 92.4773V91.0389H109.245L108.997 90.1744L110.217 90.4888C110.802 89.5535 111.279 89.4749 112.618 89.6006L112.608 89.6163Z" fill="white"/>
<path d="M141.939 94.78L141.571 93.3417L139.398 93.491L141.561 93.0352L141.542 91.9348L140.49 91.6283L141.939 90.4729V94.78Z" fill="white"/>
<path d="M136.511 64.088L134.884 64.2295L131.808 63.5143C133.257 63.8994 136.243 62.3275 136.511 64.0802V64.088Z" fill="white"/>
<path d="M116.597 98.7886C115.555 99.0008 116.081 98.1913 115.168 98.0498C113.273 97.7511 113.085 99.1187 113.69 100.227C110.902 98.3563 115.496 96.1713 116.587 98.7886H116.597Z" fill="white"/>
<path d="M57.5793 127.476C56.3191 127.791 56.0016 127.539 55.0491 128.624C55.0392 127.013 57.8373 127.311 56.855 125.472L52.8761 127.476C52.3105 127.013 55.2079 125.684 55.7635 125.755L54.682 125.189C55.7635 125.268 56.1604 124.781 56.4878 124.042C54.1263 123.271 53.66 125.59 51.4175 125.472C51.6259 124.938 52.6975 124.859 53.2333 124.45C53.5111 124.246 53.2928 123.9 53.3821 123.83C54.0569 123.326 54.6125 123.13 55.3964 122.745L54.7415 122.541C55.2575 121.393 54.1263 121.141 53.2234 121.896C52.886 122.179 52.9555 122.635 52.767 122.808C52.509 123.044 51.9533 122.996 51.6755 123.169C51.0901 123.547 50.9214 124.246 49.6017 124.026C49.9887 123.303 51.3878 123.138 51.9434 122.58C52.4395 122.077 52.3701 121.377 52.5487 121.197C52.5784 121.165 53.0845 121.401 53.4119 121.197C54.166 120.725 54.8903 119.192 55.7635 118.587C54.7415 118.398 54.6324 119.42 54.2057 119.64C52.886 120.348 50.5047 120.662 48.8873 120.583L51.0504 119.004H48.163C48.6194 118.453 50.852 118.43 50.6932 117.573C50.4749 116.386 47.5776 118.611 47.4387 118.862C47.5379 118.273 48.2225 117.927 47.0815 117.998V117.432C48.7584 117.785 50.6833 115.797 48.3515 116.001C47.6967 116.056 46.9525 116.834 45.9801 116.567C46.2381 115.938 48.8973 115.42 48.3416 114.563C47.8951 113.887 46.1587 115.443 45.8015 115.42L45.2558 114.563L42.7256 115.42C43.9758 113.675 46.2976 114.987 47.7959 113.557L47.0716 113.415L48.1531 112.842C47.1906 110.429 46.5655 114.311 44.5314 113.989L46.3373 112.842L44.8886 112.268C44.4421 111.254 46.3472 111.946 46.3373 111.553L44.8886 110.405L47.8852 109.328C48.4706 109.187 48.9469 109.431 49.6017 109.265C50.6833 108.99 48.5301 108.637 49.2346 107.969C49.6613 107.568 50.5146 108.983 51.0405 108.833L51.229 107.969L51.616 108.566L54.4637 107.662L55.2178 108.542L56.4779 107.969C57.4205 108.841 55.9917 110.72 56.1207 110.837C56.855 111.498 56.7657 109.651 57.3808 110.554C57.8075 111.183 59.2859 114.484 59.2958 115.05C59.3058 115.522 58.1349 116.449 58.2838 116.575L59.7324 115.718C60.2782 116.638 59.0676 116.913 59.0279 117.054C58.9486 117.306 59.653 119.68 60.1392 119.868L59.3752 121.456L60.814 120.599C61.0422 121.778 60.7048 122.352 59.7324 123.177L61.5383 122.894L60.4568 123.759L61.2009 124.199L60.814 125.189L62.2626 124.906L61.9253 126.612L62.9869 126.628C62.3221 127.461 62.7687 128.058 62.9869 128.923C60.9529 128.302 61.2704 129.889 63.3541 129.213L62.6297 131.218L64.0784 131.501L62.6397 132.074L63.2747 132.216L62.9969 132.648L64.8126 132.365L63.7311 133.654L65.1798 133.796L64.0982 135.226L65.5469 134.943L64.4654 136.947L65.9041 136.374L64.8226 138.095L66.2613 137.812C66.5887 138.056 65.4774 138.952 65.1996 139.124C64.5944 139.502 63.7907 139.36 63.7311 139.816L66.6185 139.533L65.1798 141.828L67.3428 141.254C67.3428 143.094 64.4753 143.267 64.8126 144.98C63.7013 144.005 62.8381 145.373 61.2009 144.98L64.9813 142.991L65.1798 142.119C64.3364 141.985 64.1379 142.771 63.4831 142.921C62.5504 143.125 61.1712 142.905 60.1095 143.259L64.6638 141.27L64.4455 140.107C63.8105 140.044 63.364 140.869 63.2945 140.893C63.2152 140.916 61.6673 140.956 61.5978 140.924C61.1315 140.72 61.7566 139.635 59.9309 140.696L59.018 139.824L62.2825 139.4V138.103L61.0124 138.959C60.4568 137.553 58.3135 138.409 56.855 138.386C57.1129 137.553 59.3752 137.859 59.7324 137.67C60.1492 137.45 60.3476 136.774 60.8338 136.523L58.6608 136.381L59.5637 135.234C58.4822 135.383 57.7579 136.939 56.4878 136.531C57.1328 135.155 60.8933 135.25 59.018 133.521L60.4369 133.481C60.1492 132.499 61.6077 132.499 61.9153 131.941C62.1932 131.438 61.4093 131.398 61.0223 131.508C60.9033 131.54 59.7225 132.868 59.2958 133.041L55.7635 134.668C56.3588 133.835 56.9641 133.017 58.2937 132.939L57.9365 131.799C58.889 131.485 58.5517 132.389 58.8394 132.381C59.8118 132.357 60.2881 131.155 59.2264 131.241C57.5594 131.383 56.5374 131.964 55.0392 132.365L54.3148 131.501C54.4835 130.888 55.6246 131.477 56.3787 131.28C57.3908 131.021 58.1052 130.054 59.018 129.638L55.3964 129.779C55.8032 129.096 56.726 129.268 57.3908 128.624C58.0556 127.979 57.5297 127.626 57.5694 127.484C59.3752 127.036 59.9507 126.423 60.4667 124.906C59.3355 126.062 57.9464 125.999 57.5694 127.484L57.5793 127.476ZM59.7423 123.751L57.2022 124.034V126.038L58.641 125.433L58.2937 124.608C58.9684 124.623 59.8813 124.498 59.7423 123.743V123.751Z" fill="white"/>
<path d="M40.9195 114.854C40.5226 114.744 39.8479 114.909 39.461 114.429L38.7565 114.712C39.5304 115.302 39.2427 115.836 39.1137 116.583C38.0421 115.93 37.5658 116.771 36.7819 116.834C36.4148 116.866 35.8988 116.575 35.4027 116.638C34.6089 116.748 33.4282 117.353 32.7733 117.33C32.2574 117.314 31.9101 116.905 31.6819 116.866C31.4933 116.834 31.5727 117.33 31.2354 117.424C30.5904 117.605 29.6776 117.628 28.9731 117.73C28.9334 118.917 30.9278 118.697 31.8902 118.453L31.8704 117.44C32.813 117.219 32.7336 118.241 33.2099 118.312C34.0731 118.453 35.502 117.856 36.5736 118.296L33.8449 118.878L32.2276 118.587L32.9023 119.302L31.8704 120.3C33.4282 119.742 34.7379 119.177 36.4942 118.941C36.9506 118.878 38.6672 118.579 38.7565 119.153C37.407 119.035 37.8436 120.12 36.4247 119.475L35.6607 120.324C33.7159 119.247 33.7854 120.324 33.0412 120.568C32.2177 120.835 30.8385 120.701 30.0645 121.024C29.6776 121.181 28.8639 122.305 28.2487 122.596L30.0546 122.878L22.9998 123.743C22.4243 123.452 23.2777 123.389 23.5356 123.311C25.024 122.886 26.6711 122.926 27.8816 122.155L24.9942 122.297V121.731C26.0758 121.896 26.433 120.898 26.8993 120.772C27.455 120.615 31.0667 120.851 29.5386 119.129C28.2289 117.652 27.2565 120.19 27.1176 120.277C26.9985 120.348 25.3713 119.955 24.2501 120.733C23.9524 120.937 24.1806 121.354 23.9226 121.589C23.1784 122.289 21.3825 122.313 22.4541 123.735C20.3208 124.262 21.452 123.405 21.3329 122.768C21.1047 121.472 20.6383 120.198 20.6582 118.878C21.6603 119.145 22.1564 117.974 22.2854 117.974C22.8907 117.974 23.6845 118.784 24.7263 118.288C25.1133 118.108 25.0835 117.518 24.9744 117.424C24.379 116.929 23.1189 118.823 22.6228 117.133L21.9282 117.149C21.3428 117.29 21.2634 118.485 20.2811 118.273L19.5469 117.133L20.9856 116.701L19.5469 116.268L20.6383 115.129H19.5469L19.5667 114.28C21.323 114.091 23.1189 113.408 24.8156 113.14C25.5102 113.03 26.2544 113.195 26.9489 113.093C28.6258 112.857 30.3027 112.464 32.0788 112.276C32.5649 112.221 32.7535 112.244 32.5947 112.684L31.8704 113.117L33.5671 112.692L33.319 111.977L39.6892 110.837L40.3936 111.112L40.3738 112.268H41.2767C41.376 113.14 40.3639 113.195 39.4709 113.117L39.6495 111.969L38.8755 113.14C37.2979 113.816 35.8294 112.551 34.6288 112.865C33.4282 113.18 33.9243 114.995 35.3134 115.058L36.7522 113.989L37.2979 114.555L36.2164 115.129C37.3574 115.223 37.1094 116.308 38.3893 115.993C37.9329 115.53 38.4191 115.042 38.3893 114.736C38.3596 114.492 37.3277 114.712 37.6749 113.997L40.7012 113.439C41.5347 113.769 41.3462 114.319 40.9295 114.854C43.1818 115.482 40.8898 116.496 41.2966 116.858L42.3781 116.575L43.4696 122.596C40.3043 122.383 43.6779 121.346 42.7452 120.591C42.6758 120.528 41.5248 120.536 41.2668 120.725L41.2966 121.448C39.9571 121.503 40.6913 120.057 39.1236 120.874C38.9251 119.577 41.9614 120.921 42.3583 119.837L40.9295 117.149C40.0265 116.913 40.0861 117.785 39.7884 117.943C39.6991 117.99 37.8337 117.966 37.6749 117.573C38.6176 116.834 39.1534 116.709 40.5723 116.858L39.8479 115.137C40.5326 115.168 40.6318 115.239 40.9394 114.846L40.9195 114.854ZM32.9519 114.28L31.6422 113.439C29.2807 114.005 31.8009 115.003 30.7889 116.284C31.9795 116.103 33.3687 117.392 34.3212 116.496C35.879 115.034 33.0908 115.089 33.329 113.706L32.9718 114.28H32.9519ZM28.9631 116.575L28.7945 116.009L25.7483 117.471L25.7186 118.304H26.81L26.4429 119.161C27.6633 119.349 27.1771 118.383 27.2367 118.351C28.0106 117.903 29.7569 118.037 28.2587 116.591H28.9731L28.9631 116.575ZM25.7086 118.587C24.7561 118.485 22.8907 118.823 23.1784 119.876C23.4563 120.866 26.2047 118.941 25.7086 118.587ZM21.3726 122.022C21.8687 122.423 24.5576 120.937 22.9899 120.3C21.6802 120.238 21.2039 121.094 21.3726 122.022Z" fill="white"/>
<path d="M22.4542 173.078C22.5336 173.605 21.849 173.181 21.3528 173.542C20.4995 174.163 21.7398 174.305 21.7398 174.36C21.71 175.24 19.3684 175.106 19.5668 176.23C22.1069 176.662 20.9559 174.336 23.1885 174.8L21.3826 176.513H23.377L24.27 176.804C23.1389 176.607 22.6427 177.472 22.4641 178.234L24.6371 178.525L23.8929 178.981L24.0716 179.979L26.0858 180.246L24.9943 180.529L25.3317 181.37L24.6371 181.669L26.8101 181.386L26.0858 182.667L28.2588 182.817L26.4529 183.39L27.1772 183.673L26.4529 184.53L28.6259 184.672C27.3856 184.892 28.3084 185.347 28.0702 185.685C28.0107 185.772 26.3438 187.037 26.2148 187.061C25.9072 187.108 24.7463 186.896 24.9943 186.401C25.1531 186.078 27.7626 185.89 27.5245 184.821C26.1652 184.994 25.4904 184.837 24.8157 185.96L22.1764 182.675L22.8213 181.669C20.9063 182.219 21.4024 181.111 20.8865 180.325C20.3904 179.563 20.4201 179.484 20.053 178.8C19.8645 178.447 19.1302 178.124 18.9814 177.669C18.8326 177.213 19.7752 177.048 19.5569 176.505L18.1182 176.356L18.8326 176.222L18.4754 174.784C19.8446 174.721 21.6803 173.66 20.2912 172.78L22.4641 173.071L22.4542 173.078Z" fill="white"/>
<path d="M52.866 100.518L51.0601 101.665H52.5088L51.7844 102.813L53.5903 103.103C53.1835 102.262 53.0843 101.398 52.866 100.525L54.3146 103.968L53.7788 103.394C53.1636 104.534 52.4889 104.29 51.0601 104.259L52.1416 104.825L48.5299 105.115L50.4648 104.542L50.5144 103.968C39.8777 105.823 29.2409 107.819 18.4752 109.132C18.3859 108.731 19.1202 108.715 19.4774 108.644C26.0757 107.379 32.9221 106.766 39.5502 105.618C42.4277 105.115 47.4583 104.322 50.0282 103.599C50.3953 103.496 51.4074 103.206 51.4074 102.836L48.5101 102.553L50.6731 101.83L49.2344 100.973L50.306 100.258L47.7758 99.6844C49.1947 99.3307 49.9587 98.8434 51.7547 99.1106V97.9631C52.7469 98.4269 52.6576 99.818 52.8362 100.541L52.866 100.518Z" fill="white"/>
<path d="M15.8658 161.949C15.9253 161.973 15.9055 162.311 16.0444 162.366C16.4909 162.554 17.116 162.271 17.0167 162.751L14.4965 163.757C15.7765 164.928 15.578 163.592 16.6595 163.615L16.3023 164.763L18.4753 164.338L15.2109 165.344L15.3895 165.91H17.751C17.1061 166.751 15.2208 166.555 15.578 167.922C16.3222 168.551 17.6617 166.067 18.1082 167.215C18.3563 167.867 17.0664 167.647 17.0267 168.213L18.1082 168.496L16.1237 169.353L15.4093 168.763L13.405 162.617C13.4249 162.491 15.7566 161.902 15.8757 161.949H15.8658Z" fill="white"/>
<path d="M27.1574 124.034L26.4628 125.574L27.8619 127.06L30.4218 127.178C29.7769 127.359 28.606 127.484 28.0901 127.736C27.9809 127.783 28.1 128.773 26.9887 128.899L27.3459 127.752C25.5103 128.53 23.5357 127.925 22.1069 129.19V128.042L25.163 128.058L25.3614 127.178L27.1673 127.469L26.0759 125.755L25.7286 126.408L24.27 126.612L25.7187 125.181L23.1785 125.032C24.6867 125.126 25.1928 123.837 25.3614 123.743C25.4408 123.696 26.4529 124.521 27.1673 124.034H27.1574Z" fill="white"/>
<path d="M31.8606 90.19C32.0392 91.0624 31.5828 90.6459 30.9775 90.7716C29.6876 91.0388 28.2191 91.4633 26.9788 91.0467L27.1574 91.6205C23.6548 91.1174 19.8546 92.4536 16.2925 92.768C16.1238 91.9506 16.5008 92.2885 17.1259 92.1549C19.4478 91.6519 21.968 91.5812 24.3295 91.2511C26.8498 90.8974 29.2808 90.0878 31.8606 90.19Z" fill="white"/>
<path d="M18.8325 168.779L17.3838 171.357C17.6319 171.569 19.2492 170.272 19.5568 171.357L18.2867 171.648L18.8325 172.08L17.3937 173.086L17.0365 172.379L16.3023 172.512L17.0266 171.223C16.0542 170.76 15.697 170.681 15.9451 169.651L18.8325 168.779Z" fill="white"/>
<path d="M32.9519 138.944C34.3509 138.551 34.5593 135.871 32.3169 135.548C28.3975 134.982 28.5662 140.17 32.9519 138.944C28.6853 140.406 27.5938 136.374 30.511 135.43C34.083 134.283 36.1469 137.851 32.9519 138.944Z" fill="white"/>
<path d="M14.814 157.626L14.5064 159.3L15.578 159.599C14.427 160.118 12.5318 161.147 12.6807 159.316H13.8813L14.1194 158.451L12.3136 158.734C11.996 157.296 13.4248 156.793 14.8041 157.626H14.814Z" fill="white"/>
<path d="M24.9843 129.489L23.1784 130.345C25.0438 130.432 26.6215 131.076 25.1629 132.64L24.7759 131.178L23.0395 130.903L22.4541 131.493L22.5037 129.811L24.9843 129.489Z" fill="white"/>
<path d="M6.87627 136.649C6.24124 136.719 6.53891 135.996 6.51907 135.65C6.36031 132.64 6.25117 129.622 6.16187 126.612L6.89612 131.618L6.87627 136.649Z" fill="white"/>
<path d="M20.6383 171.648C20.9063 172.387 19.8148 172.324 19.6164 172.56C19.5469 172.638 19.9041 172.953 19.8446 173.031C19.7156 173.181 18.6539 173.385 18.4654 173.802L19.1897 174.084L18.1082 174.517L17.751 173.943L17.3938 174.8L17.0564 173.691L20.6483 171.648H20.6383Z" fill="white"/>
<path d="M29.7867 149.617C29.2608 150.16 28.2884 150.254 27.6038 149.837C26.9192 149.421 26.8001 148.65 27.326 148.108C27.8519 147.566 28.8242 147.472 29.5089 147.888C30.1935 148.305 30.3126 149.075 29.7867 149.617C30.7889 148.69 27.3657 146.843 27.6832 149.279C27.9709 149.625 29.5883 149.641 29.7867 149.617Z" fill="white"/>
<path d="M48.1629 90.7637L47.9545 91.644C46.5059 92.0762 44.958 91.8719 43.4597 91.9033L46.615 90.8265L48.1629 90.7637Z" fill="white"/>
<path d="M48.8873 92.2021C49.0659 92.9252 48.7186 92.713 48.1828 92.9252C46.8135 93.4676 45.3649 93.1375 43.8269 93.3497L46.625 92.2729L48.8873 92.21V92.2021Z" fill="white"/>
<path d="M49.9688 94.78C49.6314 96.4227 46.7738 95.8332 45.2656 95.9197L48.1431 94.9058L49.9688 94.78Z" fill="white"/>
<path d="M39.471 126.046L38.7863 127.272C39.8183 128.868 41.6241 127.429 40.5624 126.18L41.2768 126.046C41.3165 126.926 41.5051 127.901 40.2945 128.302C38.4887 128.702 36.9309 126.25 39.4611 126.054L39.471 126.046Z" fill="white"/>
<path d="M50.6932 96.2183C49.7208 97.3422 48.2126 97.4601 46.7144 97.075C47.5677 96.1554 49.4033 96.1633 50.6932 96.2183Z" fill="white"/>
<path d="M83.9725 291.555C84.0915 291.72 84.0816 292.451 83.9427 292.632C83.7939 292.829 79.1204 294.55 78.6739 294.621C76.7589 294.935 74.7149 294.731 73.1472 293.819C73.6929 292.994 75.5186 293.968 76.2628 294.023C77.0566 294.07 78.287 293.732 79.309 293.984L83.2779 292.098L82.1964 291.532C82.5635 291.398 83.7939 291.304 83.9725 291.555Z" fill="white"/>
<path d="M115.873 281.212C115.773 281.707 115.158 281.715 114.702 281.865C111.279 283.004 106.873 283.051 103.202 283.216L109.433 282.564L115.873 281.212Z" fill="white"/>
<path d="M109.711 283.79C109.661 284.199 108.104 284.285 107.677 284.324C105.861 284.49 103.936 284.466 102.111 284.647C102.081 284.222 103.41 284.144 103.778 284.112C105.683 283.947 107.776 284.01 109.711 283.798V283.79Z" fill="white"/>
<path d="M116.736 110.287C116.736 111.191 115.813 111.922 114.672 111.922C113.531 111.922 112.608 111.191 112.608 110.287C112.608 109.383 113.531 108.652 114.672 108.652C115.813 108.652 116.736 109.383 116.736 110.287ZM116.369 110.279C116.369 109.548 115.625 108.959 114.702 108.959C113.779 108.959 113.035 109.548 113.035 110.279C113.035 111.01 113.779 111.6 114.702 111.6C115.625 111.6 116.369 111.01 116.369 110.279Z" fill="white"/>
<path d="M47.2699 139.486C46.744 140.028 45.7716 140.123 45.0869 139.706C44.4023 139.29 44.2832 138.519 44.8091 137.977C45.335 137.435 46.3074 137.34 46.992 137.757C47.6767 138.174 47.7957 138.944 47.2699 139.486C48.272 138.559 44.8488 136.712 45.1663 139.148C45.4541 139.494 47.0714 139.51 47.2699 139.486Z" fill="white"/>
<path d="M105.157 117.047C104.631 117.589 103.658 117.683 102.974 117.267C102.289 116.85 102.17 116.08 102.696 115.538C103.222 114.995 104.194 114.901 104.879 115.318C105.563 115.734 105.682 116.504 105.157 117.047C106.159 116.119 102.736 114.272 103.053 116.709C103.341 117.055 104.958 117.07 105.157 117.047Z" fill="white"/>
<path d="M34.7578 153.547C34.1426 153.068 34.1426 152.29 34.7479 151.802C35.3531 151.315 36.3355 151.315 36.9506 151.794C37.5658 152.274 37.5658 153.052 36.9606 153.539C36.3553 154.027 35.373 154.027 34.7578 153.547C35.7897 154.451 38.5382 151.983 35.4325 151.928C34.9662 152.109 34.7479 153.382 34.7578 153.547Z" fill="white"/>
<path d="M21.0055 141.561C21.8056 141.561 22.4542 141.047 22.4542 140.413C22.4542 139.78 21.8056 139.266 21.0055 139.266C20.2055 139.266 19.5569 139.78 19.5569 140.413C19.5569 141.047 20.2055 141.561 21.0055 141.561Z" stroke="white" stroke-width="0.5" stroke-miterlimit="10"/>
<path d="M107.181 134.935C107.981 134.935 108.629 134.421 108.629 133.788C108.629 133.154 107.981 132.64 107.181 132.64C106.381 132.64 105.732 133.154 105.732 133.788C105.732 134.421 106.381 134.935 107.181 134.935Z" stroke="white" stroke-width="0.5" stroke-miterlimit="10"/>
</g>
<defs>
<clipPath id="clip0_775_590">
<rect width="144.538" height="312.855" fill="white"/>
</clipPath>
</defs>
</svg>
