<svg width="1600" height="130" viewBox="0 0 1600 130" fill="none" xmlns="http://www.w3.org/2000/svg">
<path d="M43.4612 54.3906L82.7386 54.3906C81.714 45.0551 78.5832 37.3135 73.3462 31.1657C68.1661 24.961 61.1076 21.8587 52.1705 21.8587C45.3966 21.8587 39.7042 23.7371 35.0934 27.4941C30.4826 31.2511 27.2379 36.2319 25.3594 42.4366L0.341393 36.7158C2.90297 25.6156 8.53843 16.7355 17.2478 10.0754C26.014 3.3584 37.3988 -0.000101671 51.4021 -0.000101671C69.6177 -0.000101671 83.8487 6.06229 94.095 18.1871C104.341 30.2549 109.464 45.9944 109.464 65.4054C109.464 78.6117 107.074 89.968 102.292 99.4743C97.5673 108.981 91.0495 116.352 82.7386 121.589C74.4278 126.826 64.4092 129.445 52.6829 129.445C24.164 129.445 6.60301 116.039 -0.000150278 89.228L25.3594 81.3725C26.6687 90.4234 29.8849 97.1404 35.008 101.524C40.1881 105.85 46.3643 108.013 53.5367 108.013C60.9368 108.013 67.2554 105.423 72.4924 100.243C77.7863 95.0627 81.2017 86.7803 82.7386 75.3955L43.4612 75.3955L43.4612 54.3906ZM130.213 2.13454L155.487 2.13454L155.487 55.4153C161.123 54.846 164.937 53.3945 166.929 51.0606C168.921 48.7267 171.995 42.2374 176.151 31.5926C181.388 18.0448 186.653 9.62003 191.947 6.31844C197.184 3.01686 205.637 1.36607 217.307 1.36607C217.876 1.36607 219.1 1.33761 220.978 1.28068L220.978 19.9802L217.392 19.8948C212.212 19.8948 208.426 20.5494 206.036 21.8587C203.645 23.111 201.709 25.0464 200.229 27.6649C198.749 30.2834 196.558 35.6627 193.655 43.8028C192.118 48.129 190.439 51.7437 188.617 54.6468C186.852 57.5499 183.693 60.2822 179.139 62.8438C184.775 64.4377 189.414 67.6539 193.057 72.4924C196.757 77.3309 200.799 84.1618 205.182 92.985L222.259 127.31L192.545 127.31L177.602 94.9489C177.375 94.4935 176.891 93.6111 176.151 92.3019C175.866 91.8465 174.813 89.8826 172.991 86.4103C169.747 80.2625 167.071 76.4201 164.965 74.8832C162.916 73.3463 159.757 72.5493 155.487 72.4924L155.487 127.31L130.213 127.31L130.213 2.13454ZM231.395 65.4908C231.395 52.7398 233.302 42.0382 237.116 33.3857C239.962 27.0103 243.833 21.2894 248.729 16.2232C253.681 11.157 259.089 7.4 264.952 4.95227C272.75 1.65069 281.744 -0.00010167 291.934 -0.00010167C310.377 -0.00010167 325.12 5.72074 336.164 17.1624C347.264 28.6041 352.814 44.5143 352.814 64.8931C352.814 85.101 347.321 100.926 336.334 112.368C325.348 123.752 310.662 129.445 292.275 129.445C273.661 129.445 258.861 123.781 247.875 112.453C236.888 101.068 231.395 85.4141 231.395 65.4908ZM257.438 64.6369C257.438 78.8109 260.711 89.5696 267.257 96.9127C273.804 104.199 282.114 107.842 292.19 107.842C302.265 107.842 310.519 104.227 316.952 96.9981C323.441 89.7119 326.686 78.8109 326.686 64.2954C326.686 49.9506 323.526 39.2489 317.208 32.1903C310.946 25.1318 302.607 21.6025 292.19 21.6025C281.773 21.6025 273.377 25.1887 267.001 32.3611C260.626 39.4766 257.438 50.2352 257.438 64.6369ZM372.965 2.13454L472.525 2.13454L472.525 127.31L447.25 127.31L447.25 23.1394L398.239 23.1394L398.239 127.31L372.965 127.31L372.965 2.13454ZM493.188 65.4908C493.188 52.7398 495.095 42.0382 498.909 33.3857C501.755 27.0103 505.626 21.2894 510.521 16.2232C515.474 11.157 520.881 7.4 526.745 4.95227C534.543 1.65069 543.537 -0.00010167 553.726 -0.00010167C572.17 -0.00010167 586.913 5.72074 597.956 17.1624C609.056 28.6041 614.606 44.5143 614.606 64.8931C614.606 85.101 609.113 100.926 598.127 112.368C587.141 123.752 572.454 129.445 554.068 129.445C535.454 129.445 520.654 123.781 509.667 112.453C498.681 101.068 493.188 85.4141 493.188 65.4908ZM519.231 64.6369C519.231 78.8109 522.504 89.5696 529.05 96.9127C535.596 104.199 543.907 107.842 553.983 107.842C564.058 107.842 572.312 104.227 578.744 96.9981C585.234 89.7119 588.478 78.8109 588.478 64.2954C588.478 49.9506 585.319 39.2489 579.001 32.1903C572.739 25.1318 564.4 21.6025 553.983 21.6025C543.566 21.6025 535.169 25.1887 528.794 32.3611C522.418 39.4766 519.231 50.2352 519.231 64.6369ZM714.508 81.2871L739.014 89.0572C735.257 102.719 728.995 112.88 720.229 119.54C711.519 126.143 700.448 129.445 687.014 129.445C670.392 129.445 656.73 123.781 646.028 112.453C635.327 101.068 629.976 85.528 629.976 65.8323C629.976 44.9982 635.355 28.8318 646.114 17.3332C656.872 5.77767 671.018 -0.00010167 688.551 -0.00010167C703.863 -0.00010167 716.301 4.52534 725.864 13.5762C731.557 18.9271 735.826 26.6118 738.672 36.6304L713.654 42.6074C712.174 36.1181 709.072 30.9949 704.347 27.238C699.679 23.481 693.987 21.6025 687.27 21.6025C677.991 21.6025 670.449 24.9325 664.643 31.5926C658.893 38.2527 656.019 49.0398 656.019 63.9538C656.019 79.7787 658.865 91.0496 664.557 97.7666C670.25 104.484 677.65 107.842 686.757 107.842C693.475 107.842 699.252 105.707 704.091 101.438C708.929 97.1689 712.402 90.4519 714.508 81.2871ZM751.224 65.4908C751.224 52.7398 753.131 42.0382 756.945 33.3857C759.791 27.0103 763.662 21.2894 768.557 16.2232C773.509 11.157 778.917 7.4 784.78 4.95227C792.579 1.65069 801.573 -0.000101669 811.762 -0.000101669C830.206 -0.000101669 844.949 5.72074 855.992 17.1624C867.092 28.6041 872.642 44.5143 872.642 64.8931C872.642 85.101 867.149 100.926 856.163 112.368C845.177 123.752 830.49 129.445 812.104 129.445C793.49 129.445 778.689 123.781 767.703 112.453C756.717 101.068 751.224 85.4141 751.224 65.4908ZM777.266 64.6369C777.266 78.8109 780.539 89.5696 787.086 96.9127C793.632 104.199 801.943 107.842 812.018 107.842C822.094 107.842 830.348 104.227 836.78 96.9981C843.27 89.7119 846.514 78.8109 846.514 64.2954C846.514 49.9506 843.355 39.2489 837.036 32.1903C830.775 25.1318 822.435 21.6025 812.018 21.6025C801.601 21.6025 793.205 25.1887 786.83 32.3611C780.454 39.4766 777.266 50.2352 777.266 64.6369ZM896.977 2.13454L984.668 2.13454L984.668 127.31L959.394 127.31L959.394 23.3102L921.739 23.3102L921.739 76.7617C921.739 92.0742 921.227 102.776 920.202 108.867C919.177 114.901 916.673 119.625 912.688 123.041C908.76 126.399 902.584 128.079 894.159 128.079C891.199 128.079 885.82 127.794 878.022 127.225L878.022 107.671L883.657 107.757C888.951 107.757 892.509 107.045 894.33 105.622C896.152 104.199 897.063 100.698 897.063 95.1196L896.977 73.6024L896.977 2.13454ZM1011.31 2.13454L1036.58 2.13454L1036.58 52.1706L1070.4 52.1706C1086.33 52.1706 1097.86 55.8991 1104.98 63.3561C1112.15 70.8132 1115.74 79.7502 1115.74 90.1673C1115.74 98.7058 1113.57 105.964 1109.25 111.941C1104.92 117.918 1099.97 121.988 1094.39 124.151C1088.87 126.257 1080.87 127.31 1070.4 127.31L1011.31 127.31L1011.31 2.13454ZM1036.58 106.305L1061.17 106.305C1069.14 106.305 1074.66 105.935 1077.74 105.195C1080.81 104.398 1083.55 102.634 1085.94 99.9012C1088.38 97.1689 1089.61 93.8104 1089.61 89.8257C1089.61 84.0764 1087.53 79.864 1083.37 77.1886C1079.28 74.5132 1072.25 73.1755 1062.28 73.1755L1036.58 73.1755L1036.58 106.305ZM1212.14 81.2871L1236.64 89.0572C1232.88 102.719 1226.62 112.88 1217.86 119.54C1209.15 126.143 1198.08 129.445 1184.64 129.445C1168.02 129.445 1154.36 123.781 1143.66 112.453C1132.95 101.068 1127.6 85.528 1127.6 65.8323C1127.6 44.9982 1132.98 28.8318 1143.74 17.3332C1154.5 5.77767 1168.65 -0.000101669 1186.18 -0.000101669C1201.49 -0.000101669 1213.93 4.52534 1223.49 13.5762C1229.18 18.9271 1233.45 26.6118 1236.3 36.6304L1211.28 42.6074C1209.8 36.1181 1206.7 30.9949 1201.98 27.238C1197.31 23.481 1191.61 21.6025 1184.9 21.6025C1175.62 21.6025 1168.08 24.9325 1162.27 31.5926C1156.52 38.2527 1153.65 49.0398 1153.65 63.9538C1153.65 79.7787 1156.49 91.0496 1162.19 97.7666C1167.88 104.484 1175.28 107.842 1184.39 107.842C1191.1 107.842 1196.88 105.707 1201.72 101.438C1206.56 97.1689 1210.03 90.4519 1212.14 81.2871ZM1282.15 127.31L1282.15 23.3102L1245.01 23.3102L1245.01 2.13454L1344.48 2.13454L1344.48 23.3102L1307.43 23.3102L1307.43 127.31L1282.15 127.31ZM1360.96 2.13454L1411 2.13454C1420.9 2.13454 1428.28 2.56147 1433.11 3.41533C1438.01 4.21226 1442.36 5.91998 1446.18 8.53847C1450.05 11.157 1453.27 14.6578 1455.83 19.0409C1458.39 23.3671 1459.67 28.2341 1459.67 33.6419C1459.67 39.505 1458.08 44.8843 1454.89 49.7798C1451.76 54.6752 1447.49 58.3468 1442.08 60.7946C1449.71 63.0146 1455.57 66.8 1459.67 72.1509C1463.77 77.5017 1465.82 83.7918 1465.82 91.0211C1465.82 96.7135 1464.48 102.264 1461.8 107.671C1459.19 113.022 1455.57 117.32 1450.96 120.565C1446.41 123.752 1440.77 125.716 1434.05 126.456C1429.84 126.912 1419.68 127.196 1403.57 127.31L1360.96 127.31L1360.96 2.13454ZM1386.24 22.9687L1386.24 51.9144L1402.8 51.9144C1412.65 51.9144 1418.77 51.7721 1421.16 51.4875C1425.49 50.9752 1428.87 49.4952 1431.32 47.0474C1433.83 44.5428 1435.08 41.2697 1435.08 37.2281C1435.08 33.3573 1434 30.2265 1431.83 27.8357C1429.73 25.3879 1426.57 23.9079 1422.36 23.3956C1419.85 23.111 1412.65 22.9687 1400.75 22.9687L1386.24 22.9687ZM1386.24 72.7486L1386.24 106.22L1409.63 106.22C1418.74 106.22 1424.52 105.964 1426.97 105.451C1430.72 104.768 1433.77 103.117 1436.1 100.499C1438.49 97.8235 1439.69 94.2658 1439.69 89.8257C1439.69 86.0687 1438.78 82.881 1436.96 80.2625C1435.14 77.644 1432.49 75.7371 1429.02 74.5417C1425.6 73.3463 1418.14 72.7486 1406.64 72.7486L1386.24 72.7486ZM1477.69 65.4908C1477.69 52.7398 1479.59 42.0382 1483.41 33.3857C1486.25 27.0103 1490.12 21.2894 1495.02 16.2232C1499.97 11.157 1505.38 7.4 1511.24 4.95227C1519.04 1.65069 1528.03 -0.000101668 1538.22 -0.000101668C1556.67 -0.000101668 1571.41 5.72074 1582.45 17.1624C1593.55 28.6041 1599.1 44.5143 1599.1 64.8931C1599.1 85.101 1593.61 100.926 1582.62 112.368C1571.64 123.752 1556.95 129.445 1538.57 129.445C1519.95 129.445 1505.15 123.781 1494.17 112.453C1483.18 101.068 1477.69 85.4141 1477.69 65.4908ZM1503.73 64.6369C1503.73 78.8109 1507 89.5696 1513.55 96.9127C1520.09 104.199 1528.4 107.842 1538.48 107.842C1548.56 107.842 1556.81 104.227 1563.24 96.9981C1569.73 89.7119 1572.98 78.8109 1572.98 64.2954C1572.98 49.9506 1569.82 39.2489 1563.5 32.1903C1557.24 25.1318 1548.9 21.6025 1538.48 21.6025C1528.06 21.6025 1519.67 25.1887 1513.29 32.3611C1506.92 39.4766 1503.73 50.2352 1503.73 64.6369Z" fill="#474A51"/>
</svg>
