<svg width="276" height="72" viewBox="0 0 276 72" fill="none" xmlns="http://www.w3.org/2000/svg">
<g clip-path="url(#clip0_983_173)">
<path fill-rule="evenodd" clip-rule="evenodd" d="M36.8598 26.2506C36.4498 25.6706 36.1398 25.2406 35.9798 25.0306C35.9098 24.9306 35.8798 24.8806 35.8798 24.8806C35.8798 24.8806 35.2498 23.3806 36.8898 22.6906C38.5398 22.0006 40.4698 18.2806 40.4698 18.2806C40.4698 18.2806 40.5698 18.2506 41.7998 17.1306C43.0798 15.9506 43.2098 11.6506 42.8798 11.6706C42.5498 11.6906 42.0698 11.9306 40.8698 12.4706C39.3798 13.1006 39.2698 13.9506 38.6398 13.7706C37.2498 13.3806 32.6698 11.4406 32.1098 10.5206C31.5398 9.60064 31.0598 6.50064 30.2598 6.48064C29.4698 6.46064 27.8298 10.1106 27.3998 11.0806C26.9798 12.0506 27.5198 11.9206 26.6798 14.0706C26.4998 14.5306 26.4298 15.0706 26.4198 15.6606C26.4098 16.5106 26.5398 17.4406 26.7198 18.3006C26.7198 18.3206 26.7198 18.3506 26.7298 18.3706C26.8298 18.9006 26.9598 19.4006 27.0798 19.8206C27.0798 19.8306 27.0798 19.8506 27.0798 19.8606C27.2498 20.4806 27.3998 20.9406 27.4598 21.1306C27.6198 21.6806 27.3998 21.7306 26.0198 21.7006C25.7298 21.7006 25.3898 21.7006 24.9998 21.7006C24.8298 21.7006 24.6498 21.7006 24.4798 21.7106C22.3098 21.8806 19.8798 23.2206 19.1198 24.1406C17.9498 25.5406 16.4998 29.1406 15.5398 30.8306C13.9498 30.9706 12.8498 30.5606 11.6298 29.7306C11.4398 29.2506 11.6298 26.9806 9.65979 26.5406C7.27979 25.5906 6.43978 27.2206 6.04978 28.6606C5.98978 28.8806 5.95978 29.1006 5.94978 29.3206C6.35978 28.7106 4.95978 29.9806 5.94978 29.3206C8.89978 33.3106 11.5598 40.0506 15.4398 36.4606C15.5398 36.3706 15.6298 36.2706 15.7298 36.1806C15.6098 36.9306 15.2398 37.9006 14.8698 38.5906C14.5198 39.2506 14.1598 39.6706 13.6898 40.3006C12.7498 41.5606 12.8898 40.9706 12.8298 42.5206C12.7598 44.4206 16.1798 42.6306 18.2698 43.1806C21.0998 43.9206 19.2198 45.9606 20.8098 45.6606C19.9698 46.9406 16.1398 51.1306 15.9198 51.4806C15.3298 52.4206 14.5098 55.0706 15.6298 59.4206C16.7498 63.7706 15.8698 66.1206 15.1598 67.4206C15.0998 67.5306 15.0398 67.6406 14.9698 67.7506L14.1298 68.8106L14.2198 68.7906C13.7898 69.2506 13.3598 69.4706 12.9198 69.3006C12.1498 69.0106 10.1498 67.9506 8.79978 68.4806C7.44978 69.0106 7.32978 71.8306 7.32978 71.8306H16.2098C16.2098 71.8306 19.7998 69.3606 20.3898 68.8906C20.9798 68.4206 23.9698 67.2206 25.4998 63.7206C26.1298 62.2806 26.2098 61.1806 26.1998 60.5006C26.6198 61.3706 27.1098 62.2006 27.6698 62.9706C28.3498 63.9206 29.1398 64.7906 30.0198 65.5506C30.2198 65.7306 30.4398 65.9006 30.6798 66.0106C30.8898 66.1006 31.6498 66.3706 32.1598 66.5106C33.0598 67.1706 33.7598 67.6806 33.9098 67.9606C34.2598 68.6106 33.7898 69.7806 32.0898 69.7206C30.3898 69.6606 28.9498 70.1806 28.8598 71.9606C30.5798 72.0806 34.3298 71.9406 37.4598 71.9406C39.2198 71.9406 39.3398 69.2406 39.3398 68.8306C39.3398 68.4206 39.0898 67.0706 39.0398 66.6606C38.9798 66.2506 39.0398 65.3706 39.0998 64.9006C39.1598 64.4306 39.6098 61.6806 39.8698 59.8406C40.2798 56.9106 38.7498 54.7806 38.6898 54.3106C37.9098 47.7406 35.8198 45.5406 35.8198 45.5406C35.8198 45.5406 35.7498 45.3106 35.6498 44.9306C35.9398 45.2106 36.2498 45.4606 36.5898 45.6606C37.4198 46.1506 38.6098 46.3406 39.2598 45.6306C39.8998 44.9306 39.6198 43.7906 39.0698 43.0306C38.5198 42.2706 37.7398 41.6706 37.3098 40.8306C37.2298 40.6706 37.1598 40.5006 37.1898 40.3306C37.2198 40.1306 37.3698 39.9606 37.5298 39.8306C38.3098 39.2206 39.3798 39.2606 40.3598 39.1506C41.3398 39.0506 41.4798 41.8006 41.7198 40.8406C40.8498 35.8906 39.7798 30.4206 36.8598 26.2506Z" fill="#1A1A18"/>
<path d="M5.96973 29.3207C5.97973 29.1007 6.01973 28.8807 6.06973 28.6607C6.45973 27.2207 7.28973 25.6007 9.67973 26.5407C11.6497 26.9807 11.4597 29.2507 11.6497 29.7307C12.8697 30.5607 13.9597 30.9707 15.5597 30.8307C16.5097 29.1407 17.9597 25.5407 19.1397 24.1407C19.8997 23.2207 22.3197 21.8807 24.4997 21.7107C24.6697 21.7007 24.8397 21.7007 25.0197 21.7007C25.4097 21.7007 25.7497 21.7007 26.0397 21.7007C27.4297 21.7207 27.6397 21.6707 27.4797 21.1307C27.4197 20.9407 27.2797 20.4807 27.0997 19.8607C27.0997 19.8407 27.0997 19.8307 27.0997 19.8207C26.9797 19.4007 26.8597 18.9007 26.7497 18.3707C26.7497 18.3507 26.7397 18.3207 26.7397 18.3007C26.5597 17.4407 26.4297 16.5107 26.4397 15.6607C26.4397 15.0607 26.5197 14.5207 26.6997 14.0607C27.5297 11.9107 26.9997 12.0407 27.4197 11.0707C27.8397 10.1007 29.4897 6.45066 30.2797 6.47066C31.0697 6.49066 31.5597 9.58066 32.1297 10.5107C32.6897 11.4307 37.2697 13.3707 38.6597 13.7607C39.2897 13.9407 39.3997 13.0907 40.8897 12.4607C42.0897 11.9207 42.5697 11.6807 42.8997 11.6607C43.2297 11.6407 43.0897 15.9407 41.8197 17.1207C40.5897 18.2507 40.4897 18.2707 40.4897 18.2707C40.4897 18.2707 38.5597 21.9907 36.9097 22.6807C35.2697 23.3707 35.8997 24.8707 35.8997 24.8707C35.8997 24.8707 35.9297 24.9207 35.9997 25.0207C36.1597 25.2307 36.4697 25.6607 36.8797 26.2407C39.7997 30.4107 40.8697 35.8807 41.7397 40.8307C41.4997 41.7907 41.3597 39.0407 40.3797 39.1407C39.3997 39.2407 38.3297 39.2107 37.5497 39.8207C37.3897 39.9507 37.2397 40.1107 37.2097 40.3207C37.1797 40.4907 37.2497 40.6607 37.3297 40.8207C37.7497 41.6607 38.5397 42.2607 39.0897 43.0207C39.6397 43.7807 39.9197 44.9207 39.2797 45.6207C38.6297 46.3307 37.4397 46.1407 36.6097 45.6507C36.2697 45.4507 35.9497 45.2007 35.6697 44.9207C35.7697 45.3007 35.8397 45.5307 35.8397 45.5307C35.8397 45.5307 37.9297 47.7307 38.7097 54.3007C38.7697 54.7707 40.2897 56.9007 39.8897 59.8307C39.6297 61.6707 39.1897 64.4107 39.1197 64.8907C39.0597 65.3607 38.9997 66.2407 39.0597 66.6507C39.1197 67.0607 39.3597 68.4107 39.3597 68.8207C39.3597 69.2307 39.2497 71.9307 37.4797 71.9307C34.3497 71.9307 30.5997 72.0607 28.8797 71.9507C28.9697 70.1707 30.4097 69.6607 32.1097 69.7107C33.8097 69.7707 34.2797 68.5907 33.9297 67.9507C33.7797 67.6807 33.0897 67.1607 32.1797 66.5007C31.6697 66.3607 30.9197 66.0907 30.6997 66.0007C30.4497 65.8907 30.2397 65.7207 30.0397 65.5407C29.1597 64.7807 28.3797 63.9107 27.6897 62.9607C27.1297 62.1807 26.6397 61.3507 26.2197 60.4907C26.2197 61.1807 26.1497 62.2807 25.5197 63.7107C23.9797 67.2107 20.9897 68.4107 20.4097 68.8807C19.8197 69.3507 16.2297 71.8207 16.2297 71.8207H7.35973C7.35973 71.8207 7.47973 69.0007 8.82973 68.4707C10.1797 67.9407 12.1797 69.0007 12.9497 69.2907C13.3897 69.4607 13.8197 69.2307 14.2497 68.7807L14.1597 68.8007L14.9997 67.7407C15.0597 67.6307 15.1197 67.5307 15.1897 67.4107C15.8997 66.1207 16.7797 63.7707 15.6597 59.4107C14.5397 55.0607 15.3697 52.4107 15.9497 51.4707C16.1697 51.1207 19.9997 46.9407 20.8397 45.6507C19.2497 45.9507 21.1297 43.9107 18.2997 43.1707C16.2097 42.6207 12.7897 44.4007 12.8597 42.5107C12.9197 40.9607 12.7797 41.5507 13.7197 40.2907C14.1897 39.6607 14.5497 39.2407 14.8997 38.5807C15.2697 37.8907 15.6397 36.9207 15.7597 36.1707C15.6597 36.2607 15.5697 36.3607 15.4697 36.4507C11.5897 40.0407 8.91973 33.3007 5.97973 29.3107L5.96973 29.3207Z" stroke="#1A1A18" stroke-width="0.57" stroke-miterlimit="22.93"/>
<path fill-rule="evenodd" clip-rule="evenodd" d="M12.9402 33.3306C12.7102 33.5406 12.5002 33.7906 12.2902 34.0306C11.8602 33.3606 11.5002 32.6606 11.2002 31.9606C10.9802 31.4406 10.8102 30.8906 10.8802 30.3506C12.1002 30.3006 13.4102 30.7606 14.3002 31.6106C14.3302 31.6306 14.3502 31.6606 14.3802 31.6906C13.9402 32.2906 13.4702 32.8506 12.9302 33.3406" fill="#0F0C08"/>
<path fill-rule="evenodd" clip-rule="evenodd" d="M19.3999 44.9806C19.3499 45.0606 19.1799 46.4806 19.1299 46.5706C17.9499 46.5606 17.4699 44.6006 16.6199 43.9806C15.5999 43.2306 14.7199 43.8106 15.2699 42.1506C15.6899 40.9106 16.4799 39.8706 17.3299 38.7806C17.6999 38.3106 18.0699 37.8106 18.4199 37.3006C19.3399 35.9406 19.5299 34.2806 19.0699 32.7406C19.7899 31.9206 20.4799 31.0706 21.1399 30.2106C19.0299 35.0806 18.8099 39.9706 19.3899 44.9906L19.3999 44.9806Z" fill="#1A1A18"/>
<path d="M19.3999 44.9806C19.3499 45.0606 19.1799 46.4806 19.1299 46.5706C17.9499 46.5606 17.4699 44.6006 16.6199 43.9806C15.5999 43.2306 14.7199 43.8106 15.2699 42.1506C15.6899 40.9106 16.4799 39.8706 17.3299 38.7806C17.6999 38.3106 18.0699 37.8106 18.4199 37.3006C19.3399 35.9406 19.5299 34.2806 19.0699 32.7406C19.7899 31.9206 20.4799 31.0706 21.1399 30.2106C19.0299 35.0806 18.8099 39.9706 19.3899 44.9906L19.3999 44.9806Z" stroke="#1A1A18" stroke-width="0.57" stroke-miterlimit="22.93"/>
<path fill-rule="evenodd" clip-rule="evenodd" d="M34.79 38.5107V38.3407C34.79 37.4807 34.86 36.6207 34.98 35.7707C35.61 36.3007 36.29 36.8207 37.11 37.3007C35.88 37.2507 35.22 37.7007 34.8 38.5007L34.79 38.5107Z" fill="#0F0C08"/>
<path fill-rule="evenodd" clip-rule="evenodd" d="M36.1101 0.800649C36.1101 0.800649 36.1401 0.820649 36.1801 0.850649C35.5701 2.63065 33.7501 7.93065 33.0101 9.45065L31.9501 8.95065C31.9501 8.95065 31.4501 10.1606 35.0801 12.0606C38.7101 13.9606 39.9201 12.7106 39.9201 12.7106L38.8401 12.2006C39.8801 10.2706 42.4801 5.49065 43.3501 4.38065C43.4301 4.38065 43.5201 4.38065 43.5901 4.36065C44.7701 4.06065 38.5201 -0.0593511 36.6001 0.000648921C36.1601 0.0106489 35.9401 0.250649 36.1001 0.810649" fill="#1A1A18"/>
<path fill-rule="evenodd" clip-rule="evenodd" d="M31.97 15.6706C31.97 15.5606 31.97 15.4606 31.93 15.3706C31.79 15.0006 31.51 14.7506 31.24 14.4706C31.11 14.3306 31.63 14.4006 31.73 14.5006C32.08 14.8606 32.56 15.2206 32.47 15.8006C32.35 16.5306 32.08 17.2606 31.81 17.9506C31.74 18.1206 30.81 19.8206 30.98 19.9306C31.11 20.0106 31.2 20.1506 31.27 20.3006C31.45 20.2106 31.63 20.2306 31.84 20.3006C32.23 19.0406 32.7 17.9006 33.46 16.7706C33.73 16.3706 34.02 16.1406 34.47 16.0206C34.63 15.9806 34.83 16.1106 34.98 16.0406C35.11 15.9806 35.6 16.2006 35.41 16.2906C35.12 16.4106 34.84 16.2106 34.54 16.3706C35.36 16.2606 36.35 16.7606 36.53 17.5906C36.6 17.6406 36.64 17.6806 36.53 17.7006C36.01 17.7806 35.45 17.9806 34.92 17.8906C34.46 17.8106 34.1 17.5706 33.69 17.3606C33.58 17.5306 33.48 17.7006 33.38 17.8706C32.88 18.7406 32.6 19.6706 32.31 20.6106C32.27 20.7406 31.95 20.6106 31.89 20.5806C31.75 20.6506 31.6 20.7106 31.45 20.7806C31.35 20.9306 30.98 20.7806 30.92 20.6506C30.81 20.3506 30.64 20.0806 30.4 19.8606C30.37 19.8406 30.28 19.7806 30.3 19.7306C30.74 18.8006 31.23 17.9606 31.56 16.9806C31.6 16.8506 31.67 16.6706 31.74 16.4806C31.69 16.4806 31.62 16.4606 31.59 16.4506C31.14 16.2806 30.62 16.2106 30.25 15.8706C29.86 15.5106 29.63 15.0406 29.33 14.6106C29.29 14.5506 29.36 14.5406 29.44 14.5506C30.34 14.0506 31.75 14.7006 31.94 15.6606" fill="white"/>
<path fill-rule="evenodd" clip-rule="evenodd" d="M33.2403 23.1706C31.8303 23.2306 31.1603 22.7106 30.8903 21.4706C29.9403 22.0506 28.8303 21.7506 28.1703 20.8706C28.0603 20.7306 28.4403 20.7606 28.5003 20.8206C29.2003 21.5206 29.8603 21.6106 30.8403 21.2006C30.9103 21.1706 31.0403 21.2906 31.0503 21.3506C31.0803 21.5406 31.2503 21.7906 31.3103 21.9706C31.5903 22.7206 32.3103 22.9306 33.1503 22.9006C33.2303 22.9006 33.3003 23.1806 33.2303 23.1806" fill="white"/>
<path fill-rule="evenodd" clip-rule="evenodd" d="M31.3899 15.5207C31.5499 15.1507 31.3199 14.7007 31.3199 14.7007C31.3199 14.7007 30.8299 14.8407 30.6699 15.2107C30.5099 15.5807 30.7399 16.0307 30.7399 16.0307C30.7399 16.0307 31.2199 15.8907 31.3799 15.5207H31.3899Z" fill="#1A1A18"/>
<path fill-rule="evenodd" clip-rule="evenodd" d="M35.2903 17.1606C35.4503 16.7906 35.2203 16.3406 35.2203 16.3406C35.2203 16.3406 34.7303 16.4806 34.5703 16.8506C34.4103 17.2206 34.6403 17.6706 34.6403 17.6706C34.6403 17.6706 35.1203 17.5306 35.2803 17.1606" fill="#1A1A18"/>
<path fill-rule="evenodd" clip-rule="evenodd" d="M40.3802 13.3507C41.2602 12.6407 42.3201 12.0507 42.5101 12.1907C42.7001 12.3407 42.5602 13.1107 42.4302 13.4107C42.3002 13.7107 42.3302 14.0107 42.2702 14.5907C42.2102 15.1807 41.7602 15.6807 41.6302 15.9807C41.5002 16.2807 41.1702 16.9007 40.7902 16.9607C40.4102 17.0207 40.2801 17.0307 40.0301 16.7907C39.1201 15.9307 39.3501 14.3507 39.3501 14.3507C39.4101 14.2107 39.7002 13.8807 40.3602 13.3507" fill="white"/>
<path fill-rule="evenodd" clip-rule="evenodd" d="M28.5998 11.6306C28.3298 11.5506 28.1998 11.3006 28.4798 10.0406C28.7598 8.77064 30.0798 7.38064 30.0798 7.38064C30.4298 7.05064 30.5898 8.93064 31.0698 9.62064C31.5498 10.3106 31.4698 10.3106 31.3198 10.6406C31.1798 10.9706 30.9498 10.9306 30.2698 11.0306C29.5898 11.1306 28.8598 11.7206 28.5898 11.6306H28.5998Z" fill="white"/>
<path fill-rule="evenodd" clip-rule="evenodd" d="M32.6901 20.9307C34.4601 20.8907 36.2401 20.8507 38.0101 20.8207C38.1601 20.8207 38.5101 20.5907 38.2001 20.5807C36.4201 20.5407 34.6501 20.5807 32.8801 20.6907C32.7301 20.7007 32.3901 20.9507 32.6901 20.9307Z" fill="white"/>
<path fill-rule="evenodd" clip-rule="evenodd" d="M32.2004 21.5206C33.4104 21.8306 34.6104 22.1406 35.8204 22.4506C36.0004 22.5006 36.3704 22.2606 36.0904 22.1506C34.9004 21.6806 33.6804 21.3606 32.4204 21.2006C32.2004 21.1706 31.9504 21.4806 32.2604 21.5206" fill="white"/>
<path fill-rule="evenodd" clip-rule="evenodd" d="M31.8701 21.9906C32.7001 22.4006 33.5301 22.8106 34.3601 23.2206C34.4701 23.2706 34.8701 23.1106 34.7901 23.0606C33.9901 22.5606 33.1501 22.1506 32.2701 21.8206C32.1601 21.7806 31.7501 21.9506 31.8901 22.0006" fill="white"/>
<path fill-rule="evenodd" clip-rule="evenodd" d="M30.1202 19.4606C28.9902 18.0906 27.8102 16.7606 26.5602 15.5006C26.4102 15.3506 25.9702 15.5306 26.1302 15.7106C27.3202 17.0306 28.5102 18.3506 29.6902 19.6706C29.8402 19.8306 30.2702 19.6406 30.1102 19.4606C28.9202 18.1406 27.7402 16.8206 26.5502 15.5006L30.1102 19.4606H30.1202Z" fill="white"/>
<path fill-rule="evenodd" clip-rule="evenodd" d="M29.7199 20.0506C28.7499 19.2406 27.6799 18.5706 26.5299 18.0306C26.4299 17.9806 26.0199 18.1506 26.1299 18.2206C27.1799 18.8906 28.2399 19.5506 29.2899 20.2206C29.4099 20.3006 29.8199 20.1106 29.7199 20.0506Z" fill="white"/>
<path fill-rule="evenodd" clip-rule="evenodd" d="M29.4397 20.5706C28.5697 20.2406 27.7097 19.9206 26.8397 19.5906C26.7197 19.6606 26.5897 19.7306 26.4697 19.8006C27.3697 20.0406 28.2397 20.3706 29.0697 20.7806C29.1897 20.8406 29.6197 20.6606 29.4397 20.5706Z" fill="white"/>
<path fill-rule="evenodd" clip-rule="evenodd" d="M26.8401 19.6007C26.7301 19.5707 26.2801 19.7407 26.4701 19.8107L26.8401 19.6007Z" fill="white"/>
<path fill-rule="evenodd" clip-rule="evenodd" d="M31.5705 27.1506L32.7905 25.0806L29.8305 24.8206L27.7605 23.0606L26.4805 25.1006L29.6505 25.6106L31.5805 27.1506H31.5705Z" fill="#95C11C"/>
<path fill-rule="evenodd" clip-rule="evenodd" d="M30.4798 65.9107C30.4798 65.9107 30.5098 65.9107 30.5198 65.9107C30.4598 65.8807 30.3998 65.8406 30.3398 65.7906C30.3898 65.8306 30.4298 65.8607 30.4798 65.9007" fill="#93C355"/>
<path fill-rule="evenodd" clip-rule="evenodd" d="M39.5396 55.7906C41.7796 56.5906 46.2196 62.2306 49.4896 57.9806C50.0396 57.2606 50.3996 56.5606 50.4896 55.6206C50.7396 52.7306 48.0796 52.9106 46.8096 52.6006C45.1896 52.2006 46.1796 49.2806 47.7296 49.5806C48.8796 49.8106 51.4196 51.7606 52.0096 52.8706C54.8596 58.2406 48.3196 64.2506 42.9596 61.2006C41.9496 60.6306 39.3896 59.0506 38.6796 58.3006C38.6496 58.2606 38.9896 57.7906 39.0696 57.4306C39.0996 57.3206 39.5396 55.7906 39.5396 55.7906Z" fill="#1A1A18"/>
<path d="M39.5396 55.7906C41.7796 56.5906 46.2196 62.2306 49.4896 57.9806C50.0396 57.2606 50.3996 56.5606 50.4896 55.6206C50.7396 52.7306 48.0796 52.9106 46.8096 52.6006C45.1896 52.2006 46.1796 49.2806 47.7296 49.5806C48.8796 49.8106 51.4196 51.7606 52.0096 52.8706C54.8596 58.2406 48.3196 64.2506 42.9596 61.2006C41.9496 60.6306 39.3896 59.0506 38.6796 58.3006C38.6496 58.2606 38.9896 57.7906 39.0696 57.4306C39.0996 57.3206 39.5396 55.7906 39.5396 55.7906Z" stroke="#1A1A18" stroke-width="0.57" stroke-miterlimit="22.93"/>
<path fill-rule="evenodd" clip-rule="evenodd" d="M39.0205 54.4907C38.7905 52.6007 38.4505 51.0807 38.0905 49.8607C37.5805 48.8507 37.1505 47.7907 36.7905 46.7107C36.3805 46.0007 36.0905 45.6907 36.0905 45.6907C36.0905 45.6907 35.5005 43.8307 35.3605 41.9807C35.1505 41.7607 34.9005 41.5607 34.6705 41.3507C33.3405 40.1507 32.6105 38.4007 32.3805 36.6507C32.1505 34.8907 32.3705 33.1107 32.6605 31.3607C28.9705 31.5707 25.2205 30.6407 22.0805 28.7307C21.8605 29.0007 21.6505 29.2807 21.4405 29.5707C18.9705 34.5407 18.3705 40.6707 19.0005 45.9707C18.9105 46.1107 19.0005 46.7707 18.9105 46.9107C18.8705 47.1507 18.8105 47.3907 18.7105 47.6307C18.3505 48.4907 16.4705 50.5507 15.7605 51.6707C15.1605 52.6107 14.3205 55.2607 15.4605 59.6307C16.2005 62.4407 15.3505 64.5307 14.9805 65.9307C18.1905 67.2307 21.4505 67.3407 24.7805 66.1007C25.2005 65.5607 25.2405 64.6507 25.5605 63.9307C26.2405 62.4207 26.2905 61.2907 26.2805 60.6107C25.7405 59.5207 25.3205 58.3607 25.0305 57.1707C24.9405 56.8107 24.8705 56.4507 24.8105 56.0907C24.4705 55.3607 24.1305 54.6307 23.7905 53.9107C23.5305 53.3507 23.2705 52.6907 23.5505 52.1507C23.8005 52.7407 24.1405 53.2907 24.5505 53.7907C24.4905 53.0607 24.3605 51.4707 24.9105 51.2707C25.3505 52.4307 25.0005 54.1107 25.1705 55.3607C25.5405 58.0907 26.6705 60.3207 28.1705 62.6007C28.5405 63.1607 29.4105 64.2807 29.9305 64.7107C30.4005 65.1007 30.9605 65.6807 31.5305 65.9007C32.2705 66.1807 33.3605 66.3007 34.2805 66.4207C36.2205 66.5207 38.0905 66.3706 39.8705 65.8406C39.8905 65.5806 39.9105 65.3207 39.9305 65.1407C39.9905 64.6707 39.9705 61.8907 40.2305 60.0407C40.6505 57.1007 39.0905 54.9707 39.0305 54.5007M24.8005 44.2407C24.8005 44.2407 24.7105 44.2707 24.6705 44.2907C24.5605 44.3407 24.4605 44.3907 24.3705 44.4807C24.2005 44.6507 24.1805 44.9207 24.1705 45.1707C24.1605 45.6107 24.1705 46.0607 24.2205 46.5007C24.2305 46.6107 24.2405 46.7307 24.1905 46.8307C24.1405 46.9307 24.0005 46.9907 23.9105 46.9107C23.8605 46.8707 23.8505 46.8007 23.8405 46.7407C23.6705 45.8707 23.5405 44.9907 23.4305 44.1207C22.5305 44.0107 21.6305 43.8707 20.7505 43.6907C20.4505 43.6307 20.1305 43.5507 19.8805 43.4007C19.1505 42.9507 19.0805 41.8707 19.3605 41.2007C20.1505 41.8807 20.9505 42.2507 22.0605 42.4707C26.1805 43.3007 30.6305 43.5207 34.5505 42.1307C34.7305 42.5107 34.9205 42.9007 35.1005 43.2807C31.7805 44.1807 28.2705 44.5107 24.8105 44.2607L24.8005 44.2407Z" fill="#95C11C"/>
<path fill-rule="evenodd" clip-rule="evenodd" d="M23.7999 29.1307C23.8299 29.0607 23.8599 28.9907 23.8999 28.9207C24.9499 26.6307 25.9899 24.2107 26.0199 21.7307C25.7299 21.7307 25.3999 21.7307 24.9999 21.7307C24.8299 21.7307 24.6499 21.7307 24.4799 21.7407C24.3699 22.7707 24.2299 23.8107 23.9699 24.8107C23.7999 25.4807 23.5899 26.1407 23.2999 26.7707C23.1499 27.1007 22.9099 27.4107 22.7199 27.7407C22.5899 27.9407 22.4799 28.1507 22.4199 28.3707C22.5199 28.4307 23.8799 29.0007 23.8099 29.1407" fill="#95C11C"/>
<path fill-rule="evenodd" clip-rule="evenodd" d="M32.7804 30.7606C33.1304 30.6606 33.1504 30.4606 33.3204 30.1006C33.6504 29.4406 34.0604 28.8006 34.5304 28.2406C35.1904 27.4606 35.9704 26.7806 36.8504 26.2506C36.4404 25.6706 36.1304 25.2406 35.9704 25.0306C35.9404 25.0306 35.9204 25.0406 35.8904 25.0606C33.6704 26.0506 31.9404 28.1806 31.6104 30.5906C31.6104 30.5706 32.6904 30.8006 32.7804 30.7706" fill="#95C11C"/>
<path d="M4.1 27.4006L0 40.6306L42.81 53.9006L46.91 40.6606L4.1 27.4006Z" fill="#9D9D9D"/>
<path d="M4.1 27.4006L0 40.6306L42.81 53.9006L46.91 40.6606L4.1 27.4006Z" stroke="#9D9D9D" stroke-width="0.57" stroke-miterlimit="22.93"/>
<path fill-rule="evenodd" clip-rule="evenodd" d="M32.1702 38.8506L33.7002 39.3206L32.5602 43.0006C32.9102 43.0606 33.1702 43.0406 33.3402 42.9106C33.5102 42.7906 33.8402 42.4007 34.3102 41.7407C34.9102 40.9007 35.4102 40.4206 35.8002 40.2906C36.1902 40.1606 36.7302 40.2006 37.4302 40.4206C37.4602 40.4306 37.5402 40.4506 37.6502 40.4806L37.2502 41.7706L37.0402 41.7006C36.7302 41.6006 36.4902 41.5806 36.3102 41.6206C36.1402 41.6706 35.9802 41.7606 35.8402 41.9206C35.6902 42.0706 35.4502 42.4006 35.1002 42.9106C34.9102 43.1806 34.7402 43.4006 34.5702 43.5706C34.4002 43.7406 34.1502 43.8706 33.8202 43.9606C34.1202 44.1706 34.3302 44.4806 34.4502 44.8806C34.5702 45.2806 34.6602 45.8306 34.7402 46.5206L35.0302 49.2006L33.2402 48.6507L33.0302 46.1406C33.0302 46.1406 33.0102 46.0306 33.0002 45.9306C33.0002 45.9006 32.9702 45.7406 32.9402 45.4706C32.8802 44.9806 32.8002 44.6706 32.7102 44.5206C32.6202 44.3706 32.4502 44.2606 32.1902 44.1806L31.0202 47.9606L29.4902 47.4907L32.1702 38.8506Z" fill="#1A1A18"/>
<path fill-rule="evenodd" clip-rule="evenodd" d="M26.4004 39.7306L25.0404 38.8706C25.7904 37.5606 26.9204 37.1406 28.4104 37.6006C29.2904 37.8706 29.8904 38.3006 30.2104 38.8906C30.5204 39.4806 30.5804 40.0706 30.4004 40.6806C30.2704 41.0906 30.0504 41.4306 29.7504 41.7006C29.4404 41.9706 29.0404 42.1606 28.5504 42.2906C28.9904 42.6406 29.2804 43.0306 29.4104 43.4706C29.5504 43.9106 29.5304 44.3906 29.3704 44.9206C29.1304 45.6806 28.7004 46.2206 28.0704 46.5406C27.4404 46.8606 26.6404 46.8706 25.6804 46.5706C24.8904 46.3306 24.3204 45.9806 23.9604 45.5406C23.6004 45.1006 23.4304 44.4206 23.4604 43.5306L25.0104 43.4406C24.9904 44.0006 25.0804 44.4006 25.2704 44.6306C25.4604 44.8606 25.7304 45.0306 26.0804 45.1406C26.5604 45.2906 26.9504 45.2806 27.2404 45.1106C27.5304 44.9406 27.7304 44.7006 27.8304 44.3906C27.9404 44.0406 27.9004 43.7106 27.7204 43.4206C27.5404 43.1306 27.2004 42.9006 26.7004 42.7506L26.3604 42.6406L26.7704 41.3406L26.9404 41.3906C27.4004 41.5306 27.8004 41.5206 28.1204 41.3606C28.4404 41.2006 28.6604 40.9206 28.7804 40.5206C28.8804 40.2006 28.8604 39.9106 28.7304 39.6306C28.6004 39.3506 28.3404 39.1606 27.9704 39.0406C27.3304 38.8406 26.8204 39.0806 26.4104 39.7506" fill="#1A1A18"/>
<path fill-rule="evenodd" clip-rule="evenodd" d="M17.0599 34.2007L23.0499 36.0607L20.3699 44.7007L18.8399 44.2307L21.0699 37.0507L18.1299 36.1407L15.9099 43.3207L14.3799 42.8507L17.0599 34.2107V34.2007Z" fill="#1A1A18"/>
<path fill-rule="evenodd" clip-rule="evenodd" d="M11.17 36.3107L13.53 37.0407C13.67 36.3807 13.65 35.7807 13.47 35.2607C13.29 34.7407 12.93 34.3907 12.4 34.2307C11.99 34.1007 11.61 34.1307 11.26 34.3007C10.9 34.4707 10.6 34.7607 10.36 35.1507L8.98004 34.2907C9.37004 33.5707 9.90004 33.0607 10.57 32.7607C11.24 32.4607 11.99 32.4407 12.83 32.7007C13.92 33.0407 14.65 33.7207 15.01 34.7507C15.36 35.7807 15.34 36.9607 14.92 38.3107C14.64 39.2207 14.25 39.9607 13.76 40.5307C13.27 41.1007 12.72 41.4907 12.11 41.7007C11.5 41.9107 10.84 41.9007 10.14 41.6807C8.43004 41.1507 7.66004 39.8907 7.84004 37.9107L9.53004 37.8407C9.42004 38.4907 9.47004 39.0107 9.68004 39.4007C9.90004 39.7907 10.22 40.0607 10.65 40.1907C11.09 40.3307 11.53 40.2707 11.96 40.0107C12.39 39.7507 12.77 39.2407 13.1 38.4907L10.74 37.7607L11.19 36.3007L11.17 36.3107Z" fill="#1A1A18"/>
<path fill-rule="evenodd" clip-rule="evenodd" d="M40.7403 51.2807C40.9003 51.6207 41.0003 51.9107 40.9703 52.3007C40.6703 55.3407 35.2803 54.6007 35.9303 51.4607C35.9703 51.2707 36.0003 51.1207 36.1703 51.0207C36.3403 50.9107 36.1003 50.8607 36.2103 50.5407C36.3403 50.1607 36.6603 50.1107 36.6803 49.9807C36.7503 49.2807 36.8003 48.9707 37.0203 49.6807C37.1203 50.0107 37.0103 49.8207 37.4803 49.9307C37.7103 49.9907 37.5503 50.1207 37.7103 49.8307C37.8303 49.6107 38.2303 49.6007 38.2403 49.5907C38.2703 49.5207 38.2603 49.5107 38.3203 49.3807C38.5903 48.8807 38.4003 48.7407 38.7103 49.3807C38.8503 49.6707 38.7203 49.4507 39.0403 49.5507C39.2103 49.6007 39.3803 49.7507 39.4403 49.9307C39.5503 50.2807 39.4203 50.0007 39.8603 50.0207C40.1203 50.0207 40.0703 50.2807 40.1703 49.9807C40.3803 49.3607 40.4503 49.8607 40.6103 50.4807C40.6103 50.5307 40.9203 50.8707 40.7703 51.2907H40.7603L40.7403 51.2807Z" fill="#1A1A18"/>
<path d="M40.7403 51.2807C40.9003 51.6207 41.0003 51.9107 40.9703 52.3007C40.6703 55.3407 35.2803 54.6007 35.9303 51.4607C35.9703 51.2707 36.0003 51.1207 36.1703 51.0207C36.3403 50.9107 36.1003 50.8607 36.2103 50.5407C36.3403 50.1607 36.6603 50.1107 36.6803 49.9807C36.7503 49.2807 36.8003 48.9707 37.0203 49.6807C37.1203 50.0107 37.0103 49.8207 37.4803 49.9307C37.7103 49.9907 37.5503 50.1207 37.7103 49.8307C37.8303 49.6107 38.2303 49.6007 38.2403 49.5907C38.2703 49.5207 38.2603 49.5107 38.3203 49.3807C38.5903 48.8807 38.4003 48.7407 38.7103 49.3807C38.8503 49.6707 38.7203 49.4507 39.0403 49.5507C39.2103 49.6007 39.3803 49.7507 39.4403 49.9307C39.5503 50.2807 39.4203 50.0007 39.8603 50.0207C40.1203 50.0207 40.0703 50.2807 40.1703 49.9807C40.3803 49.3607 40.4503 49.8607 40.6103 50.4807C40.6103 50.5307 40.9203 50.8707 40.7703 51.2907H40.7603L40.7403 51.2807Z" stroke="#1A1A18" stroke-width="0.57" stroke-miterlimit="22.93"/>
<path fill-rule="evenodd" clip-rule="evenodd" d="M6.48987 30.0307C6.22987 29.7707 6.02987 29.5207 5.92987 29.1507C5.18987 26.1907 10.5099 25.0707 10.9499 28.2407C10.9799 28.4307 10.9999 28.5807 10.8799 28.7307C10.7499 28.8907 10.9999 28.8507 10.9999 29.1907C10.9999 29.5907 10.7199 29.7507 10.7499 29.8707C10.9099 30.5507 10.9799 30.8607 10.5299 30.2707C10.3199 29.9907 10.4999 30.1407 10.0199 30.1907C9.77987 30.2207 9.88987 30.0407 9.83987 30.3607C9.80987 30.6107 9.42987 30.7507 9.41987 30.7707C9.41987 30.8507 9.42987 30.8507 9.40987 31.0007C9.31987 31.5607 9.54987 31.6307 9.03987 31.1407C8.80987 30.9107 9.00987 31.0807 8.66987 31.0907C8.48987 31.0907 8.27987 31.0207 8.16987 30.8607C7.94987 30.5707 8.16987 30.7807 7.73987 30.9207C7.48987 31.0007 7.45987 30.7407 7.45987 31.0607C7.45987 31.7207 7.23987 31.2707 6.87987 30.7407C6.85987 30.6907 6.44987 30.4807 6.45987 30.0407V30.0207H6.47987L6.48987 30.0307Z" fill="#1A1A18"/>
<path d="M6.48987 30.0307C6.22987 29.7707 6.02987 29.5207 5.92987 29.1507C5.18987 26.1907 10.5099 25.0707 10.9499 28.2407C10.9799 28.4307 10.9999 28.5807 10.8799 28.7307C10.7499 28.8907 10.9999 28.8507 10.9999 29.1907C10.9999 29.5907 10.7199 29.7507 10.7499 29.8707C10.9099 30.5507 10.9799 30.8607 10.5299 30.2707C10.3199 29.9907 10.4999 30.1407 10.0199 30.1907C9.77987 30.2207 9.88987 30.0407 9.83987 30.3607C9.80987 30.6107 9.42987 30.7507 9.41987 30.7707C9.41987 30.8507 9.42987 30.8507 9.40987 31.0007C9.31987 31.5607 9.54987 31.6307 9.03987 31.1407C8.80987 30.9107 9.00987 31.0807 8.66987 31.0907C8.48987 31.0907 8.27987 31.0207 8.16987 30.8607C7.94987 30.5707 8.16987 30.7807 7.73987 30.9207C7.48987 31.0007 7.45987 30.7407 7.45987 31.0607C7.45987 31.7207 7.23987 31.2707 6.87987 30.7407C6.85987 30.6907 6.44987 30.4807 6.45987 30.0407V30.0207H6.47987L6.48987 30.0307Z" stroke="#1A1A18" stroke-width="0.57" stroke-miterlimit="22.93"/>
<path d="M114.261 23.2646C115.531 22.5546 116.171 21.5146 116.171 20.1746C116.171 18.7046 115.461 16.9446 112.051 16.9446C110.871 16.9446 109.541 17.1346 108.101 17.4946L107.811 17.5646V20.6346H109.341L109.431 20.3846C109.701 19.6646 110.021 19.1646 110.361 18.9046C110.701 18.6446 111.161 18.5246 111.741 18.5246C112.321 18.5246 112.731 18.6746 113.081 18.9946C113.421 19.3046 113.581 19.7346 113.581 20.3046C113.581 21.0646 113.401 21.6246 113.051 21.9746C112.701 22.3246 112.091 22.5046 111.251 22.5046H109.401V24.3546H111.231C111.841 24.3546 112.331 24.4146 112.691 24.5146C113.001 24.6046 113.261 24.8046 113.481 25.1146C113.701 25.4246 113.811 25.8946 113.811 26.5046C113.811 27.2546 113.621 27.8346 113.251 28.2246C112.871 28.6046 112.351 28.7946 111.661 28.7946C111.051 28.7946 110.581 28.6646 110.251 28.3946C109.911 28.1246 109.601 27.5846 109.331 26.8046L109.241 26.5446H107.701V29.7546L107.981 29.8346C109.201 30.1846 110.391 30.3646 111.531 30.3646C113.101 30.3646 114.311 30.0246 115.131 29.3646C115.981 28.6746 116.411 27.7046 116.411 26.4746C116.411 24.9746 115.681 23.9046 114.251 23.2846" fill="#94C11C"/>
<path d="M125.501 26.5346C125.381 26.9446 125.291 27.2446 125.221 27.4646C125.161 27.6546 125.081 27.8446 124.991 28.0246C124.911 28.1846 124.821 28.3046 124.721 28.4046C124.631 28.4846 124.531 28.5446 124.411 28.5746C124.261 28.6146 124.051 28.6346 123.791 28.6346H121.371V24.1946H122.921C123.211 24.1946 123.331 24.2446 123.371 24.2646C123.451 24.3046 123.521 24.3946 123.591 24.5046C123.651 24.6146 123.741 24.8246 123.831 25.2246L123.901 25.5246H125.451V21.2746H123.901L123.831 21.5746C123.731 22.0046 123.641 22.2246 123.581 22.3246C123.521 22.4346 123.451 22.5146 123.371 22.5446C123.301 22.5846 123.171 22.6146 122.921 22.6146H121.371V18.6546H123.841C124.051 18.6546 124.231 18.6646 124.371 18.6946C124.481 18.7146 124.581 18.7546 124.651 18.8146C124.741 18.8746 124.821 18.9646 124.901 19.0846C124.991 19.2146 125.081 19.3846 125.161 19.5846C125.251 19.7946 125.341 20.0446 125.431 20.3246L125.511 20.6046H127.071V17.0946H117.841V18.2146L118.121 18.2946C118.441 18.3846 118.571 18.4446 118.621 18.4746C118.681 18.5046 118.731 18.5446 118.761 18.6046C118.781 18.6446 118.821 18.7246 118.851 18.8946C118.871 19.0146 118.891 19.2546 118.891 19.7446V27.5646C118.891 27.9846 118.871 28.2946 118.841 28.4846C118.821 28.6146 118.771 28.7146 118.711 28.7746C118.691 28.7946 118.571 28.8946 118.131 29.0046L117.841 29.0746V30.2046H126.971L127.181 26.2546H125.581L125.501 26.5346Z" fill="#94C11C"/>
<path d="M131.631 18.2546L131.971 18.2946C132.201 18.3246 132.371 18.3846 132.431 18.4646C132.451 18.4846 132.541 18.6346 132.541 19.1446C132.541 19.7946 132.401 20.8546 132.111 22.2946C131.821 23.7546 131.501 25.0146 131.171 26.0446C130.751 27.3446 130.481 27.7646 130.361 27.8846C130.181 28.0746 130.001 28.1746 129.851 28.1746C129.741 28.1746 129.641 28.1746 129.601 27.8746L129.561 27.5346H127.941V30.0246L128.201 30.1146C128.651 30.2746 129.171 30.3546 129.731 30.3546C130.341 30.3546 130.891 30.1546 131.371 29.7746C131.841 29.3946 132.281 28.6746 132.701 27.5746C133.101 26.5346 133.481 25.1046 133.851 23.3246C134.191 21.6846 134.421 20.1146 134.561 18.6546H136.331V27.5546C136.331 28.2946 136.251 28.5746 136.201 28.6746C136.191 28.7046 136.091 28.8646 135.531 28.9946L135.231 29.0646V30.2046H139.841V29.0746L139.541 29.0046C139.061 28.8846 138.941 28.7546 138.911 28.7146C138.901 28.6946 138.781 28.4946 138.781 27.5646V19.7446C138.781 18.7946 138.891 18.6046 138.901 18.5846C138.921 18.5646 139.031 18.4246 139.531 18.3046L139.831 18.2346V17.1046H131.631V18.2746V18.2546Z" fill="#94C11C"/>
<path d="M148.921 26.5346C148.801 26.9446 148.711 27.2446 148.641 27.4646C148.581 27.6546 148.501 27.8446 148.411 28.0246C148.331 28.1846 148.241 28.3046 148.141 28.4046C148.051 28.4846 147.951 28.5446 147.821 28.5746C147.671 28.6146 147.461 28.6346 147.201 28.6346H144.771V24.1946H146.321C146.611 24.1946 146.731 24.2446 146.771 24.2646C146.851 24.3046 146.921 24.3946 146.991 24.5046C147.051 24.6146 147.141 24.8246 147.231 25.2246L147.301 25.5246H148.841V21.2746H147.301L147.231 21.5746C147.131 22.0046 147.041 22.2246 146.981 22.3246C146.921 22.4346 146.851 22.5146 146.771 22.5446C146.701 22.5846 146.571 22.6146 146.321 22.6146H144.771V18.6546H147.241C147.451 18.6546 147.631 18.6646 147.771 18.6946C147.881 18.7146 147.981 18.7546 148.051 18.8146C148.141 18.8746 148.221 18.9646 148.301 19.0846C148.391 19.2146 148.481 19.3846 148.561 19.5846C148.651 19.7946 148.741 20.0446 148.831 20.3246L148.911 20.6046H150.471V17.0946H141.241V18.2146L141.521 18.2946C141.851 18.3846 141.971 18.4446 142.021 18.4746C142.081 18.5046 142.131 18.5446 142.161 18.6046C142.181 18.6446 142.221 18.7246 142.251 18.8946C142.271 19.0146 142.291 19.2546 142.291 19.7446V27.5646C142.291 27.9846 142.271 28.2946 142.241 28.4846C142.221 28.6146 142.171 28.7146 142.111 28.7746C142.091 28.7946 141.971 28.8946 141.531 29.0046L141.241 29.0746V30.2046H150.371L150.581 26.2546H148.981L148.901 26.5346H148.921Z" fill="#94C11C"/>
<path d="M158.631 18.2146L158.921 18.2946C159.351 18.4146 159.471 18.4946 159.481 18.5146C159.541 18.5646 159.581 18.6446 159.611 18.7646C159.631 18.8546 159.671 19.1046 159.671 19.7446V22.5546H155.421V19.7446C155.421 19.2546 155.441 19.0046 155.471 18.8846C155.501 18.6846 155.551 18.6146 155.561 18.5946C155.601 18.5446 155.651 18.5046 155.711 18.4646C155.761 18.4346 155.881 18.3746 156.191 18.3046L156.481 18.2346V17.1046H151.901V18.2246L152.181 18.3046C152.501 18.3946 152.631 18.4546 152.681 18.4846C152.741 18.5146 152.791 18.5546 152.821 18.6146C152.841 18.6446 152.881 18.7346 152.911 18.9046C152.931 19.0246 152.951 19.2646 152.951 19.7546V27.5746C152.951 27.9946 152.931 28.3046 152.901 28.4946C152.881 28.6246 152.831 28.7246 152.771 28.7846C152.751 28.8046 152.631 28.9046 152.191 29.0146L151.901 29.0846V30.2146H156.481V29.0846L156.191 29.0146C155.871 28.9346 155.741 28.8646 155.691 28.8346C155.621 28.7946 155.581 28.7546 155.551 28.7046C155.531 28.6646 155.491 28.5846 155.461 28.4046C155.441 28.2346 155.421 27.9646 155.421 27.5746V24.1746H159.671V27.5746C159.671 28.1546 159.631 28.4246 159.601 28.5546C159.571 28.6746 159.521 28.7646 159.461 28.8146C159.421 28.8446 159.291 28.9346 158.911 29.0246L158.621 29.0946V30.2246H163.181V29.0946L162.891 29.0246C162.631 28.9546 162.501 28.9046 162.441 28.8846C162.351 28.8446 162.311 28.8046 162.301 28.7946C162.281 28.7746 162.251 28.7246 162.221 28.6546C162.201 28.6046 162.171 28.5046 162.151 28.3346C162.131 28.1746 162.131 27.9246 162.131 27.5846V19.7646C162.131 19.1846 162.161 18.9146 162.191 18.7946C162.221 18.6746 162.261 18.5846 162.321 18.5346C162.361 18.5046 162.491 18.4146 162.881 18.3246L163.171 18.2546V17.1246H158.611V18.2546L158.631 18.2146Z" fill="#94C11C"/>
<path d="M169.961 22.3346C169.431 22.3346 168.811 22.3546 168.131 22.4146V19.7446C168.131 18.8946 168.231 18.6546 168.261 18.6046C168.281 18.5746 168.381 18.4246 168.911 18.2946L169.201 18.2246V17.0946H164.611V18.2346L164.901 18.3046C165.321 18.4046 165.491 18.5246 165.541 18.5746C165.551 18.5946 165.671 18.7846 165.671 19.7546V27.5746C165.671 28.5246 165.551 28.7146 165.551 28.7246C165.511 28.7746 165.351 28.8946 164.911 28.9946L164.611 29.0646V30.2046H169.541C173.461 30.2046 174.291 28.0046 174.291 26.1546C174.291 24.4146 173.541 22.3446 169.971 22.3446M171.811 26.2446C171.811 27.0646 171.621 27.6746 171.241 28.0546C170.861 28.4346 170.181 28.6246 169.201 28.6246C168.811 28.6246 168.451 28.6146 168.131 28.5946V23.9946C168.481 23.9746 168.931 23.9546 169.471 23.9546C171.061 23.9546 171.801 24.6846 171.801 26.2446H171.811Z" fill="#94C11C"/>
<path d="M174.301 18.2246L174.601 18.2946C175.051 18.4046 175.191 18.5346 175.231 18.5746C175.241 18.5946 175.361 18.7846 175.361 19.7446V27.5646C175.361 28.5146 175.241 28.7046 175.241 28.7146C175.181 28.7746 175.021 28.8946 174.601 28.9946L174.301 29.0646V30.1946H178.881V29.0646L178.591 28.9946C178.141 28.8846 177.991 28.7546 177.961 28.7146C177.951 28.6946 177.831 28.5046 177.831 27.5646V19.7446C177.831 18.8546 177.941 18.6446 177.961 18.6146C177.981 18.5846 178.091 18.4346 178.611 18.2946L178.891 18.2146V17.0846H174.311V18.2246H174.301Z" fill="#94C11C"/>
<path d="M183.601 16.0546C184.181 16.4646 184.981 16.6746 186.001 16.6746C186.931 16.6746 187.721 16.4646 188.371 16.0446C189.071 15.5946 189.421 14.9546 189.421 14.1446V13.3846H187.121V14.1446C187.121 14.5546 187.041 14.8546 186.901 14.9946C186.761 15.1446 186.461 15.2146 186.031 15.2146C185.631 15.2146 185.341 15.1346 185.211 14.9946C185.071 14.8346 184.991 14.5346 184.991 14.1446V13.3846H182.691V14.1446C182.691 14.9646 183.001 15.6046 183.621 16.0546" fill="#94C11C"/>
<path d="M187.182 18.2146L187.472 18.2946C187.982 18.4346 188.092 18.5746 188.112 18.5946C188.132 18.6246 188.222 18.8046 188.232 19.4946L183.852 24.8946C183.852 24.5346 183.862 24.1446 183.862 23.7246V19.7446C183.862 18.7846 183.982 18.5946 183.982 18.5746C184.022 18.5246 184.172 18.4046 184.612 18.2946L184.902 18.2246V17.0946H180.352V18.2346L180.652 18.3046C181.072 18.4046 181.232 18.5246 181.292 18.5746C181.302 18.5946 181.422 18.7846 181.422 19.7546V27.5746C181.422 28.4646 181.312 28.6646 181.292 28.7046C181.272 28.7346 181.162 28.8746 180.642 29.0146L180.352 29.0946V30.2246H184.902V29.0946L184.612 29.0246C184.132 28.9046 184.012 28.7746 183.982 28.7346C183.972 28.7146 183.862 28.5446 183.862 27.7246L188.232 22.3346C188.232 22.7046 188.232 23.1646 188.232 23.6946V27.5846C188.232 28.4746 188.132 28.6846 188.112 28.7146C188.092 28.7446 187.982 28.8846 187.472 29.0146L187.182 29.0846V30.2146H191.722V29.0846L191.432 29.0146C190.952 28.8946 190.832 28.7646 190.802 28.7246C190.792 28.7046 190.672 28.5146 190.672 27.5846V19.7646C190.672 18.8046 190.782 18.6146 190.792 18.5946C190.832 18.5446 190.982 18.4246 191.422 18.3146L191.712 18.2446V17.1146H187.172V18.2446V18.2246L187.182 18.2146Z" fill="#94C11C"/>
<path d="M207.381 28.6046C207.161 28.3546 206.901 27.9046 206.621 27.2646L205.811 25.4246C205.341 24.3646 204.691 23.6246 203.871 23.2046C204.051 23.0346 204.211 22.8346 204.341 22.6146C204.561 22.2546 204.811 21.7146 205.091 20.9646C205.511 19.9046 205.741 19.4946 205.861 19.3446C206.021 19.1346 206.171 19.1046 206.271 19.1046C206.401 19.1046 206.601 19.1046 206.671 19.6546L206.711 19.9946H208.341V17.2346L208.061 17.1546C207.561 17.0146 207.151 16.9446 206.831 16.9446C205.831 16.9446 205.081 17.2146 204.611 17.7346C204.181 18.2246 203.761 19.0446 203.351 20.2346C202.811 21.7446 202.501 22.2046 202.361 22.3446C202.151 22.5546 201.871 22.6646 201.481 22.6646H200.781V19.7446C200.781 18.7846 200.901 18.5946 200.901 18.5746C200.941 18.5246 201.091 18.4046 201.531 18.2946L201.821 18.2246V17.0946H197.231V18.2346L197.531 18.3046C197.951 18.4046 198.121 18.5246 198.171 18.5746C198.181 18.5946 198.301 18.7846 198.301 19.7546V27.5746C198.301 28.5246 198.181 28.7146 198.181 28.7346C198.131 28.7846 197.981 28.9046 197.541 29.0046L197.241 29.0746V30.2146H201.831V29.0846L201.541 29.0146C201.061 28.8946 200.941 28.7646 200.911 28.7246C200.901 28.7046 200.781 28.5146 200.781 27.5846V24.2346H201.491C201.851 24.2346 202.141 24.2846 202.331 24.3846C202.521 24.4846 202.691 24.6446 202.841 24.8546C203.011 25.1046 203.201 25.5246 203.421 26.1046L204.101 27.9346C204.261 28.3746 204.461 28.8946 204.701 29.4746V30.2346H208.581V29.0546L208.241 29.0146C207.841 28.9646 207.551 28.8346 207.371 28.6346" fill="#94C11C"/>
<path d="M217.241 17.7146C216.451 17.2046 215.471 16.9446 214.321 16.9446C213.241 16.9446 212.281 17.2246 211.451 17.7646C210.631 18.3046 209.991 19.1046 209.551 20.1346C209.121 21.1446 208.911 22.3546 208.911 23.7546C208.911 24.8746 209.031 25.8646 209.271 26.6746C209.521 27.5046 209.871 28.2046 210.331 28.7446C210.801 29.2946 211.361 29.7046 212.011 29.9646C212.651 30.2246 213.361 30.3446 214.131 30.3446C215.231 30.3446 216.201 30.0846 217.021 29.5646C217.851 29.0446 218.501 28.2546 218.961 27.2146C219.401 26.2046 219.621 24.9446 219.621 23.4846C219.621 22.1246 219.421 20.9446 219.031 19.9846C218.631 18.9946 218.021 18.2346 217.231 17.7146H217.241ZM216.991 23.8646C216.991 24.9046 216.881 25.8146 216.661 26.5846C216.451 27.3246 216.141 27.8746 215.741 28.2446C215.351 28.6046 214.891 28.7746 214.331 28.7746C213.441 28.7746 212.771 28.3646 212.301 27.5246C211.801 26.6246 211.541 25.2646 211.541 23.4946C211.541 22.7046 211.601 21.9846 211.711 21.3446C211.821 20.7246 211.991 20.1946 212.231 19.7646C212.451 19.3546 212.741 19.0446 213.071 18.8246C213.391 18.6146 213.791 18.5046 214.261 18.5046C214.781 18.5046 215.231 18.6646 215.631 19.0046C216.041 19.3446 216.371 19.9146 216.611 20.7046C216.871 21.5346 216.991 22.5946 216.991 23.8546V23.8646Z" fill="#94C11C"/>
<path d="M220.261 17.0846V21.0046H221.851L221.921 20.7046C222.031 20.2446 222.151 19.8646 222.271 19.5646C222.381 19.2946 222.501 19.0846 222.631 18.9446C222.741 18.8246 222.851 18.7446 222.961 18.7146C223.111 18.6746 223.311 18.6446 223.551 18.6446H224.301V27.5146C224.301 27.9346 224.281 28.1546 224.261 28.2746C224.231 28.4546 224.191 28.5546 224.171 28.6046C224.141 28.6646 224.101 28.7146 224.061 28.7546C224.021 28.7846 223.951 28.8246 223.841 28.8646C223.711 28.9146 223.571 28.9546 223.401 28.9846L223.101 29.0546V30.1946H228.011V29.0546L227.711 28.9846C227.381 28.9146 227.221 28.8546 227.151 28.8146C227.071 28.7746 227.011 28.7246 226.971 28.6646C226.931 28.6046 226.881 28.5046 226.851 28.3046C226.811 28.1146 226.801 27.8546 226.801 27.5246V18.6546H227.561C227.931 18.6546 228.101 18.7046 228.161 18.7246C228.271 18.7746 228.381 18.8446 228.491 18.9646C228.611 19.0846 228.721 19.2846 228.831 19.5446C228.951 19.8246 229.081 20.2246 229.201 20.7146L229.281 21.0046H230.851V17.0846H220.291H220.261Z" fill="#94C11C"/>
<path d="M259.661 50.0946C259.661 48.3946 259.921 46.9646 260.421 45.8146C260.801 44.9646 261.321 44.2046 261.971 43.5246C262.631 42.8446 263.351 42.3446 264.131 42.0246C265.171 41.5846 266.371 41.3646 267.731 41.3646C270.191 41.3646 272.151 42.1246 273.631 43.6546C275.111 45.1846 275.851 47.3046 275.851 50.0146C275.851 52.7246 275.121 54.8146 273.651 56.3446C272.181 57.8646 270.231 58.6246 267.781 58.6246C265.331 58.6246 263.331 57.8746 261.861 56.3646C260.401 54.8446 259.661 52.7646 259.661 50.1046V50.0946ZM263.131 49.9846C263.131 51.8746 263.571 53.3046 264.441 54.2846C265.311 55.2546 266.421 55.7446 267.761 55.7446C269.101 55.7446 270.201 55.2646 271.061 54.2946C271.921 53.3246 272.361 51.8746 272.361 49.9346C272.361 47.9946 271.941 46.5946 271.101 45.6546C270.261 44.7146 269.151 44.2446 267.771 44.2446C266.391 44.2446 265.261 44.7246 264.411 45.6746C263.561 46.6246 263.141 48.0546 263.141 49.9746L263.131 49.9846Z" fill="black"/>
<path d="M244.102 41.6546H250.772C252.092 41.6546 253.072 41.7146 253.722 41.8246C254.372 41.9346 254.952 42.1546 255.462 42.5046C255.982 42.8546 256.402 43.3246 256.752 43.9046C257.092 44.4846 257.262 45.1346 257.262 45.8546C257.262 46.6346 257.052 47.3546 256.622 48.0046C256.202 48.6546 255.632 49.1446 254.912 49.4746C255.932 49.7746 256.712 50.2746 257.252 50.9846C257.802 51.6946 258.072 52.5346 258.072 53.5046C258.072 54.2646 257.892 55.0046 257.542 55.7246C257.192 56.4346 256.712 57.0146 256.092 57.4446C255.482 57.8646 254.732 58.1346 253.842 58.2346C253.282 58.2946 251.932 58.3346 249.782 58.3446H244.102V41.6646V41.6546ZM247.472 44.4246V48.2846H249.682C250.992 48.2846 251.812 48.2646 252.132 48.2246C252.712 48.1546 253.162 47.9546 253.482 47.6346C253.812 47.3046 253.982 46.8646 253.982 46.3246C253.982 45.7846 253.842 45.3946 253.552 45.0746C253.272 44.7446 252.852 44.5546 252.292 44.4846C251.962 44.4446 251.002 44.4246 249.412 44.4246H247.472ZM247.472 51.0646V55.5246H250.592C251.802 55.5246 252.572 55.4946 252.902 55.4246C253.402 55.3346 253.812 55.1146 254.122 54.7646C254.442 54.4046 254.602 53.9346 254.602 53.3446C254.602 52.8446 254.482 52.4146 254.242 52.0746C254.002 51.7246 253.642 51.4746 253.182 51.3146C252.722 51.1546 251.732 51.0746 250.202 51.0746H247.482L247.472 51.0646Z" fill="black"/>
<path d="M233.601 58.3346V44.4746H228.651V41.6546H241.911V44.4746H236.971V58.3346H233.601Z" fill="black"/>
<path d="M224.271 52.2046L227.541 53.2446C227.041 55.0646 226.211 56.4246 225.041 57.3046C223.881 58.1846 222.401 58.6246 220.611 58.6246C218.391 58.6246 216.571 57.8746 215.151 56.3646C213.721 54.8446 213.011 52.7746 213.011 50.1546C213.011 47.3746 213.731 45.2246 215.161 43.6946C216.591 42.1546 218.481 41.3846 220.821 41.3846C222.861 41.3846 224.521 41.9846 225.791 43.1946C226.551 43.9046 227.121 44.9346 227.501 46.2646L224.171 47.0646C223.971 46.1946 223.561 45.5146 222.931 45.0146C222.311 44.5146 221.551 44.2646 220.651 44.2646C219.411 44.2646 218.411 44.7046 217.631 45.5946C216.861 46.4846 216.481 47.9246 216.481 49.9046C216.481 52.0146 216.861 53.5146 217.621 54.4146C218.381 55.3146 219.371 55.7546 220.581 55.7546C221.481 55.7546 222.251 55.4746 222.891 54.9046C223.531 54.3346 224.001 53.4446 224.281 52.2146L224.271 52.2046Z" fill="black"/>
<path d="M197.501 41.6546H200.871V48.3246H205.381C207.501 48.3246 209.041 48.8246 209.991 49.8146C210.951 50.8046 211.421 52.0046 211.421 53.3846C211.421 54.5246 211.131 55.4946 210.551 56.2846C209.971 57.0846 209.311 57.6246 208.571 57.9146C207.831 58.1946 206.771 58.3346 205.371 58.3346H197.491V41.6546H197.501ZM200.871 55.5346H204.151C205.211 55.5346 205.951 55.4846 206.361 55.3846C206.771 55.2746 207.131 55.0446 207.451 54.6746C207.781 54.3146 207.941 53.8646 207.941 53.3346C207.941 52.5646 207.661 52.0046 207.111 51.6546C206.561 51.2946 205.631 51.1246 204.301 51.1246H200.871V55.5446V55.5346Z" fill="black"/>
<path d="M182.261 41.6546H193.951V58.3346H190.581V44.4746H185.561V51.5946C185.561 53.6346 185.491 55.0646 185.361 55.8746C185.221 56.6746 184.891 57.3046 184.361 57.7646C183.841 58.2146 183.011 58.4346 181.891 58.4346C181.501 58.4346 180.781 58.3946 179.741 58.3246V55.7146H180.491C181.201 55.7246 181.671 55.6346 181.911 55.4446C182.151 55.2546 182.271 54.7846 182.271 54.0446V51.1746L182.261 41.6446V41.6546Z" fill="black"/>
<path d="M162.831 50.0946C162.831 48.3946 163.081 46.9646 163.591 45.8146C163.971 44.9646 164.491 44.2046 165.141 43.5246C165.801 42.8446 166.521 42.3446 167.301 42.0246C168.341 41.5846 169.541 41.3646 170.901 41.3646C173.361 41.3646 175.321 42.1246 176.791 43.6546C178.271 45.1846 179.011 47.3046 179.011 50.0146C179.011 52.7246 178.281 54.8146 176.811 56.3446C175.351 57.8646 173.391 58.6246 170.941 58.6246C168.491 58.6246 166.491 57.8746 165.021 56.3646C163.551 54.8446 162.821 52.7646 162.821 50.1046L162.831 50.0946ZM166.301 49.9846C166.301 51.8746 166.741 53.3046 167.611 54.2846C168.481 55.2546 169.591 55.7446 170.931 55.7446C172.271 55.7446 173.371 55.2646 174.231 54.2946C175.091 53.3246 175.531 51.8746 175.531 49.9346C175.531 47.9946 175.111 46.5946 174.271 45.6546C173.431 44.7146 172.321 44.2446 170.941 44.2446C169.561 44.2446 168.431 44.7246 167.581 45.6746C166.731 46.6246 166.311 48.0546 166.311 49.9746L166.301 49.9846Z" fill="black"/>
<path d="M157.942 52.2046L161.212 53.2446C160.712 55.0646 159.872 56.4246 158.712 57.3046C157.552 58.1846 156.072 58.6246 154.282 58.6246C152.062 58.6246 150.242 57.8746 148.822 56.3646C147.392 54.8446 146.682 52.7746 146.682 50.1546C146.682 47.3746 147.402 45.2246 148.832 43.6946C150.262 42.1546 152.152 41.3846 154.492 41.3846C156.532 41.3846 158.192 41.9846 159.462 43.1946C160.222 43.9046 160.792 44.9346 161.172 46.2646L157.842 47.0646C157.642 46.1946 157.232 45.5146 156.602 45.0146C155.982 44.5146 155.222 44.2646 154.322 44.2646C153.082 44.2646 152.082 44.7046 151.302 45.5946C150.532 46.4846 150.152 47.9246 150.152 49.9046C150.152 52.0146 150.532 53.5146 151.292 54.4146C152.052 55.3146 153.032 55.7546 154.252 55.7546C155.142 55.7546 155.922 55.4746 156.562 54.9046C157.212 54.3346 157.672 53.4446 157.952 52.2146L157.942 52.2046Z" fill="black"/>
<path d="M128.441 50.0946C128.441 48.3946 128.691 46.9646 129.201 45.8146C129.581 44.9646 130.101 44.2046 130.751 43.5246C131.411 42.8446 132.131 42.3446 132.911 42.0246C133.951 41.5846 135.151 41.3646 136.511 41.3646C138.971 41.3646 140.931 42.1246 142.411 43.6546C143.891 45.1846 144.631 47.3046 144.631 50.0146C144.631 52.7246 143.901 54.8146 142.431 56.3446C140.961 57.8646 139.011 58.6246 136.561 58.6246C134.111 58.6246 132.111 57.8746 130.641 56.3646C129.181 54.8446 128.441 52.7646 128.441 50.1046V50.0946ZM131.911 49.9846C131.911 51.8746 132.351 53.3046 133.221 54.2846C134.091 55.2546 135.201 55.7446 136.541 55.7446C137.881 55.7446 138.981 55.2646 139.841 54.2946C140.701 53.3246 141.141 51.8746 141.141 49.9346C141.141 47.9946 140.721 46.5946 139.881 45.6546C139.041 44.7146 137.931 44.2446 136.551 44.2446C135.171 44.2446 134.041 44.7246 133.191 45.6746C132.341 46.6246 131.921 48.0546 131.921 49.9746L131.911 49.9846Z" fill="black"/>
<path d="M112.421 41.6546H125.691V58.3346H122.321V44.4546H115.791V58.3346H112.421V41.6546Z" fill="black"/>
<path d="M93.541 50.0946C93.541 48.3946 93.791 46.9646 94.301 45.8146C94.681 44.9646 95.201 44.2046 95.851 43.5246C96.511 42.8446 97.231 42.3446 98.011 42.0246C99.051 41.5846 100.251 41.3646 101.611 41.3646C104.071 41.3646 106.031 42.1246 107.511 43.6546C108.991 45.1846 109.731 47.3046 109.731 50.0146C109.731 52.7246 109.001 54.8146 107.531 56.3446C106.061 57.8646 104.111 58.6246 101.661 58.6246C99.211 58.6246 97.211 57.8746 95.741 56.3646C94.281 54.8446 93.541 52.7646 93.541 50.1046V50.0946ZM97.021 49.9846C97.021 51.8746 97.461 53.3046 98.331 54.2846C99.201 55.2546 100.311 55.7446 101.651 55.7446C102.991 55.7446 104.091 55.2646 104.951 54.2946C105.811 53.3246 106.251 51.8746 106.251 49.9346C106.251 47.9946 105.831 46.5946 104.991 45.6546C104.151 44.7146 103.041 44.2446 101.661 44.2446C100.281 44.2446 99.151 44.7246 98.301 45.6746C97.451 46.6246 97.031 48.0546 97.031 49.9746L97.021 49.9846Z" fill="black"/>
<path d="M80.0615 41.6546H83.4315V48.7546C84.1815 48.6746 84.6915 48.4846 84.9515 48.1746C85.2215 47.8646 85.6315 46.9946 86.1815 45.5846C86.8815 43.7746 87.5815 42.6546 88.2915 42.2146C88.9915 41.7746 90.1115 41.5546 91.6715 41.5546C91.7515 41.5546 91.9115 41.5546 92.1615 41.5446V44.0346H91.6815C90.9915 44.0246 90.4915 44.1146 90.1715 44.2846C89.8515 44.4546 89.5915 44.7046 89.4015 45.0546C89.2015 45.4046 88.9115 46.1246 88.5215 47.2046C88.3215 47.7846 88.0915 48.2646 87.8515 48.6546C87.6115 49.0446 87.1915 49.4046 86.5915 49.7446C87.3415 49.9546 87.9615 50.3846 88.4515 51.0346C88.9415 51.6746 89.4815 52.5946 90.0715 53.7646L92.3515 58.3446H88.3915L86.4015 54.0346C86.3715 53.9746 86.3115 53.8546 86.2115 53.6846C86.1715 53.6246 86.0315 53.3646 85.7915 52.8946C85.3615 52.0746 85.0015 51.5646 84.7215 51.3546C84.4515 51.1546 84.0315 51.0446 83.4615 51.0346V58.3446H80.0915V41.6646L80.0615 41.6546Z" fill="black"/>
<path d="M68.5012 48.6146H73.7412C73.6012 47.3746 73.1912 46.3346 72.4912 45.5146C71.8012 44.6846 70.8612 44.2746 69.6712 44.2746C68.7712 44.2746 68.0112 44.5246 67.3912 45.0246C66.7812 45.5246 66.3412 46.1846 66.0912 47.0146L62.7612 46.2546C63.1012 44.7746 63.8512 43.5946 65.0112 42.7046C66.1812 41.8046 67.7012 41.3646 69.5612 41.3646C71.9912 41.3646 73.8812 42.1746 75.2512 43.7846C76.6212 45.3946 77.3012 47.4946 77.3012 50.0746C77.3012 51.8346 76.9812 53.3446 76.3412 54.6146C75.7112 55.8846 74.8412 56.8646 73.7312 57.5646C72.6212 58.2646 71.2912 58.6146 69.7212 58.6146C65.9212 58.6146 63.5812 56.8246 62.7012 53.2546L66.0812 52.2046C66.2512 53.4146 66.6812 54.3046 67.3712 54.8946C68.0612 55.4746 68.8812 55.7546 69.8412 55.7546C70.8012 55.7546 71.6712 55.4046 72.3712 54.7146C73.0812 54.0246 73.5312 52.9246 73.7412 51.4046H68.5012V48.6046V48.6146Z" fill="black"/>
</g>
<defs>
<clipPath id="clip0_983_173">
<rect width="275.851" height="72.0092" fill="white"/>
</clipPath>
</defs>
</svg>
