<svg width="233" height="51" viewBox="0 0 233 51" fill="none" xmlns="http://www.w3.org/2000/svg">
<path fill-rule="evenodd" clip-rule="evenodd" d="M26.8858 18.4314C26.5975 18.0222 26.3781 17.721 26.2665 17.5741C26.2182 17.5053 26.194 17.4718 26.194 17.4718C26.194 17.4718 25.7514 16.4192 26.9044 15.932C28.0629 15.4448 29.4168 12.8357 29.4168 12.8357C29.4205 12.8357 29.4893 12.8171 30.3522 12.0268C31.2485 11.1992 31.3415 8.17919 31.1127 8.19406C30.884 8.20894 30.5437 8.37445 29.7013 8.75381C28.6543 9.19641 28.5762 9.79521 28.1336 9.66876C27.1554 9.39539 23.9401 8.03228 23.5459 7.38884C23.1461 6.74169 22.8057 4.56963 22.2497 4.55475C21.6937 4.53987 20.5407 7.10246 20.2432 7.78308C19.9512 8.46557 20.3268 8.37631 19.7411 9.88262C19.6146 10.2043 19.5663 10.5837 19.5607 11.0021V11.0077C19.5514 11.6009 19.6444 12.2537 19.7708 12.858C19.7708 12.8729 19.7764 12.8934 19.7801 12.9064C19.8526 13.2765 19.94 13.6279 20.0237 13.9236C20.0237 13.9329 20.0293 13.9422 20.0293 13.9534C20.152 14.3867 20.2543 14.714 20.2934 14.8441C20.405 15.2291 20.2543 15.2625 19.2799 15.2477C19.0753 15.2477 18.841 15.2477 18.5639 15.2421C18.4412 15.2421 18.3203 15.2421 18.1994 15.2514C16.6745 15.3723 14.9711 16.3132 14.4392 16.9567H14.4374C13.6136 17.9423 12.5945 20.4677 11.9269 21.656C10.8074 21.7564 10.0412 21.4682 9.1839 20.8824C9.04814 20.5439 9.18204 18.9483 7.79847 18.6415C6.12479 17.9776 5.53715 19.1194 5.26564 20.1274C5.22473 20.2799 5.20055 20.4342 5.19312 20.5904C5.47764 20.159 4.49575 21.0572 5.19312 20.5904C7.26289 23.391 9.13369 28.1219 11.8599 25.604C11.9287 25.5408 11.9957 25.4738 12.0645 25.4087C11.9827 25.9369 11.7186 26.6194 11.4601 27.101C11.2109 27.5641 10.9599 27.8597 10.6307 28.2986C9.96867 29.1857 10.0672 28.7691 10.0245 29.8588C9.97424 31.1922 12.3788 29.9388 13.846 30.3256C15.8321 30.8482 14.5136 32.2801 15.6275 32.0699C15.0399 32.97 12.3509 35.9082 12.1965 36.1537C11.7837 36.8139 11.2053 38.6717 11.9901 41.7271C12.7749 44.7824 12.1556 46.4338 11.6591 47.3413C11.6144 47.4213 11.5717 47.4975 11.527 47.5719L10.9394 48.3176L11.0026 48.3027C10.7032 48.6226 10.3982 48.7807 10.0914 48.6616C9.55397 48.4552 8.14994 47.7114 7.19966 48.0833C6.25125 48.4552 6.16757 50.4357 6.16757 50.4357H12.4011C12.4011 50.4357 14.9209 48.7025 15.3337 48.3715C15.7447 48.0424 17.8442 47.1962 18.9247 44.7397C19.3691 43.7299 19.4231 42.9581 19.4175 42.4765C19.7113 43.0846 20.0535 43.6667 20.4477 44.2134C20.9275 44.8791 21.4798 45.4891 22.0954 46.0247C22.2386 46.1511 22.3892 46.2739 22.5621 46.3483C22.7128 46.4133 23.2409 46.5993 23.5998 46.6979C24.2339 47.1591 24.723 47.5217 24.8272 47.7132C25.0745 48.167 24.7435 48.9927 23.5477 48.9517C22.352 48.9108 21.3403 49.2716 21.279 50.5213C22.4859 50.6031 25.1173 50.5101 27.3154 50.5101C28.5539 50.5101 28.6338 48.617 28.6338 48.3288C28.6338 48.0405 28.4609 47.094 28.42 46.8057C28.3772 46.5175 28.42 45.8982 28.4609 45.5672C28.5037 45.2362 28.818 43.3077 28.9983 42.0172C29.2847 39.9604 28.2117 38.4671 28.1727 38.1361C27.6259 33.5223 26.1568 31.9751 26.1568 31.9751C26.1568 31.9751 26.1047 31.8115 26.0341 31.5437C26.2349 31.7408 26.4544 31.9156 26.6961 32.0588C27.28 32.401 28.1132 32.5386 28.5706 32.0383C29.0169 31.5493 28.8217 30.7477 28.4349 30.2122C28.0462 29.6766 27.4976 29.2563 27.2001 28.665C27.1461 28.5552 27.0978 28.4344 27.1164 28.3135C27.1368 28.1703 27.2428 28.0531 27.3563 27.9639C27.9012 27.538 28.6562 27.5622 29.3424 27.4897C30.0304 27.4171 30.129 29.3474 30.2964 28.6761C29.6864 25.2023 28.9332 21.3584 26.8821 18.4314H26.8858Z" fill="#1A1A18"/>
<path d="M5.19312 20.5904C5.20055 20.4342 5.22473 20.2799 5.26564 20.1274C5.53715 19.1194 6.12479 17.9776 7.79847 18.6415C9.18204 18.9483 9.04814 20.5439 9.1839 20.8824C10.0412 21.4682 10.8074 21.7564 11.9269 21.656C12.5945 20.4677 13.6136 17.9423 14.4374 16.9567H14.4392C14.9711 16.3132 16.6745 15.3723 18.1994 15.2514C18.3203 15.2421 18.4412 15.2421 18.5639 15.2421C18.841 15.2477 19.0753 15.2477 19.2799 15.2477C20.2543 15.2625 20.405 15.2291 20.2934 14.8441C20.2543 14.714 20.152 14.3867 20.0293 13.9534C20.0293 13.9422 20.0237 13.9329 20.0237 13.9236C19.94 13.6279 19.8526 13.2765 19.7801 12.9064C19.7764 12.8934 19.7708 12.8729 19.7708 12.858C19.6444 12.2537 19.5514 11.6009 19.5607 11.0077V11.0021C19.5663 10.5837 19.6146 10.2043 19.7411 9.88262C20.3268 8.37631 19.9512 8.46557 20.2432 7.78308C20.5407 7.10246 21.6937 4.53987 22.2497 4.55475C22.8057 4.56963 23.1461 6.74169 23.5459 7.38884C23.9401 8.03228 27.1554 9.39539 28.1336 9.66876C28.5762 9.79521 28.6543 9.19641 29.7013 8.75381C30.5437 8.37445 30.884 8.20894 31.1127 8.19406C31.3415 8.17919 31.2485 11.1992 30.3522 12.0268C29.4893 12.8171 29.4205 12.8357 29.4168 12.8357C29.4168 12.8357 28.0629 15.4448 26.9044 15.932C25.7514 16.4192 26.194 17.4718 26.194 17.4718C26.194 17.4718 26.2182 17.5053 26.2665 17.5741C26.3781 17.721 26.5975 18.0222 26.8858 18.4314H26.8821C28.9332 21.3584 29.6864 25.2023 30.2964 28.6761C30.129 29.3474 30.0304 27.4171 29.3424 27.4897C28.6562 27.5622 27.9012 27.538 27.3563 27.9639C27.2428 28.0531 27.1368 28.1703 27.1164 28.3135C27.0978 28.4344 27.1461 28.5552 27.2001 28.665C27.4976 29.2563 28.0462 29.6766 28.4349 30.2122C28.8217 30.7477 29.0169 31.5493 28.5706 32.0383C28.1132 32.5386 27.28 32.401 26.6961 32.0588C26.4544 31.9156 26.2349 31.7408 26.0341 31.5437C26.1047 31.8115 26.1568 31.9751 26.1568 31.9751C26.1568 31.9751 27.6259 33.5223 28.1727 38.1361C28.2117 38.4671 29.2847 39.9604 28.9983 42.0172C28.818 43.3077 28.5037 45.2362 28.4609 45.5672C28.42 45.8982 28.3772 46.5175 28.42 46.8057C28.4609 47.094 28.6338 48.0405 28.6338 48.3288C28.6338 48.617 28.5539 50.5101 27.3154 50.5101C25.1173 50.5101 22.4859 50.6031 21.279 50.5213C21.3403 49.2716 22.352 48.9108 23.5477 48.9517C24.7435 48.9927 25.0745 48.167 24.8272 47.7132C24.723 47.5217 24.2339 47.1591 23.5998 46.6979C23.2409 46.5993 22.7128 46.4133 22.5621 46.3483C22.3892 46.2739 22.2386 46.1511 22.0954 46.0247C21.4798 45.4891 20.9275 44.8791 20.4477 44.2134C20.0535 43.6667 19.7113 43.0846 19.4175 42.4765C19.4231 42.9581 19.3691 43.7299 18.9247 44.7397C17.8442 47.1962 15.7447 48.0424 15.3337 48.3715C14.9209 48.7025 12.4011 50.4357 12.4011 50.4357H6.16757C6.16757 50.4357 6.25125 48.4552 7.19966 48.0833C8.14994 47.7114 9.55397 48.4552 10.0914 48.6616C10.3982 48.7807 10.7032 48.6226 11.0026 48.3027L10.9394 48.3176L11.527 47.5719C11.5717 47.4975 11.6144 47.4213 11.6591 47.3413C12.1556 46.4338 12.7749 44.7824 11.9901 41.7271C11.2053 38.6717 11.7837 36.8139 12.1965 36.1537C12.3509 35.9082 15.0399 32.97 15.6275 32.0699C14.5136 32.2801 15.8321 30.8482 13.846 30.3256C12.3788 29.9388 9.97424 31.1922 10.0245 29.8588C10.0672 28.7691 9.96867 29.1857 10.6307 28.2986C10.9599 27.8597 11.2109 27.5641 11.4601 27.101C11.7186 26.6194 11.9827 25.9369 12.0645 25.4087C11.9957 25.4738 11.9287 25.5408 11.8599 25.604C9.13369 28.1219 7.26289 23.391 5.19312 20.5904ZM5.19312 20.5904C4.49575 21.0572 5.47764 20.159 5.19312 20.5904Z" stroke="#1A1A18" stroke-width="0.57" stroke-miterlimit="22.93"/>
<path fill-rule="evenodd" clip-rule="evenodd" d="M10.0866 23.4008C9.92479 23.5496 9.77602 23.7262 9.63283 23.8917C9.33343 23.4194 9.07679 22.9322 8.87038 22.4356C8.71788 22.0693 8.59515 21.6825 8.6435 21.3068C9.49893 21.2752 10.4232 21.5951 11.048 22.1883C11.0666 22.205 11.0833 22.2236 11.1019 22.2422C10.7932 22.6625 10.4622 23.0567 10.0866 23.4026" fill="#0F0C08"/>
<path fill-rule="evenodd" clip-rule="evenodd" d="M14.6269 31.5818C14.5934 31.6394 14.4707 32.638 14.4372 32.6957C13.6097 32.6864 13.2731 31.314 12.6743 30.8751C11.9583 30.347 11.3409 30.7561 11.7296 29.5901C12.0215 28.7198 12.5813 27.9927 13.1745 27.2228C13.4311 26.8899 13.6971 26.544 13.9425 26.1851C14.5897 25.233 14.7217 24.067 14.4 22.9809C14.904 22.4045 15.3893 21.8112 15.8542 21.2031C14.374 24.6193 14.2178 28.054 14.625 31.5818H14.6269Z" fill="#1A1A18"/>
<path d="M14.6269 31.5818C14.5934 31.6394 14.4707 32.638 14.4372 32.6957C13.6097 32.6864 13.2731 31.314 12.6743 30.8751C11.9583 30.347 11.3409 30.7561 11.7296 29.5901C12.0215 28.7198 12.5813 27.9927 13.1745 27.2228C13.4311 26.8899 13.6971 26.544 13.9425 26.1851C14.5897 25.233 14.7217 24.067 14.4 22.9809C14.904 22.4045 15.3893 21.8112 15.8542 21.2031C14.374 24.6193 14.2178 28.054 14.625 31.5818H14.6269Z" stroke="#1A1A18" stroke-width="0.57" stroke-miterlimit="22.93"/>
<path fill-rule="evenodd" clip-rule="evenodd" d="M25.4297 27.0382C25.4297 26.9991 25.4297 26.9601 25.4297 26.921C25.4297 26.3167 25.4799 25.7141 25.5599 25.1172C26.0006 25.4891 26.4767 25.8536 27.0531 26.1939C26.1884 26.1567 25.7254 26.4729 25.4297 27.0382Z" fill="#0F0C08"/>
<path fill-rule="evenodd" clip-rule="evenodd" d="M26.3544 0.563862C26.3544 0.563862 26.373 0.575019 26.4065 0.597334C25.9807 1.84887 24.6994 5.56815 24.1805 6.63558L23.4385 6.28411C23.4385 6.28411 23.0852 7.13396 25.6329 8.47104C28.1806 9.80812 29.0286 8.93037 29.0286 8.93037L28.2717 8.57146C29.0026 7.21393 30.825 3.85914 31.4387 3.07995C31.4982 3.07995 31.5596 3.07995 31.6042 3.06879C32.4355 2.85122 28.0486 -0.0386602 26.7003 0.0003922C26.3898 0.00969039 26.2392 0.175197 26.3526 0.565721" fill="#1A1A18"/>
<path fill-rule="evenodd" clip-rule="evenodd" d="M23.4502 11.0017C23.4539 10.9236 23.4502 10.851 23.4241 10.7897C23.3256 10.533 23.1285 10.3526 22.9425 10.1611C22.8495 10.0644 23.2159 10.1109 23.2884 10.1853C23.5339 10.4382 23.8723 10.6911 23.8109 11.1002C23.7291 11.6135 23.5376 12.1249 23.3442 12.6084C23.2958 12.7293 22.6412 13.9194 22.7584 13.9994C22.8477 14.0589 22.9127 14.1556 22.963 14.2616C23.0875 14.2002 23.2177 14.2095 23.3609 14.2616C23.6361 13.3764 23.9672 12.573 24.4972 11.7864C24.685 11.5056 24.8933 11.3438 25.2094 11.2583C25.321 11.2285 25.4623 11.3197 25.5664 11.2732C25.6594 11.2341 25.9997 11.3866 25.8658 11.4461C25.6613 11.5316 25.4679 11.3866 25.2559 11.5056C25.8305 11.4294 26.5242 11.779 26.6562 12.3611C26.7045 12.3927 26.7306 12.4261 26.6562 12.4392C26.2898 12.4968 25.9012 12.6381 25.5255 12.5749C25.2001 12.521 24.949 12.3499 24.6627 12.2011C24.5883 12.3183 24.512 12.4373 24.4451 12.5582C24.0973 13.1719 23.8965 13.8209 23.6956 14.4848C23.6678 14.5777 23.4446 14.4885 23.3981 14.4606C23.2977 14.5071 23.1935 14.5536 23.0913 14.5982C23.0206 14.7023 22.7621 14.6019 22.7212 14.5071C22.6468 14.2951 22.5278 14.1091 22.3586 13.951C22.3381 13.938 22.2712 13.8971 22.2879 13.8599C22.5947 13.209 22.9388 12.6177 23.1749 11.9278C23.2047 11.8348 23.2549 11.712 23.3033 11.58C23.2661 11.58 23.2196 11.5651 23.1991 11.5558C22.8811 11.4368 22.5148 11.3903 22.2563 11.1504C21.9811 10.8957 21.8211 10.5665 21.6091 10.2652C21.5831 10.2225 21.6277 10.215 21.6891 10.2243C22.3214 9.87099 23.3126 10.3266 23.4465 11.0017" fill="white"/>
<path fill-rule="evenodd" clip-rule="evenodd" d="M24.3423 16.2686C23.3529 16.3077 22.8806 15.9469 22.6946 15.0729C22.0307 15.4783 21.2478 15.2681 20.7866 14.6489C20.7123 14.5485 20.9745 14.5726 21.0172 14.6135C21.5063 15.1082 21.9749 15.1696 22.6612 14.8795C22.7132 14.8572 22.8006 14.9446 22.8081 14.9855C22.8304 15.1212 22.9457 15.2923 22.9922 15.4225C23.1874 15.9525 23.697 16.0975 24.2846 16.0752C24.3423 16.0752 24.3888 16.2686 24.3441 16.2705" fill="white"/>
<path fill-rule="evenodd" clip-rule="evenodd" d="M23.0413 10.9009C23.1529 10.6443 22.993 10.3281 22.993 10.3281C22.993 10.3281 22.6508 10.4267 22.5392 10.6833C22.4277 10.9399 22.5895 11.2579 22.5895 11.2579C22.5895 11.2579 22.9298 11.1575 23.0413 10.9009Z" fill="#1A1A18"/>
<path fill-rule="evenodd" clip-rule="evenodd" d="M25.7835 12.0493C25.8951 11.7927 25.7352 11.4766 25.7352 11.4766C25.7352 11.4766 25.393 11.5751 25.2814 11.8318C25.1699 12.0884 25.3316 12.4064 25.3316 12.4064C25.3316 12.4064 25.672 12.306 25.7835 12.0475" fill="#1A1A18"/>
<path fill-rule="evenodd" clip-rule="evenodd" d="M29.3579 9.37505C29.9772 8.87853 30.721 8.46011 30.8568 8.56239C30.9925 8.66653 30.8921 9.20768 30.801 9.41596C30.7117 9.62424 30.7322 9.83624 30.6894 10.2454C30.6485 10.6563 30.3342 11.0134 30.2431 11.2217C30.152 11.43 29.9177 11.8688 29.6517 11.9116C29.3858 11.9544 29.2947 11.9581 29.118 11.7926C28.4802 11.1901 28.6438 10.0799 28.6438 10.0799C28.6847 9.98501 28.8874 9.74884 29.3561 9.37505" fill="white"/>
<path fill-rule="evenodd" clip-rule="evenodd" d="M21.0858 8.1682C20.898 8.10869 20.8031 7.93946 20.9984 7.0487C21.1937 6.15793 22.1253 5.18348 22.1253 5.18348C22.3745 4.95103 22.4805 6.26951 22.8208 6.75673C23.1612 7.24396 23.0998 7.23838 22.9994 7.47084C22.899 7.70329 22.7409 7.67726 22.2648 7.74606C21.7906 7.81673 21.2718 8.22771 21.0858 8.1682Z" fill="white"/>
<path fill-rule="evenodd" clip-rule="evenodd" d="M23.9534 14.6946C25.1994 14.6685 26.4453 14.6406 27.6913 14.6146C27.7973 14.6127 28.0428 14.4547 27.8233 14.4491C26.5755 14.4193 25.3296 14.4472 24.0855 14.529C23.9776 14.5365 23.7396 14.7094 23.9534 14.6946Z" fill="white"/>
<path fill-rule="evenodd" clip-rule="evenodd" d="M23.6104 15.1093C24.4584 15.3269 25.3045 15.5463 26.1525 15.7658C26.2771 15.7974 26.5393 15.6338 26.3422 15.5556C25.5091 15.2228 24.6518 15.0033 23.7629 14.8918C23.6104 14.8732 23.43 15.0889 23.6476 15.1168" fill="white"/>
<path fill-rule="evenodd" clip-rule="evenodd" d="M23.3766 15.4435C23.9605 15.7318 24.5445 16.0182 25.1284 16.3064C25.2028 16.3436 25.4873 16.2283 25.4334 16.1948C24.8718 15.8471 24.2804 15.557 23.6611 15.3245C23.5867 15.2966 23.2966 15.4156 23.3952 15.4528" fill="white"/>
<path fill-rule="evenodd" clip-rule="evenodd" d="M22.1528 13.6656C21.3624 12.7005 20.5293 11.7725 19.6534 10.8836C19.5493 10.7776 19.2369 10.9022 19.354 11.0324C20.1871 11.9604 21.024 12.8846 21.8571 13.8126C21.9594 13.9279 22.2662 13.7921 22.1528 13.6656C21.3197 12.7377 20.4865 11.8116 19.6534 10.8836Z" fill="white"/>
<path fill-rule="evenodd" clip-rule="evenodd" d="M21.8685 14.0792C21.1841 13.5102 20.4384 13.0378 19.6313 12.6622C19.5607 12.6287 19.2724 12.7459 19.3487 12.7942C20.0869 13.2628 20.8271 13.7315 21.5654 14.1982C21.6528 14.254 21.9373 14.122 21.8685 14.0792Z" fill="white"/>
<path fill-rule="evenodd" clip-rule="evenodd" d="M21.6762 14.4459C21.0662 14.2171 20.4581 13.9865 19.8481 13.7578C19.7607 13.8062 19.6733 13.8545 19.5859 13.9029C20.2182 14.074 20.8263 14.3027 21.414 14.5909C21.4976 14.6318 21.797 14.5054 21.6762 14.4459Z" fill="white"/>
<path fill-rule="evenodd" clip-rule="evenodd" d="M19.8473 13.7602C19.7711 13.7397 19.4568 13.8569 19.5851 13.9052Z" fill="white"/>
<path fill-rule="evenodd" clip-rule="evenodd" d="M23.1717 19.0606L24.0253 17.6064L21.9481 17.4242L20.4938 16.1875L19.5938 17.6213L21.8179 17.9765L23.1717 19.0606Z" fill="#95C11C"/>
<path fill-rule="evenodd" clip-rule="evenodd" d="M22.4051 46.2794C22.4051 46.2794 22.4237 46.2831 22.4311 46.2849C22.3884 46.2608 22.3456 46.2329 22.3047 46.2031C22.3363 46.2292 22.3698 46.2533 22.4032 46.2794" fill="#93C355"/>
<path fill-rule="evenodd" clip-rule="evenodd" d="M28.766 39.1749C30.3412 39.7384 33.4542 43.6994 35.7527 40.7147C36.1395 40.2126 36.3943 39.7161 36.4519 39.0559C36.6249 37.0289 34.7597 37.1535 33.867 36.934C32.7327 36.6551 33.4244 34.6002 34.5105 34.8122C35.3175 34.9703 37.1028 36.3427 37.5175 37.1256C39.5185 40.8988 34.9233 45.1183 31.1613 42.9779C30.4509 42.5743 28.6563 41.466 28.1579 40.9397C28.1338 40.9137 28.3755 40.5845 28.435 40.3279C28.4536 40.2516 28.7623 39.1768 28.7623 39.1768L28.766 39.1749Z" fill="#1A1A18"/>
<path d="M28.766 39.1749C30.3412 39.7384 33.4542 43.6994 35.7527 40.7147C36.1395 40.2126 36.3943 39.7161 36.4519 39.0559C36.6249 37.0289 34.7597 37.1535 33.867 36.934C32.7327 36.6551 33.4244 34.6002 34.5105 34.8122C35.3175 34.9703 37.1028 36.3427 37.5175 37.1256C39.5185 40.8988 34.9233 45.1183 31.1613 42.9779C30.4509 42.5743 28.6563 41.466 28.1579 40.9397C28.1338 40.9137 28.3755 40.5845 28.435 40.3279C28.4536 40.2516 28.7623 39.1768 28.7623 39.1768L28.766 39.1749Z" stroke="#1A1A18" stroke-width="0.57" stroke-miterlimit="22.93"/>
<path fill-rule="evenodd" clip-rule="evenodd" d="M28.4004 38.2624C28.2404 36.9346 28.0024 35.8691 27.7439 35.0118C27.385 34.2995 27.0819 33.5594 26.8327 32.8025C26.5463 32.3023 26.3399 32.0866 26.3399 32.0866C26.3399 32.0866 25.9233 30.7811 25.8248 29.4794C25.676 29.3232 25.5012 29.1837 25.3394 29.0386C24.4022 28.1981 23.8963 26.9707 23.7345 25.7359C23.5728 24.5011 23.7252 23.2477 23.9317 22.0204C21.3412 22.171 18.7061 21.5164 16.5024 20.1719C16.3481 20.3597 16.1993 20.5568 16.0542 20.7595C14.3229 24.2519 13.9008 28.5533 14.3397 32.2744C14.2783 32.3748 14.3397 32.836 14.2764 32.9364C14.2467 33.1057 14.2039 33.273 14.1351 33.4385C13.8803 34.0448 12.5637 35.4916 12.0616 36.2763C11.6395 36.9384 11.0481 38.7999 11.8515 41.8627C12.3684 43.8376 11.7752 45.3049 11.5167 46.2886C13.7687 47.2036 16.0598 47.278 18.3955 46.4095C18.6875 46.0301 18.7154 45.3923 18.9441 44.8846C19.4183 43.8265 19.4574 43.0324 19.4462 42.5526C19.0687 41.7846 18.7712 40.9756 18.5666 40.1407C18.5052 39.8896 18.455 39.6367 18.4104 39.3819C18.1724 38.8705 17.9343 38.3591 17.6944 37.8496C17.5122 37.4572 17.3281 36.9942 17.5289 36.6111C17.7056 37.0258 17.9436 37.4144 18.23 37.764C18.191 37.2489 18.0961 36.135 18.4848 35.9937C18.7916 36.8082 18.5499 37.9853 18.6689 38.8668C18.9255 40.7822 19.7214 42.3481 20.774 43.9529C21.0344 44.349 21.648 45.1338 22.0088 45.4351C22.3398 45.7121 22.7303 46.1175 23.1302 46.2719C23.6471 46.4709 24.4133 46.5527 25.0623 46.6382C26.4236 46.7108 27.7383 46.601 28.988 46.231C28.9992 46.0469 29.0159 45.8684 29.0327 45.7363C29.0754 45.4053 29.0605 43.4527 29.2428 42.1565C29.5348 40.0942 28.4394 38.599 28.3985 38.2661M18.4123 31.0656C18.3825 31.0786 18.3509 31.0898 18.3211 31.1028C18.2468 31.1363 18.1705 31.1735 18.1129 31.233C17.9938 31.3557 17.9771 31.5436 17.9715 31.7146C17.9641 32.0252 17.9715 32.3376 18.0031 32.6482C18.0106 32.7263 18.018 32.8081 17.9808 32.8769C17.9455 32.9457 17.8469 32.9866 17.7874 32.9364C17.754 32.9085 17.7447 32.862 17.7354 32.8193C17.6182 32.2093 17.5234 31.5938 17.4471 30.9764C16.8148 30.902 16.1863 30.8016 15.5652 30.6714C15.3513 30.6268 15.1319 30.5765 14.9515 30.465C14.4382 30.147 14.388 29.3882 14.5833 28.9178C15.1356 29.3938 15.7028 29.6523 16.482 29.8085C19.3774 30.3906 22.4997 30.5487 25.252 29.5705C25.3803 29.8401 25.5105 30.1079 25.6388 30.3776C23.3105 31.0098 20.841 31.2386 18.4104 31.0656H18.4123Z" fill="#95C11C"/>
<path fill-rule="evenodd" clip-rule="evenodd" d="M17.7107 20.4533C17.7349 20.4049 17.7553 20.3566 17.7795 20.3063C18.514 18.6996 19.2449 16.9999 19.2653 15.2556C19.0608 15.2556 18.8265 15.2556 18.5494 15.25C18.4266 15.25 18.3058 15.25 18.1849 15.2593C18.1068 15.9846 18.0101 16.7098 17.8297 17.4165C17.7125 17.8888 17.5619 18.3519 17.3574 18.7907C17.2514 19.0195 17.0858 19.2426 16.9482 19.4732C16.8553 19.6146 16.7771 19.7596 16.7344 19.9121C16.8032 19.9549 17.7572 20.351 17.7125 20.4533" fill="#95C11C"/>
<path fill-rule="evenodd" clip-rule="evenodd" d="M24.0191 21.5983C24.2683 21.5258 24.2776 21.3844 24.3985 21.1352C24.6272 20.6685 24.9155 20.224 25.2465 19.8261C25.7095 19.2756 26.26 18.7977 26.8737 18.4276C26.5873 18.0185 26.3679 17.7172 26.2544 17.5703C26.2358 17.5759 26.2209 17.5796 26.2005 17.5889C24.6421 18.2844 23.424 19.7796 23.1953 21.47C23.2009 21.4551 23.954 21.6169 24.0173 21.5964" fill="#95C11C"/>
<path d="M3.88037 19.2378L1 28.5312L31.0564 37.8468L33.9368 28.5533L3.88037 19.2378Z" fill="#9D9D9D"/>
<path d="M3.88037 19.2378L1 28.5312L31.0564 37.8468L33.9368 28.5533L3.88037 19.2378Z" stroke="#9D9D9D" stroke-width="0.57" stroke-miterlimit="22.93"/>
<path fill-rule="evenodd" clip-rule="evenodd" d="M23.5929 27.2812L24.664 27.6141L23.8625 30.199C24.108 30.2437 24.2921 30.2251 24.4111 30.1377C24.5301 30.0503 24.7589 29.7769 25.0936 29.3138C25.5176 28.7262 25.8672 28.3859 26.1406 28.2948C26.4121 28.2036 26.7933 28.2334 27.2843 28.3859C27.3084 28.3933 27.3605 28.4082 27.4405 28.4305L27.1597 29.3362L27.009 29.2841C26.7896 29.2153 26.6204 29.1985 26.4995 29.2283C26.3786 29.2599 26.2689 29.3287 26.1666 29.4366C26.0643 29.5444 25.8914 29.7769 25.6459 30.1339C25.5158 30.3236 25.3912 30.478 25.2703 30.5951C25.1513 30.7123 24.9765 30.8034 24.7459 30.8685C24.9597 31.0191 25.1066 31.2367 25.1903 31.5175C25.2721 31.8002 25.3409 32.1833 25.393 32.6686L25.5976 34.5524L24.3423 34.1638L24.1917 32.4046C24.188 32.3785 24.1805 32.3302 24.1694 32.2576C24.1638 32.2335 24.1489 32.1237 24.1266 31.9322C24.0838 31.59 24.0299 31.3706 23.9667 31.2683C23.9016 31.166 23.7826 31.0879 23.604 31.0284L22.7821 33.6803L21.7109 33.3474L23.591 27.2812H23.5929Z" fill="#1A1A18"/>
<path fill-rule="evenodd" clip-rule="evenodd" d="M19.5408 27.8943L18.5868 27.2917C19.1168 26.3731 19.9072 26.0755 20.956 26.401C21.5771 26.5925 21.9974 26.8956 22.2168 27.3066C22.4363 27.7176 22.479 28.136 22.347 28.56C22.2577 28.8501 22.1034 29.0882 21.8877 29.2778C21.672 29.4657 21.3911 29.6033 21.0471 29.6925C21.354 29.9399 21.5567 30.2151 21.6534 30.5219C21.7501 30.8306 21.7408 31.1672 21.6255 31.5392C21.46 32.0729 21.1568 32.4504 20.7142 32.6735C20.2716 32.8967 19.7119 32.9041 19.0331 32.694C18.4808 32.5229 18.0754 32.2812 17.8225 31.9706C17.5677 31.66 17.4506 31.1877 17.471 30.5573L18.5589 30.4959C18.5459 30.892 18.6091 31.1728 18.743 31.3309C18.8769 31.4908 19.0666 31.6098 19.3139 31.6861C19.6505 31.7902 19.9239 31.7828 20.1303 31.6638C20.3367 31.5429 20.4725 31.3755 20.5413 31.1579C20.6175 30.9087 20.5934 30.68 20.4669 30.4736C20.3404 30.2672 20.1006 30.1091 19.7491 30.0012L19.5073 29.9269L19.7919 29.0119L19.9146 29.0491C20.24 29.1495 20.5171 29.1421 20.7421 29.0286C20.9671 28.9152 21.1234 28.7162 21.2089 28.4391C21.2777 28.2178 21.2647 28.0096 21.1717 27.8124C21.0787 27.6172 20.9002 27.4796 20.6398 27.3977C20.1935 27.2583 19.829 27.4256 19.5464 27.8943" fill="#1A1A18"/>
<path fill-rule="evenodd" clip-rule="evenodd" d="M12.9817 24.0156L17.1844 25.3192L15.3043 31.3854L14.2332 31.0525L15.7971 26.0129L13.7348 25.3732L12.1727 30.4146L11.1016 30.0818L12.9817 24.0156Z" fill="#1A1A18"/>
<path fill-rule="evenodd" clip-rule="evenodd" d="M8.84293 25.494L10.498 26.0073C10.5947 25.5424 10.5798 25.1258 10.4534 24.7576C10.3269 24.3894 10.0759 24.1476 9.70022 24.0323C9.41384 23.9431 9.14791 23.9617 8.89686 24.0825C8.64581 24.2034 8.43381 24.4043 8.26272 24.6813L7.29385 24.0751C7.56908 23.5711 7.941 23.2141 8.40963 23.0039C8.87826 22.7938 9.4064 22.7808 9.99776 22.9649C10.7658 23.2029 11.2753 23.6827 11.5264 24.4043C11.7756 25.1258 11.7551 25.9571 11.4613 26.9018C11.2623 27.5433 10.9927 28.0622 10.6486 28.462C10.3046 28.8618 9.9178 29.1352 9.48822 29.2802C9.0605 29.4253 8.59746 29.4216 8.10279 29.2691C6.89961 28.8971 6.36031 28.0138 6.48677 26.6228L7.67694 26.5745C7.59697 27.0301 7.6323 27.3946 7.78293 27.6716C7.93542 27.9487 8.16044 28.1365 8.46356 28.2295C8.77598 28.3262 9.08096 28.2835 9.38036 28.1012C9.67977 27.9208 9.94569 27.5638 10.1819 27.0338L8.52679 26.5205L8.84479 25.4959L8.84293 25.494Z" fill="#1A1A18"/>
<path fill-rule="evenodd" clip-rule="evenodd" d="M29.6108 36.008C29.7242 36.246 29.7967 36.4525 29.7707 36.7258C29.5568 38.8588 25.7762 38.34 26.2337 36.1382C26.2616 36.0043 26.2839 35.9002 26.3992 35.8295C26.5219 35.7551 26.349 35.7198 26.4271 35.4948C26.5201 35.227 26.7451 35.1935 26.7544 35.1024C26.8064 34.6114 26.8362 34.392 26.9906 34.8904C27.0631 35.1247 26.9813 34.9871 27.3104 35.0652C27.4741 35.1042 27.3625 35.1991 27.4703 34.9926C27.5522 34.8364 27.8348 34.8346 27.8404 34.8234C27.8627 34.7751 27.8516 34.7658 27.8999 34.6765C28.0915 34.325 27.9594 34.2283 28.1751 34.6728C28.2737 34.8773 28.1826 34.7193 28.4057 34.7899C28.5266 34.8271 28.6475 34.9313 28.6865 35.0577C28.7628 35.3013 28.6735 35.1098 28.9841 35.1191C29.17 35.1247 29.1291 35.3032 29.2017 35.0931C29.3523 34.6561 29.3951 35.0057 29.5104 35.4445C29.5122 35.4799 29.7298 35.7216 29.6219 36.0099L29.6126 36.0192L29.6071 36.0136L29.6108 36.008Z" fill="#1A1A18"/>
<path d="M29.6108 36.008C29.7242 36.246 29.7967 36.4525 29.7707 36.7258C29.5568 38.8588 25.7762 38.34 26.2337 36.1382C26.2616 36.0043 26.2839 35.9002 26.3992 35.8295C26.5219 35.7551 26.349 35.7198 26.4271 35.4948C26.5201 35.227 26.7451 35.1935 26.7544 35.1024C26.8064 34.6114 26.8362 34.392 26.9906 34.8904C27.0631 35.1247 26.9813 34.9871 27.3104 35.0652C27.4741 35.1042 27.3625 35.1991 27.4703 34.9926C27.5522 34.8364 27.8348 34.8346 27.8404 34.8234C27.8627 34.7751 27.8516 34.7658 27.8999 34.6765C28.0915 34.325 27.9594 34.2283 28.1751 34.6728C28.2737 34.8773 28.1826 34.7193 28.4057 34.7899C28.5266 34.8271 28.6475 34.9313 28.6865 35.0577C28.7628 35.3013 28.6735 35.1098 28.9841 35.1191C29.17 35.1247 29.1291 35.3032 29.2017 35.0931C29.3523 34.6561 29.3951 35.0057 29.5104 35.4445C29.5122 35.4799 29.7298 35.7216 29.6219 36.0099L29.6126 36.0192L29.6071 36.0136L29.6108 36.008Z" stroke="#1A1A18" stroke-width="0.57" stroke-miterlimit="22.93"/>
<path fill-rule="evenodd" clip-rule="evenodd" d="M5.55861 21.0833C5.37265 20.8974 5.23317 20.7263 5.16623 20.4622C4.64925 18.3813 8.3834 17.5965 8.69396 19.8244C8.71255 19.9582 8.72557 20.0661 8.64189 20.1703C8.55263 20.2818 8.72743 20.2577 8.72929 20.4957C8.73115 20.7784 8.53031 20.8862 8.55263 20.9755C8.66792 21.4553 8.71441 21.671 8.40013 21.2563C8.25136 21.0592 8.37596 21.1633 8.03937 21.2005C7.872 21.2191 7.94638 21.0926 7.91291 21.3232C7.88874 21.498 7.62281 21.5947 7.62095 21.6077C7.61537 21.6617 7.63025 21.6654 7.61351 21.7658C7.55214 22.1619 7.70835 22.2066 7.35502 21.8607C7.19323 21.7007 7.3327 21.8197 7.09839 21.829C6.97193 21.8346 6.82316 21.777 6.74506 21.671C6.59071 21.4683 6.73948 21.617 6.4438 21.7137C6.26713 21.7714 6.24482 21.5892 6.24668 21.8123C6.25226 22.2754 6.09418 21.9611 5.83755 21.5854C5.82454 21.552 5.53815 21.3995 5.54187 21.0908L5.54745 21.0796L5.55489 21.0833H5.55861Z" fill="#1A1A18"/>
<path d="M5.55861 21.0833C5.37265 20.8974 5.23317 20.7263 5.16623 20.4622C4.64925 18.3813 8.3834 17.5965 8.69396 19.8244C8.71255 19.9582 8.72557 20.0661 8.64189 20.1703C8.55263 20.2818 8.72743 20.2577 8.72929 20.4957C8.73115 20.7784 8.53031 20.8862 8.55263 20.9755C8.66792 21.4553 8.71441 21.671 8.40013 21.2563C8.25136 21.0592 8.37596 21.1633 8.03937 21.2005C7.872 21.2191 7.94638 21.0926 7.91291 21.3232C7.88874 21.498 7.62281 21.5947 7.62095 21.6077C7.61537 21.6617 7.63025 21.6654 7.61351 21.7658C7.55214 22.1619 7.70835 22.2066 7.35502 21.8607C7.19323 21.7007 7.3327 21.8197 7.09839 21.829C6.97193 21.8346 6.82316 21.777 6.74506 21.671C6.59071 21.4683 6.73948 21.617 6.4438 21.7137C6.26713 21.7714 6.24482 21.5892 6.24668 21.8123C6.25226 22.2754 6.09418 21.9611 5.83755 21.5854C5.82454 21.552 5.53815 21.3995 5.54187 21.0908L5.54745 21.0796L5.55489 21.0833H5.55861Z" stroke="#1A1A18" stroke-width="0.57" stroke-miterlimit="22.93"/>
<path d="M86.579 14.2324C87.6625 13.6294 88.2088 12.7428 88.2088 11.5936C88.2088 10.3369 87.5998 8.84145 84.6924 8.84145C83.6835 8.84145 82.5492 8.99966 81.3254 9.30711L81.0746 9.36979V11.9876H82.3821L82.4627 11.7727C82.6955 11.1578 82.9641 10.731 83.2596 10.5071C83.5462 10.2892 83.9432 10.1817 84.4387 10.1817C84.9342 10.1817 85.2865 10.313 85.579 10.5847C85.8656 10.8474 86.0029 11.2145 86.0029 11.7041C86.0029 12.3488 85.8506 12.8264 85.5521 13.1249C85.2536 13.4204 84.7372 13.5727 84.0208 13.5727H82.4418V15.1517H84.0059C84.5283 15.1517 84.9462 15.1995 85.2536 15.289C85.5223 15.3696 85.7432 15.5338 85.9282 15.7995C86.1163 16.0652 86.2118 16.4651 86.2118 16.9875C86.2118 17.6293 86.0506 18.1218 85.7312 18.4502C85.4088 18.7785 84.9671 18.9397 84.376 18.9397C83.8596 18.9397 83.4567 18.8263 83.1761 18.5994C82.8835 18.3666 82.6209 17.9099 82.391 17.2413L82.3134 17.0174H81V19.7546L81.2388 19.8233C82.2776 20.1248 83.2955 20.277 84.2626 20.277C85.5999 20.277 86.6327 19.9874 87.3342 19.4203C88.0565 18.8352 88.4237 18.0054 88.4237 16.9547C88.4237 15.6771 87.8028 14.7637 86.579 14.2354" fill="#94C11C"/>
<path d="M96.1719 17.0197C96.0704 17.366 95.9898 17.6286 95.9331 17.8107C95.8823 17.9719 95.8137 18.1331 95.7331 18.2883C95.6644 18.4226 95.5868 18.5301 95.5032 18.6107C95.4286 18.6794 95.339 18.7301 95.2346 18.757C95.1062 18.7928 94.9301 18.8107 94.7092 18.8107H92.6406V15.0227H93.96C94.2107 15.0227 94.3122 15.0645 94.342 15.0794C94.4077 15.1153 94.4704 15.1869 94.5271 15.2854C94.5749 15.375 94.6525 15.5541 94.7331 15.8973L94.7928 16.1511H96.1121V12.5273H94.7928L94.7331 12.784C94.6465 13.1541 94.5719 13.3362 94.5211 13.4258C94.4704 13.5183 94.4107 13.584 94.342 13.6168C94.2853 13.6467 94.1749 13.6795 93.957 13.6795H92.6376V10.3005H94.742C94.9211 10.3005 95.0734 10.3124 95.1958 10.3363C95.2913 10.3572 95.3719 10.39 95.4375 10.4378C95.5122 10.4915 95.5838 10.5691 95.6495 10.6646C95.7271 10.7751 95.8017 10.9183 95.8734 11.0885C95.951 11.2706 96.0256 11.4795 96.1002 11.7183L96.1719 11.9542H97.5032V8.96318H89.6317V9.92137L89.8735 9.99002C90.1511 10.0676 90.2615 10.1184 90.3033 10.1423C90.3541 10.1691 90.3929 10.2049 90.4227 10.2497C90.4406 10.2796 90.4765 10.3482 90.5004 10.4975C90.5153 10.596 90.5332 10.8049 90.5332 11.2198V17.8913C90.5332 18.2495 90.5183 18.5152 90.4884 18.6794C90.4675 18.7928 90.4317 18.8734 90.375 18.9241C90.3571 18.939 90.2556 19.0226 89.8795 19.1211L89.6317 19.1838V20.148H97.4166L97.5987 16.7809H96.2375L96.1689 17.0197H96.1719Z" fill="#94C11C"/>
<path d="M101.397 9.95719L101.687 9.993C101.881 10.0169 102.024 10.0706 102.078 10.1363C102.093 10.1572 102.173 10.2796 102.173 10.7124C102.173 11.2646 102.051 12.1691 101.806 13.4019C101.562 14.6466 101.29 15.7242 101.003 16.6018C100.642 17.7122 100.412 18.0645 100.308 18.1719C100.153 18.3331 100.003 18.4167 99.8691 18.4167C99.7765 18.4167 99.69 18.4167 99.6571 18.157L99.6213 17.8674H98.2422V19.9928L98.4631 20.0704C98.8512 20.2047 99.29 20.2734 99.7676 20.2734C100.284 20.2734 100.756 20.1062 101.168 19.7778C101.571 19.4555 101.941 18.8405 102.299 17.9033C102.636 17.0167 102.968 15.7988 103.278 14.2795C103.565 12.8795 103.767 11.5422 103.881 10.3005H105.391V17.8913C105.391 18.5182 105.323 18.7599 105.284 18.8465C105.272 18.8734 105.188 19.0077 104.714 19.1182L104.46 19.1779V20.148H108.391V19.1808L108.138 19.1182C107.726 19.0167 107.624 18.9062 107.603 18.8734C107.591 18.8555 107.496 18.6853 107.496 17.8913V11.2198C107.496 10.4139 107.588 10.2467 107.6 10.2318C107.615 10.2109 107.714 10.0945 108.138 9.993L108.391 9.93031V8.96318H101.397V9.95719Z" fill="#94C11C"/>
<path d="M116.145 17.0197C116.043 17.366 115.963 17.6286 115.906 17.8107C115.855 17.9719 115.787 18.1331 115.706 18.2883C115.637 18.4226 115.56 18.5301 115.476 18.6107C115.402 18.6794 115.312 18.7301 115.208 18.757C115.079 18.7928 114.903 18.8107 114.682 18.8107H112.614V15.0227H113.933C114.184 15.0227 114.285 15.0645 114.315 15.0794C114.381 15.1153 114.443 15.1869 114.5 15.2854C114.548 15.375 114.626 15.5541 114.706 15.8973L114.766 16.1511H116.082V12.5273H114.766L114.706 12.784C114.62 13.1541 114.545 13.3362 114.494 13.4258C114.443 13.5183 114.384 13.584 114.315 13.6168C114.258 13.6467 114.148 13.6795 113.93 13.6795H112.611V10.3005H114.715C114.894 10.3005 115.046 10.3124 115.169 10.3363C115.264 10.3572 115.345 10.39 115.411 10.4378C115.485 10.4915 115.557 10.5691 115.623 10.6646C115.7 10.7751 115.775 10.9183 115.846 11.0885C115.924 11.2706 115.999 11.4795 116.073 11.7183L116.145 11.9542H117.476V8.96318H109.605V9.92137L109.847 9.99002C110.124 10.0676 110.235 10.1184 110.276 10.1423C110.327 10.1691 110.366 10.2049 110.396 10.2497C110.414 10.2796 110.449 10.3482 110.473 10.4975C110.488 10.596 110.506 10.8049 110.506 11.2198V17.8913C110.506 18.2495 110.491 18.5152 110.461 18.6794C110.441 18.7928 110.405 18.8734 110.348 18.9241C110.33 18.939 110.229 19.0226 109.852 19.1211L109.605 19.1838V20.148H117.39L117.572 16.7809H116.211L116.142 17.0197H116.145Z" fill="#94C11C"/>
<path d="M124.423 9.92436L124.668 9.99002C125.035 10.0885 125.134 10.1631 125.149 10.1781C125.2 10.2199 125.235 10.2915 125.262 10.39C125.283 10.4676 125.316 10.6766 125.316 11.2228V13.6228H121.689V11.2228C121.689 10.8079 121.71 10.593 121.728 10.4915C121.755 10.3243 121.794 10.2587 121.806 10.2438C121.835 10.199 121.88 10.1632 121.937 10.1303C121.979 10.1064 122.086 10.0557 122.343 9.993L122.594 9.93031V8.96318H118.686V9.92137L118.928 9.99002C119.203 10.0676 119.316 10.1184 119.358 10.1423C119.409 10.1691 119.447 10.2049 119.477 10.2497C119.495 10.2766 119.531 10.3482 119.555 10.4975C119.57 10.596 119.591 10.8049 119.591 11.2198V17.8913C119.591 18.2495 119.576 18.5152 119.546 18.6794C119.525 18.7928 119.489 18.8734 119.433 18.9241C119.415 18.939 119.313 19.0226 118.937 19.1211L118.689 19.1838V20.148H122.597V19.1838L122.349 19.1211C122.08 19.0525 121.964 18.9958 121.919 18.9719C121.862 18.9391 121.824 18.9032 121.8 18.8585C121.782 18.8256 121.746 18.754 121.725 18.5988C121.704 18.4555 121.692 18.2197 121.692 17.8913V14.9899H125.319V17.8913C125.319 18.3868 125.289 18.6167 125.262 18.7241C125.235 18.8286 125.197 18.9032 125.146 18.942C125.11 18.9689 124.997 19.0405 124.674 19.1211L124.426 19.1838V20.148H128.319V19.1838L128.071 19.1211C127.85 19.0644 127.74 19.0226 127.689 18.9987C127.614 18.9629 127.582 18.9331 127.57 18.9211C127.552 18.9032 127.525 18.8644 127.501 18.8017C127.483 18.76 127.459 18.6764 127.444 18.5301C127.429 18.3898 127.423 18.1779 127.423 17.8943V11.2228C127.423 10.7303 127.453 10.5005 127.477 10.393C127.501 10.2885 127.54 10.2139 127.591 10.1721C127.626 10.1452 127.74 10.0736 128.065 9.993L128.316 9.93031V8.96318H124.423V9.92436Z" fill="#94C11C"/>
<path d="M134.089 13.4407C133.632 13.4407 133.11 13.4616 132.531 13.5064V11.2288C132.531 10.5064 132.614 10.3005 132.638 10.2557C132.653 10.2318 132.743 10.1034 133.19 9.993L133.441 9.93031V8.96318H129.525V9.9333L129.776 9.99599C130.137 10.0826 130.274 10.184 130.319 10.2288C130.331 10.2437 130.432 10.4109 130.432 11.2318V17.9033C130.432 18.7122 130.334 18.8794 130.328 18.8883C130.289 18.9271 130.161 19.0316 129.779 19.1211L129.525 19.1808V20.151H133.728C137.074 20.151 137.775 18.2734 137.775 16.6973C137.775 15.2138 137.137 13.4437 134.089 13.4437M135.662 16.7779C135.662 17.4794 135.498 17.9988 135.175 18.3211C134.853 18.6435 134.268 18.8077 133.438 18.8077C133.107 18.8077 132.802 18.7988 132.528 18.7838V14.8586C132.823 14.8377 133.208 14.8257 133.671 14.8257C135.029 14.8257 135.662 15.4466 135.662 16.7779Z" fill="#94C11C"/>
<path d="M137.789 9.93262L138.043 9.99531C138.428 10.0878 138.547 10.1983 138.58 10.2371C138.592 10.255 138.691 10.4192 138.691 11.2311V17.9026C138.691 18.7115 138.592 18.8787 138.586 18.8876C138.535 18.9384 138.395 19.0369 138.04 19.1234L137.786 19.1861V20.1533H141.693V19.1861L141.443 19.1234C141.061 19.0279 140.935 18.9205 140.902 18.8846C140.891 18.8697 140.792 18.7055 140.792 17.9026V11.2311C140.792 10.4699 140.882 10.2908 140.899 10.2639C140.914 10.2401 141.01 10.1147 141.452 9.99531L141.693 9.92963V8.96847H137.786V9.93859L137.789 9.93262Z" fill="#94C11C"/>
<path d="M145.719 8.08355C146.212 8.43578 146.898 8.61489 147.764 8.61489C148.555 8.61489 149.236 8.4328 149.785 8.0746C150.379 7.68655 150.677 7.14329 150.677 6.45674V5.80898H148.713V6.45674C148.713 6.80598 148.648 7.05971 148.522 7.18508C148.4 7.31045 148.143 7.37611 147.779 7.37611C147.436 7.37611 147.194 7.31045 147.078 7.18508C146.955 7.05075 146.889 6.79701 146.889 6.45971V5.81197H144.925V6.45971C144.925 7.16118 145.191 7.70744 145.719 8.08654" fill="#94C11C"/>
<path d="M148.775 9.92436L149.02 9.99002C149.453 10.1064 149.548 10.2258 149.563 10.2497C149.578 10.2766 149.659 10.4318 149.668 11.0198L145.933 15.6227C145.939 15.3153 145.942 14.9809 145.942 14.6227V11.2288C145.942 10.4109 146.041 10.2467 146.047 10.2348C146.083 10.193 146.208 10.0885 146.587 9.993L146.835 9.93031V8.96318H142.951V9.9333L143.205 9.99599C143.566 10.0826 143.704 10.184 143.748 10.2288C143.76 10.2437 143.862 10.4109 143.862 11.2318V17.9033C143.862 18.6585 143.772 18.8346 143.754 18.8644C143.739 18.8883 143.644 19.0107 143.199 19.1271L142.951 19.1928V20.1569H146.835V19.1898L146.584 19.1301C146.175 19.0286 146.071 18.9182 146.047 18.8853C146.038 18.8704 145.948 18.7211 145.942 18.0256L149.674 13.4287C149.671 13.7481 149.668 14.1332 149.668 14.5929V17.9092C149.668 18.6644 149.581 18.8435 149.563 18.8734C149.548 18.8973 149.456 19.0167 149.02 19.1331L148.772 19.1958V20.1599H152.641V19.1928L152.39 19.1331C151.981 19.0316 151.877 18.9211 151.853 18.8883C151.841 18.8734 151.745 18.7062 151.745 17.9122V11.2407C151.745 10.4228 151.844 10.2587 151.85 10.2467C151.885 10.2049 152.011 10.1005 152.39 10.0049L152.638 9.94226V8.97513H148.769V9.93928L148.775 9.92436Z" fill="#94C11C"/>
<path d="M166.002 18.7905C165.814 18.5785 165.596 18.1935 165.354 17.6442L164.659 16.0771C164.256 15.1756 163.701 14.5398 163.005 14.1816C163.16 14.0324 163.295 13.8652 163.405 13.6801C163.59 13.3727 163.802 12.91 164.047 12.2712C164.402 11.3697 164.599 11.0205 164.704 10.8862C164.841 10.7041 164.969 10.6832 165.05 10.6832C165.157 10.6832 165.334 10.6832 165.39 11.1548L165.426 11.4474H166.814V9.0922L166.572 9.02353C166.142 8.90115 165.799 8.84145 165.525 8.84145C164.668 8.84145 164.032 9.06832 163.632 9.51905C163.262 9.93397 162.91 10.6324 162.554 11.6533C162.092 12.9369 161.829 13.3309 161.713 13.4533C161.537 13.6354 161.292 13.7249 160.966 13.7249H160.372V11.2324C160.372 10.4175 160.471 10.2504 160.477 10.2384C160.513 10.1966 160.638 10.0922 161.017 9.99665L161.268 9.93396V8.96682H157.352V9.93694L157.605 9.99964C157.967 10.0862 158.104 10.1877 158.149 10.2325C158.161 10.2474 158.262 10.4146 158.262 11.2354V17.9069C158.262 18.7158 158.164 18.883 158.158 18.8919C158.119 18.9308 157.99 19.0352 157.608 19.1248L157.355 19.1845V20.1546H161.271V19.1875L161.02 19.1248C160.611 19.0233 160.507 18.9128 160.483 18.88C160.471 18.8651 160.375 18.7009 160.375 17.9039V15.0503H160.984C161.295 15.0503 161.537 15.092 161.704 15.1756C161.865 15.2592 162.014 15.3935 162.14 15.5756C162.283 15.7846 162.45 16.1428 162.635 16.6383L163.214 18.1965C163.354 18.5756 163.525 19.0143 163.728 19.5128V20.1576H167.035V19.1546L166.745 19.1188C166.408 19.077 166.16 18.9666 166.005 18.7935" fill="#94C11C"/>
<path d="M174.414 9.50114C173.736 9.06533 172.9 8.84145 171.924 8.84145C171.005 8.84145 170.181 9.07728 169.479 9.53995C168.778 10.0026 168.232 10.6862 167.856 11.5638C167.488 12.4235 167.306 13.4593 167.306 14.6473C167.306 15.6055 167.411 16.4442 167.617 17.1398C167.829 17.8502 168.133 18.4442 168.521 18.9069C168.918 19.3755 169.399 19.7278 169.954 19.9486C170.497 20.1666 171.106 20.277 171.763 20.277C172.697 20.277 173.527 20.0531 174.232 19.6084C174.942 19.1636 175.497 18.489 175.882 17.6024C176.258 16.7368 176.449 15.6682 176.449 14.4234C176.449 13.2622 176.282 12.2563 175.951 11.4354C175.611 10.5907 175.091 9.93994 174.414 9.50114ZM174.199 14.7488C174.199 15.6323 174.106 16.4144 173.918 17.0711C173.739 17.698 173.476 18.1726 173.133 18.486C172.802 18.7905 172.408 18.9367 171.93 18.9367C171.169 18.9367 170.602 18.5905 170.202 17.8711C169.772 17.1039 169.554 15.9458 169.554 14.4324C169.554 13.7607 169.602 13.1458 169.7 12.5996C169.793 12.0742 169.942 11.6205 170.142 11.2563C170.333 10.9071 170.575 10.6384 170.859 10.4534C171.136 10.2713 171.47 10.1847 171.87 10.1847C172.318 10.1847 172.7 10.322 173.038 10.6086C173.384 10.9011 173.664 11.3877 173.87 12.0623C174.088 12.7667 174.199 13.6712 174.199 14.7518V14.7488Z" fill="#94C11C"/>
<path d="M176.991 8.96318V12.3094H178.346L178.406 12.0556C178.499 11.6616 178.6 11.3363 178.702 11.0825C178.797 10.8497 178.899 10.6706 179.006 10.5542C179.099 10.4527 179.194 10.387 179.29 10.3602C179.415 10.3243 179.585 10.3034 179.794 10.3034H180.436V17.8704C180.436 18.2286 180.415 18.4167 180.4 18.5152C180.373 18.6704 180.34 18.754 180.32 18.7958C180.293 18.8465 180.26 18.8883 180.221 18.9211C180.191 18.945 180.131 18.9808 180.03 19.0167C179.923 19.0555 179.797 19.0913 179.654 19.1211L179.4 19.1808V20.151H183.585V19.1779L183.325 19.1211C183.045 19.0585 182.911 19.0077 182.845 18.9749C182.779 18.942 182.728 18.8973 182.693 18.8435C182.663 18.7958 182.618 18.7062 182.588 18.5361C182.558 18.3779 182.543 18.154 182.543 17.8734V10.3064H183.191C183.505 10.3064 183.648 10.3452 183.705 10.3691C183.8 10.4079 183.893 10.4736 183.982 10.5721C184.081 10.6766 184.176 10.8437 184.272 11.0646C184.376 11.3064 184.484 11.6407 184.591 12.0646L184.657 12.3124H186V8.96616H176.994L176.991 8.96318Z" fill="#94C11C"/>
<path d="M54.6606 36.7148V33.9363H58.8731C58.7421 32.5643 58.3836 31.5095 57.8045 30.7649C57.2253 30.0203 56.4876 29.6549 55.6051 29.6549C54.1642 29.6549 53.199 30.565 52.7233 32.3782L50.0483 31.6405C50.3516 30.0892 50.9859 28.8965 51.9442 28.0623C52.9025 27.2281 54.0953 26.8213 55.5155 26.8213C57.4115 26.8213 58.9213 27.5935 60.052 29.1378C61.1827 30.6822 61.748 32.7711 61.748 35.4048C61.748 38.0385 61.1965 39.9896 60.0865 41.5201C58.9765 43.0507 57.5011 43.8091 55.6603 43.8091C52.5923 43.8091 50.7101 42.051 50 38.528L52.7233 37.4869C52.8543 38.6107 53.1921 39.4725 53.7368 40.0723C54.2745 40.6721 54.9502 40.9686 55.7499 40.9686C57.5287 40.9686 58.5697 39.5483 58.88 36.7079H54.6675L54.6606 36.7148Z" fill="#1A1A18"/>
<path d="M64.6697 43.5283V27.099H67.3792V34.0899C67.9859 34.0141 68.3995 33.8141 68.6339 33.4763C68.8684 33.1454 69.1717 32.3456 69.5509 31.0702C69.9301 29.7947 70.33 28.8777 70.7367 28.2986C71.1504 27.7195 71.5847 27.3679 72.0467 27.2369C72.5086 27.1128 73.3083 27.0231 74.4321 26.968V29.4362H74.0529C73.2876 29.4362 72.7637 29.6154 72.4948 29.967C72.2259 30.3187 71.9432 31.0081 71.6537 32.0216C71.3641 33.0351 71.1159 33.7107 70.9091 34.0485C70.7023 34.3863 70.3713 34.7173 69.9163 35.0413C70.5161 35.2895 70.9987 35.6894 71.3779 36.2409C71.7571 36.7925 72.2121 37.7232 72.7361 39.0263L74.5769 43.5214H71.3848L69.7577 39.2745C69.3441 38.1921 68.9925 37.4337 68.696 37.0062C68.3995 36.5788 67.9583 36.3512 67.3654 36.3375V43.5214H64.6559L64.6697 43.5283Z" fill="#1A1A18"/>
<path d="M76.2506 35.4117C76.2506 33.4537 76.5402 31.8404 77.1193 30.5787C77.6984 29.3102 78.4568 28.3657 79.3876 27.7521C80.3183 27.1385 81.4559 26.8213 82.7865 26.8213C84.7169 26.8213 86.2819 27.559 87.5022 29.0275C88.7157 30.5029 89.3224 32.5988 89.3224 35.3152C89.3224 38.0316 88.6812 40.2102 87.3919 41.7614C86.2613 43.1265 84.7307 43.8091 82.7934 43.8091C80.8561 43.8091 79.3048 43.1334 78.1741 41.7821C76.8918 40.2378 76.2437 38.1143 76.2437 35.4186L76.2506 35.4117ZM79.0566 35.3014C79.0566 37.1905 79.4151 38.6107 80.1321 39.5552C80.8492 40.4998 81.7385 40.9755 82.8072 40.9755C83.8758 40.9755 84.7652 40.5067 85.4684 39.569C86.1716 38.6314 86.5232 37.1905 86.5232 35.2462C86.5232 33.302 86.1785 31.93 85.496 31.02C84.8134 30.1099 83.9172 29.6549 82.8072 29.6549C81.6972 29.6549 80.8009 30.1168 80.1046 31.0338C79.4082 31.9507 79.0635 33.3779 79.0635 35.3014H79.0566Z" fill="#1A1A18"/>
<path d="M94.8926 43.5195H92.1831V27.0902H102.945V43.5195H100.236V29.8687H94.8995V43.5195H94.8926Z" fill="#1A1A18"/>
<path d="M105.868 35.4117C105.868 33.4537 106.158 31.8404 106.737 30.5787C107.316 29.3102 108.074 28.3657 109.005 27.7521C109.936 27.1385 111.073 26.8213 112.404 26.8213C114.334 26.8213 115.899 27.559 117.12 29.0275C118.333 30.5029 118.94 32.5988 118.94 35.3152C118.94 38.0316 118.299 40.2102 117.009 41.7614C115.879 43.1265 114.348 43.8091 112.411 43.8091C110.473 43.8091 108.922 43.1334 107.792 41.7821C106.509 40.2378 105.861 38.1143 105.861 35.4186L105.868 35.4117ZM108.667 35.3014C108.667 37.1905 109.026 38.6107 109.743 39.5552C110.46 40.4998 111.349 40.9755 112.418 40.9755C113.486 40.9755 114.376 40.5067 115.079 39.569C115.782 38.6314 116.134 37.1905 116.134 35.2462C116.134 33.302 115.789 31.93 115.106 31.02C114.424 30.1099 113.528 29.6549 112.418 29.6549C111.308 29.6549 110.411 30.1168 109.715 31.0338C109.019 31.9507 108.674 33.3779 108.674 35.3014H108.667Z" fill="#1A1A18"/>
<path d="M130.388 37.4816L133.021 38.502C132.608 40.3428 131.925 41.6803 130.967 42.5283C130.009 43.3763 128.836 43.7969 127.437 43.7969C125.679 43.7969 124.259 43.1212 123.169 41.7699C121.915 40.2118 121.287 38.1021 121.287 35.4477C121.287 32.6486 121.921 30.4493 123.183 28.8705C124.279 27.4985 125.762 26.8091 127.616 26.8091C129.126 26.8091 130.388 27.3262 131.408 28.3534C132.132 29.0842 132.663 30.1735 133.001 31.6145L130.312 32.4004C130.139 31.5111 129.795 30.8285 129.285 30.3528C128.774 29.8771 128.168 29.6427 127.471 29.6427C126.479 29.6427 125.665 30.077 125.038 30.9457C124.41 31.8144 124.093 33.2416 124.093 35.2409C124.093 37.2403 124.396 38.7846 125.01 39.6602C125.624 40.5358 126.417 40.9701 127.396 40.9701C128.113 40.9701 128.733 40.6944 129.257 40.1359C129.781 39.5775 130.16 38.695 130.388 37.4885V37.4816Z" fill="#1A1A18"/>
<path d="M135.473 35.4117C135.473 33.4537 135.763 31.8404 136.342 30.5787C136.921 29.3102 137.679 28.3657 138.61 27.7521C139.541 27.1385 140.678 26.8213 142.009 26.8213C143.94 26.8213 145.505 27.559 146.725 29.0275C147.938 30.5029 148.545 32.5988 148.545 35.3152C148.545 38.0316 147.904 40.2102 146.615 41.7614C145.484 43.1265 143.953 43.8091 142.016 43.8091C140.079 43.8091 138.527 43.1334 137.397 41.7821C136.114 40.2378 135.466 38.1143 135.466 35.4186L135.473 35.4117ZM138.272 35.3014C138.272 37.1905 138.631 38.6107 139.348 39.5552C140.065 40.4998 140.954 40.9755 142.023 40.9755C143.091 40.9755 143.981 40.5067 144.684 39.569C145.387 38.6314 145.739 37.1905 145.739 35.2462C145.739 33.302 145.394 31.93 144.712 31.02C144.029 30.1099 143.133 29.6549 142.023 29.6549C140.913 29.6549 140.017 30.1168 139.32 31.0338C138.624 31.9507 138.279 33.3779 138.279 35.3014H138.272Z" fill="#1A1A18"/>
<path d="M159.074 43.5264V29.8756H155.04V36.894C155.04 38.7211 154.985 40.0793 154.882 40.9548C154.772 41.8304 154.51 42.4992 154.089 42.9542C153.668 43.4093 152.979 43.6368 152.034 43.6368C151.759 43.6368 151.186 43.6023 150.318 43.5264V40.941H150.911C151.497 40.941 151.876 40.8445 152.062 40.6515C152.248 40.4584 152.338 39.9896 152.338 39.2312V27.0902H161.797V43.5195H159.087L159.074 43.5264Z" fill="#1A1A18"/>
<path d="M165.335 43.5195V27.0902H168.045V33.6261H171.898C173.333 33.6261 174.47 34.088 175.311 35.0119C176.152 35.9357 176.573 37.1491 176.573 38.659C176.573 39.8931 176.235 41.01 175.553 42.0166C174.87 43.0231 173.663 43.5264 171.919 43.5264H165.328L165.335 43.5195ZM168.045 36.4045V40.7411H170.906C171.65 40.7411 172.188 40.6928 172.519 40.5894C172.85 40.486 173.139 40.2516 173.395 39.8793C173.643 39.507 173.767 39.0727 173.767 38.5901C173.767 37.1353 172.85 36.4045 171.016 36.4045H168.038H168.045Z" fill="#1A1A18"/>
<path d="M188.137 37.4816L190.77 38.502C190.357 40.3428 189.674 41.6803 188.723 42.5283C187.764 43.3763 186.592 43.7969 185.193 43.7969C183.435 43.7969 182.014 43.1212 180.925 41.7699C179.67 40.2118 179.043 38.1021 179.043 35.4477C179.043 32.6486 179.677 30.4493 180.939 28.8705C182.035 27.4985 183.517 26.8091 185.372 26.8091C186.882 26.8091 188.15 27.3262 189.164 28.3534C189.888 29.0842 190.419 30.1735 190.756 31.6145L188.068 32.4004C187.895 31.5111 187.551 30.8285 187.04 30.3528C186.53 29.8771 185.923 29.6427 185.227 29.6427C184.234 29.6427 183.421 30.077 182.793 30.9457C182.166 31.8144 181.849 33.2416 181.849 35.2409C181.849 37.2403 182.159 38.7846 182.766 39.6602C183.373 40.5358 184.172 40.9701 185.151 40.9701C185.868 40.9701 186.489 40.6944 187.013 40.1359C187.537 39.5775 187.916 38.695 188.143 37.4885L188.137 37.4816Z" fill="#1A1A18"/>
<path d="M196.805 43.5195V29.8687H192.806V27.0902H203.513V29.8687H199.522V43.5195H196.812H196.805Z" fill="#1A1A18"/>
<path d="M205.959 27.0902H211.357C212.833 27.0902 213.867 27.2281 214.467 27.497C215.066 27.7659 215.57 28.2416 215.983 28.9172C216.397 29.5998 216.597 30.3651 216.597 31.2269C216.597 32.0197 216.418 32.7367 216.066 33.371C215.714 34.0122 215.253 34.481 214.694 34.7913C215.494 35.0739 216.121 35.5634 216.569 36.246C217.017 36.9354 217.245 37.7696 217.245 38.7555C217.245 39.9483 216.955 40.9617 216.383 41.789C215.804 42.6164 215.128 43.1266 214.342 43.3196C213.798 43.4575 212.529 43.5195 210.544 43.5195H205.959V27.0902ZM208.675 29.8273V33.6261H210.468C211.543 33.6261 212.212 33.6054 212.46 33.5709C212.922 33.4951 213.288 33.3021 213.55 32.9849C213.812 32.6678 213.943 32.2334 213.943 31.6888C213.943 31.2062 213.839 30.8063 213.625 30.5098C213.412 30.2065 213.157 30.0203 212.853 29.9445C212.55 29.8687 211.681 29.8342 210.247 29.8342H208.675V29.8273ZM208.675 36.3563V40.7411H211.205C212.315 40.7411 213.026 40.686 213.336 40.5688C213.653 40.4516 213.915 40.224 214.129 39.8862C214.342 39.5484 214.446 39.114 214.446 38.597C214.446 38.0799 214.329 37.6179 214.101 37.2732C213.874 36.9285 213.57 36.6872 213.191 36.5562C212.812 36.4252 212.04 36.3632 210.875 36.3632H208.675V36.3563Z" fill="#1A1A18"/>
<path d="M219.698 35.4117C219.698 33.4537 219.988 31.8404 220.567 30.5787C221.146 29.3102 221.904 28.3657 222.835 27.7521C223.773 27.1316 224.903 26.8213 226.234 26.8213C228.164 26.8213 229.729 27.559 230.95 29.0275C232.163 30.5029 232.77 32.5988 232.77 35.3152C232.77 38.0316 232.129 40.2102 230.839 41.7614C229.709 43.1265 228.178 43.8091 226.248 43.8091C224.317 43.8091 222.759 43.1334 221.628 41.7821C220.346 40.2378 219.705 38.1143 219.705 35.4186L219.698 35.4117ZM222.497 35.3014C222.497 37.1905 222.856 38.6107 223.573 39.5552C224.29 40.4998 225.179 40.9755 226.248 40.9755C227.316 40.9755 228.206 40.5067 228.909 39.569C229.612 38.6314 229.964 37.1905 229.964 35.2462C229.964 33.302 229.619 31.93 228.936 31.02C228.254 30.1099 227.358 29.6549 226.248 29.6549C225.138 29.6549 224.241 30.1168 223.545 31.0338C222.849 31.9507 222.504 33.3779 222.504 35.3014H222.497Z" fill="#1A1A18"/>
</svg>
