<svg width="234" height="319" viewBox="0 0 234 319" fill="none" xmlns="http://www.w3.org/2000/svg">
<g clip-path="url(#clip0_775_4910)">
<path d="M104.858 183.049C95.8967 182.551 86.8971 182.178 77.9838 181.143C62.671 179.362 29.1863 174.505 38.1283 151.372C42.0813 141.142 55.053 132.589 64.1294 127.014C76.372 119.475 89.2574 112.847 101.538 105.356C101.951 105.126 102.315 104.868 102.344 104.341C102.383 103.575 100.886 98.5363 100.512 97.4731C99.8593 95.6052 98.6791 93.0094 97.6429 91.3331C94.2465 85.8445 88.3171 84.3406 86.1775 77.9325L55.7918 64.1583C53.3068 64.6085 50.2941 63.1525 48.0778 63.1621C46.5619 63.1621 44.2304 64.2445 42.4746 64.3978C39.7498 64.6372 36.2862 64.4552 33.5997 63.9476C32.1701 63.6794 29.8867 62.6257 28.7545 62.5491C27.7855 62.482 26.6053 62.9322 25.3581 62.8652C23.1321 62.7406 17.9319 59.9724 16.675 58.1812C16.3009 57.6543 16.2913 56.9264 15.8787 56.4953C14.8233 55.4033 11.3789 53.7558 9.81499 52.2998C-12.7896 31.2937 7.34921 -7.26063 38.5889 1.1878C42.1868 2.16483 42.5034 2.74913 46.4467 2.96944C48.2409 3.06523 53.6618 6.16874 54.9283 7.54807C55.9741 8.67836 56.3195 10.2972 57.1254 11.2646C58.8812 13.3719 61.3566 14.5501 63.2947 17.2226C64.753 19.2245 65.3767 21.5617 66.5952 23.2476C66.9886 23.784 71.9873 29.0906 72.3423 29.3205C73.1578 29.8282 74.7409 30.2113 75.8251 30.8052C95.6665 41.6962 115.345 52.865 135.138 63.8326C142.315 67.8078 150.441 71.5147 157.33 75.8347C158.088 76.3137 159.335 76.9938 159.921 77.5972C160.64 78.3444 161.581 80.8923 161.782 81.0168C162.223 81.3138 164.459 81.7735 165.62 82.4728C166.656 83.0954 168.134 84.81 168.642 85.0399C169.803 85.5571 171.53 85.3943 173.084 86.1893C175.627 87.4825 175.723 89.4557 177.229 90.7488C181.134 94.0822 189.942 97.0133 194.682 100.04C200.956 104.044 206.905 109.437 213.122 113.623C214.629 115.27 214.005 117.081 214.657 117.991C215.022 118.498 217.142 119.83 217.795 120.443C246.405 147.263 235.612 182.81 197.31 189.764C174.159 193.969 154.03 187.092 131.454 184.898C129.074 184.668 125.64 184.285 123.356 184.256C121.552 184.237 122.147 188.672 122.79 188.883C131.166 189.438 139.619 190.31 147.803 192.178C157.829 194.458 174.159 199.103 175.464 211.153L178.908 211.287C178.985 211.833 178.198 211.575 177.824 211.594C176.941 211.632 176.049 211.565 175.176 211.594V212.523H193.847C193.914 213.069 193.146 212.82 192.763 212.83C189.04 212.983 185.269 212.686 181.547 212.82C179.522 212.897 177.316 213.423 175.176 213.146V214.075L196.955 214.544L175.176 215.013V215.943C183.706 216.335 192.321 215.904 200.851 216.259C201.225 216.278 202.012 216.029 201.935 216.565L175.176 216.881V218.127H201.935L198.068 218.749L175.176 219.065V219.994C184.905 219.63 194.566 220.742 204.266 220.924L205.351 221.23H175.176C175.138 221.968 175.07 221.776 175.637 221.853C178.496 222.217 180.453 221.805 183.12 221.843C184.003 221.853 184.77 222.169 185.586 222.178C187.246 222.207 193.856 221.862 194.778 222.312C194.921 222.38 195.171 222.715 195.085 222.782L178.285 223.098C178.294 223.491 179.513 224.027 179.685 224.027H209.4C209.467 224.573 208.699 224.324 208.315 224.334C203.451 224.535 198.548 224.477 193.674 224.631C192.935 224.65 192.254 224.947 191.525 224.966C187.908 225.071 184.281 224.822 180.664 224.995L180.156 226.498H215.933L180.616 227.428C179.935 227.265 179.398 229.18 179.532 229.295C180.616 229.267 181.71 229.343 182.794 229.295C190.623 228.941 200.573 228.357 208.325 228.97C208.872 229.018 209.524 228.912 209.707 229.602H193.674L179.071 230.234L176.73 232.399C185.48 232.6 194.279 232.14 203.029 232.389C205.159 232.447 207.385 232.629 209.553 232.715C209.927 232.734 210.714 232.485 210.637 233.021C208.383 233.797 206.137 233.041 203.969 233.012C196.034 232.887 187.284 232.907 179.378 233.338C178.505 233.385 175.637 233.548 175.09 233.711C174.667 233.836 172.72 235.292 172.384 235.818L186.833 235.196C198.02 235.656 209.649 234.612 220.779 235.196C221.316 235.225 222.63 235.148 222.784 235.828H196.169L170.974 236.757L166.157 239.248C169.832 239.19 173.535 239.334 177.21 239.267C183.303 239.152 189.443 238.797 195.564 238.644C201.311 238.51 208.565 237.677 214.226 238.309C214.696 238.357 215.185 238.376 215.3 238.941L182.775 239.554L162.032 240.579L159.307 241.738H169.419C169.841 241.738 171.002 241.096 171.751 241.432C171.751 241.958 170.715 242.025 170.35 242.054C165.083 242.457 159.767 242.351 154.519 243.022L149.971 244.229C153.54 244.142 157.148 244.094 160.717 243.932C163.192 243.826 165.677 243.711 168.182 243.625C169.746 243.568 171.098 243.223 172.835 243.299C173.209 243.319 173.996 243.06 173.919 243.606C168.575 243.826 163.24 244.516 157.896 244.851C142.958 245.78 126.714 247.572 111.843 247.045C103.457 246.748 95.11 245.148 86.6573 245.79L82.7619 245.167H94.5823L88.5186 243.922H71.7186C71.6611 243.922 71.2293 243.501 71.2485 243.299H80.7375L82.7619 242.677C81.9751 242.935 80.5935 242.054 80.1234 242.054H58.814L63.9375 241.422L76.2376 241.125L74.2132 240.196H53.681C53.6042 240.196 52.1938 239.889 52.2802 239.573L70.0108 239.257C69.3776 238.251 67.5162 238.242 66.4321 238.194C61.7212 238.002 56.8568 238.491 52.1075 238.338C49.9871 238.271 47.6557 237.734 45.4297 238.012C45.353 237.466 46.1397 237.725 46.5139 237.705C52.7024 237.456 58.8332 236.987 65.0313 237.083L63.2371 235.924C55.4176 236.029 47.4925 236.47 39.673 236.154C39.2989 236.135 38.5121 236.384 38.5889 235.847L60.3683 234.908L59.2074 234.046L29.8771 234.286C29.8003 233.74 30.5871 233.999 30.9612 233.979C39.7306 233.615 48.4808 232.916 57.2501 232.734C57.5092 231.834 55.763 231.834 55.2449 231.795C52.3282 231.585 48.6727 231.834 45.6024 231.795C40.8723 231.738 36.1519 231.958 31.4314 231.498C31.3546 230.952 32.1414 231.211 32.5155 231.192C34.895 231.096 37.3032 231.288 39.6826 231.202C42.6473 231.106 45.7176 230.694 48.6823 230.55C49.872 230.493 54.0168 230.866 54.6117 230.253C54.8323 230.023 54.8899 229.659 54.6117 229.621L35.1732 229.928C35.154 229.468 36.267 229.391 36.6028 229.343C42.1772 228.615 47.9531 229.008 53.5179 228.376C53.4028 227.811 52.9038 227.801 52.4433 227.744C48.807 227.332 44.8349 227.945 41.2273 228.06C37.9652 228.165 34.6935 228.127 31.4314 228.366L34.3865 227.753L52.5872 226.508C52.4913 224.87 50.6971 225.866 49.6417 225.904C43.8658 226.086 38.1379 226.086 32.362 226.508L45.5832 224.956L52.2706 224.64C52.2226 223.117 50.8314 224.027 49.9487 224.037C44.8541 224.085 39.7594 223.941 34.7031 224.659L32.6691 224.487L51.9636 222.782V221.853L41.0738 222.312L51.9636 221.23V211.287C41.2082 212.36 30.28 213.883 20.0715 217.494C15.3414 219.161 8.73081 222.025 5.4495 225.885C3.15642 228.587 3.12763 230.474 5.76612 233.031C14.5547 241.537 43.7699 243.117 56.118 244.88C73.5992 247.37 90.7541 251.882 107.017 258.664L120.401 265.331L102.517 258.185C88.2883 253.022 73.8966 249.104 58.9004 246.748C44.5278 244.497 28.1692 244.008 14.4491 239.257C0.038207 234.257 -2.22609 225.071 12.3671 217.906C25.2237 211.594 38.1571 211.029 51.7045 208.107C52.002 208.04 52.6352 208.002 52.5584 207.571C41.0738 208.682 29.0232 210.358 18.1814 214.391C14.9193 215.607 11.6571 217.054 8.72122 218.922C5.42072 221.029 2.85899 223.644 -0.00976562 226.192C0.460364 224.42 2.47521 222.427 3.8856 221.23C16.3009 210.655 36.7371 208.577 52.357 206.575C56.8664 198.5 66.6911 194.994 75.211 192.733C84.8631 190.176 94.8797 189.228 104.829 188.605V183.011L104.858 183.049ZM25.2141 45.4511C25.9817 45.0966 26.2024 44.5028 26.6341 43.8801C28.7449 44.6081 30.3472 45.8534 32.6787 45.7576L30.5007 45.135L31.748 42.7977L34.8566 42.9606L33.9259 44.8189C34.5976 44.7614 35.0773 43.3342 35.3843 43.2575C36.4301 42.9989 38.2818 43.9376 39.5195 43.5736C39.1933 42.3954 36.3725 43.2288 36.0943 42.951C35.7873 42.4912 37.4087 40.4989 37.5527 40.4605C38.7424 40.1732 40.6517 41.0161 41.6879 40.0008L38.2626 39.6847C39.0206 37.0984 40.9107 37.2038 43.2422 37.357L40.4406 36.7344C40.8436 34.0236 42.7337 34.062 45.1035 34.2535C45.4873 32.855 41.851 34.311 42.3115 33.1711L43.8658 30.9776C44.4511 30.6902 45.9862 31.7439 46.6578 30.6807L44.1729 30.5274C44.3935 28.5829 45.4585 27.2611 47.5885 27.7304C47.9627 26.4086 45.4009 27.7304 45.7272 26.648L46.6866 24.6557C47.1471 24.3396 48.2793 25.3549 48.5192 24.3204C47.3774 23.9564 46.1205 24.1384 45.0172 23.9277C44.6718 23.8606 43.9522 23.7648 44.1633 23.238C44.8157 22.4909 45.5641 21.7341 46.6482 21.8395L46.9553 23.3913V21.8395H48.8262C48.6823 20.9104 47.1375 21.3606 46.9553 21.2169L47.2719 19.0425L49.4498 19.349L47.3103 18.3816L47.5693 16.6862L49.4498 16.8586C48.5 15.5559 46.7826 16.3318 47.2719 14.0712L49.4402 14.5405C48.711 13.2091 47.339 13.7647 46.4755 12.8355L46.7921 11.5903L49.1236 12.3566C48.5192 10.9868 46.984 10.8048 45.708 10.3355L46.1685 9.44466L48.5096 10.1822C47.8284 8.54426 46.2932 8.56341 44.7773 8.16111C44.5183 6.8584 47.032 7.98869 47.4254 8.47721C48.3656 6.66683 44.4799 6.74346 44.1633 6.29326L44.4703 5.06718C42.9352 4.34878 41.4192 3.86984 39.8074 3.35259C39.366 3.20891 38.9918 2.70124 38.6464 2.63419C37.9748 2.50009 37.38 3.04607 36.1902 2.63419C35.6817 2.45219 35.557 1.69547 34.9334 1.71463C34.5112 1.71463 34.2713 2.16483 33.8012 2.19357C32.3812 2.28935 31.9207 1.36022 31.8056 1.34106C31.441 1.27401 25.0798 1.6859 24.5425 1.80084C23.4392 2.03073 19.0161 3.77406 17.74 4.3392C15.2167 5.45033 9.71905 9.33929 8.2319 11.619C7.32042 13.0271 8.47176 12.9122 8.25109 13.7838C8.14555 14.1861 7.1861 15.2206 6.81192 15.4888C6.22665 15.9007 6.62962 14.3585 5.88125 14.3969C5.53585 15.8145 6.21706 16.8203 4.95059 17.9697L4.32694 17.1938L3.07966 21.5426L4.31735 20.2973C5.2768 22.3089 4.35573 23.1614 3.5402 24.9622C2.69588 24.4066 3.66492 22.2322 2.45602 22.4717C2.4848 24.9239 3.36749 26.6385 2.1394 28.9948C1.57333 29.0619 1.87075 28.2956 1.83238 27.9028C1.73643 27.0024 1.48697 26.9641 1.50616 27.9028C1.56373 30.4987 2.60953 32.7688 4.01033 34.8857C4.36532 36.3225 4.90261 37.4241 4.31735 38.9279C3.3579 38.1904 2.75345 36.6865 2.76304 35.5179C2.23534 35.4317 2.42723 36.2651 2.4848 36.5716C2.67669 37.721 4.01992 39.7996 4.68194 40.9012C7.14772 44.953 9.53675 47.0986 12.7989 50.4128C14.5451 52.1945 12.3863 51.7443 11.2062 50.5469C10.6017 49.9339 10.0069 48.3534 9.90134 48.2768C9.84377 48.2385 9.38324 48.6599 8.83635 48.2864C7.56988 47.4434 7.06137 44.9242 5.72774 44.2154C5.48788 44.7231 6.28422 45.7384 6.56246 46.1695C8.91311 49.7902 13.2786 53.9378 17.2795 55.662C18.5268 56.1984 20.4649 57.3478 20.983 55.6811L23.6119 56.3229C23.3624 55.844 20.0331 54.6466 21.9136 54.1581C22.3454 54.0432 24.3027 55.0872 25.147 55.2597C25.4636 55.3267 26.1736 55.662 26.0968 55.0872C24.9359 54.6275 23.7174 54.2922 22.5757 53.775C22.0096 53.5163 21.9136 53.4014 21.1269 53.0757C20.3401 52.75 19.5534 52.0795 18.6323 51.9742C19.1121 52.8267 20.1003 52.7883 20.6664 53.5163L20.8295 53.9857L20.3593 54.752L17.5386 53.2002C17.3754 52.1849 17.6921 51.8496 18.6419 51.9646C18.191 51.1695 18.5172 50.9205 18.6419 50.0967L17.078 52.568C16.7134 52.8267 14.3052 51.3228 14.1133 51.0354C13.5281 50.1159 15.7924 49.5507 14.9097 48.545L13.5089 50.4032L10.5825 47.7212C10.6113 46.6197 11.0047 45.8629 12.1081 46.3706L11.4844 45.135C10.6113 44.8859 11.0911 45.202 10.9663 45.4319C10.6977 45.9396 10.6017 47.1178 9.6327 46.9932C9.43121 45.8534 7.7138 44.8668 7.30124 43.8801C7.06137 43.2958 7.21488 42.5008 7.12853 42.338C7.10935 42.2997 6.69678 42.6541 6.35138 42.3763C5.24801 41.5142 4.11586 39.0525 4.96018 37.6827L5.89085 38.3053C5.30558 36.7153 5.08491 36.6578 5.90044 35.1156C6.38016 34.1961 6.42814 34.5696 6.51449 33.0275C6.79273 32.9317 7.06137 32.606 7.29164 32.4144C8.11677 33.6309 8.50055 34.5217 9.6231 35.5179C9.71905 35.9585 9.55594 36.5907 9.6231 37.0697C10.3235 36.6578 11.0335 37.9605 11.8011 38.6214C12.1752 39.4356 12.7701 40.5851 13.6432 40.815L13.0483 42.6541L14.1325 41.7249C14.6602 41.8495 17.0972 45.1062 17.8744 45.4511C18.0087 45.5085 18.3829 45.5277 18.3349 45.2978L13.979 40.9491C14.5739 40.9682 14.5163 40.2594 14.6026 40.1732C14.8713 39.8954 15.4374 39.6463 15.6868 39.2536C18.7858 42.5104 21.9136 45.5277 26.2791 47.0028C27.5264 46.8687 25.6171 46.476 25.3197 46.0737L25.1758 45.4606C23.4871 46.2269 20.4649 42.7882 18.9585 41.8878L20.6664 39.8762L23.2665 41.8782L22.0672 44.2154L23.4775 42.338L26.1064 43.746L25.1758 45.4606L25.2141 45.4511ZM42.6377 50.7289C51.2056 42.3763 58.4878 26.3702 56.2427 14.3106C55.1969 8.68794 51.7237 6.11126 46.5235 4.44457L48.3081 6.08253C55.6287 18.3433 47.128 36.2746 39.0206 46.3515C34.2905 52.2328 26.4902 59.321 18.3637 57.8746C19.8316 58.89 22.259 60.7674 23.9573 61.141C29.5796 62.3479 35.3459 57.8459 39.2029 54.3018C38.8863 53.7941 38.5121 54.4072 38.2722 54.6083C35.2596 57.0892 31.9591 59.3115 28.0925 60.2885C27.843 60.3555 27.0467 60.4992 27.5456 60.049C30.0977 59.1582 32.7458 58.1333 34.54 56.0164C32.2469 56.8785 30.0881 58.5739 27.7855 59.3689C27.536 59.4551 26.7301 59.5509 27.229 59.1199L31.4218 56.639L24.8879 59.1199L25.5116 60.3555C25.1278 60.6429 22.4989 59.8 22.71 58.8038C26.4135 58.3823 29.9538 55.8344 32.813 53.5163C44.1153 44.3303 52.6256 29.5504 52.2706 14.7034C53.2684 15.508 52.971 18.2379 52.8846 19.5119C52.1267 30.4508 45.2187 42.3284 37.9556 50.2691L38.1091 50.7289L42.9256 46.3802C42.8392 47.5201 38.8095 50.796 39.5099 51.6581C44.7869 47.7116 49.1332 40.9299 51.7813 34.8761C54.2375 29.263 57.135 15.1727 53.3644 10.029C53.1821 9.78949 51.9156 8.48678 51.6374 8.80288V10.9773C50.7835 9.00403 50.889 7.0404 53.2972 8.85078C56.2235 11.0539 55.7246 19.8759 55.36 23.2476C54.6117 30.2496 51.8964 36.8877 48.2121 42.8265L42.609 50.7385L42.6377 50.7289ZM59.1211 46.0737L60.5219 44.2058C61.1167 44.0621 61.9131 46.0354 62.8437 44.6752L60.9632 43.7077C61.5581 41.4855 62.8533 39.7996 62.8533 37.3762L65.0313 38.6118C65.2232 37.6827 63.9087 37.5199 63.6305 37.0601C62.8245 35.7382 64.0334 34.1865 64.0143 33.3148C63.9951 32.4432 63.2851 31.0542 63.9375 29.924C64.4172 30.3454 64.6091 31.0638 64.6955 31.6769C64.7818 32.2899 64.8298 34.129 64.0814 34.1194C64.139 34.5984 64.5324 34.9528 64.6571 35.4221C64.8394 36.1405 64.3117 37.3091 65.3383 37.0601L65.0217 34.129C66.48 33.9374 64.8586 30.355 65.0217 30.2305L65.9332 30.2113C66.2977 28.8799 65.3287 28.2764 64.7243 27.2706L65.6549 27.1174C66.1155 25.6135 64.494 24.9526 64.1006 24.1671C63.6305 23.2284 65.3383 24.5407 65.0313 23.5541C64.5515 22.0215 62.815 19.0713 61.8651 17.7015C60.7905 16.1593 59.5528 14.6746 57.8834 13.7647C57.7299 13.9754 58.1904 18.4486 58.814 18.8988L58.2 19.0425C58.0753 20.374 58.3055 21.0349 59.4089 21.715L59.1307 22.7782L58.2 22.4621L58.1808 23.5254C59.5432 23.9468 59.9462 24.3683 59.7543 25.8722C59.217 26.4469 57.7778 24.2438 57.5764 25.4124C57.5092 25.7859 59.0635 27.376 58.507 28.353C58.2384 28.65 56.7704 27.4526 56.9527 28.5063C58.2576 29.1193 58.2768 30.1155 58.1904 31.4565L56.3195 30.9872C56.0796 32.06 57.2501 31.7631 57.5092 32.5964C57.6531 33.0753 57.6627 33.8033 57.4132 34.2535C57.0774 34.857 55.5807 33.2861 55.0818 33.3148C54.9187 34.3781 56.6745 34.742 56.8951 35.3838C57.0774 35.9106 56.8664 36.5428 56.9431 37.0409C57.538 36.9547 57.4804 35.9681 57.5668 35.4892C59.62 35.9873 59.7735 37.0218 59.1115 38.9088C58.7565 39.1578 57.0391 37.7306 56.9335 37.0505C55.36 37.2804 55.408 36.0448 54.1319 35.8053C54.3622 37.0984 55.6479 37.2229 55.9933 38.6023C57.0966 38.018 57.8162 39.0429 58.6893 39.6559C58.8428 39.7613 58.7757 40.1444 58.7949 40.154C58.8236 40.1732 59.1211 39.9337 59.4377 40.0391C59.8407 40.1636 60.234 40.4605 60.6658 40.4701C60.4259 39.972 59.7927 39.6751 59.7543 39.1004L60.0421 36.744L60.6562 37.0601L61.1263 35.5083C62.3352 36.7536 62.3928 37.4049 61.8843 38.995C61.8075 39.244 61.1263 39.1195 61.4717 40.1636C61.2606 40.451 61.0016 40.4701 60.6658 40.4701C62.2681 43.7077 57.4804 43.7173 58.7949 40.1636L57.7107 41.7058C57.3557 41.2077 56.3866 40.6425 56.1564 40.1444C55.8685 39.5218 56.0988 39.0142 55.9933 38.6023C55.7246 38.7459 55.7246 39.0237 55.5807 39.1195C55.2833 39.3111 54.794 39.1866 54.746 39.2249C54.65 39.3111 55.2161 40.9395 54.4294 41.7058L51.9444 40.4701C52.1459 41.1598 53.4315 41.8016 53.6426 42.3188C53.7673 42.6349 53.5083 43.1809 53.4987 43.5736C53.1917 43.8131 52.8559 44.1388 52.4529 44.1675C51.8197 44.0526 51.1193 42.0506 50.3901 43.1138C51.5798 44.0526 52.6928 44.3112 51.9444 46.0641L52.7407 45.1158C53.9784 45.7288 55.408 46.0354 54.746 47.6254C56.3579 47.204 55.5135 45.9587 56.7608 45.202L60.8001 47.6254L61.2702 46.6963C60.3108 47.1752 59.7639 46.4089 59.0923 46.0737H59.1211ZM71.2581 38.4586C71.4116 36.926 71.143 35.2018 71.2581 33.6405L71.8434 36.0064C72.2943 42.3284 69.4543 50.1542 65.4822 55.0393C63.8607 57.0317 58.7949 61.6582 56.2043 61.5816C54.9858 61.5433 54.1799 60.0682 52.9038 60.9686L52.7503 60.0394L49.4786 62.2042C54.7076 63.459 57.8834 62.6448 61.9227 59.2636C69.9724 52.5201 75.5948 39.4165 70.692 29.378L67.2092 25.5561C68.1879 32.7976 67.2572 39.8379 63.9471 46.3706L59.4377 53.2002C61.7308 50.7768 63.9183 47.5392 65.6741 44.6752C65.8756 44.3495 65.9619 43.9472 65.9715 43.5736C67.4203 44.6464 65.108 45.5947 65.0313 46.9836C66.0195 47.0507 67.1421 47.6254 67.8521 48.3342C68.1303 48.612 67.9768 48.6312 68.2934 48.2097C69.4064 46.7442 71.0662 40.3743 71.2581 38.4394V38.4586ZM75.2974 51.3515L75.921 51.8209C78.3676 47.2231 79.4038 40.1444 77.6192 35.2018C76.6502 32.5102 75.4317 31.8014 72.8028 30.8435C72.6877 30.9872 73.1098 32.7593 73.2825 33.0083C73.5416 33.3914 77.1491 34.8857 76.5351 35.5083L73.4265 33.9566C73.225 34.4834 73.8774 34.6654 73.9062 35.0294C74.0501 36.7536 73.6567 40.0295 73.3785 41.8303C73.0139 44.1771 72.2463 46.7154 71.2485 48.8611H72.4958C72.7644 49.9818 72.1216 49.5029 71.8721 50.1063C72.7165 50.5182 72.87 49.5028 72.9563 49.4837C73.8198 49.2825 73.6279 49.8764 73.9829 50.0776C74.5586 50.3841 75.259 50.5278 75.7579 51.045L75.2878 51.3611L75.2974 51.3515ZM103.304 47.9319L78.4156 33.9566C81.0445 41.1311 79.3558 49.7998 75.2398 56.1026C73.8198 58.277 69.723 63.028 67.2092 63.641C65.8564 63.9667 63.2659 61.8307 61.4621 61.5912C60.8193 61.505 60.6274 61.6774 61.3854 61.9839C62.5367 62.4533 63.5825 63.0184 64.7243 63.4686L64.2541 64.3978C62.5271 62.0318 59.4089 61.6295 57.2597 63.7751C59.0731 63.8805 60.5698 65.2311 62.3832 65.3556C65.2903 65.5568 69.1089 63.6315 71.2677 61.7636C72.3998 60.7866 75.2782 56.7539 75.9402 56.4666C76.6022 56.1792 77.1491 56.6677 77.7919 56.6294L76.5447 55.844C76.8421 55.3746 77.2834 53.4397 77.9359 53.5259L111.708 70.6143C111.843 69.3308 112.562 68.2388 112.937 67.0223C113.311 65.8058 113.215 63.1621 114.5 62.846V62.233L103.198 56.275C100.099 54.2347 97.0481 47.2997 103.304 47.9415V47.9319ZM104.196 48.2001L103.889 48.7653L121.543 58.3823L121.85 57.8172L104.196 48.2001ZM103.918 49.1772L101.26 49.4645C100.704 51.5048 102.124 53.6121 103.639 54.8957C105.155 56.1792 114.04 61.141 115.978 61.8402C116.256 61.936 117.072 62.1468 116.995 61.6104C116.362 61.39 115.575 60.9973 115.028 60.6237C114.712 60.413 114.05 60.0011 114.971 60.0586C117.273 61.0644 118.933 62.9801 121.073 64.2253C122.157 64.8575 124.095 66.256 125.122 65.212C126.196 63.8326 124.277 60.4801 122.608 60.8345C123.558 61.6487 124.805 63.0184 123.874 64.2828L123.135 64.6755L121.063 63.7943C121.053 63.1717 122.042 63.6889 122.282 62.9897C122.464 62.4533 122.109 61.5337 121.658 61.1793L108.139 53.8612L107.343 56.026C105.127 55.8152 101.423 52.8841 102.546 50.4511C102.862 49.7711 103.774 49.7998 103.937 49.2059L103.918 49.1772ZM106.719 54.7616C107.055 53.1523 105.184 52.5297 103.927 52.2807C103.486 52.6926 106.316 55.2118 106.719 54.7616ZM80.9965 56.4474L80.7758 56.8785L90.4567 61.7732L90.6773 61.3421L80.9965 56.4474ZM45.1227 61.9073C42.6377 61.2272 40.6133 60.4034 39.673 57.8746C39.6155 58.4398 40.076 59.8862 40.3159 60.3364C40.9683 61.5146 42.3691 61.3326 42.6281 62.5299L40.6421 61.5433L37.1785 58.4973C36.1231 59.2827 38.4258 60.1735 38.5793 60.9686C37.2264 61.1601 36.2862 60.5567 35.6242 59.4264L34.5304 60.346L36.0847 61.5912C35.2404 61.4954 34.3961 61.1027 34.0507 60.3364L31.1052 61.754C36.4205 63.5836 41.7071 63.5836 46.9744 61.5912L42.7145 58.4781C42.0621 58.1141 41.0546 57.913 40.7572 58.7942C42.4075 58.0279 42.6665 59.5988 43.578 60.4896C44.0289 60.9398 45.0076 60.8249 45.1131 61.8977L45.1227 61.9073ZM80.0658 57.6927L79.8356 58.1524L92.625 64.5989L92.8553 64.1391L80.0658 57.6927ZM49.162 59.7329C47.5021 61.1793 47.1567 58.344 45.1227 58.8038C45.5257 59.1103 47.5981 60.8824 47.7612 60.8919C47.9243 60.9015 49.7089 60.2119 49.162 59.7329ZM138.765 99.4942C142.113 99.839 146.901 103.402 150.202 102.061C150.576 101.908 152.188 100.519 152.619 100.126C155.718 97.3677 158.472 93.1052 159.623 89.1013C160.381 86.4575 160.976 79.9153 158.482 78.1145L125.083 60.0586C125.937 61.9648 127.28 62.9897 126.503 65.3556C126.177 66.3327 125.227 65.9687 125.4 66.8786C127.76 68.0856 130.235 69.168 132.557 70.4515C133.948 71.2178 137.422 72.8749 138.362 73.8232C140.338 75.8347 142.017 83.7276 142.862 84.5418C142.891 84.5705 143.332 84.4173 143.639 84.5322C148.57 86.3713 153.205 89.2162 158.05 91.2756L156.505 91.745L157.436 92.8274C156.591 93.2489 156.803 93.9768 156.563 94.4462C155.143 97.2336 151.861 101.084 148.532 101.352C146.028 101.554 142.229 99.293 139.859 98.3543L138.775 99.5038L138.765 99.4942ZM67.2092 62.5395L62.2297 60.6716C63.0068 61.3996 65.866 63.1142 66.7295 63.1717C67.3436 63.21 67.238 63.0759 67.2092 62.5395ZM115.431 65.3269L117.292 63.9284C114.5 62.0222 114.491 66.9744 113.81 68.8231C111.44 75.2121 104.609 83.0954 97.24 83.0284C96.223 83.0188 95.4554 82.4824 94.6015 82.2525C94.2849 82.1663 93.6133 81.8119 93.6708 82.4057C101.394 86.2181 109.185 80.1452 113.205 73.8041C113.637 73.124 115.508 69.8959 115.623 69.3595C115.7 69.0051 115.69 68.1143 115.143 68.1143L114.213 70.5952L114.98 67.4821C115.565 66.5434 116.304 68.1047 116.544 68.1047C117.331 67.4151 117.552 66.2752 117.177 65.2982H115.46L115.431 65.3269ZM139.705 95.7681C143.169 92.109 141.778 86.2181 140.415 81.8598C139.945 80.3559 138.496 76.4669 137.671 75.2792C137.124 74.4937 135.781 73.8615 134.937 73.3539C129.573 70.0971 123.423 67.8653 118.386 64.0912L118.089 67.2043C114.424 76.2466 106.038 88.0093 94.6974 84.6376C90.9556 83.5265 91.2818 80.0494 88.058 78.6892C90.9268 86.0648 99.0629 87.2717 105.683 84.0245C108.341 82.7218 110.183 80.1739 112.937 79.2927L112.697 78.5743L113.407 78.0666L139.696 90.8063C139.523 90.3178 139.312 89.925 138.851 89.6281C137.374 88.6702 134.476 87.8656 132.74 87.0323C126.34 83.9671 119.96 80.8253 113.56 77.7505L114.577 77.1853L139.379 89.2449C139.101 86.3809 137.738 82.4057 135.81 80.241C134.591 78.8712 132.049 77.5781 130.379 76.6585C126.446 74.4841 122.186 72.7696 118.242 70.6048C118.108 69.4553 119.451 69.0434 118.856 67.8269C119.231 67.5108 126.215 71.1603 127.261 71.6967C130.523 73.373 133.747 75.2121 136.923 77.0417C138.88 83.105 142.862 89.379 139.705 95.7776V95.7681ZM101.126 80.5475L68.1495 65.461L64.4076 66.2656L65.1272 66.9457C75.4989 70.6143 85.6306 76.965 95.8392 80.7007C96.6643 81.0073 97.6046 81.4 98.4777 81.4862C99.1301 81.5532 99.7633 81.7257 99.5618 80.8636L67.0557 65.9495L100.291 80.921L101.116 80.5571L101.126 80.5475ZM95.4074 65.4035L95.1772 65.8537L100.723 68.6124L100.953 68.1622L95.4074 65.4035ZM113.647 79.4459L113.349 80.0781L139.571 92.3101L139.868 91.6779L113.647 79.4459ZM164.958 96.7547C167.088 95.1933 167.894 90.7584 167.664 88.1913C167.337 84.6184 166.138 83.5935 162.722 82.7218C162.53 83.2487 163.164 83.4211 163.202 83.7947C163.26 84.2832 162.78 84.8675 163.173 85.5188C163.912 86.7353 168.863 86.5821 166.618 89.4748C165.015 89.1396 164.027 89.0917 163.029 87.6836C162.972 89.6377 162.166 91.745 161.158 93.4308L161.782 93.7374L160.842 93.8906C160.055 94.4845 163.154 95.088 163.02 95.7489L160.535 94.973L165.198 97.3007L164.939 96.7355L164.958 96.7547ZM147.784 87.3867L142.814 84.8962C142.775 86.448 143.706 85.969 144.589 86.3809C145.328 86.7257 146.114 87.2813 146.853 87.5495C147.15 87.6549 147.86 87.9614 147.793 87.3867H147.784ZM159.307 105.395C162.953 106.659 164.555 108.891 168.604 107.081C173.89 104.715 177.287 96.5248 175.704 91.0458C174.667 87.4442 171.732 87.1855 168.642 86.1414C169.391 89.8867 168.94 93.1147 167.452 96.6014C166.982 97.703 165.879 98.8332 165.994 99.8103C166.694 98.201 169.179 99.7241 170.273 100.423C170.686 100.682 171.377 102.31 172.221 101.372C173.603 99.8199 174.552 93.2489 173.929 91.1128L173.468 91.7258L170.36 90.1549L169.889 90.7871L170.043 89.5419C170.532 89.494 171.77 90.768 172.058 89.858C171.588 89.9538 169.064 88.4499 169.573 87.9901C170.561 87.5687 173.132 90.3561 172.988 88.517C173.238 87.0897 174.754 90.6913 174.821 90.9691C176.423 97.0708 172.749 106.046 165.984 107.234L167.078 106.611L162.204 103.881L159.297 105.366L159.307 105.395ZM104.858 107.876C103.86 101.18 102.162 93.4596 97.7005 88.1626C97.4606 87.8848 96.1846 86.4288 95.8392 86.7641C99.2452 90.4327 101.222 94.9826 102.594 99.7432C103.256 102.061 103.534 104.523 104.225 106.812C104.349 107.224 104.254 107.78 104.858 107.885V107.876ZM158.683 96.0746C160.631 93.9864 161.561 90.7871 161.792 87.9997L158.683 96.0746ZM106.096 104.466C105.568 100.864 104.599 95.9022 102.738 92.7603C102.488 92.3389 102.363 91.927 101.74 92.0515C102.488 94.245 103.304 96.429 103.994 98.6512C104.589 100.548 104.58 103.077 106.086 104.475L106.096 104.466ZM176.414 103.22L189.385 109.389C189.875 109.456 189.971 109.054 190.172 108.728C191.477 106.649 192.168 100.941 190.268 99.1781L177.507 92.0419L177.392 93.5554C180.261 94.4558 183.082 96.1033 185.442 97.9328L177.354 94.2163C178.592 95.452 176.385 100.49 176.73 101.046C176.778 101.123 177.709 100.49 177.968 101.965L177.037 102.588L183.255 105.692C181.163 105.423 179.292 103.738 177.354 103.038C177.057 102.933 176.337 102.626 176.414 103.201V103.22ZM106.719 103.22C106.729 101.716 106.585 100.011 106.268 98.5459C106.048 97.4922 105.098 94.609 104.609 93.6895C104.369 93.2488 104.234 92.8561 103.611 92.9806L106.719 103.23V103.22ZM107.036 102.291C108.475 101.716 107.784 100.04 107.564 98.8141C107.295 97.2719 106.777 94.8389 105.482 93.9098L107.036 102.291ZM108.283 101.046L109.223 100.893C109.473 100.711 109.511 100.624 109.483 100.328C109.425 99.6187 108.37 96.2853 107.986 95.5956C107.746 95.1646 107.727 94.6952 107.036 94.8389L108.283 101.046ZM109.838 100.423C111.344 100.107 109.665 94.973 108.897 95.7681L109.838 100.423ZM134.409 100.433C131.665 100.759 129.286 99.1781 126.637 98.8811L131.233 100.653C132.135 100.692 133.776 101.381 134.409 100.433ZM192.273 110.366C193.022 108.134 193.933 106.132 193.847 103.68C193.799 102.215 193.569 100.529 191.966 100.117C193.204 103.46 192.657 106.946 191.026 110.05L192.264 110.366H192.273ZM124.46 106.64C121.946 100.902 115.345 98.4214 109.914 102.215C109.367 102.598 107.976 103.556 108.437 104.149C112.255 101.017 116.736 99.2356 121.025 102.77L124.46 106.63V106.64ZM158.011 105.126C157.877 105.04 155.853 104.944 154.951 104.609C154.049 104.274 152.168 102.693 151.996 102.684C151.526 102.646 149.731 104.006 147.669 103.805C145.212 103.565 139.091 100.471 137.671 100.538C137.153 100.567 134.889 102.128 133.277 102.253C130.936 102.444 129.919 100.682 128.019 102.895C125.582 105.739 127.299 107.483 127.559 110.519C128.086 116.678 128.336 124.15 128.508 130.376C128.614 134.198 129.382 137.665 125.064 139.14L124.699 149.581C124.344 151.152 122.253 151.277 122.31 153.097L122.416 180.885L123.059 181.172C152.351 182.35 184.07 191.622 211.04 175.52C230.373 163.978 232.772 143.355 216.711 127.435C215.943 126.679 212.671 123.767 211.894 123.518C210.935 123.221 209.966 124.188 208.901 124.313C207.298 124.485 203.422 122.895 201.638 122.301C195.296 120.184 189.155 117.684 183.072 115.06C180.722 114.044 169.995 108.805 168.498 108.805C167.001 108.805 165.821 109.427 163.97 108.977C163.336 108.824 159.374 106.985 158.885 106.602C158.251 106.094 158.117 105.194 158.021 105.136L158.011 105.126ZM155.335 101.898C154.951 101.487 155.143 100.768 154.788 100.423L153.387 102.282C155.757 103.268 157.81 104.59 160.228 102.751C158.981 102.981 156.236 102.875 155.335 101.898ZM107.66 112.387V119.38C101.164 119.514 102.402 113.058 102.872 108.536C102.92 108.048 103.275 107.531 102.517 108.192L100.8 134.773C100.473 136.784 107.698 139.217 108.283 138.642L108.581 112.387L109.531 106.966C110.221 107.013 109.77 108.374 109.531 108.68L110.145 108.833C111.142 103.958 116.582 102.971 120.727 104.485L120.679 102.981C119.739 103.125 118.415 100.921 118.54 102.789L119.173 103.249L117.926 103.105L117.264 101.745L115.748 101.697L116.055 103.249L115.431 101.908C114.28 101.113 114.04 102.617 114.193 103.565L113.886 102.013C112.985 102.492 112.006 102.875 111.171 103.469C108.83 105.165 107.88 109.657 107.669 112.416L107.66 112.387ZM192.59 111.295C194.893 108.814 195.19 104.82 194.451 101.669C193.895 101.592 194.144 102.368 194.183 102.713C194.24 103.345 194.49 103.833 194.471 104.6C194.423 106.812 193.367 109.255 192.6 111.295H192.59ZM201.302 107.263L200.659 106.199L196.332 103.23C196.236 104.082 196.293 104.734 197.263 104.791V105.088C196.447 104.954 196.533 105.634 196.696 106.285L199.133 107.885C198.73 108.067 195.516 105.538 196.341 107.416C196.6 108.01 199.661 109.092 200.064 110.06L196.025 108.201L196.063 109.092L200.995 111.305C201.12 110.347 201.81 108.517 201.244 107.636C201.062 107.349 199.268 107.128 199.124 106.333L201.302 107.263ZM106.719 111.142C106.566 112.991 106.719 115.155 106.719 117.042C106.719 117.426 105.319 118.278 107.026 118.441C107.698 113.517 106.393 108.565 109.521 104.312C108.801 104.37 108.082 105.72 107.804 106.333C107.228 107.598 106.825 109.753 106.71 111.142H106.719ZM122.589 110.673C122.608 105.471 115.143 103.192 112.246 107.646C111.881 108.211 110.643 110.328 112.15 110.366L113.56 109.743L113.723 110.989C113.8 110.51 114.817 109.782 115.124 110.06C115.805 110.663 114.328 110.577 114.5 110.989C115.604 111.286 115.844 109.868 116.678 109.437L116.985 111.295V108.498L116.371 108.814V106.324C116.439 106.228 116.755 106.487 116.842 106.63C118.214 109.015 116.41 115.05 116.371 117.818H117.926L116.688 117.196L117.935 116.889L117.005 116.267C116.794 115.376 117.907 115.855 117.628 114.715L118.194 114.964L119.183 113.623L117.628 113L117.456 112.215C118.444 110.864 119.969 110.969 121.495 110.998L121.668 110.05L122.598 110.673H122.589ZM37.9652 156.488C37.8117 158.011 38.0804 159.744 37.9652 161.306L38.6656 155.329C41.7454 143.824 52.4529 136.784 61.9418 130.74C71.2965 124.792 81.2172 118.91 90.7541 113.23C93.7572 111.439 98.3146 109.504 100.924 107.54C101.318 107.243 101.749 106.784 101.279 106.333C89.2094 114.15 76.3336 120.682 64.1294 128.259C54.6213 134.16 39.2221 144.323 37.9652 156.497V156.488ZM183.255 112.54C179.436 111.458 175.656 109.504 172.135 107.636L170.503 108.038L183.715 114.063L186.363 112.856C186.047 112.856 185.759 113.077 185.433 112.971C182.142 111.918 178.707 109.504 175.493 108.345C175.195 108.24 174.485 107.933 174.552 108.508L183.264 112.55L183.255 112.54ZM203.269 108.402C203 108.211 202.99 107.588 202.549 107.569C202.789 110.146 201.964 112.416 200.995 114.715C201.734 114.121 202.655 112.694 202.923 111.832C203.163 111.065 202.952 109.226 203.624 109.437L206.579 111.448L203.47 110.519L206.588 113.153C205.485 113.048 202.674 109.992 203.796 112.847L202.856 113C204.046 115.146 203.787 114.284 205.427 114.772C205.773 114.878 207.385 116.41 207.519 116.257C206.809 114.906 207.941 115.567 208.152 114.561C208.958 110.634 205.696 110.079 203.269 108.393V108.402ZM101.078 109.389L100.972 108.498C96.6163 111.18 92.366 114.035 87.9525 116.621C78.1949 122.359 67.6889 127.186 58.5262 133.834C54.794 136.545 49.7568 140.405 46.8305 143.901C46.6194 144.15 46.015 144.524 46.5235 144.83C52.2226 139.064 59.1499 134.591 66.1922 130.606C66.4609 130.453 66.979 129.926 67.2188 130.386C60.9152 134.792 54.2471 138.824 48.8646 144.361C49.8624 144.505 50.7547 142.982 51.5126 142.349C53.8825 140.376 56.4826 138.499 59.0923 136.87C59.3609 136.707 59.7639 136.094 60.0517 136.593C52.002 143.413 40.9875 151.152 41.0834 162.838L42.3115 157.081C46.1397 147.531 54.9475 141.545 63.074 135.874L100.809 112.665L100.665 111.899L86.1967 120.587L101.126 110.807C101.001 110.433 100.473 110.701 100.214 110.826C97.9979 111.851 94.8414 114.485 92.5195 115.874C85.8225 119.878 78.8473 123.46 72.2367 127.617C71.9681 127.78 71.5555 128.393 71.2773 127.895C81.0829 121.535 90.7829 114.887 101.097 109.37L101.078 109.389ZM200.678 112.224C200.371 111.458 195.91 109.236 195.699 109.437C195.545 110.146 196.063 110.117 196.466 110.376C197.675 111.161 199.258 111.918 200.678 112.224ZM113.57 115.021L113.119 112.828L110.768 111.918C110.557 112.215 111.622 116.161 112.63 115.491L111.699 112.847C112.668 113.24 112.236 115.098 113.56 115.021H113.57ZM208.766 117.196C210.205 116.487 210.484 114.073 209.543 112.847L208.766 117.196ZM188.858 113.163L185.125 115.021C186.402 115.117 187.303 115.979 188.551 115.184C189.395 114.255 187.793 115.04 187.467 115.031C186.785 114.255 188.685 114.13 188.858 113.163ZM212.499 119.993C213.487 117.722 213.583 114.408 210.637 113.786L211.568 115.95L210.637 116.104L212.297 117.598C212.451 118.019 211.53 119.619 212.499 119.983V119.993ZM124.46 115.96V132.426C122.924 131.707 124.143 131.43 124.143 130.453C124.143 129.361 123.615 127.55 123.529 126.362C123.347 123.834 123.337 121.267 123.059 118.757L122.589 138.01C121.495 137.771 122.176 135.414 121.965 135.213H120.727C120.516 135.414 121.14 137.857 120.257 138.317C119.614 137.637 119.96 136.832 120.084 136.027L118.866 135.529V138.326C117.82 138.125 118.415 136.008 118.242 135.836H117.312C117.197 135.941 117.609 139.84 116.688 138.633V135.836H115.757V138.949H114.827C114.798 138.278 114.855 137.598 114.827 136.928C114.807 136.449 115.115 135.702 114.366 135.845C113.272 136.698 114.683 138.891 112.965 138.949C112.85 138.824 113.282 134.619 112.342 135.845L112.188 138.642L111.248 138.02L110.768 138.949L109.531 138.786C112.447 140.721 125.688 139.064 127.108 136.152L126.33 114.408C125.947 113.901 125.764 114.408 125.707 114.868C125.17 119.054 126.561 123.594 125.707 127.761L125.093 123.882C124.863 121.525 125.381 118.719 125.093 116.429C125.035 115.97 124.853 115.462 124.469 115.97L124.46 115.96ZM100.809 114.715L99.7058 115.012C85.1605 125.797 51.7621 139.121 44.1824 155.865C40.4118 164.198 46.5811 169.112 53.6234 172.235C68.9746 179.026 88.4035 178.202 104.858 179.946C104.436 170.396 105.702 160.74 104.877 151.277C104.081 150.692 102.987 150.022 102.747 148.978C102.172 146.411 103.342 140.903 102.632 138.844C102.335 137.981 99.2356 137.11 99.5618 135.386L100.809 114.724V114.715ZM195.392 117.818C193.674 117.675 192.187 116.707 190.585 116.247C190.086 116.104 190.028 115.653 189.491 116.42C191.074 116.812 192.897 117.952 194.442 118.278C194.71 118.336 195.478 118.278 195.401 117.818H195.392ZM203.48 120.931C201.484 120.443 199.661 118.987 197.57 119.063C197.656 119.6 198.193 119.6 198.577 119.763C199.546 120.175 201.235 120.826 202.223 121.094C202.52 121.18 203.537 121.525 203.48 120.922V120.931ZM122.282 183.672C146.181 183.988 169.976 192.341 193.943 188.902C205.734 187.206 219.234 181.775 226.449 171.967C239.478 154.256 230.555 130.797 214.062 119.063C213.899 119.82 214.197 119.859 214.571 120.261C215.655 121.42 217.785 122.694 219.042 123.872C227.504 131.813 233.309 144.074 231.755 155.836C231.054 161.152 228.598 167.264 224.636 170.932L227.552 165.923C230.69 159.581 231.035 152.397 230.229 145.462L229.615 146.392L229.529 144.15L228.684 141.43L229.299 147.637L228.061 143.604C229.135 151.401 228.512 158.614 224.146 165.319C212.144 183.739 183.552 186.613 163.49 185.856C155.651 185.559 147.937 184.151 140.166 183.365C134.227 182.762 128.24 182.206 122.282 182.12V183.672ZM111.075 119.37V130.548C111.622 130.615 111.373 129.849 111.382 129.466C111.43 128.23 111.325 126.976 111.382 125.74C111.469 123.853 111.948 121.822 111.689 119.83C111.632 119.37 111.449 118.862 111.066 119.37H111.075ZM121.658 131.018C121.6 127.244 121.706 123.451 121.658 119.677C118.924 121.046 115.805 121.468 112.956 120.127L112.323 120.452V130.855L113.253 130.386V120.912H113.877V131.161H114.807V122.311C114.807 122.253 115.23 121.822 115.431 121.841V130.386C115.431 130.96 116.084 131.372 116.678 131.161V124.332H116.985V130.386C116.985 130.874 117.628 132.186 117.302 133.029H118.233C117.743 132.043 118.501 130.903 118.511 130.405C118.521 129.59 118.166 128.7 118.233 127.589C118.252 127.234 118.338 126.19 118.856 126.19V132.713H120.104C120.286 132.282 119.797 131.784 119.797 131.631V120.912L120.42 121.372L120.737 132.407C122.272 132.617 121.677 131.794 121.668 131.008L121.658 131.018ZM205.034 122.167C206.195 122.1 207.442 123.144 208.536 123.039C209.093 122.991 212.22 121.631 211.568 120.931C210.378 121.86 209.39 122.751 207.759 122.416C207.183 122.301 204.976 120.587 205.044 122.167H205.034ZM121.034 143.135V147.637H120.727V143.288H120.104V148.259H119.48V143.911L118.588 144.428L118.856 150.74H117.926L118.233 144.217H117.302L117.609 151.047C116.88 150.932 116.429 150.712 115.853 151.296L115.143 150.855L115.431 146.392H114.5L114.788 150.855C114.452 152.024 109.3 151.123 108.139 150.721C107.41 150.472 103.774 148.614 104.541 147.637L106.096 148.566V141.736H105.472V147.637C104.954 147.359 104.868 145.855 104.839 145.319C104.781 144.361 104.791 143.173 104.868 142.215C104.944 141.123 105.961 140.817 104.234 139.562C104.033 141.89 103.678 144.84 103.908 147.187C104.215 150.386 107.305 151.085 110.077 151.593C113.042 152.129 120.881 152.043 123.078 149.83C124.575 148.326 123.404 141.755 123.519 139.562L121.351 140.654C121.735 141.219 123.308 139.811 123.212 140.96L121.034 143.135ZM116.678 150.118C116.237 148.882 117.715 146.133 116.055 146.085C116.151 147.225 115.911 148.556 116.055 149.658C116.112 150.108 116.295 150.616 116.678 150.118ZM107.88 154.246C107.708 154.035 107.199 153.959 107.007 153.71C106.681 153.288 107.333 152.168 106.105 152.292C105.913 165.175 106.345 178.088 106.115 190.971C106.067 193.72 104.541 197.14 108.274 198.26C107.573 196.048 108.245 193.969 108.293 191.91C108.533 179.898 108.072 167.867 108.293 155.855C108.264 155.3 108.254 154.696 107.88 154.246ZM116.832 196.402C115.364 196.603 113.522 196.258 112.006 196.402C113.196 197.609 115.748 197.092 117.292 197.025C117.312 197.226 116.88 197.647 116.822 197.647H112.313C112.255 198.088 113.503 198.241 113.742 198.241C114.817 198.241 116.093 197.705 117.283 197.963L116.794 198.873C118.233 198.433 120.967 197.992 121.274 196.172C121.389 195.482 120.996 194.611 120.996 193.777C120.958 179.955 120.948 166.105 121.169 152.302L119.758 153.384L119.298 196.718L118.521 155.721L113.551 156.344L114.635 156.65C115.546 156.794 116.333 156.564 117.206 156.411C117.811 156.296 117.58 156.44 117.599 156.966L112.754 157.024L112.313 157.752L114.798 158.365L112.303 158.528V159.457H114.798C114.433 160.463 113.1 159.486 112.313 159.763V160.999L114.807 161.152L112.313 161.306V162.541L114.807 162.695L112.313 162.848V164.083C112.486 164.265 114.596 163.662 114.807 164.706L112.323 164.4V166.574H114.807C114.529 167.829 112.534 166.651 112.323 166.88V168.116C115.719 167.819 115.863 169.016 112.323 168.739V169.668C112.495 169.85 114.606 169.246 114.817 170.29H112.323V171.536C112.553 171.775 114.769 171.047 114.5 171.995L112.323 171.842V173.078C112.495 173.26 114.606 172.656 114.807 173.7H112.313V174.946L114.807 175.099L112.313 175.252V176.488C112.486 176.67 114.596 176.066 114.807 177.111H112.313V178.356H114.807C114.529 179.611 112.534 178.432 112.323 178.662V179.591C112.553 179.831 114.76 179.103 114.5 180.051L112.323 179.898V181.134C112.553 181.373 114.769 180.645 114.5 181.593L112.323 181.44V182.992L114.817 183.145C111.046 183.203 111.066 184.639 114.817 184.697L112.169 184.85L112.015 185.626L114.817 186.555L112.179 186.402C111.469 188.203 113.829 187.408 114.817 187.8C114.184 188.797 113.138 187.829 112.524 187.973L112.025 189.189C112.236 189.4 114.577 188.71 114.827 189.812H112.188C111.152 191.661 114.836 190.808 114.836 191.21L112.035 191.364V192.599C112.236 192.81 114.596 192.12 114.836 193.222C113.944 193.423 111.641 192.312 112.035 193.998C112.179 194.63 114.376 193.921 114.836 194.62L112.035 194.774V195.703C114.011 196.124 115.661 195.789 117.638 195.703C117.753 196.019 116.985 196.306 116.861 196.325L116.832 196.402ZM59.4281 176.526C53.4891 174.582 47.032 172.503 42.9448 167.513C43.0695 168.403 43.885 169.237 44.4895 169.85C47.8188 173.222 53.6138 175.54 58.1712 176.689C58.4782 176.766 59.4761 177.13 59.4281 176.517V176.526ZM52.5872 172.8C49.7089 171.488 47.1184 169.658 44.8157 167.513C44.6814 168.097 45.1419 168.25 45.4297 168.605C46.4947 169.879 50.0831 172.494 51.6278 172.973C51.9156 173.059 52.664 173.356 52.5776 172.8H52.5872ZM104.858 182.111C105.367 179.687 101.49 180.674 99.7249 180.559C89.5356 179.888 78.7226 179.189 68.706 177.369C64.8394 176.67 61.0783 175.568 57.2597 174.668L64.0334 177.063C77.389 180.252 91.1954 180.932 104.858 182.12V182.111ZM104.858 189.879C93.1431 190.607 80.9773 191.938 69.8477 195.77C62.7958 198.193 48.5767 204.85 55.4464 214.209C62.9781 224.477 88.2116 229.094 100.349 230.253C119.01 232.044 153.205 230.292 168.469 218.443C179.973 209.515 169.909 201.651 160.66 197.686C148.925 192.657 134.927 191.191 122.282 190.185L122.349 193.845L124.412 195.348C124.815 197.59 129.535 202.686 129.679 204.362C129.775 205.502 127.184 207.427 126.167 207.877C125.246 207.935 125.927 207.523 126.215 207.303C126.945 206.757 129.065 205.741 128.777 204.678C128.7 204.4 125.889 200.751 125.381 199.965C124.431 198.49 123.788 196.852 122.742 195.454L122.358 197.542C119.451 201.843 109.502 201.45 105.817 198.691C104.254 197.513 104.637 196.938 104.397 195.138C103.361 195.76 103.534 196.958 103.006 197.781C101.548 200.061 99.2356 202.303 97.5566 204.448L96.9138 203.213C99.3795 201.163 100.752 197.609 102.69 195.291C103.198 194.678 104.541 193.94 104.714 193.586C105.165 192.676 104.714 190.904 104.868 189.85L104.858 189.879ZM53.5275 214.42V224.516C53.5275 227.198 60.5411 232.188 63.026 233.05C63.9279 233.117 63.2947 232.677 62.9781 232.475C60.944 231.221 58.7949 230.138 57.2693 228.232L58.2 228.079C57.9697 227.897 56.166 225.675 57.4228 226.221C58.3439 226.623 59.9558 228.826 61.3182 228.548C61.0112 228.05 56.3579 225.253 56.9623 224.669C59.6296 225.646 61.5677 228.041 64.4268 228.701L57.3365 223.979C56.7128 221.45 59.1307 223.96 60.0325 224.544C60.3012 224.717 60.7233 225.311 61.0016 224.822C59.7159 223.998 58.8428 222.466 57.3173 222.13L57.2693 220.933C57.3941 220.761 60.2916 223.452 61.0016 222.954C60.4067 222.245 56.5881 220.311 57.2693 219.381L59.1307 220.157L53.5275 214.41V214.42ZM173.612 225.751C174.178 222.954 173.19 218.347 173.612 215.349L168.633 220.473C168.959 221 169.314 220.339 169.563 220.157C170.456 219.544 171.204 218.797 172.048 218.136C172.25 218.356 170.599 220.358 170.34 220.627C168.93 222.102 167.193 223.088 165.514 224.199L167.788 223.366L172.355 220.004C170.647 222.083 168.652 223.903 166.445 225.435C167.328 225.933 170.043 223.012 170.484 223.414L167.376 226.671C168.892 226.853 169.765 224.621 171.415 224.65L167.059 228.845L170.465 227.59L172.346 225.895C172.365 226.422 171.875 227.044 171.549 227.428C168.805 230.665 164.843 232.993 160.909 234.516C152.974 237.571 144.464 238.644 136.098 239.87L134.706 239.564C141.595 239.008 147.745 236.374 154.298 234.583C154.375 234.008 153.675 234.353 153.349 234.41C149.137 235.186 144.963 236.585 140.607 236.757L153.982 233.031C154.059 232.466 153.31 232.753 152.974 232.801C149.319 233.366 145.395 234.861 141.538 234.899L153.042 231.479C153.118 230.924 152.37 231.192 152.034 231.249C148.628 231.786 145.088 233.069 141.538 233.031L152.111 229.928C152.188 229.362 151.439 229.65 151.103 229.698C148.244 230.138 145.174 231.096 142.238 231.412L141.845 230.866C145.107 230.416 148.254 229.343 151.43 228.472C151.67 228.405 152.466 228.452 151.957 228.069C137.431 231.384 122.426 233.271 107.458 232.744C104.474 232.638 101.308 231.93 98.2954 232.112L101.874 232.725L111.507 233.366H126.609L123.337 233.97C117.446 234.123 111.517 234.516 105.597 234.295C102.814 234.19 99.8785 233.433 97.0577 233.663L100.943 234.276L110.883 234.908H126.609L121.476 235.828L106.22 236.154L93.0088 234.899L98.1419 235.828C107.487 236.499 116.947 237.294 126.292 236.451C126.426 237.351 126.11 236.997 125.515 237.064C119.873 237.715 114.318 237.725 108.725 237.677C106.911 237.658 105.079 237.715 103.265 237.696L106.844 238.309L126.59 238.625L123.318 239.238L103.563 239.554C103.486 240.1 104.273 239.842 104.647 239.861C108.6 240.024 112.534 240.052 116.487 240.158C117.225 240.177 117.907 240.483 118.636 240.493C121.293 240.531 123.932 240.34 126.58 240.167C127.069 240.541 126.58 240.732 126.119 240.79C123.356 241.116 120.497 241.135 117.724 241.384L117.552 242.342L114.913 241.403L115.997 242.332C113.982 242.275 111.939 242.409 109.924 242.351C103.505 242.15 96.4628 241.01 90.6869 240.445C86.5325 240.043 82.1574 239.066 78.1086 238.089C75.0767 237.351 72.0736 236.077 69.0322 235.656C93.2774 243.836 121.495 245.493 146.508 239.698C152.495 238.309 172.202 232.418 173.574 225.713L173.612 225.751ZM176.414 227.772C176.126 227.514 173.622 228.337 173.929 229.324C175.003 229.535 176.299 229.027 176.414 227.772ZM174.236 230.569L172.758 230.799L170.187 232.734C171.818 232.849 173.267 231.776 174.226 230.569H174.236ZM177.344 230.569C176.011 230.349 174.207 231.384 173.919 232.734C174.389 233.165 177.133 231.297 177.344 230.569ZM173.295 234.286C173.008 233.347 172.355 233.931 171.751 234.142C170.734 234.506 169.199 235.225 168.623 236.144L173.286 234.276L173.295 234.286ZM102.68 238.022C102.114 236.949 100.454 237.514 99.4179 237.399C96.0407 237.035 92.7018 236.364 89.3053 236.163L93.5461 237.045L102.68 238.022ZM168.326 236.776L166.244 237.341L162.415 239.257C164.469 239.257 166.829 238.194 168.326 236.776ZM102.68 239.267L93.9683 238.644L100.656 239.573L102.67 239.267H102.68ZM159.921 240.196L154.011 241.738C155.929 241.671 158.482 241.642 159.921 240.196Z" fill="white"/>
<path d="M57.26 43.2767C57.0586 43.3534 56.598 43.2193 56.3198 43.2767C56.8475 44.2729 55.9936 45.3649 55.2356 46.0354C54.7943 45.566 53.6141 45.0775 53.3743 44.522C53.2304 44.1867 53.5182 43.8514 53.5182 43.5832C53.8636 43.3055 54.1514 43.2001 54.1514 42.6541L55.6961 43.5832C55.2068 42.1369 54.3625 42.0506 55.3891 40.4797C56.6556 41.3322 57.6534 41.5526 57.2505 43.2767H57.26Z" fill="white"/>
<path d="M59.1212 46.0738C58.2865 45.6523 57.5861 44.9818 56.6362 44.8285C56.9433 44.3017 57.116 43.8803 57.2599 43.2768C57.5765 43.1523 57.8451 42.6733 58.2961 42.7116L59.9175 43.8994L59.1308 46.0834L59.1212 46.0738Z" fill="white"/>
<path d="M9.66172 35.5083C9.25876 33.6022 6.78338 32.6922 8.33768 30.3167C8.52957 30.0197 8.3089 29.7611 9.02849 29.9239C10.0455 32.2803 11.571 34.3397 13.394 36.1309C12.6264 34.4642 12.8567 34.4355 14.1711 33.0274L16.8096 36.2746L15.7254 38.2957C15.0538 37.472 14.1232 36.8493 13.394 36.1214C13.9121 37.2421 14.5933 37.8072 15.2073 38.813L14.6317 40.154C13.9217 40.949 12.4633 39.1482 11.8301 38.6022C11.3695 37.6156 11.0817 37.2229 11.5135 36.1214L10.5828 36.744C10.6979 35.4796 9.79605 35.6328 9.64254 35.4987L9.66172 35.5083Z" fill="white"/>
<path d="M4.05851 34.8859C3.69392 33.4395 2.47542 31.1406 2.49461 30.0869C2.49461 29.7134 2.97433 26.7057 3.75149 27.4241L5.30579 32.3954C5.31539 29.3398 2.87839 26.3991 5.15228 23.7075L6.46673 26.3417C5.93903 27.0122 4.88364 28.1904 4.97958 29.0908C4.99877 29.244 6.44754 30.3743 6.73537 31.4663C6.92726 32.2134 6.58186 32.5008 6.55308 33.018C6.15011 33.1521 6.04457 33.1905 5.62241 33.018C6.14052 34.2441 5.68957 35.1732 4.84526 36.1215C4.64377 35.6426 4.34635 35.2978 4.0681 34.8763L4.05851 34.8859Z" fill="white"/>
<path d="M16.0324 244.851C15.5719 244.861 14.0655 245.761 14.3246 244.545C15.1977 244.516 16.09 244.574 16.9727 244.545C17.3468 244.535 18.1336 244.775 18.0568 244.238C16.2051 243.596 14.4109 243.52 12.4632 243.606L14.0175 242.993C9.4026 241.441 2.99348 238.568 0.940259 233.836C-0.0191896 231.623 -0.690804 227.935 1.25688 226.221C0.585263 229.113 0.700397 232.198 2.65767 234.612C3.29091 235.244 3.26213 234.803 2.97429 234.296C2.30268 233.098 1.50633 232.15 1.28566 230.694L1.5639 228.079C1.72701 234.478 8.07856 237.524 13.3076 239.487C24.1781 243.568 36.862 244.516 48.3466 246.125C49.4308 246.279 51.7815 246.47 52.1461 247.035L53.3646 246.71L53.211 247.332L55.082 246.719L54.4583 247.179C54.6214 247.37 54.7366 247.505 54.9956 247.581C57.7492 248.338 61.5199 248.654 64.475 249.296C77.6482 252.189 90.6391 256.164 102.795 261.978C105.261 263.156 108.283 264.583 110.567 266.02C110.884 266.221 111.526 266.662 110.615 266.595C102.44 262.332 93.8149 258.999 85.0743 256.058L84.3164 256.346C92.5197 258.76 100.272 262.467 107.641 266.758C108.303 267.361 107.823 267.323 107.305 267.093C106.412 266.691 105.645 266.03 104.743 265.608C102.085 264.354 99.2358 263.166 96.4438 262.256L104.33 266.652L104.388 267.218L96.2903 263.185H90.5336V262.878H94.8895L92.2414 261.614L84.9304 261.94L91.1477 261.317C88.7874 258.932 84.4411 260.292 81.3613 260.398C79.4424 260.465 77.5043 260.331 75.595 260.378L81.6587 259.765H86.7918C87.5785 259.133 84.1053 258.329 83.8079 258.233L65.0123 258.827L77.3028 257.591H81.4956C81.4093 257.045 80.872 257.045 80.4882 256.882C77.2452 255.484 70.769 256.844 67.0367 256.978C64.8108 257.064 62.5561 256.892 60.3397 256.959L71.076 255.723H75.8924C76.0363 254.88 75.7389 255.177 75.2112 255.014C70.5963 253.539 63.3332 254.947 58.3249 255.11C56.5115 255.168 54.679 255.043 52.8656 255.091L63.6019 253.855L69.3586 253.539L63.8801 252.026C58.6991 252.208 53.5277 252.936 48.3562 253.223C45.8041 253.367 41.1124 253.807 38.7905 253.463C38.5123 253.424 37.8503 253.328 37.9366 252.926L59.7065 251.365L55.1971 250.407C48.03 251.317 40.815 251.413 33.5711 251.365C33.715 250.905 35.183 250.781 35.5956 250.752C36.9292 250.656 38.2916 250.828 39.6348 250.752C43.6261 250.493 47.627 250.1 51.6184 249.823L47.1185 249.181C39.961 249.89 32.6884 249.353 25.4926 249.516C25.4158 248.98 26.2026 249.219 26.5767 249.21C31.8249 249.008 37.0347 248.453 42.2925 248.587L40.2681 247.964H19.8894C19.8222 247.418 20.5898 247.667 20.9736 247.658C24.6674 247.524 28.3517 247.284 32.0168 247.035L28.4573 246.403H16.7808L20.6665 245.8H23.9287L20.6665 244.861C19.1122 244.89 17.5579 244.823 16.0036 244.861L16.0324 244.851Z" fill="white"/>
<path d="M167.078 245.79C167.155 246.326 166.368 246.087 165.994 246.097C160.487 246.298 154.98 246.825 149.501 247.332C145.98 247.399 142.44 247.476 138.919 247.629C127.328 248.137 115.748 248.491 104.071 248.281C103.333 248.271 102.651 247.964 101.922 247.945C98.449 247.869 94.9374 248.156 91.4834 247.802L128.988 247.658C129.727 247.639 130.408 247.342 131.137 247.323C143.131 246.978 155.104 246.298 167.078 245.79Z" fill="white"/>
<path d="M161.792 248.271L157.906 248.884C138.88 250.206 119.893 250.742 100.819 249.976L135.839 249.526L161.801 248.271H161.792Z" fill="white"/>
<path d="M96.4535 257.285C96.5206 257.859 95.8202 257.524 95.5036 257.457C92.7596 256.806 89.5646 255.273 86.7342 254.401C82.7909 253.185 78.7804 252.198 74.8083 251.087L57.874 247.342C71.124 248.855 83.9806 252.754 96.4439 257.285H96.4535Z" fill="white"/>
<path d="M134.102 251.997C134.169 252.543 133.402 252.294 133.018 252.303C129.689 252.447 126.398 252.581 123.059 252.61L117.609 251.987H134.102V251.997Z" fill="white"/>
<path d="M116.678 201.373C116.89 201.958 116.477 202.619 115.901 202.619H111.075L113.416 203.232C114.414 203.347 115.556 203.107 116.525 203.232C117.091 203.308 117.024 203.126 116.986 203.854H110.759V204.161C111.43 203.854 112.447 204.477 112.783 204.477H117.293V205.1H110.135L114.385 206.01L117.6 205.722C117.753 206.651 117.379 206.22 116.842 206.354C114.884 206.833 112.179 206.488 110.135 206.661L112.467 207.284H117.129C117.245 207.284 117.59 206.872 117.907 206.977V207.59C117.513 207.446 116.995 207.906 116.822 207.906H109.818L114.625 208.538L117.907 208.213L116.669 208.835L117.293 209.448L114.491 209.611L117.916 210.071C113.56 210.512 109.329 209.793 105.002 209.458C104.657 209.429 103.553 209.209 103.611 209.764C107.18 210.282 110.692 211.287 114.337 211.01L117.916 211.623C113.033 211.604 107.775 211.536 102.978 210.55C100.224 209.985 95.0525 208.5 92.7115 207.13C91.4354 206.383 89.5261 205.119 89.3054 203.548C91.3203 205.397 93.22 207.303 96.0312 207.877C96.4725 207.964 97.0002 207.657 97.4224 207.753C98.6409 208.031 100.003 208.998 101.433 208.816L95.6186 206.699C95.0909 206.546 91.9439 204.036 92.414 203.538C93.9396 204.774 95.2156 206.517 97.384 206.642C96.6164 205.349 94.7935 204.649 94.899 202.916C95.4747 203.308 95.5226 204.017 96.1271 204.63C96.367 204.87 98.2283 206.115 98.3146 206.019L97.691 204.783C99.5044 204.86 102.997 197.963 103.448 197.954C104.244 198.806 105.223 199.592 106.288 200.08C106.998 200.406 110.001 201.364 110.605 201.364H116.669L116.678 201.373Z" fill="white"/>
<path d="M70.011 219.698C72.6111 221.029 73.6377 221.508 76.5449 222.178C78.5213 222.897 80.3347 223.481 82.3879 223.951C107.525 229.727 136.012 229.152 160.132 219.746L166.455 216.278C161.83 220.406 154.97 222.801 149.031 224.506C129.593 230.081 106.844 229.851 87.0604 226.115C78.3582 224.477 63.3333 220.694 57.9316 213.27C57.7781 213.06 55.7152 209.678 57.0968 210.378C57.3175 210.483 59.4667 213.433 60.2055 214.113C63.0262 216.728 66.509 218.347 70.011 219.698Z" fill="white"/>
<path d="M70.0111 219.698C66.8161 218.069 61.2993 215.129 59.6778 211.853C59.5339 211.575 59.2077 210.876 59.5915 210.694C62.5082 214.755 67.2958 217.14 71.882 218.768L62.8632 212.715L63.0167 212.255C66.4611 215.215 70.8938 217.389 75.3072 218.462L67.5549 213.931C66.7106 213.04 65.4153 212.59 65.0411 211.316C65.8567 211.077 65.588 211.709 65.991 212.054C72.7647 217.839 89.9388 222.504 98.8329 223.692C105.328 224.554 111.987 224.995 118.55 224.975L117.465 225.282C104.206 225.253 90.9367 223.567 78.2623 219.688C77.7634 220.014 78.5022 220.071 78.7229 220.157C82.5415 221.604 85.9475 222.111 89.8141 223.069C90.1883 223.165 91.1765 223.242 91.1669 223.73C87.2716 223.577 83.5585 222.217 79.7783 221.585C79.5288 221.546 78.6845 221.431 79.193 221.862L86.811 224.037C83.4146 223.462 79.8934 222.954 76.5449 222.178C74.3862 221.383 72.1602 220.521 70.0111 219.698Z" fill="white"/>
<path d="M101.433 211.929C97.6142 210.588 93.1912 209.592 89.6028 207.427C89.1903 207.178 85.5828 204.784 86.1872 204.161C88.5379 206.421 90.8501 207.724 93.9587 208.672C98.1899 209.956 104.455 211.613 108.782 212.197C111.92 212.628 115.057 212.581 118.233 212.552C117.206 213.912 114.827 212.887 113.426 212.849C109.252 212.724 105.587 212.667 101.433 211.929C104.964 213.174 108.255 213.816 112.169 214.104C113.954 214.238 116.064 213.883 117.772 214.104C118.223 214.161 118.741 214.343 118.233 214.726C109.78 213.922 100.809 215.014 92.6539 212.466C89.9387 211.613 85.5636 209.851 83.5295 207.906C83.2609 207.648 82.1383 206.671 82.455 206.345C87.8183 211.134 95.3691 211.651 101.922 213.768L104.541 213.491C98.804 212.609 92.9801 211.364 87.8471 208.567C87.4249 208.337 86.3023 207.83 86.3503 207.274C91.09 209.458 96.2806 211.019 101.433 211.939V211.929Z" fill="white"/>
<path d="M118.857 221.249C118.933 221.795 118.147 221.537 117.772 221.556C116.765 221.594 115.652 221.613 114.645 221.565C106.72 221.24 96.9427 219.908 89.2383 218.041C87.2139 217.552 85.2758 216.728 83.2418 216.259C82.7429 216.585 83.4817 216.642 83.7023 216.728C86.3984 217.744 89.2479 218.567 92.0399 219.286C100.992 221.585 110.212 223.261 119.48 223.108C119.557 223.654 118.77 223.395 118.396 223.414C116.813 223.481 114.98 223.491 113.397 223.433C102.479 223.002 81.3517 219.008 72.4 212.801C72.045 212.562 69.6176 210.77 70.011 210.368C71.3446 210.799 72.4672 212.111 73.6377 212.801C75.7965 214.065 79.001 215.272 81.438 215.895C81.6875 215.962 82.4838 216.096 81.9849 215.655C78.5501 214.094 74.9426 212.542 72.1889 209.908C73.3595 209.784 74.6739 211.23 75.8252 211.872C80.6705 214.554 88.845 216.929 94.333 218.242C102.354 220.157 110.615 221.01 118.857 221.249Z" fill="white"/>
<path d="M123.174 199.237C123.424 200.454 127.482 205.234 126.926 206.009L125.083 206.651L126.331 205.569C124.546 205.454 122.762 207.274 120.737 206.967L124.776 204.803L119.49 206.038C119.317 205.147 119.73 205.54 120.171 205.339C121.38 204.774 123.059 204.611 123.846 203.557L119.183 204.793C118.358 204.027 122.109 203.586 121.975 202.935L118.55 203.241L121.351 201.699C112.918 203.385 122.771 199.007 123.184 199.247L123.174 199.237Z" fill="white"/>
<path d="M118.856 219.391C118.933 219.937 118.146 219.678 117.772 219.698C116.765 219.736 115.652 219.755 114.644 219.707C104.676 219.314 91.8 218.041 82.6565 214.056C80.0468 212.916 76.7559 211.364 74.9905 209.132L81.7546 212.782C93.7093 217.054 106.125 219.209 118.856 219.382V219.391Z" fill="white"/>
<path d="M118.857 217.523C118.933 218.069 118.147 217.811 117.772 217.83C115.805 217.906 113.512 217.925 111.546 217.83C101.395 217.332 87.1179 215.952 78.7515 209.889L77.1685 208.213L83.9326 211.862C95.0814 215.809 107.046 217.379 118.857 217.533V217.523Z" fill="white"/>
<path d="M102.987 222.495C103.045 223.031 101.913 222.839 101.577 222.811C91.9633 222.198 80.565 219.784 72.2945 214.774C71.8532 214.506 67.1135 211.757 67.8427 210.99C69.3586 212.513 71.1048 213.433 73.0141 214.362C82.1577 218.778 92.8651 221.642 102.987 222.485V222.495Z" fill="white"/>
<path d="M118.54 215.971C118.617 216.517 117.83 216.259 117.456 216.278C113.129 216.46 108.408 216.048 104.081 215.655C95.5325 214.87 86.1107 213.692 79.6536 207.59C81.5053 208.443 83.0404 209.726 84.9497 210.531C92.6349 213.788 102.306 214.879 110.615 215.655C113.234 215.904 115.911 215.981 118.55 215.971H118.54Z" fill="white"/>
<path d="M81.5244 194.228L72.0354 197.015C67.8043 198.509 61.4239 201.192 58.6895 204.812C57.8356 205.943 57.5382 207.217 56.6459 208.203C56.4156 203.059 62.6328 199.956 66.7009 198.213C71.2871 196.239 76.6216 194.927 81.534 194.228H81.5244Z" fill="white"/>
<path d="M85.5636 195.157L71.4981 198.969C66.7872 200.808 59.6681 203.136 59.4282 209.132C58.1521 208.519 59.1404 206.479 59.6776 205.492C61.6349 201.9 68.754 199.4 72.5726 198.174C76.7175 196.843 81.2461 195.76 85.5636 195.157Z" fill="white"/>
<path d="M150.586 196.718C150.672 197.245 149.837 197.054 149.53 196.996C146.393 196.469 143.035 194.946 139.763 194.63L122.906 192.053C132.289 192.504 141.567 194.18 150.595 196.709L150.586 196.718Z" fill="white"/>
<path d="M146.853 197.025C146.92 197.6 146.201 197.283 145.856 197.245C142.075 196.833 138.036 195.291 134.16 194.937L123.52 193.605C131.397 193.672 139.168 195.435 146.853 197.025Z" fill="white"/>
<path d="M93.3448 195.78L77.4851 198.883C77.5619 198.385 78.7036 198.356 79.1641 198.232C83.7503 196.996 88.6051 196.144 93.3448 195.78Z" fill="white"/>
<path d="M143.745 197.647L142.737 197.877L130.063 195.473C134.688 195.732 139.235 196.699 143.745 197.647Z" fill="white"/>
<path d="M129.276 223.73C129.708 223.711 131.502 222.83 131.915 223.73L121.342 224.353L123.673 223.73C125.534 223.663 127.415 223.826 129.276 223.73Z" fill="white"/>
<path d="M133.162 225.292L128.96 225.905L123.212 226.211C123.356 225.742 124.815 225.636 125.237 225.598C127.837 225.378 130.552 225.33 133.162 225.292Z" fill="white"/>
<path d="M123.145 221.355C123.145 221.355 123.213 221.824 123.424 221.872C124.719 222.15 126.686 220.742 127.568 222.178C125.419 221.556 122.55 222.926 120.728 221.249C121.428 221.412 122.55 221.24 123.145 221.345V221.355Z" fill="white"/>
<path d="M11.2159 30.8531L12.4536 30.2305C13.0868 31.4661 14.5548 32.9604 12.7798 34.1194C11.8875 34.6941 11.2255 32.2516 10.8705 31.7343C9.5177 29.7419 8.43352 29.9239 9.97823 27.127C10.3908 27.3473 11.734 29.2343 11.7436 29.4642C11.7724 29.8569 11.0432 30.2975 11.2255 30.8531H11.2159Z" fill="white"/>
<path d="M45.1228 20.9104C43.7892 24.579 41.2274 23.3626 38.2819 22.4622C37.8406 21.8779 40.0089 20.9104 40.3064 20.9104H45.1324H45.1228Z" fill="white"/>
<path d="M24.2742 14.3875C24.3414 15.3932 25.4351 16.0829 25.013 17.0982C24.9074 17.3569 22.3649 19.5504 22.1058 19.3588L21.2231 16.763L24.2838 14.3875H24.2742Z" fill="white"/>
<path d="M37.6583 25.8819C38.1188 26.4087 36.2575 28.1138 35.9505 28.631L33.312 27.2325L35.0006 24.6846L37.6487 25.8723L37.6583 25.8819Z" fill="white"/>
<path d="M15.8885 30.8533C16.5409 30.4031 18.2775 33.4587 18.9779 33.8035L17.2797 35.815L14.9866 32.7978L15.8789 30.8629L15.8885 30.8533Z" fill="white"/>
<path d="M46.6773 20.9104C45.8714 20.9487 44.9887 20.6997 44.2691 20.3836C43.847 20.2016 43.8757 19.7418 43.8374 19.7227C43.3768 19.5502 41.6114 20.5464 41.0837 18.4295C43.0794 17.9027 47.4833 17.874 46.6773 20.9104Z" fill="white"/>
<path d="M18.997 21.5329L18.1047 18.9371L20.5513 16.8777L21.7123 19.8279C21.4244 20.4218 19.5055 21.8874 19.0066 21.5329H18.997Z" fill="white"/>
<path d="M22.0962 20.604L23.3339 23.8225L21.3286 25.2593L19.688 22.309L22.0962 20.604Z" fill="white"/>
<path d="M17.1261 36.7537L20.2251 39.7039L18.8243 41.4089L15.9556 38.7748L17.1261 36.7537Z" fill="white"/>
<path d="M31.7098 27.1655L30.6352 29.6272L27.4019 26.9739L29.3687 25.6233L31.7098 27.1655Z" fill="white"/>
<path d="M19.3042 27.7498L21.2807 26.5237L23.3243 29.1004L21.6357 30.8437C21.1752 30.451 19.0356 28.1233 19.3042 27.7498Z" fill="white"/>
<path d="M31.633 22.7974L33.9165 24.1959C34.1084 24.8185 32.6884 26.2744 32.2183 26.763L29.906 24.761L31.633 22.8069V22.7974Z" fill="white"/>
<path d="M18.9874 28.6787L20.868 31.3224L19.4096 32.9987L16.8191 30.3837L18.9874 28.6787Z" fill="white"/>
<path d="M33.9262 32.0983L32.1896 34.5792L29.5703 33.1616L30.9999 30.8818L33.9262 32.0983Z" fill="white"/>
<path d="M34.5018 31.4374L31.5659 30.2401C31.8633 27.1078 33.8494 28.037 35.7875 29.4642L34.5018 31.447V31.4374Z" fill="white"/>
<path d="M19.1507 34.5793L21.7604 36.6292L20.3884 38.9185L17.7595 36.2844L19.1507 34.5793Z" fill="white"/>
<path d="M41.3907 33.9567L39.5389 36.6004L36.4111 36.1311L38.1861 33.6885L41.3907 33.9567Z" fill="white"/>
<path d="M15.2744 20.9391L17.4332 19.3586L18.6325 22.2706L16.6656 24.0235L15.2744 20.9391Z" fill="white"/>
<path d="M30.5009 37.6828L27.7089 36.4376C27.4499 36.0736 28.985 33.9854 29.4168 33.6501L31.7482 35.3552L30.5009 37.6828Z" fill="white"/>
<path d="M44.8159 27.4335C44.2114 30.1059 43.1656 30.7765 40.46 29.9144C41.2275 27.3377 42.2445 27.1749 44.8159 27.4335Z" fill="white"/>
<path d="M37.3417 33.0275C36.6413 35.5659 35.2884 36.61 32.9954 34.7325L34.732 32.4241L37.3417 33.0275Z" fill="white"/>
<path d="M19.2946 23.0847L20.849 25.7284L18.8341 27.4335L17.1167 24.7801L19.2946 23.0847Z" fill="white"/>
<path d="M41.0739 26.811L39.7883 29.5601C38.7041 29.8474 37.7446 29.1578 36.718 28.9854L38.4834 26.5332L41.0739 26.811Z" fill="white"/>
<path d="M29.8676 38.0084C30.3185 38.6501 28.6875 40.0199 28.1789 40.3935L25.8379 39.2344L27.1044 36.7727L29.8676 38.0179V38.0084Z" fill="white"/>
<path d="M30.7695 21.8874C31.2876 22.7974 29.3591 23.8415 28.793 24.2725L26.7974 22.0024L28.3325 20.2974L30.7695 21.8874Z" fill="white"/>
<path d="M39.2128 37.0696L37.3611 39.7038L34.5403 39.2344C34.2333 38.9279 35.7108 37.1367 35.9986 36.7344L39.2032 37.0696H39.2128Z" fill="white"/>
<path d="M29.1001 15.3262L30.8079 17.6538L28.486 19.3588L26.8262 17.0216L29.1001 15.3262Z" fill="white"/>
<path d="M42.945 30.8532L41.9664 33.2862L38.5891 33.0275L39.8844 30.585L42.945 30.8532Z" fill="white"/>
<path d="M19.6111 13.7646L20.2156 16.0635C19.6399 16.4467 18.0472 18.2188 17.4428 17.7973C16.2051 15.4505 17.3276 14.3394 19.6111 13.7646Z" fill="white"/>
<path d="M27.6993 12.5291L28.6108 14.5502L25.9915 16.5617L24.9265 13.9754L27.6993 12.5291Z" fill="white"/>
<path d="M24.8881 38.9567L23.5065 41.3993C22.8732 41.0544 21.1462 39.7613 21.1558 39.0908L22.2592 37.3762L24.8785 38.9567H24.8881Z" fill="white"/>
<path d="M23.0172 11.6096L23.5161 13.7744L20.5418 15.3357L20.0525 13.1518C20.5322 12.7111 22.4703 11.2264 23.0172 11.6192V11.6096Z" fill="white"/>
<path d="M23.8135 24.3589L25.8187 26.9356L23.8327 28.3628L22.144 25.767L23.8135 24.3589Z" fill="white"/>
<path d="M21.3765 32.1271C22.2976 31.8781 22.9308 33.6501 23.6312 34.1578L22.2688 36.1023C21.9426 36.1023 20.0045 34.062 19.9949 33.813C19.9949 33.6693 21.0791 32.2133 21.3765 32.1271Z" fill="white"/>
<path d="M39.8364 23.4009C39.9611 23.8607 39.8364 23.7936 39.6445 24.014C39.395 24.3013 38.2725 25.4699 38.0614 25.5274L35.4805 24.6366C36.3056 21.4948 37.5817 22.7879 39.8364 23.4009Z" fill="white"/>
<path d="M16.349 25.2688L18.3159 27.9029L16.349 29.608L14.9482 26.9642L16.349 25.2688Z" fill="white"/>
<path d="M37.0347 40.1731L35.2694 42.6253L32.3718 42.0314C33.3792 39.6272 34.7033 39.6367 37.0347 40.1731Z" fill="white"/>
<path d="M32.5924 35.8628C33.3408 35.6329 34.6169 36.0161 35.1733 36.6004L33.7438 38.8897L31.1245 37.836C31.0573 37.52 32.1799 35.9969 32.5924 35.8724V35.8628Z" fill="white"/>
<path d="M25.838 21.2264C25.7325 21.3031 25.0608 23.1901 24.159 23.0751C22.4415 21.418 21.674 19.5214 24.5907 18.7456C24.514 19.7513 24.8785 20.7762 25.838 21.2264C25.7708 20.0866 24.2933 19.0808 25.1856 17.9409C25.8956 16.3988 28.0447 19.4831 27.9872 19.7801C27.8145 20.7954 26.0683 21.0444 25.8284 21.2169L25.838 21.2264Z" fill="white"/>
<path d="M26.0298 22.4909C26.6822 22.376 27.6512 24.445 28.3133 24.8186L26.615 26.4948L24.6194 24.1289L26.0394 22.4909H26.0298Z" fill="white"/>
<path d="M39.2126 30.2305L37.9366 32.6922L35.1637 32.0887C34.8375 31.6194 35.9985 30.1347 36.411 29.7419L39.2126 30.2305Z" fill="white"/>
<path d="M28.3805 41.4568L31.4315 42.5009L29.6661 44.4837L27.0852 43.1235L28.3805 41.4568Z" fill="white"/>
<path d="M30.6929 38.6694L33.3026 39.7135L31.873 41.6867L28.9563 40.6331L30.6929 38.6694Z" fill="white"/>
<path d="M26.7688 36.1406L25.061 38.6119L22.7295 36.6004L24.4373 34.5889L26.7688 36.1406Z" fill="white"/>
<path d="M16.186 16.2551L16.9631 18.7456L14.6413 20.2878L13.7874 18.2667L16.186 16.2551Z" fill="white"/>
<path d="M14.4782 22.1653L16.1572 24.7515C16.09 25.1634 14.6317 26.2746 14.1999 26.1692L12.8567 23.8607L14.4782 22.1653Z" fill="white"/>
<path d="M12.4538 24.0234C12.8088 26.2074 15.0922 27.2227 11.9932 28.6787C10.5061 26.9641 10.6212 25.3932 12.4538 24.0234Z" fill="white"/>
<path d="M13.864 27.7497C14.6124 27.5677 15.3607 29.6559 15.8404 30.1348L14.4588 31.7728L12.5208 29.4547L13.864 27.7497Z" fill="white"/>
<path d="M33.8303 20.6326L36.4016 22.0023L34.6362 23.669C33.8399 23.8702 32.8133 22.8836 32.3911 22.2705L33.8303 20.6421V20.6326Z" fill="white"/>
<path d="M24.2741 29.6079L25.7996 31.3129L24.5811 33.6501L22.1057 31.3225L24.2741 29.6079Z" fill="white"/>
<path d="M25.4254 39.8858C25.8763 39.7613 28.0063 41.1119 28.0063 41.2555L26.2985 43.2479L23.967 41.5716L25.4158 39.8858H25.4254Z" fill="white"/>
<path d="M46.946 16.6095L46.9843 18.123C45.9673 18.3624 45.3149 17.6057 44.509 17.3375C43.3672 16.9544 42.1103 17.5866 42.0144 15.6421L46.946 16.6191V16.6095Z" fill="white"/>
<path d="M31.9594 14.1191L32.3719 14.2149L33.6096 16.0828L31.5852 17.443L29.887 15.1632L31.9594 14.1191Z" fill="white"/>
<path d="M28.2847 33.0657C28.6588 33.7075 27.2964 34.9623 26.9031 35.5083L24.917 34.0811L26.6152 31.7917L28.2847 33.0657Z" fill="white"/>
<path d="M42.945 24.0236C42.1487 26.265 41.1605 27.4432 38.9058 25.7286C39.7789 23.7937 41.0357 23.8895 42.945 24.0236Z" fill="white"/>
<path d="M16.1956 14.3873L15.9365 11.9543L18.2104 10.6516C19.995 12.4524 17.8074 13.6402 16.1956 14.3777V14.3873Z" fill="white"/>
<path d="M46.3703 24.646L45.1422 26.9832L42.0144 26.8204C42.8779 24.7131 44.2115 24.3874 46.3703 24.6556V24.646Z" fill="white"/>
<path d="M33.3024 19.6748L33.1009 20.3166L31.278 21.5426L29.5894 20.0963C30.9326 17.874 31.5083 18.5158 33.3024 19.6748Z" fill="white"/>
<path d="M12.1467 22.7782C11.312 20.8242 11.4751 20.259 12.9238 18.7456L14.2383 21.0732C13.5571 21.7725 13.2884 23.0081 12.1563 22.7782H12.1467Z" fill="white"/>
<path d="M28.016 28.9854L30.1843 30.4126L28.7931 32.7115L27.1333 31.2747L28.016 28.9854Z" fill="white"/>
<path d="M32.0552 13.4582L29.4071 14.349L28.3325 12.395L30.6256 11.303L32.0552 13.4582Z" fill="white"/>
<path d="M26.4232 10.0674L26.9508 11.9161L24.2836 13.1517L23.7847 10.9678L26.4232 10.0674Z" fill="white"/>
<path d="M13.394 16.8779C12.5497 14.5502 13.1062 14.397 14.7948 12.8452C16.234 14.579 15.2841 16.2648 13.394 16.8779Z" fill="white"/>
<path d="M9.65218 18.123C10.4773 20.0963 10.4773 21.0829 8.72152 22.4718C8.00193 20.489 7.23437 19.2054 9.65218 18.123Z" fill="white"/>
<path d="M6.86002 20.604C8.29919 21.9738 8.4623 23.8512 7.01353 25.2593C5.36328 23.5255 5.97733 22.4431 6.86002 20.604Z" fill="white"/>
<path d="M12.1468 15.6326C12.7224 17.4142 13.1446 18.4966 11.0626 19.3587C9.70977 17.9027 10.2567 16.1211 12.1468 15.6326Z" fill="white"/>
<path d="M9.0284 24.3301C9.70961 25.8818 10.5731 27.5964 8.41435 28.3627C7.60841 26.8014 6.88883 25.1443 9.0284 24.3301Z" fill="white"/>
<path d="M7.47421 31.4758C6.21733 30.3072 5.16194 28.4969 6.70665 27.1271C7.33029 27.0313 8.32812 29.2057 8.30893 29.4547C8.28974 29.8091 7.21516 30.7191 7.47421 31.4758Z" fill="white"/>
<path d="M38.9057 20.5943C37.1308 21.782 36.3056 21.8778 34.8665 20.1345C36.3344 18.4678 37.6585 19.0521 38.9057 20.5943Z" fill="white"/>
<path d="M37.0347 15.3165L34.5306 15.7954L33.3025 13.7743L35.8067 13.3049L37.0347 15.3165Z" fill="white"/>
<path d="M22.0962 8.80303L22.3936 10.6421L19.6112 11.9065L19.4385 10.0483C20.254 9.52143 21.0504 8.71682 22.0962 8.80303Z" fill="white"/>
<path d="M10.2854 21.533C12.4346 22.3184 11.7918 24.2629 10.4389 25.5656C8.85585 23.9276 9.52746 23.2667 10.2854 21.533Z" fill="white"/>
<path d="M35.7875 18.7361L33.9069 19.5407L32.3718 17.9698C33.859 16.4851 35.1734 16.7533 35.7971 18.7361H35.7875Z" fill="white"/>
<path d="M26.3753 27.7879C26.6344 27.7496 26.8646 27.7017 27.0853 27.8837L27.661 28.8895L26.3082 30.8435L24.6003 29.1385C25.0417 28.6883 25.7325 27.8741 26.3753 27.7784V27.7879Z" fill="white"/>
<path d="M29.8676 8.8125L30.5009 10.6612L27.7089 11.2838L27.4019 9.43512L29.8676 8.8125Z" fill="white"/>
<path d="M35.1734 12.5292L32.9091 12.7974C32.4389 12.7112 31.4987 11.2073 31.7577 10.9774L34.5401 10.6709L35.1734 12.5292Z" fill="white"/>
<path d="M40.1432 15.0099C38.3683 15.2589 37.3704 14.8375 36.718 13.1516L39.5196 13.3049L40.1337 15.0099H40.1432Z" fill="white"/>
<path d="M38.9056 17.8068C37.265 18.3911 35.9697 18.0367 35.49 16.2551L37.7735 15.9773L38.9056 17.8068Z" fill="white"/>
<path d="M14.6316 10.0481C15.5143 11.1976 12.9622 13.5252 12.4537 13.1516C11.3599 12.3374 13.3939 9.76076 14.6316 10.0481Z" fill="white"/>
<path d="M42.3214 17.4909C40.8726 17.625 38.8194 17.4909 38.8961 15.6326C40.6711 15.3836 41.6689 15.805 42.3214 17.4909Z" fill="white"/>
<path d="M38.2342 10.4026L38.9058 11.9065C37.2363 12.3184 35.6245 12.6345 35.7972 10.3547L38.2438 10.4026H38.2342Z" fill="white"/>
<path d="M23.0363 9.7321L22.7197 8.18034L25.2239 7.37573L25.7036 8.81254L23.0363 9.7321Z" fill="white"/>
<path d="M17.7402 7.86426C18.5365 9.72253 16.9151 10.0961 15.5718 10.9678L15.2744 9.12865L17.7402 7.86426Z" fill="white"/>
<path d="M21.4821 6.3125C22.4799 7.347 18.124 10.5176 18.7285 7.27995L21.4821 6.3125Z" fill="white"/>
<path d="M33.9261 9.732L31.1437 10.0194L30.8079 8.48677L33.0914 8.20898L33.9261 9.732Z" fill="white"/>
<path d="M9.66167 15.9391C9.10519 14.0712 9.75761 13.7072 11.0625 12.5291C12.4153 13.8413 10.7554 15.1824 9.66167 15.9391Z" fill="white"/>
<path d="M38.4738 18.4678C39.9034 18.0751 40.5463 18.8893 41.381 19.828C41.074 20.259 40.8149 20.3261 40.2968 20.3165C39.4717 20.3069 37.217 18.8126 38.4738 18.4678Z" fill="white"/>
<path d="M7.16703 18.4296C6.66811 16.9162 7.55081 15.9391 8.72134 15.01C9.16268 16.6767 9.03795 17.9124 7.16703 18.4296Z" fill="white"/>
<path d="M6.54347 17.8069C6.8313 19.1863 6.81211 19.6748 5.99658 20.8147C5.81428 21.0733 6.05415 21.399 5.30578 21.217C4.89321 19.8376 4.80686 18.123 6.54347 17.7974V17.8069Z" fill="white"/>
<path d="M24.8977 5.06714L25.2143 6.31237L22.4127 7.24151L22.3936 5.85259L24.8977 5.06714Z" fill="white"/>
<path d="M43.5686 14.6938C42.2349 14.8375 40.6998 14.7705 40.46 13.1421L42.9641 13.2858L43.5686 14.6938Z" fill="white"/>
<path d="M29.2633 7.86415L26.7688 8.48676L26.4521 6.93501L28.7452 6.65723L29.1194 6.92543L29.2633 7.86415Z" fill="white"/>
<path d="M42.3213 11.9064C40.8437 11.9543 39.3374 12.2896 39.2126 10.3547C40.6326 10.2206 41.8511 10.4026 42.3213 11.9064Z" fill="white"/>
<path d="M46.2839 14.1671C46.4662 14.3779 47.0706 15.8147 46.2359 15.6135C45.2668 15.3836 43.6358 14.6748 43.8852 13.4583C44.1251 13.2189 46.0056 13.8415 46.2839 14.1671Z" fill="white"/>
<path d="M14.0081 7.55762C14.4494 9.01358 13.0678 9.84693 11.8301 10.3546C11.3888 8.89864 12.7704 8.06529 14.0081 7.55762Z" fill="white"/>
<path d="M18.3736 6.00595C17.7979 4.81819 20.9641 3.51548 21.1656 4.61703C21.3191 5.4408 18.978 6.05384 18.3736 6.00595Z" fill="white"/>
<path d="M32.6788 6.00586V7.24151L30.1938 7.55761L30.4817 6.13996L32.6788 6.00586Z" fill="white"/>
<path d="M46.0536 12.8356C44.931 12.6344 42.7051 12.5961 42.9449 10.9773C44.2498 11.0731 45.6506 11.4754 46.0536 12.8356Z" fill="white"/>
<path d="M17.4332 5.69939C17.8554 7.10746 16.1188 7.77797 14.9483 7.87375C14.3822 6.79136 17.2221 5.45992 17.4332 5.69939Z" fill="white"/>
<path d="M37.6584 9.41588C36.5455 9.4063 34.6745 9.83734 34.5498 8.18022C35.9602 8.18022 37.2171 7.74918 37.6584 9.41588Z" fill="white"/>
<path d="M28.6396 4.4541L28.4573 5.41197C27.7953 5.45029 26.2026 6.44647 25.838 5.5365C25.3583 4.32 28.0064 4.47326 28.6396 4.4541Z" fill="white"/>
<path d="M10.8995 10.0386C11.3312 11.6861 10.0935 11.8873 9.03815 12.8356C8.7791 11.5807 9.59463 10.2972 10.8995 10.0386Z" fill="white"/>
<path d="M41.0741 8.49652V9.41607C39.7116 9.47355 38.6946 9.70344 38.2725 8.18042L41.0741 8.49652Z" fill="white"/>
<path d="M23.2666 3.27599C26.8646 2.80664 21.3381 5.96761 21.7891 3.9944C22.1249 3.59209 22.7677 3.34304 23.2666 3.27599Z" fill="white"/>
<path d="M78.2549 52.0056L77.8894 52.7012L111.034 70.0592L111.4 69.3636L78.2549 52.0056Z" fill="white"/>
<path d="M80.0989 35.9066L79.7312 36.5684L94.4723 44.7327L94.84 44.071L80.0989 35.9066Z" fill="white"/>
<path d="M93.3448 58.4876C88.5091 56.1983 83.4241 54.1102 79.0298 51.0354L80.373 51.3994C84.1149 53.9761 88.5379 55.4129 92.4141 57.7118C92.7499 57.9129 93.268 58.0279 93.3448 58.4876Z" fill="white"/>
<path d="M87.7417 42.0314C85.2184 41.1119 82.6854 39.6751 80.5842 37.9988C83.0788 39.0524 85.5734 40.4701 87.7417 42.0314Z" fill="white"/>
<path d="M229.299 147.943L229.884 150.309C229.788 166.153 217.661 177.312 203.557 182.341C203.135 182.494 198.51 184.141 198.5 183.509C204.986 181.469 211.405 178.289 216.836 174.17C222.468 169.888 229.308 160.75 229.308 153.384V147.953L229.299 147.943Z" fill="white"/>
<path d="M223.696 172.8C224.06 173.155 221.431 175.865 221.057 176.22C211.415 185.463 196.572 188.605 183.562 188.634L195.708 187.254C207.078 185.051 213.976 180.578 222.611 173.423C222.957 173.135 223.11 172.666 223.696 172.8Z" fill="white"/>
<path d="M224.012 170.31C218.073 178.126 208.124 183.452 198.5 185.214L205.965 182.57C212.959 179.591 217.277 175.655 222.928 170.923C223.273 170.626 223.437 170.166 224.022 170.31H224.012Z" fill="white"/>
<path d="M182.324 188.327L178.745 188.768C171.809 188.548 164.833 188.193 158.002 186.986C157.417 186.881 155.92 187.015 156.198 186.153L169.113 188.011L182.334 188.327H182.324Z" fill="white"/>
<path d="M153.387 185.53L151.056 185.837L139.072 183.979C143.889 183.873 148.59 185.425 153.378 185.53H153.387Z" fill="white"/>
<path d="M137.429 67.7394L137.05 68.4275L156.928 79.3514L157.308 78.6633L137.429 67.7394Z" fill="white"/>
<path d="M158.367 89.5611C158.626 90.8064 156.832 89.8293 156.294 89.609C152.572 88.086 147.199 85.5189 143.745 83.4978C143.342 83.2583 142.958 83.5553 143.131 82.7219L158.367 89.5611Z" fill="white"/>
<path d="M115.132 76.2013L114.792 76.9094L137.497 87.7897L137.838 87.0816L115.132 76.2013Z" fill="white"/>
<path d="M117.172 74.1093L116.93 74.6096L125.147 78.57L125.389 78.0697L117.172 74.1093Z" fill="white"/>
<path d="M183.878 97.9425C183.917 98.5938 183.005 98.1245 182.727 98.0095C181.192 97.3869 179.283 96.1896 177.978 95.1455L183.888 97.9425H183.878Z" fill="white"/>
<path d="M62.5465 28.9854C60.9154 29.6846 60.5412 24.9431 60.7619 24.6941C60.8866 24.5504 61.3568 24.7611 61.3088 24.4834C60.6276 23.765 59.7065 22.922 59.7545 21.8396C60.1575 21.399 61.4623 23.2477 61.5583 23.6309C61.7214 24.2822 61.3855 24.8186 61.4719 25.2976C61.6734 26.4757 62.7672 27.6348 62.5465 28.9758V28.9854Z" fill="white"/>
<path d="M59.9847 33.4011C60.2342 33.8321 60.1286 36.1406 59.5913 36.1214C57.8739 34.8762 57.9219 34.8475 58.1905 32.7114C58.3728 32.5103 59.8696 33.1999 59.9847 33.4011Z" fill="white"/>
<path d="M62.4505 33.1138C63.0646 33.8706 62.9015 36.1407 62.086 35.815C60.2438 34.9242 60.7907 31.0927 62.4505 33.1138Z" fill="white"/>
<path d="M60.3686 32.7114L58.6416 31.7726L58.8143 29.2917C60.5893 29.5695 60.4646 31.2745 60.3686 32.7018V32.7114Z" fill="white"/>
<path d="M62.8534 32.405C61.4143 31.9548 60.9345 30.7383 60.9921 29.3015C62.7479 29.6751 63.007 30.7287 62.8534 32.405Z" fill="white"/>
<path d="M59.7257 26.2074L60.3685 28.9852C58.6127 29.1097 58.7279 27.5293 58.8142 26.1882L59.7257 26.2074Z" fill="white"/>
<path d="M102.21 133.978C103.39 134.916 105.674 135.213 106.816 135.893C107.842 136.497 107.362 137.464 106.278 137.388C105.472 137.33 100.33 135.146 102.201 133.978H102.21Z" fill="white"/>
<path d="M107.343 135.213C106.825 135.721 101.5 133.853 102.057 132.11C102.248 131.918 106.815 133.968 107.017 134.14C107.449 134.495 107.372 134.706 107.343 135.213Z" fill="white"/>
<path d="M107.343 121.544C106.854 122.033 102.853 119.887 102.738 119.169L102.997 118.125C103.784 119.111 106.422 119.533 107.046 120.136C107.353 120.433 107.497 121.391 107.343 121.544Z" fill="white"/>
<path d="M107.305 122.521L107.353 123.719C106.969 124.121 102.939 122.119 102.757 121.793C102.575 121.468 102.719 120.989 102.69 120.615L107.314 122.521H107.305Z" fill="white"/>
<path d="M107.343 127.761C105.271 128.144 104.062 126.564 102.498 125.587L102.68 124.657L107.017 126.688L107.334 127.761H107.343Z" fill="white"/>
<path d="M107.343 124.658C107.43 125.165 107.324 125.912 106.624 125.855C105.99 125.797 101.807 123.69 102.68 122.799L107.343 124.667V124.658Z" fill="white"/>
<path d="M107.343 133.039C105.587 133.144 103.88 132.186 102.45 131.257C102.009 130.97 101.778 130.539 102.057 130.251C102.287 130.012 106.058 131.803 106.576 132.1C106.998 132.34 107.478 132.359 107.343 133.039Z" fill="white"/>
<path d="M106.105 129.619C105.472 129.227 102.095 127.819 102.066 127.292C102.009 126.056 105.146 128.068 105.491 128.221C106.086 128.48 106.7 128.681 107.353 128.7V129.629C106.94 129.629 106.518 129.658 106.105 129.629C106.892 130.118 107.593 130.223 107.353 131.181C106.835 131.698 103.313 129.916 102.757 129.418C102.335 129.035 102.258 129.16 102.383 128.393C103.621 128.834 104.762 129.543 106.115 129.639L106.105 129.619Z" fill="white"/>
<path d="M107.66 155.089H107.007V189.879H107.66V155.089Z" fill="white"/>
<path d="M81.5244 250.33C81.5244 250.33 117.101 258.941 133.172 274.095C152.466 292.294 154.02 315.283 154.02 315.283" stroke="white" stroke-miterlimit="10"/>
<path d="M76.0076 254.018C76.0076 254.018 111.584 262.629 127.655 277.783C146.949 295.982 148.504 318.971 148.504 318.971" stroke="white" stroke-miterlimit="10"/>
<path d="M101.375 264.037C101.375 264.037 114.52 265.714 129.516 281.921C144.512 298.128 146.23 318.971 146.23 318.971" stroke="white" stroke-width="0.5" stroke-miterlimit="10"/>
</g>
<defs>
<clipPath id="clip0_775_4910">
<rect width="234" height="319" fill="white"/>
</clipPath>
</defs>
</svg>
