<svg width="48" height="48" viewBox="0 0 48 48" fill="none" xmlns="http://www.w3.org/2000/svg">
<mask id="mask0_197_164" style="mask-type:alpha" maskUnits="userSpaceOnUse" x="0" y="0" width="48" height="48">
<rect width="48" height="48" fill="#D9D9D9"/>
</mask>
<g mask="url(#mask0_197_164)">
<path d="M24.019 43L6.98098 26.2L16.3845 14.7695H31.6345L41.0385 26.2L24.019 43ZM10.0345 14.25L5.93848 10.173L8.07698 8.0655L12.173 12.1425L10.0345 14.25ZM22.5195 10.7695V5H25.519V10.7695H22.5195ZM37.904 14.25L35.7845 12.1115L39.8615 8.0345L42 10.173L37.904 14.25ZM24.019 38.804L35.4425 27.5385H12.577L24.019 38.804ZM17.804 17.769L12.2 24.5385H35.8195L30.2155 17.769H17.804Z" fill="#474A51"/>
</g>
</svg>
