<svg width="24" height="24" viewBox="0 0 24 24" fill="none" xmlns="http://www.w3.org/2000/svg">
<mask id="mask0_165_176" style="mask-type:alpha" maskUnits="userSpaceOnUse" x="0" y="0" width="24" height="24">
<rect width="24" height="24" fill="#D9D9D9"/>
</mask>
<g mask="url(#mask0_165_176)">
<path d="M12 21.5C10.6872 21.5 9.45292 21.2503 8.29725 20.751C7.14142 20.2517 6.13592 19.5744 5.28075 18.7193C4.42558 17.8641 3.74833 16.8586 3.249 15.7028C2.74967 14.5471 2.5 13.3128 2.5 12C2.5 10.6872 2.74967 9.45292 3.249 8.29725C3.74833 7.14142 4.42558 6.13592 5.28075 5.28075C6.13592 4.42558 7.14142 3.74833 8.29725 3.249C9.45292 2.74967 10.6872 2.5 12 2.5C13.3128 2.5 14.5471 2.74967 15.7028 3.249C16.8586 3.74833 17.8641 4.42558 18.7193 5.28075C19.5744 6.13592 20.2517 7.14142 20.751 8.29725C21.2503 9.45292 21.5 10.6872 21.5 12V13.2192C21.5 14.1321 21.1865 14.9071 20.5595 15.5443C19.9327 16.1814 19.1628 16.5 18.25 16.5C17.6602 16.5 17.1133 16.3558 16.6095 16.0673C16.1057 15.7788 15.7076 15.3819 15.4152 14.8767C14.9832 15.3923 14.4727 15.7917 13.8837 16.075C13.2946 16.3583 12.6667 16.5 12 16.5C10.7513 16.5 9.68917 16.0622 8.8135 15.1865C7.93783 14.3108 7.5 13.2487 7.5 12C7.5 10.7513 7.93783 9.68917 8.8135 8.8135C9.68917 7.93783 10.7513 7.5 12 7.5C13.2487 7.5 14.3108 7.93783 15.1865 8.8135C16.0622 9.68917 16.5 10.7513 16.5 12V13.2192C16.5 13.7102 16.6689 14.1298 17.0068 14.478C17.3446 14.826 17.759 15 18.25 15C18.741 15 19.1554 14.826 19.4932 14.478C19.8311 14.1298 20 13.7102 20 13.2192V12C20 9.76667 19.225 7.875 17.675 6.325C16.125 4.775 14.2333 4 12 4C9.76667 4 7.875 4.775 6.325 6.325C4.775 7.875 4 9.76667 4 12C4 14.2333 4.775 16.125 6.325 17.675C7.875 19.225 9.76667 20 12 20H17V21.5H12ZM14.125 14.125C14.7083 13.5417 15 12.8333 15 12C15 11.1667 14.7083 10.4583 14.125 9.875C13.5417 9.29167 12.8333 9 12 9C11.1667 9 10.4583 9.29167 9.875 9.875C9.29167 10.4583 9 11.1667 9 12C9 12.8333 9.29167 13.5417 9.875 14.125C10.4583 14.7083 11.1667 15 12 15C12.8333 15 13.5417 14.7083 14.125 14.125Z" fill="white"/>
</g>
</svg>
