<svg width="48" height="48" viewBox="0 0 48 48" fill="none" xmlns="http://www.w3.org/2000/svg">
<mask id="mask0_315_102" style="mask-type:alpha" maskUnits="userSpaceOnUse" x="0" y="0" width="48" height="48">
<rect width="48" height="48" fill="#D9D9D9"/>
</mask>
<g mask="url(#mask0_315_102)">
<path d="M17.754 41.0002H10C9.16933 41.0002 8.46167 40.7079 7.877 40.1232C7.29233 39.5386 7 38.8309 7 38.0002V30.2462C8.36933 30.0796 9.545 29.5104 10.527 28.5387C11.509 27.5667 12 26.3872 12 25.0002C12 23.6132 11.509 22.4337 10.527 21.4617C9.545 20.4901 8.36933 19.9209 7 19.7542V12.0002C7 11.1696 7.29233 10.4619 7.877 9.87722C8.46167 9.29256 9.16933 9.00022 10 9.00022H18C18.1797 7.72856 18.7367 6.67989 19.671 5.85422C20.6057 5.02856 21.7153 4.61572 23 4.61572C24.2847 4.61572 25.3943 5.02856 26.329 5.85422C27.2633 6.67989 27.8203 7.72856 28 9.00022H36C36.8307 9.00022 37.5383 9.29256 38.123 9.87722C38.7077 10.4619 39 11.1696 39 12.0002V20.0002C40.2717 20.1799 41.3203 20.7369 42.146 21.6712C42.9717 22.6059 43.3845 23.7156 43.3845 25.0002C43.3845 26.2849 42.9717 27.3946 42.146 28.3292C41.3203 29.2636 40.2717 29.8206 39 30.0002V38.0002C39 38.8309 38.7077 39.5386 38.123 40.1232C37.5383 40.7079 36.8307 41.0002 36 41.0002H28.246C28.0667 39.5642 27.4808 38.3719 26.4885 37.4232C25.4962 36.4746 24.3333 36.0002 23 36.0002C21.6667 36.0002 20.5038 36.4746 19.5115 37.4232C18.5192 38.3719 17.9333 39.5642 17.754 41.0002ZM10 38.0002H15.423C16.1077 36.2362 17.1892 34.9619 18.6675 34.1772C20.1455 33.3926 21.5897 33.0002 23 33.0002C24.4103 33.0002 25.8545 33.3926 27.3325 34.1772C28.8108 34.9619 29.8923 36.2362 30.577 38.0002H36V27.1157H38.4615C39.0742 27.0387 39.5478 26.7912 39.8825 26.3732C40.2172 25.9552 40.3845 25.4976 40.3845 25.0002C40.3845 24.5029 40.2172 24.0452 39.8825 23.6272C39.5478 23.2092 39.0742 22.9617 38.4615 22.8847H36V12.0002H25.1155V9.53872C25.0385 8.92606 24.791 8.45239 24.373 8.11772C23.955 7.78306 23.4973 7.61572 23 7.61572C22.5027 7.61572 22.045 7.78306 21.627 8.11772C21.209 8.45239 20.9615 8.92606 20.8845 9.53872V12.0002H10V17.4772C11.518 18.1056 12.7308 19.1036 13.6385 20.4712C14.5462 21.8392 15 23.3489 15 25.0002C15 26.6309 14.5462 28.1302 13.6385 29.4982C12.7308 30.8662 11.518 31.8746 10 32.5232V38.0002Z" fill="#474A51"/>
</g>
</svg>
