<svg width="48" height="48" viewBox="0 0 48 48" fill="none" xmlns="http://www.w3.org/2000/svg">
<mask id="mask0_315_106" style="mask-type:alpha" maskUnits="userSpaceOnUse" x="0" y="0" width="48" height="48">
<rect width="48" height="48" fill="#D9D9D9"/>
</mask>
<g mask="url(#mask0_315_106)">
<path d="M15.75 13.4925L21.1575 6.396C21.5192 5.914 21.9462 5.56083 22.4385 5.3365C22.9308 5.11217 23.4513 5 24 5C24.5487 5 25.0692 5.11217 25.5615 5.3365C26.0538 5.56083 26.4808 5.914 26.8425 6.396L32.25 13.4925L40.519 16.2845C41.309 16.5385 41.925 16.9853 42.367 17.625C42.8093 18.2647 43.0305 18.973 43.0305 19.75C43.0305 20.1117 42.9787 20.47 42.875 20.825C42.771 21.18 42.5985 21.5217 42.3575 21.85L36.973 29.323L37.173 37.254C37.2063 38.305 36.8583 39.1922 36.129 39.9155C35.3993 40.6385 34.5525 41 33.5885 41C33.5602 41 33.2255 40.9563 32.5845 40.869L24 38.4075L15.4155 40.869C15.2488 40.9357 15.0783 40.9742 14.904 40.9845C14.7297 40.9948 14.5655 41 14.4115 41C13.4345 41 12.5845 40.6385 11.8615 39.9155C11.1385 39.1922 10.7937 38.305 10.827 37.254L11.027 29.273L5.673 21.85C5.432 21.5217 5.25967 21.18 5.156 20.825C5.052 20.47 5 20.1117 5 19.75C5 18.9937 5.21933 18.2923 5.658 17.646C6.09633 17 6.71033 16.5398 7.5 16.2655L15.75 13.4925ZM17.604 16.077L8.4615 19.123C8.26917 19.187 8.13783 19.3185 8.0675 19.5175C7.99683 19.7162 8.02567 19.8988 8.154 20.0655L14.046 28.381L13.827 37.3155C13.814 37.5335 13.8908 37.7065 14.0575 37.8345C14.2242 37.9628 14.4102 37.995 14.6155 37.931L24 35.296L33.3845 37.981C33.5898 38.045 33.7758 38.0128 33.9425 37.8845C34.1092 37.7565 34.186 37.5835 34.173 37.3655L33.954 28.381L39.846 20.1655C39.9743 19.9988 40.0032 19.8162 39.9325 19.6175C39.8622 19.4185 39.7308 19.287 39.5385 19.223L30.396 16.077L24.481 8.2695C24.3653 8.1025 24.205 8.019 24 8.019C23.795 8.019 23.6347 8.1025 23.519 8.2695L17.604 16.077Z" fill="#474A51"/>
</g>
</svg>
