<svg width="24" height="24" viewBox="0 0 24 24" fill="none" xmlns="http://www.w3.org/2000/svg">
<mask id="mask0_179_73" style="mask-type:alpha" maskUnits="userSpaceOnUse" x="0" y="0" width="24" height="24">
<rect width="24" height="24" fill="#D9D9D9"/>
</mask>
<g mask="url(#mask0_179_73)">
<path d="M12 21.5C10.6858 21.5 9.45083 21.2507 8.295 20.752C7.13917 20.2533 6.13375 19.5766 5.27875 18.7218C4.42375 17.8669 3.74692 16.8617 3.24825 15.706C2.74942 14.5503 2.5 13.3156 2.5 12.0017C2.5 10.6877 2.74933 9.45267 3.248 8.2965C3.74667 7.14033 4.42342 6.13467 5.27825 5.2795C6.13308 4.42433 7.13833 3.74725 8.294 3.24825C9.44967 2.74942 10.6844 2.5 11.9983 2.5C13.3123 2.5 14.5473 2.74942 15.7035 3.24825C16.8597 3.74692 17.8653 4.42375 18.7205 5.27875C19.5757 6.13375 20.2528 7.13917 20.7518 8.295C21.2506 9.45083 21.5 10.6858 21.5 12C21.5 12.45 21.4718 12.8917 21.4153 13.325C21.3589 13.7583 21.2692 14.1833 21.146 14.6C20.964 14.4103 20.7589 14.2478 20.5308 14.1125C20.3026 13.9773 20.0533 13.8827 19.7828 13.8287C19.8584 13.5339 19.9135 13.2349 19.948 12.9318C19.9827 12.6286 20 12.318 20 12C20 9.76667 19.225 7.875 17.675 6.325C16.125 4.775 14.2333 4 12 4C9.76667 4 7.875 4.775 6.325 6.325C4.775 7.875 4 9.76667 4 12C4 14.2333 4.775 16.125 6.325 17.675C7.875 19.225 9.76667 20 12 20C12.8757 20 13.7089 19.8682 14.4998 19.6047C15.2906 19.3412 16.0176 18.9723 16.6807 18.498C16.8359 18.7045 17.0177 18.8904 17.226 19.0557C17.4343 19.2211 17.6603 19.3525 17.9038 19.45C17.0923 20.0948 16.188 20.5977 15.191 20.9585C14.194 21.3195 13.1303 21.5 12 21.5ZM18.3962 17.4603C18.2026 17.2669 18.1058 17.0303 18.1058 16.7505C18.1058 16.4707 18.2023 16.234 18.3955 16.0405C18.5888 15.8468 18.8254 15.75 19.1053 15.75C19.3851 15.75 19.6217 15.8466 19.8153 16.0397C20.0089 16.2331 20.1057 16.4697 20.1057 16.7495C20.1057 17.0293 20.0092 17.266 19.816 17.4595C19.6227 17.6532 19.3861 17.75 19.1063 17.75C18.8264 17.75 18.5898 17.6534 18.3962 17.4603ZM15.473 16.527L11.25 12.3038V7H12.75V11.6962L16.527 15.473L15.473 16.527Z" fill="white"/>
</g>
</svg>
