<svg width="24" height="24" viewBox="0 0 24 24" fill="none" xmlns="http://www.w3.org/2000/svg">
<mask id="mask0_165_150" style="mask-type:alpha" maskUnits="userSpaceOnUse" x="0" y="0" width="24" height="24">
<rect width="24" height="24" fill="#D9D9D9"/>
</mask>
<g mask="url(#mask0_165_150)">
<path d="M17.8845 9.7306L16.8 8.67685L18.65 6.82685H13.1348V5.32685H18.65L16.8307 3.5076L17.8845 2.42285L21.5385 6.1076L17.8845 9.7306ZM19.4402 20.4999C17.5557 20.4999 15.6625 20.0617 13.7605 19.1854C11.8587 18.309 10.1097 17.0729 8.5135 15.4769C6.92383 13.8807 5.69083 12.1332 4.8145 10.2344C3.93817 8.33569 3.5 6.4441 3.5 4.5596C3.5 4.2596 3.6 4.00794 3.8 3.8046C4 3.60144 4.25 3.49985 4.55 3.49985H7.8115C8.064 3.49985 8.28675 3.58227 8.47975 3.7471C8.67275 3.91177 8.7955 4.11527 8.848 4.3576L9.42125 7.29985C9.46092 7.57285 9.45258 7.80744 9.39625 8.0036C9.33975 8.19977 9.23842 8.36452 9.09225 8.49785L6.78275 10.7461C7.15442 11.4268 7.57908 12.0707 8.05675 12.6779C8.53425 13.2849 9.05125 13.8646 9.60775 14.4171C10.1564 14.9659 10.7397 15.4756 11.3577 15.9461C11.9757 16.4166 12.6431 16.8544 13.3598 17.2596L15.6038 14.9961C15.7603 14.8333 15.9498 14.7191 16.1723 14.6536C16.3946 14.5883 16.6257 14.5723 16.8655 14.6056L19.6423 15.1711C19.8948 15.2378 20.1008 15.3666 20.2605 15.5576C20.4202 15.7486 20.5 15.9653 20.5 16.2076V19.4499C20.5 19.7499 20.3984 19.9999 20.1952 20.1999C19.9919 20.3999 19.7402 20.4999 19.4402 20.4999ZM6.073 9.32685L7.85775 7.6191C7.88975 7.59344 7.91058 7.55819 7.92025 7.51335C7.92992 7.46852 7.92833 7.42685 7.9155 7.38835L7.48075 5.1536C7.46792 5.10244 7.4455 5.06402 7.4135 5.03835C7.3815 5.01269 7.33983 4.99985 7.2885 4.99985H5.15C5.1115 4.99985 5.07942 5.01269 5.05375 5.03835C5.02825 5.06402 5.0155 5.0961 5.0155 5.1346C5.06667 5.81794 5.1785 6.5121 5.351 7.2171C5.52333 7.92227 5.764 8.62552 6.073 9.32685ZM14.773 17.9691C15.4358 18.2781 16.1272 18.5144 16.847 18.6779C17.567 18.8412 18.2397 18.9383 18.8652 18.9691C18.9037 18.9691 18.9358 18.9563 18.9615 18.9306C18.9872 18.9049 19 18.8729 19 18.8344V16.7306C19 16.6793 18.9872 16.6376 18.9615 16.6056C18.9358 16.5736 18.8974 16.5512 18.8462 16.5384L16.7462 16.1114C16.7077 16.0985 16.6741 16.0969 16.6453 16.1066C16.6164 16.1163 16.5859 16.1371 16.5538 16.1691L14.773 17.9691Z" fill="white"/>
</g>
</svg>
