<svg width="32" height="32" viewBox="0 0 32 32" fill="none" xmlns="http://www.w3.org/2000/svg">
<path fill-rule="evenodd" clip-rule="evenodd" d="M16.2868 28.957C13.6785 28.957 12.4665 28.5804 10.3658 27.0742C9.02862 28.7689 4.82018 30.0873 4.6349 27.8274C4.6349 26.1341 4.24924 24.7076 3.82389 23.1377C3.30335 21.2138 2.72437 19.0739 2.72437 15.9637C2.72437 8.54814 8.89763 2.96973 16.2181 2.96973C23.5365 2.96973 29.2756 8.81925 29.2756 16.0359C29.2756 23.2516 23.3536 28.9573 16.2866 28.9573L16.2868 28.957ZM16.3925 9.38151C12.8309 9.19755 10.0519 11.6325 9.43887 15.4437C8.93075 18.6005 9.83111 22.4462 10.6007 22.6396C10.964 22.7309 11.8936 21.9897 12.4662 21.4251C13.4092 22.0272 14.4905 22.494 15.6927 22.5554C19.3497 22.7442 22.5894 19.9247 22.7815 16.3215C22.9733 12.7184 20.0494 9.5703 16.393 9.38151H16.3925Z" fill="#669999"/>
</svg>
