<svg width="32" height="32" viewBox="0 0 32 32" fill="none" xmlns="http://www.w3.org/2000/svg">
<path d="M22.1161 17.9023C22.0664 17.8785 20.2082 16.9634 19.878 16.8446C19.7432 16.7962 19.5988 16.7489 19.4452 16.7489C19.1943 16.7489 18.9835 16.874 18.8193 17.1196C18.6337 17.3955 18.0717 18.0523 17.8981 18.2486C17.8754 18.2745 17.8445 18.3054 17.826 18.3054C17.8093 18.3054 17.5217 18.187 17.4347 18.1492C15.4413 17.2833 13.9283 15.201 13.7208 14.8499C13.6912 14.7994 13.6899 14.7765 13.6897 14.7765C13.6969 14.7498 13.764 14.6826 13.7986 14.6479C13.8998 14.5477 14.0094 14.4157 14.1155 14.2881C14.1658 14.2276 14.2161 14.167 14.2655 14.1099C14.4194 13.9308 14.4879 13.7918 14.5674 13.6307L14.609 13.547C14.803 13.1616 14.6373 12.8364 14.5838 12.7314C14.5398 12.6435 13.7552 10.7499 13.6718 10.5509C13.4712 10.0708 13.2061 9.8473 12.8378 9.8473C12.8036 9.8473 12.8378 9.8473 12.6944 9.85334C12.5199 9.86071 11.5694 9.98584 11.1492 10.2507C10.7035 10.5317 9.94962 11.4273 9.94962 13.0023C9.94962 14.4199 10.8492 15.7583 11.2354 16.2674C11.245 16.2802 11.2626 16.3063 11.2882 16.3437C12.7673 18.5038 14.6112 20.1046 16.4805 20.8514C18.28 21.5702 19.1322 21.6533 19.6167 21.6533C19.8202 21.6533 19.9833 21.6373 20.127 21.6232L20.2182 21.6145C20.8399 21.5593 22.206 20.8514 22.5168 19.9879C22.7616 19.3077 22.8261 18.5645 22.6633 18.2948C22.5517 18.1114 22.3595 18.0192 22.1161 17.9023Z" fill="#669999"/>
<path d="M16.2263 3.25586C9.32298 3.25586 3.70674 8.82989 3.70674 15.6813C3.70674 17.8973 4.29978 20.0664 5.42321 21.9649L3.27293 28.3078C3.23287 28.426 3.26267 28.5568 3.35014 28.6458C3.41328 28.7103 3.49894 28.7451 3.58641 28.7451C3.61993 28.7451 3.65369 28.74 3.68663 28.7295L10.3006 26.6278C12.1105 27.5948 14.1561 28.1053 16.2263 28.1053C23.129 28.1054 28.7446 22.5319 28.7446 15.6813C28.7446 8.82989 23.129 3.25586 16.2263 3.25586ZM16.2263 25.517C14.2782 25.517 12.3914 24.9545 10.7696 23.8903C10.715 23.8545 10.6517 23.8361 10.588 23.8361C10.5543 23.8361 10.5206 23.8412 10.4877 23.8516L7.17452 24.9048L8.24407 21.7494C8.27866 21.6472 8.26137 21.5346 8.19764 21.4475C6.96258 19.76 6.3097 17.7661 6.3097 15.6813C6.3097 10.2571 10.7582 5.84417 16.2262 5.84417C21.6934 5.84417 26.1415 10.2571 26.1415 15.6813C26.1416 21.1048 21.6936 25.517 16.2263 25.517Z" fill="#669999"/>
</svg>
