<svg xmlns="http://www.w3.org/2000/svg" style="display: none;">

	<!-- Icon Arrow Outward -->
	<symbol id="icon-arrow-outward" viewBox="0 0 32 32" fill="none">
		<path
			d="M8.5549 8.00021L7.16766 9.39255L20.2403 22.5259H8.35563V24.5259H23.6328V9.19255H21.6401V21.1209L8.5549 8.00021Z"
			fill="currentColor" />
	</symbol>

	<!-- Icon Check -->
	<symbol id="icon-check" viewBox="0 0 24 24" fill="none">
		<path
			d="M9.55 17.6538L4.2155 12.3193L5.2845 11.2501L9.55 15.5156L18.7155 6.3501L19.7845 7.41935L9.55 17.6538Z"
			fill="currentColor" />
	</symbol>

	<!-- Icon Close -->
	<symbol id="icon-close" viewBox="0 0 32 32" fill="none">
		<path
			d="M8.53333 24.8717L7.12833 23.4667L14.595 16L7.12833 8.53336L8.53333 7.12836L16 14.595L23.4667 7.12836L24.8717 8.53336L17.405 16L24.8717 23.4667L23.4667 24.8717L16 17.405L8.53333 24.8717Z"
			fill="currentColor" />
	</symbol>

	<!-- Icon Email -->
	<symbol id="icon-email" viewBox="0 0 24 24" fill="none">
		<path
			d="M12 21.5C10.6872 21.5 9.45292 21.2503 8.29725 20.751C7.14142 20.2517 6.13592 19.5744 5.28075 18.7193C4.42558 17.8641 3.74833 16.8586 3.249 15.7028C2.74967 14.5471 2.5 13.3128 2.5 12C2.5 10.6872 2.74967 9.45292 3.249 8.29725C3.74833 7.14142 4.42558 6.13592 5.28075 5.28075C6.13592 4.42558 7.14142 3.74833 8.29725 3.249C9.45292 2.74967 10.6872 2.5 12 2.5C13.3128 2.5 14.5471 2.74967 15.7028 3.249C16.8586 3.74833 17.8641 4.42558 18.7193 5.28075C19.5744 6.13592 20.2517 7.14142 20.751 8.29725C21.2503 9.45292 21.5 10.6872 21.5 12V13.2192C21.5 14.1321 21.1865 14.9071 20.5595 15.5443C19.9327 16.1814 19.1628 16.5 18.25 16.5C17.6602 16.5 17.1133 16.3558 16.6095 16.0673C16.1057 15.7788 15.7076 15.3819 15.4152 14.8767C14.9832 15.3923 14.4727 15.7917 13.8837 16.075C13.2946 16.3583 12.6667 16.5 12 16.5C10.7513 16.5 9.68917 16.0622 8.8135 15.1865C7.93783 14.3108 7.5 13.2487 7.5 12C7.5 10.7513 7.93783 9.68917 8.8135 8.8135C9.68917 7.93783 10.7513 7.5 12 7.5C13.2487 7.5 14.3108 7.93783 15.1865 8.8135C16.0622 9.68917 16.5 10.7513 16.5 12V13.2192C16.5 13.7102 16.6689 14.1298 17.0068 14.478C17.3446 14.826 17.759 15 18.25 15C18.741 15 19.1554 14.826 19.4932 14.478C19.8311 14.1298 20 13.7102 20 13.2192V12C20 9.76667 19.225 7.875 17.675 6.325C16.125 4.775 14.2333 4 12 4C9.76667 4 7.875 4.775 6.325 6.325C4.775 7.875 4 9.76667 4 12C4 14.2333 4.775 16.125 6.325 17.675C7.875 19.225 9.76667 20 12 20H17V21.5H12ZM14.125 14.125C14.7083 13.5417 15 12.8333 15 12C15 11.1667 14.7083 10.4583 14.125 9.875C13.5417 9.29167 12.8333 9 12 9C11.1667 9 10.4583 9.29167 9.875 9.875C9.29167 10.4583 9 11.1667 9 12C9 12.8333 9.29167 13.5417 9.875 14.125C10.4583 14.7083 11.1667 15 12 15C12.8333 15 13.5417 14.7083 14.125 14.125Z"
			fill="currentColor" />
	</symbol>

	<!-- Icon Location -->
	<symbol id="icon-location" viewBox="0 0 24 24" fill="none">
		<path
			d="M13.2777 11.3355C13.6311 10.9823 13.8077 10.5564 13.8077 10.0578C13.8077 9.55908 13.6311 9.13308 13.2777 8.77975C12.9246 8.42658 12.4987 8.25 12 8.25C11.5013 8.25 11.0754 8.42658 10.7222 8.77975C10.3689 9.13308 10.1922 9.55908 10.1922 10.0578C10.1922 10.5564 10.3689 10.9823 10.7222 11.3355C11.0754 11.6887 11.5013 11.8652 12 11.8652C12.4987 11.8652 12.9246 11.6887 13.2777 11.3355ZM12 19.5135C13.9563 17.7622 15.4534 16.0823 16.4912 14.474C17.5291 12.8657 18.048 11.457 18.048 10.248C18.048 8.425 17.4688 6.92633 16.3105 5.752C15.1522 4.57767 13.7153 3.9905 12 3.9905C10.2847 3.9905 8.84783 4.57767 7.6895 5.752C6.53116 6.92633 5.952 8.425 5.952 10.248C5.952 11.457 6.47091 12.8657 7.50875 14.474C8.54658 16.0823 10.0437 17.7622 12 19.5135ZM12 21.5095C9.48333 19.3288 7.59616 17.2994 6.3385 15.4212C5.08083 13.5429 4.452 11.8185 4.452 10.248C4.452 7.94033 5.19841 6.07208 6.69125 4.64325C8.18425 3.21442 9.95383 2.5 12 2.5C14.0462 2.5 15.8157 3.21442 17.3087 4.64325C18.8016 6.07208 19.548 7.94033 19.548 10.248C19.548 11.8185 18.9192 13.5429 17.6615 15.4212C16.4038 17.2994 14.5167 19.3288 12 21.5095Z"
			fill="currentColor" />
	</symbol>

	<!-- Icon Menu -->
	<symbol id="icon-menu" viewBox="0 0 32 32" fill="none">
		<path
			d="M4.66666 9.33333V7.33333H27.3333V9.33333H4.66666ZM4.66666 24.6667V22.6667H27.3333V24.6667H4.66666ZM4.66666 17V15H27.3333V17H4.66666Z"
			fill="currentColor" />
	</symbol>

	<!-- Icon Minus -->
	<symbol id="icon-minus" viewBox="0 0 24 24" fill="none">
		<path d="M5.5 12.75V11.25H18.5V12.75H5.5Z" fill="currentColor" />
	</symbol>

	<!-- Icon Pace -->
	<symbol id="icon-pace" viewBox="0 0 24 24" fill="none">
		<path
			d="M12 21.5C10.6858 21.5 9.45083 21.2507 8.295 20.752C7.13917 20.2533 6.13375 19.5766 5.27875 18.7218C4.42375 17.8669 3.74692 16.8617 3.24825 15.706C2.74942 14.5503 2.5 13.3156 2.5 12.0017C2.5 10.6877 2.74933 9.45267 3.248 8.2965C3.74667 7.14033 4.42342 6.13467 5.27825 5.2795C6.13308 4.42433 7.13833 3.74725 8.294 3.24825C9.44967 2.74942 10.6844 2.5 11.9983 2.5C13.3123 2.5 14.5473 2.74942 15.7035 3.24825C16.8597 3.74692 17.8653 4.42375 18.7205 5.27875C19.5757 6.13375 20.2528 7.13917 20.7518 8.295C21.2506 9.45083 21.5 10.6858 21.5 12C21.5 12.45 21.4718 12.8917 21.4153 13.325C21.3589 13.7583 21.2692 14.1833 21.146 14.6C20.964 14.4103 20.7589 14.2478 20.5308 14.1125C20.3026 13.9773 20.0533 13.8827 19.7828 13.8287C19.8584 13.5339 19.9135 13.2349 19.948 12.9318C19.9827 12.6286 20 12.318 20 12C20 9.76667 19.225 7.875 17.675 6.325C16.125 4.775 14.2333 4 12 4C9.76667 4 7.875 4.775 6.325 6.325C4.775 7.875 4 9.76667 4 12C4 14.2333 4.775 16.125 6.325 17.675C7.875 19.225 9.76667 20 12 20C12.8757 20 13.7089 19.8682 14.4998 19.6047C15.2906 19.3412 16.0176 18.9723 16.6807 18.498C16.8359 18.7045 17.0177 18.8904 17.226 19.0557C17.4343 19.2211 17.6603 19.3525 17.9038 19.45C17.0923 20.0948 16.188 20.5977 15.191 20.9585C14.194 21.3195 13.1303 21.5 12 21.5ZM18.3962 17.4603C18.2026 17.2669 18.1058 17.0303 18.1058 16.7505C18.1058 16.4707 18.2023 16.234 18.3955 16.0405C18.5888 15.8468 18.8254 15.75 19.1053 15.75C19.3851 15.75 19.6217 15.8466 19.8153 16.0397C20.0089 16.2331 20.1057 16.4697 20.1057 16.7495C20.1057 17.0293 20.0092 17.266 19.816 17.4595C19.6227 17.6532 19.3861 17.75 19.1063 17.75C18.8264 17.75 18.5898 17.6534 18.3962 17.4603ZM15.473 16.527L11.25 12.3038V7H12.75V11.6962L16.527 15.473L15.473 16.527Z"
			fill="currentColor" />
	</symbol>

	<!-- Icon Phone Forwarded -->
	<symbol id="icon-phone-forwarded" viewBox="0 0 24 24" fill="none">
		<path
			d="M17.8845 9.7306L16.8 8.67685L18.65 6.82685H13.1348V5.32685H18.65L16.8307 3.5076L17.8845 2.42285L21.5385 6.1076L17.8845 9.7306ZM19.4402 20.4999C17.5557 20.4999 15.6625 20.0617 13.7605 19.1854C11.8587 18.309 10.1097 17.0729 8.5135 15.4769C6.92383 13.8807 5.69083 12.1332 4.8145 10.2344C3.93817 8.33569 3.5 6.4441 3.5 4.5596C3.5 4.2596 3.6 4.00794 3.8 3.8046C4 3.60144 4.25 3.49985 4.55 3.49985H7.8115C8.064 3.49985 8.28675 3.58227 8.47975 3.7471C8.67275 3.91177 8.7955 4.11527 8.848 4.3576L9.42125 7.29985C9.46092 7.57285 9.45258 7.80744 9.39625 8.0036C9.33975 8.19977 9.23842 8.36452 9.09225 8.49785L6.78275 10.7461C7.15442 11.4268 7.57908 12.0707 8.05675 12.6779C8.53425 13.2849 9.05125 13.8646 9.60775 14.4171C10.1564 14.9659 10.7397 15.4756 11.3577 15.9461C11.9757 16.4166 12.6431 16.8544 13.3598 17.2596L15.6038 14.9961C15.7603 14.8333 15.9498 14.7191 16.1723 14.6536C16.3946 14.5883 16.6257 14.5723 16.8655 14.6056L19.6423 15.1711C19.8948 15.2378 20.1008 15.3666 20.2605 15.5576C20.4202 15.7486 20.5 15.9653 20.5 16.2076V19.4499C20.5 19.7499 20.3984 19.9999 20.1952 20.1999C19.9919 20.3999 19.7402 20.4999 19.4402 20.4999ZM6.073 9.32685L7.85775 7.6191C7.88975 7.59344 7.91058 7.55819 7.92025 7.51335C7.92992 7.46852 7.92833 7.42685 7.9155 7.38835L7.48075 5.1536C7.46792 5.10244 7.4455 5.06402 7.4135 5.03835C7.3815 5.01269 7.33983 4.99985 7.2885 4.99985H5.15C5.1115 4.99985 5.07942 5.01269 5.05375 5.03835C5.02825 5.06402 5.0155 5.0961 5.0155 5.1346C5.06667 5.81794 5.1785 6.5121 5.351 7.2171C5.52333 7.92227 5.764 8.62552 6.073 9.32685ZM14.773 17.9691C15.4358 18.2781 16.1272 18.5144 16.847 18.6779C17.567 18.8412 18.2397 18.9383 18.8652 18.9691C18.9037 18.9691 18.9358 18.9563 18.9615 18.9306C18.9872 18.9049 19 18.8729 19 18.8344V16.7306C19 16.6793 18.9872 16.6376 18.9615 16.6056C18.9358 16.5736 18.8974 16.5512 18.8462 16.5384L16.7462 16.1114C16.7077 16.0985 16.6741 16.0969 16.6453 16.1066C16.6164 16.1163 16.5859 16.1371 16.5538 16.1691L14.773 17.9691Z"
			fill="currentColor" />
	</symbol>

	<!-- Icon Plus -->
	<symbol id="icon-plus" viewBox="0 0 24 24" fill="none">
		<path d="M11.25 12.75H5.5V11.25H11.25V5.5H12.75V11.25H18.5V12.75H12.75V18.5H11.25V12.75Z"
			fill="currentColor" />
	</symbol>

	<!-- Icon Social Max -->
	<symbol id="icon-social-max" viewBox="0 0 32 32" fill="none">
		<path fill-rule="evenodd" clip-rule="evenodd"
			d="M16.2868 28.957C13.6785 28.957 12.4665 28.5804 10.3658 27.0742C9.02862 28.7689 4.82018 30.0873 4.6349 27.8274C4.6349 26.1341 4.24924 24.7076 3.82389 23.1377C3.30335 21.2138 2.72437 19.0739 2.72437 15.9637C2.72437 8.54814 8.89763 2.96973 16.2181 2.96973C23.5365 2.96973 29.2756 8.81925 29.2756 16.0359C29.2756 23.2516 23.3536 28.9573 16.2866 28.9573L16.2868 28.957ZM16.3925 9.38151C12.8309 9.19755 10.0519 11.6325 9.43887 15.4437C8.93075 18.6005 9.83111 22.4462 10.6007 22.6396C10.964 22.7309 11.8936 21.9897 12.4662 21.4251C13.4092 22.0272 14.4905 22.494 15.6927 22.5554C19.3497 22.7442 22.5894 19.9247 22.7815 16.3215C22.9733 12.7184 20.0494 9.5703 16.393 9.38151H16.3925Z"
			fill="currentColor" />
	</symbol>

	<!-- Icon Social Telegram -->
	<symbol id="icon-social-telegram" viewBox="0 0 32 32" fill="none">
		<path
			d="M12.7086 20.0549L12.2026 27.1714C12.9265 27.1714 13.24 26.8605 13.616 26.4871L17.01 23.2436L24.0426 28.3936C25.3324 29.1124 26.2411 28.7339 26.589 27.2071L31.2052 5.57715L31.2065 5.57588C31.6156 3.6693 30.517 2.92374 29.2603 3.39147L2.12652 13.7795C0.274688 14.4983 0.302727 15.5306 1.81172 15.9983L8.74875 18.156L24.8621 8.0738C25.6204 7.57166 26.3099 7.84949 25.7428 8.35163L12.7086 20.0549Z"
			fill="currentColor" />
	</symbol>

	<!-- Icon Social WhatsApp -->
	<symbol id="icon-social-whatsapp" viewBox="0 0 32 32" fill="none">
		<path
			d="M22.1161 17.9023C22.0664 17.8785 20.2082 16.9634 19.878 16.8446C19.7432 16.7962 19.5988 16.7489 19.4452 16.7489C19.1943 16.7489 18.9835 16.874 18.8193 17.1196C18.6337 17.3955 18.0717 18.0523 17.8981 18.2486C17.8754 18.2745 17.8445 18.3054 17.826 18.3054C17.8093 18.3054 17.5217 18.187 17.4347 18.1492C15.4413 17.2833 13.9283 15.201 13.7208 14.8499C13.6912 14.7994 13.6899 14.7765 13.6897 14.7765C13.6969 14.7498 13.764 14.6826 13.7986 14.6479C13.8998 14.5477 14.0094 14.4157 14.1155 14.2881C14.1658 14.2276 14.2161 14.167 14.2655 14.1099C14.4194 13.9308 14.4879 13.7918 14.5674 13.6307L14.609 13.547C14.803 13.1616 14.6373 12.8364 14.5838 12.7314C14.5398 12.6435 13.7552 10.7499 13.6718 10.5509C13.4712 10.0708 13.2061 9.8473 12.8378 9.8473C12.8036 9.8473 12.8378 9.8473 12.6944 9.85334C12.5199 9.86071 11.5694 9.98584 11.1492 10.2507C10.7035 10.5317 9.94962 11.4273 9.94962 13.0023C9.94962 14.4199 10.8492 15.7583 11.2354 16.2674C11.245 16.2802 11.2626 16.3063 11.2882 16.3437C12.7673 18.5038 14.6112 20.1046 16.4805 20.8514C18.28 21.5702 19.1322 21.6533 19.6167 21.6533C19.8202 21.6533 19.9833 21.6373 20.127 21.6232L20.2182 21.6145C20.8399 21.5593 22.206 20.8514 22.5168 19.9879C22.7616 19.3077 22.8261 18.5645 22.6633 18.2948C22.5517 18.1114 22.3595 18.0192 22.1161 17.9023Z"
			fill="currentColor" />
		<path
			d="M16.2263 3.25586C9.32298 3.25586 3.70674 8.82989 3.70674 15.6813C3.70674 17.8973 4.29978 20.0664 5.42321 21.9649L3.27293 28.3078C3.23287 28.426 3.26267 28.5568 3.35014 28.6458C3.41328 28.7103 3.49894 28.7451 3.58641 28.7451C3.61993 28.7451 3.65369 28.74 3.68663 28.7295L10.3006 26.6278C12.1105 27.5948 14.1561 28.1053 16.2263 28.1053C23.129 28.1054 28.7446 22.5319 28.7446 15.6813C28.7446 8.82989 23.129 3.25586 16.2263 3.25586ZM16.2263 25.517C14.2782 25.517 12.3914 24.9545 10.7696 23.8903C10.715 23.8545 10.6517 23.8361 10.588 23.8361C10.5543 23.8361 10.5206 23.8412 10.4877 23.8516L7.17452 24.9048L8.24407 21.7494C8.27866 21.6472 8.26137 21.5346 8.19764 21.4475C6.96258 19.76 6.3097 17.7661 6.3097 15.6813C6.3097 10.2571 10.7582 5.84417 16.2262 5.84417C21.6934 5.84417 26.1415 10.2571 26.1415 15.6813C26.1416 21.1048 21.6936 25.517 16.2263 25.517Z"
			fill="currentColor" />
	</symbol>
</svg>