<svg width="500" height="500" viewBox="0 0 500 500" fill="none" xmlns="http://www.w3.org/2000/svg">
<rect width="500" height="500" rx="80" fill="white"/>
<path d="M78.2266 238.113H115.062C114.102 229.358 111.165 222.098 106.254 216.332C101.396 210.513 94.776 207.604 86.3945 207.604C80.0417 207.604 74.7031 209.365 70.3789 212.889C66.0547 216.412 63.0117 221.083 61.25 226.902L37.7871 221.537C40.1895 211.127 45.4746 202.799 53.6426 196.553C61.8639 190.253 72.541 187.104 85.6738 187.104C102.757 187.104 116.104 192.789 125.713 204.16C135.322 215.478 140.127 230.239 140.127 248.443C140.127 260.829 137.885 271.479 133.4 280.395C128.969 289.31 122.857 296.223 115.062 301.135C107.268 306.046 97.8724 308.502 86.875 308.502C60.1289 308.502 43.6595 295.93 37.4668 270.785L61.25 263.418C62.4779 271.906 65.4941 278.206 70.2988 282.316C75.1569 286.374 80.9492 288.402 87.6758 288.402C94.6159 288.402 100.542 285.973 105.453 281.115C110.418 276.257 113.621 268.49 115.062 257.812H78.2266V238.113Z" fill="#669999"/>
<path d="M159.752 189.105H253.123V306.5H229.42V208.805H183.455V306.5H159.752V189.105Z" fill="#669999"/>
<path d="M294.258 221.137L271.195 215.771C276.16 196.66 290.281 187.104 313.557 187.104C327.33 187.104 337.714 190.146 344.707 196.232C351.754 202.265 355.277 209.365 355.277 217.533C355.277 223.139 353.676 228.21 350.473 232.748C347.27 237.232 342.465 241.183 336.059 244.6C343.853 247.269 349.699 251.059 353.596 255.971C357.493 260.829 359.441 266.835 359.441 273.988C359.441 284.292 355.651 292.62 348.07 298.973C340.543 305.326 329.252 308.502 314.197 308.502C301.919 308.502 292.229 306.473 285.129 302.416C278.029 298.305 272.69 290.645 269.113 279.434L290.814 272.307C293.057 279.354 296.02 283.918 299.703 286C303.44 288.082 308.031 289.123 313.477 289.123C320.951 289.123 326.396 287.521 329.812 284.318C333.229 281.062 334.938 277.352 334.938 273.188C334.938 268.383 332.989 264.512 329.092 261.576C325.248 258.64 319.429 257.172 311.635 257.172H306.27V239.475H308.992C316.253 239.475 321.805 237.846 325.648 234.59C329.492 231.333 331.414 227.009 331.414 221.617C331.414 217.346 329.839 213.743 326.689 210.807C323.593 207.87 319.135 206.402 313.316 206.402C303.387 206.402 297.034 211.314 294.258 221.137Z" fill="#669999"/>
<path d="M381.283 189.105H404.986V239.074C410.271 238.54 413.848 237.179 415.717 234.99C417.585 232.801 420.468 226.715 424.365 216.732C429.277 204.027 434.215 196.126 439.18 193.029C444.091 189.933 452.019 188.385 462.963 188.385C463.497 188.385 464.645 188.358 466.406 188.305V205.842L463.043 205.762C458.185 205.762 454.635 206.376 452.393 207.604C450.15 208.778 448.335 210.593 446.947 213.049C445.559 215.505 443.504 220.549 440.781 228.184C439.34 232.241 437.765 235.631 436.057 238.354C434.402 241.076 431.439 243.639 427.168 246.041C432.453 247.536 436.804 250.552 440.221 255.09C443.691 259.628 447.481 266.034 451.592 274.309L467.607 306.5H439.74L425.727 276.15C425.513 275.723 425.059 274.896 424.365 273.668C424.098 273.241 423.111 271.399 421.402 268.143C418.359 262.377 415.85 258.773 413.875 257.332C411.953 255.891 408.99 255.143 404.986 255.09V306.5H381.283V189.105Z" fill="#669999"/>
</svg>
